<svg width="93" height="50" viewBox="0 0 93 50" fill="none" xmlns="http://www.w3.org/2000/svg">
<path d="M91.8 48.7H90.3L90 37.7C90.3 37.7 90.5 37.5 90.5 37.2C90.5 36.9 90.3 36.7 90 36.7H89.9L89.5 24.7H89.7C90 24.7 90.2 24.5 90.2 24.2C90.2 23.9 90 23.7 89.7 23.7H89.5L89.3 15.7C89.6 15.7 89.8 15.5 89.8 15.2C89.8 14.9 89.6 14.7 89.3 14.7V13.6C89.3 13 89 12.4 88.5 12.1L88.3 12V11.3C88.3 11 88.1 10.8 87.8 10.8C87.5 10.8 87.3 11 87.3 11.3V12L87.2 12.1C86.7 12.4 86.4 13 86.4 13.6V14.7C86.1 14.7 85.9 14.9 85.9 15.2C85.9 15.5 86.1 15.7 86.4 15.7L86.2 23.7H86C85.7 23.7 85.5 23.9 85.5 24.2C85.5 24.5 85.7 24.7 86 24.7L85.6 36.7H85.5C85.2 36.7 85 36.9 85 37.2C85 37.5 85.2 37.7 85.5 37.7H85.6L85.3 48.7H85H81.3L81 41.7C81.3 41.7 81.5 41.5 81.5 41.2C81.5 40.9 81.3 40.7 81 40.7H80.9L80.6 33.7H80.7C81 33.7 81.2 33.5 81.2 33.2C81.2 32.9 81 32.7 80.7 32.7H80.5L80.2 25.7C80.5 25.7 80.7 25.5 80.7 25.2C80.7 24.9 80.5 24.7 80.2 24.7V23.6C80.2 23 79.9 22.4 79.4 22.1L79.3 22V21.3C79.3 21 79.1 20.8 78.8 20.8C78.5 20.8 78.3 21 78.3 21.3V22L78.2 22.1C77.7 22.4 77.4 23 77.4 23.6V24.7C77.1 24.7 76.9 24.9 76.9 25.2C76.9 25.5 77.1 25.7 77.4 25.7L77.1 32.7H76.9C76.6 32.7 76.4 32.9 76.4 33.2C76.4 33.5 76.6 33.7 76.9 33.7H77.1L76.8 40.7H76.7C76.4 40.7 76.2 40.9 76.2 41.2C76.2 41.5 76.4 41.7 76.7 41.7H76.8L76.5 48.8H72.5V26.8V26.3V23.3C72.5 23 72.3 22.8 72 22.8C71.7 22.8 71.5 23 71.5 23.3V25.8H70.5V24.8C70.5 24.5 70.3 24.3 70 24.3C69.7 24.3 69.5 24.5 69.5 24.8V25.8H65H63.5V23.6L63.6 23.3C64.4 21.8 64 20 62.6 19.1L60.9 18V16.4C60.9 16.1 60.7 15.9 60.4 15.9C60.1 15.9 59.9 16.1 59.9 16.4V18.1L58.2 19C56.8 19.9 56.4 21.8 57.2 23.2L57.3 23.3V25.7H56.3V24.2V21.2V21.1C58.4 16.6 57.1 11.1 53 8.19999L46.8 3.99999V1.29999C46.8 0.999988 46.6 0.799988 46.3 0.799988C46 0.799988 45.8 0.999988 45.8 1.29999V3.99999L39.6 8.29999C35.5 11.2 34.1 16.6 36.3 21.2V21.3V24.3V25.8H35.3V23.4L35.4 23.3C36.2 21.8 35.8 20 34.4 19.1L32.8 18V16.3C32.8 16 32.6 15.8 32.3 15.8C32 15.8 31.8 16 31.8 16.3V17.9L30.1 19C28.7 19.9 28.3 21.8 29.1 23.2L29.2 23.5V25.7H27.7H23.2V24.7C23.2 24.4 23 24.2 22.7 24.2C22.4 24.2 22.2 24.4 22.2 24.7V25.7H21.2V23.2C21.2 22.9 21 22.7 20.7 22.7C20.4 22.7 20.2 22.9 20.2 23.2V26.2V26.7V48.7H16.2L16 41.7C16.3 41.7 16.5 41.5 16.5 41.2C16.5 40.9 16.3 40.7 16 40.7H15.9L15.6 33.7H15.8C16.1 33.7 16.3 33.5 16.3 33.2C16.3 32.9 16.1 32.7 15.8 32.7H15.6L15.3 25.7C15.6 25.7 15.8 25.5 15.8 25.2C15.8 24.9 15.6 24.7 15.3 24.7V23.6C15.3 23 15 22.4 14.5 22.1L14.3 22V21.3C14.3 21 14.1 20.8 13.8 20.8C13.5 20.8 13.3 21 13.3 21.3V22L13.1 22.1C12.6 22.4 12.3 23 12.3 23.6V24.7C12 24.7 11.8 24.9 11.8 25.2C11.8 25.5 12 25.7 12.3 25.7L12 32.7H11.8C11.5 32.7 11.3 32.9 11.3 33.2C11.3 33.5 11.5 33.7 11.8 33.7H11.9L11.6 40.7H11.5C11.2 40.7 11 40.9 11 41.2C11 41.5 11.2 41.7 11.5 41.7L11.2 48.8H9.99999H7.29999L6.99999 37.8C7.29999 37.8 7.49999 37.6 7.49999 37.3C7.49999 37 7.29999 36.8 6.99999 36.8H6.89999L6.49999 24.8H6.69999C6.99999 24.8 7.19999 24.6 7.19999 24.3C7.19999 24 6.99999 23.8 6.69999 23.8H6.49999L6.29999 15.8C6.59999 15.8 6.79999 15.6 6.79999 15.3C6.79999 15 6.59999 14.8 6.29999 14.8V13.7C6.29999 13.1 5.99999 12.5 5.49999 12.2L5.29999 12V11.3C5.29999 11 5.09999 10.8 4.79999 10.8C4.49999 10.8 4.29999 11 4.29999 11.2V12L4.09999 12.1C3.59999 12.4 3.29999 13 3.29999 13.6V14.7C2.99999 14.7 2.79999 14.9 2.79999 15.2C2.79999 15.5 2.99999 15.7 3.29999 15.7L3.09999 23.7H2.79999C2.49999 23.7 2.29999 23.9 2.29999 24.2C2.29999 24.5 2.49999 24.7 2.79999 24.7H2.99999L2.59999 36.7H2.49999C2.29999 36.7 1.99999 37 1.99999 37.2C1.99999 37.4 2.19999 37.7 2.49999 37.7H2.59999L2.29999 48.7H0.799988C0.499988 48.7 0.299988 48.9 0.299988 49.2C0.299988 49.5 0.499988 49.7 0.799988 49.7H2.79999H6.79999H9.99999H11.8H15.8H20.8H22.8H25.8H27.8H29.8H34.8H36.8H43.8H48.8H55.8H64.8H66.8H69.8H71.8H76.8H80.8H85H85.8H89.8H91.8C92.1 49.7 92.3 49.5 92.3 49.2C92.3 48.9 92.1 48.7 91.8 48.7ZM4.69999 12.9L4.79999 12.8L4.89999 12.9C5.09999 13.1 5.29999 13.3 5.29999 13.6V14.7H4.29999V13.6C4.29999 13.3 4.39999 13.1 4.69999 12.9ZM4.29999 15.7H5.29999L5.49999 23.7H3.99999L4.29999 15.7ZM3.99999 24.7H5.59999L5.99999 36.7H3.59999L3.99999 24.7ZM3.29999 48.7L3.59999 37.7H5.89999L6.19999 48.7H3.29999ZM78.3 23.6C78.3 23.3 78.4 23.1 78.7 22.9L78.8 22.8L78.9 22.9C79.1 23.1 79.3 23.3 79.3 23.6V24.7H78.3V23.6ZM78.3 25.7H79.3L79.6 32.6H78L78.3 25.7ZM77.9 33.7H79.6L79.9 40.7H77.6L77.9 33.7ZM69.3 37.7H67.3V32.3C67.3 31.8 67.6 31.3 68 31L68.3 30.8L68.6 31C69 31.3 69.3 31.7 69.3 32.3V37.7ZM69.1 30.2L68.5 29.8C68.3 29.7 68.1 29.7 68 29.8L67.4 30.2C66.7 30.7 66.2 31.4 66.2 32.3V37.7H65.2V28.8H71.2V37.7H70.2V32.3C70.3 31.4 69.9 30.7 69.1 30.2ZM58.3 37.7V33.7C58.3 32.7 58.8 31.8 59.6 31.3L60.3 30.9L61 31.4C61.8 31.9 62.3 32.8 62.3 33.8V37.8H58.3V37.7ZM61.5 30.4L60.5 29.8C60.3 29.7 60.1 29.7 60 29.8L59 30.4C57.9 31.1 57.2 32.3 57.2 33.6V37.7H56.2V28.8H64.2V37.7H63.2V33.6C63.3 32.4 62.6 31.2 61.5 30.4ZM54.3 22.7C54 22.7 53.8 22.9 53.8 23.2V23.7H52.8V23.2C52.8 22.9 52.6 22.7 52.3 22.7C52 22.7 51.8 22.9 51.8 23.2V23.7H50.8V23.2C50.8 22.9 50.6 22.7 50.3 22.7C50 22.7 49.8 22.9 49.8 23.2V23.7H48.8V23.2C48.8 22.9 48.6 22.7 48.3 22.7C48 22.7 47.8 22.9 47.8 23.2V23.7H46.8V23.2C46.8 22.9 46.6 22.7 46.3 22.7C46 22.7 45.8 22.9 45.8 23.2V23.7H44.8V23.2C44.8 22.9 44.6 22.7 44.3 22.7C44 22.7 43.8 22.9 43.8 23.2V23.7H42.8V23.2C42.8 22.9 42.6 22.7 42.3 22.7C42 22.7 41.8 22.9 41.8 23.2V23.7H40.8V23.2C40.8 22.9 40.6 22.7 40.3 22.7C40 22.7 39.8 22.9 39.8 23.2V23.7H38.8V23.2C38.8 22.9 38.6 22.7 38.3 22.7C38 22.7 37.8 22.9 37.8 23.2V23.7H37.3V21.7H55.3V23.7H54.8V23.2C54.8 23 54.6 22.7 54.3 22.7ZM34.3 37.7H30.3V33.6C30.3 32.6 30.8 31.7 31.6 31.2L32.3 30.7L33 31.1C33.8 31.6 34.3 32.5 34.3 33.5V37.7ZM33.5 30.4L32.5 29.8C32.3 29.7 32.1 29.7 32 29.8L31 30.4C29.9 31.1 29.2 32.3 29.2 33.6V37.7H29H28.2V28.8H36.2V37.7H35.2V33.6C35.3 32.4 34.6 31.1 33.5 30.4ZM25.3 37.7H23.3V32.3C23.3 31.8 23.6 31.3 24 31L24.3 30.8L24.6 31C25 31.3 25.3 31.8 25.3 32.3V37.7ZM25.1 30.2L24.5 29.8C24.3 29.7 24.1 29.7 24 29.8L23.4 30.2C22.7 30.7 22.3 31.4 22.3 32.3V37.7H21.3V28.8H27.3V37.7H26.3V32.3C26.3 31.4 25.9 30.6 25.1 30.2ZM71.3 27.8H65.3V26.7H71.3V27.8ZM58.8 19.8L60.4 18.7L62 19.8C63 20.4 63.2 21.7 62.7 22.7H60.5H58.3C57.6 21.7 57.9 20.5 58.8 19.8ZM58.3 23.7H60.4H62.3V25.7H60.8V25.2C60.8 24.9 60.6 24.7 60.3 24.7C60 24.7 59.8 24.9 59.8 25.2V25.7H58.3V23.7ZM57.8 26.7H62.8H64.3V27.8H56.3V26.7H57.8ZM43.6 6.69999L46.3 4.79999L49 6.69999H43.6ZM40.2 9.09999L41.9 7.89999V8.19999C41.9 8.49999 42.1 8.69999 42.4 8.69999C42.7 8.69999 42.9 8.49999 42.9 8.19999V7.69999H43.9V8.19999C43.9 8.49999 44.1 8.69999 44.4 8.69999C44.7 8.69999 44.9 8.49999 44.9 8.19999V7.69999H45.9V8.19999C45.9 8.49999 46.1 8.69999 46.4 8.69999C46.7 8.69999 46.9 8.49999 46.9 8.19999V7.69999H47.9V8.19999C47.9 8.49999 48.1 8.69999 48.4 8.69999C48.7 8.69999 48.9 8.49999 48.9 8.19999V7.69999H49.9V8.19999C49.9 8.49999 50.1 8.69999 50.4 8.69999C50.7 8.69999 50.9 8.49999 50.9 8.19999V7.99999L52.5 9.09999C56.2 11.7 57.4 16.6 55.5 20.7H37.2C35.3 16.6 36.5 11.7 40.2 9.09999ZM36.3 27.8H28.3V26.7H29.8H34.8H36.3V27.8ZM30.7 19.8L32.3 18.7L33.9 19.8C34.9 20.4 35.1 21.7 34.6 22.7H32.4H30C29.4 21.7 29.7 20.5 30.7 19.8ZM30.3 23.7H32.2H34.3V25.7H32.8V25.2C32.8 24.9 32.6 24.7 32.3 24.7C32 24.7 31.8 24.9 31.8 25.2V25.7H30.3V23.7ZM27.3 27.8H21.3V26.7H27.3V27.8ZM13.7 22.9L13.8 22.8L13.9 22.9C14.1 23.1 14.3 23.3 14.3 23.6V24.7H13.3V23.6C13.3 23.3 13.4 23.1 13.7 22.9ZM13.3 25.7H14.3L14.6 32.6H13L13.3 25.7ZM12.9 33.7H14.6L14.9 40.7H12.6L12.9 33.7ZM12.3 48.7L12.6 41.6H15L15.3 48.7H12.3ZM21.3 38.7H22.8H25.8H27.3V48.7H26.3V43.3C26.3 42.4 25.9 41.7 25.1 41.2L24.5 40.8C24.3 40.7 24.1 40.7 24 40.8L23.4 41.2C22.7 41.7 22.3 42.4 22.3 43.3V48.7H21.3V38.7ZM23.3 48.7V43.3C23.3 42.8 23.6 42.3 24 42L24.3 41.8L24.6 42C25 42.3 25.3 42.8 25.3 43.3V48.7H23.3ZM28.3 38.7H29H29.8H34.8H36.3V48.7H35.3V44.6C35.3 43.3 34.6 42.1 33.5 41.4L32.5 40.8C32.3 40.7 32.1 40.7 32 40.8L31 41.4C29.9 42.1 29.2 43.3 29.2 44.6V48.7H28.2V38.7H28.3ZM30.3 48.7V44.6C30.3 43.6 30.8 42.7 31.6 42.2L32.3 41.7L33 42.1C33.8 42.6 34.3 43.5 34.3 44.5V48.6H30.3V48.7ZM37.3 26.2V24.7H55.3V26.2V48.7H53.3V37.1C53.3 33.9 51.7 31.1 49.1 29.4L46.6 27.8C46.4 27.7 46.2 27.7 46.1 27.8L43.6 29.4C41 31.1 39.4 34 39.4 37.1V48.7H37.4V26.2H37.3ZM43.3 48.7H40.3V38.7H43.8H48.8H52.3V48.7H49.3V44.6C49.3 43.3 48.6 42.1 47.5 41.4L46.5 40.8C46.3 40.7 46.1 40.7 46 40.8L45 41.4C43.9 42.1 43.2 43.3 43.2 44.6V48.7H43.3ZM52.3 37.7H49.3V35.6C49.3 34.3 48.6 33.1 47.5 32.4L46.5 31.8C46.3 31.7 46.1 31.7 46 31.8L45 32.4C43.9 33.1 43.2 34.3 43.2 35.6V37.7H40.2V37.1C40.2 34.3 41.6 31.7 44 30.2L46.3 28.8L48.5 30.2C50.9 31.7 52.3 34.3 52.3 37.1V37.7ZM48.3 37.7H44.3V35.6C44.3 34.6 44.8 33.7 45.6 33.2L46.3 32.7L47 33.1C47.8 33.6 48.3 34.5 48.3 35.5V37.7ZM44.3 48.7V44.6C44.3 43.6 44.8 42.7 45.6 42.2L46.3 41.7L47 42.1C47.8 42.6 48.3 43.5 48.3 44.5V48.6H44.3V48.7ZM56.3 38.7H64.3V48.7H63.3V44.6C63.3 43.3 62.6 42.1 61.5 41.4L60.5 40.8C60.3 40.7 60.1 40.7 60 40.8L59 41.4C57.9 42.1 57.2 43.3 57.2 44.6V48.7H56.2V38.7H56.3ZM62.3 48.7H58.3V44.6C58.3 43.6 58.8 42.7 59.6 42.2L60.3 41.8L61 42.3C61.8 42.8 62.3 43.7 62.3 44.7V48.7ZM67.3 48.7V43.3C67.3 42.8 67.6 42.3 68 42L68.3 41.8L68.6 42C69 42.3 69.3 42.7 69.3 43.3V48.7H67.3ZM70.3 48.7V43.3C70.3 42.4 69.9 41.7 69.2 41.2L68.6 40.8C68.4 40.7 68.2 40.7 68.1 40.8L67.5 41.2C66.8 41.7 66.3 42.4 66.3 43.3V48.7H65.3V38.7H66.8H69.8H71.3V48.7H70.3ZM77.3 48.7L77.6 41.6H80L80.3 48.7H77.3ZM88.3 14.7H87.3V13.6C87.3 13.3 87.4 13.1 87.7 12.9L87.8 12.8L87.9 12.9C88.1 13.1 88.3 13.3 88.3 13.6V14.7ZM87.3 15.7H88.3L88.5 23.7H87L87.3 15.7ZM87 24.7H88.6L89 36.7H86.7L87 24.7ZM86.3 48.7L86.6 37.7H89L89.3 48.7H86.3Z" fill="url(#paint0_linear_1185_587)"/>
<defs>
<linearGradient id="paint0_linear_1185_587" x1="46.3" y1="0.799988" x2="46.3" y2="49.7" gradientUnits="userSpaceOnUse">
<stop stop-color="#E02F8D"/>
<stop offset="1" stop-color="#0041A2"/>
</linearGradient>
</defs>
</svg>
