<svg width="73" height="57" viewBox="0 0 73 57" fill="none" xmlns="http://www.w3.org/2000/svg">
<path d="M71.8 56H71.3V40H71.8C72.1 40 72.3 39.8 72.3 39.5V36.5C72.3 36.2 72.1 36 71.8 36H71.3V34.5C71.3 34.2 71.1 34 70.8 34H68C67.8 32.3 66.6 30.7 64.7 29.8L60 27.5V26.8C60 26.5 59.8 26.3 59.5 26.3C59.2 26.3 59 26.6 59 26.8V27.5L54.4 29.7C52.5 30.6 51.3 32.2 51.1 33.9H49.4V30.9H49.9C50.2 30.9 50.4 30.7 50.4 30.4V27.4C50.4 27.1 50.2 26.9 49.9 26.9H49.4V20.9H49.9C50.2 20.9 50.4 20.7 50.4 20.4V17.4C50.4 17.1 50.2 16.9 49.9 16.9H48.4V12.9H48.9C49.2 12.9 49.4 12.7 49.4 12.4V10.4C49.4 10.1 49.2 9.90003 48.9 9.90003H48.4V7.90003H48.9C49.2 7.90003 49.4 7.70003 49.4 7.40003V5.40002C49.4 5.10002 49.2 4.90002 48.9 4.90002H48.4V3.90002C48.4 3.00002 47.8 2.20002 46.9 2.00002V1.40002C46.9 1.10002 46.7 0.900024 46.4 0.900024C46.1 0.900024 45.9 1.10002 45.9 1.40002V2.00002C45 2.20002 44.4 3.00002 44.4 3.90002V4.90002H43.9C43.6 4.90002 43.4 5.10002 43.4 5.40002V7.40003C43.4 7.70003 43.6 7.90003 43.9 7.90003H44.4V9.90003H43.9C43.6 9.90003 43.4 10.1 43.4 10.4V12.4C43.4 12.7 43.6 12.9 43.9 12.9H44.4V16.9H42.9C42.6 16.9 42.4 17.1 42.4 17.4V20.4C42.4 20.7 42.6 20.9 42.9 20.9H43.4V26.9H42.9H42.8C42.3 26 41.6 25.1 40.6 24.5L36.8 22.2V21.3C36.8 21 36.6 20.8 36.3 20.8C36 20.8 35.8 21 35.8 21.3V22.2L32 24.7C31.1 25.3 30.3 26.1 29.9 27H29.8H29.3V21H29.8C30.1 21 30.3 20.8 30.3 20.5V17.5C30.3 17.2 30.1 17 29.8 17H28.3V13H28.8C29.1 13 29.3 12.8 29.3 12.5V10.5C29.3 10.2 29.1 10 28.8 10H28.3V8.00002H28.8C29.1 8.00002 29.3 7.80002 29.3 7.50002V5.50002C29.3 5.20002 29.1 5.00002 28.8 5.00002H28.3V4.00002C28.3 3.10002 27.7 2.30003 26.8 2.10003V1.50002C26.8 1.20002 26.6 1.00002 26.3 1.00002C26 1.00002 25.8 1.20002 25.8 1.50002V2.10003C24.9 2.30003 24.3 3.10002 24.3 4.00002V5.00002H23.8C23.5 5.00002 23.3 5.20002 23.3 5.50002V7.50002C23.3 7.80002 23.5 8.00002 23.8 8.00002H24.3V10H23.8C23.5 10 23.3 10.2 23.3 10.5V12.5C23.3 12.8 23.5 13 23.8 13H24.3V17H22.8C22.5 17 22.3 17.2 22.3 17.5V20.5C22.3 20.8 22.5 21 22.8 21H23.3V27H22.8C22.5 27 22.3 27.2 22.3 27.5V30.5C22.3 30.8 22.5 31 22.8 31H23.3V34H21C20.8 32.3 19.6 30.7 17.7 29.8L13 27.5V26.8C13 26.5 12.8 26.3 12.5 26.3C12.2 26.3 12 26.6 12 26.8V27.5L7.29999 29.8C5.39999 30.7 4.19999 32.3 3.99999 34H1.79999C1.49999 34 1.29999 34.2 1.29999 34.5V36H0.799988C0.499988 36 0.299988 36.2 0.299988 36.5V39.5C0.299988 39.8 0.499988 40 0.799988 40H1.29999V56H0.799988C0.499988 56 0.299988 56.2 0.299988 56.5C0.299988 56.8 0.499988 57 0.799988 57H1.79999H23.8H28.6H28.8H43.6H43.8H48.8H70.8H71.8C72.1 57 72.3 56.8 72.3 56.5C72.3 56.2 72.1 56 71.8 56ZM71.3 39H70.8H49.3V37H70.8H71.3V39ZM51.3 35H53.3V36H51.3V35ZM65.3 36H63.3V35H65.3V36ZM62.3 36H60.3V35H62.3V36ZM59.3 36H57.3V35H59.3V36ZM56.3 36H54.3V35H56.3V36ZM70.3 35V36H69.3V35H70.3ZM68.3 36H66.3V35H68.3V36ZM54.8 30.7L59.5 28.4L64.2 30.7C65.8 31.5 66.7 32.7 66.9 34H52C52.2 32.6 53.2 31.4 54.8 30.7ZM50.3 35V36H49.3V35H50.3ZM45.3 4.00002C45.3 3.50002 45.7 3.00002 46.3 3.00002C46.8 3.00002 47.3 3.50002 47.3 4.00002V5.00002H45.3V4.00002ZM44.3 6.00002H44.8H47.8H48.3V7.00002H47.8H44.8H44.3V6.00002ZM45.3 8.00002H47.3V10H45.3V8.00002ZM44.3 11H44.8H47.8H48.3V12H47.8H44.8H44.3V11ZM45.3 13H47.3V17H45.3V13ZM43.3 18H44.8H47.8H49.3V20H48.8H43.8H43.3V18ZM44.3 21H48.3V27H44.3V21ZM43.3 28H43.8H48.8H49.3V30H48.8H43.8H43.3V29.5V28ZM29.5 31H29.8H31.3V32H29.3V31H29.5ZM43.3 35H29.3V33H43.3V35ZM38.3 32V31H40.3V32H38.3ZM37.3 32H35.3V31H37.3V32ZM34.3 32H32.3V31H34.3V32ZM29.3 48.8C29.3 45.6 30.9 42.6 33.7 40.8L36.3 39.1L38.9 40.8C41.7 42.5 43.3 45.5 43.3 48.8V56H29.3V48.8ZM39.4 39.9L36.5 38.1C36.3 38 36.1 38 36 38.1L33.1 40C31.4 41.1 30.1 42.6 29.3 44.4V36H43.3V44.3C42.5 42.5 41.2 41 39.4 39.9ZM43.3 32H41.3V31H42.8H43.3V32ZM32.6 25.5L36.3 23.2L40 25.5C41.4 26.4 42.3 27.8 42.3 29.5V30H30.3V29.5C30.3 27.9 31.1 26.4 32.6 25.5ZM25.3 4.00002C25.3 3.50002 25.7 3.00002 26.3 3.00002C26.8 3.00002 27.3 3.50002 27.3 4.00002V5.00002H25.3V4.00002ZM24.3 6.00002H24.8H27.8H28.3V7.00002H27.8H24.8H24.3V6.00002ZM25.3 8.00002H27.3V10H25.3V8.00002ZM24.3 11H24.8H27.8H28.3V12H27.8H24.8H24.3V11ZM25.3 13H27.3V17H25.3V13ZM23.3 18H24.8H27.8H29.3V20H28.8H23.8H23.3V18ZM24.3 21H28.3V27H24.3V21ZM23.3 28H23.8H28.8H29.3V29.5V30H28.8H23.8H23.3V28ZM23.3 35V36H22.3V35H23.3ZM21.3 36H19.3V35H21.3V36ZM4.29999 35H6.29999V36H4.29999V35ZM7.29999 35H9.29999V36H7.29999V35ZM10.3 35H12.3V36H10.3V35ZM13.3 35H15.3V36H13.3V35ZM16.3 35H18.3V36H16.3V35ZM7.79999 30.7L12.5 28.4L17.2 30.7C18.8 31.5 19.8 32.7 20 34H4.99999C5.19999 32.7 6.19999 31.4 7.79999 30.7ZM2.29999 35H3.29999V36H2.29999V35ZM1.29999 37H1.79999H23.3V39H1.79999H1.29999V37ZM2.29999 40H23.3V56H18.3V49.4C18.3 46.9 17.1 44.7 15 43.4L13.1 42.2C12.9 42.1 12.7 42.1 12.6 42.2L10.7 43.4C8.59999 44.7 7.39999 47 7.39999 49.4V56H2.39999V40H2.29999ZM17.3 56H8.29999V49.5C8.29999 47.4 9.39999 45.5 11.1 44.3L12.8 43.2L14.4 44.2C16.2 45.3 17.3 47.3 17.3 49.4V56ZM24.3 39.5V36.5V34.5V31H28.3V32.5V35.5V48.8V56H24.3V39.5ZM44.3 48.8V35.5V32.5V31H48.3V34.5V36.5V39.5V56H44.3V48.8ZM64.3 56H55.3V49.5C55.3 47.4 56.4 45.5 58.1 44.3L59.8 43.2L61.4 44.2C63.2 45.3 64.3 47.3 64.3 49.4V56ZM65.3 56V49.4C65.3 46.9 64.1 44.7 62 43.4L60.1 42.2C59.9 42.1 59.7 42.1 59.6 42.2L57.7 43.4C55.6 44.7 54.4 47 54.4 49.4V56H49.4V40H70.4V56H65.3Z" fill="url(#paint0_linear_1185_582)"/>
<defs>
<linearGradient id="paint0_linear_1185_582" x1="36.3" y1="0.900024" x2="36.3" y2="57" gradientUnits="userSpaceOnUse">
<stop stop-color="#E02F8D"/>
<stop offset="1" stop-color="#0041A2"/>
</linearGradient>
</defs>
</svg>
