<svg width="45" height="45" viewBox="0 0 45 45" fill="none" xmlns="http://www.w3.org/2000/svg">
<path fill-rule="evenodd" clip-rule="evenodd" d="M22.4489 43.2288C33.8358 43.255 43.1632 33.9324 43.1626 22.5257C43.1621 11.141 33.8878 1.86137 22.4849 1.83599C11.0938 1.81061 1.77087 11.1284 1.77164 22.5381C1.7724 33.9238 11.0452 43.2026 22.4489 43.2288ZM3.83224 22.5486C3.81937 12.3185 12.1832 3.92871 22.4257 3.89753C32.6673 3.86625 41.0908 12.2631 41.102 22.5145C41.113 32.7434 32.7487 41.1347 22.5091 41.1672C12.268 41.1997 3.84515 32.8031 3.83224 22.5486Z" fill="#2D2D2D"/>
<path fill-rule="evenodd" clip-rule="evenodd" d="M26.7059 22.6391C24.3214 24.7003 21.9986 26.7082 19.676 28.7162C19.2602 29.0757 18.8391 29.4292 18.4314 29.7975C17.9128 30.2658 17.8233 30.8681 18.1931 31.2938C18.6196 31.7848 19.2364 31.8131 19.7737 31.3461C22.6406 28.8542 25.5071 26.3619 28.3667 23.8615C29.2539 23.0859 29.2345 22.1689 28.3471 21.3863C25.5102 18.8843 22.672 16.3842 19.8414 13.8751C19.4735 13.5489 19.1002 13.36 18.6149 13.5725C17.8591 13.9036 17.7683 14.8924 18.4606 15.5001C19.8454 16.7155 21.2448 17.9146 22.639 19.1194C23.8986 20.208 25.1596 21.2951 26.4197 22.3832C26.503 22.4553 26.5841 22.53 26.7059 22.6391Z" fill="#2D2D2D"/>
</svg>
