<svg width="45" height="45" viewBox="0 0 45 45" fill="none" xmlns="http://www.w3.org/2000/svg">
<path fill-rule="evenodd" clip-rule="evenodd" d="M22.5508 43.2288C11.164 43.255 1.83657 33.9324 1.83716 22.5257C1.83765 11.141 11.1119 1.86137 22.5148 1.83599C33.906 1.81061 43.2289 11.1284 43.2281 22.5381C43.2274 33.9238 33.9546 43.2026 22.5508 43.2288ZM41.1675 22.5486C41.1804 12.3185 32.8165 3.92871 22.574 3.89753C12.3325 3.86625 3.90896 12.2631 3.8978 22.5145C3.88673 32.7434 12.2511 41.1347 22.4907 41.1672C32.7318 41.1997 41.1546 32.8031 41.1675 22.5486Z" fill="#2D2D2D"/>
<path fill-rule="evenodd" clip-rule="evenodd" d="M18.2941 22.6391C20.6786 24.7003 23.0014 26.7082 25.324 28.7162C25.7398 29.0757 26.1609 29.4292 26.5686 29.7975C27.0872 30.2658 27.1767 30.8681 26.8069 31.2938C26.3804 31.7848 25.7636 31.8131 25.2263 31.3461C22.3594 28.8542 19.4929 26.3619 16.6333 23.8615C15.7461 23.0859 15.7655 22.1689 16.6529 21.3863C19.4898 18.8843 22.328 16.3842 25.1586 13.8751C25.5265 13.5489 25.8998 13.36 26.3851 13.5725C27.1409 13.9036 27.2317 14.8924 26.5394 15.5001C25.1546 16.7155 23.7552 17.9146 22.361 19.1194C21.1014 20.208 19.8404 21.2951 18.5803 22.3832C18.497 22.4553 18.4159 22.53 18.2941 22.6391Z" fill="#2D2D2D"/>
</svg>
