<svg width="63" height="59" viewBox="0 0 63 59" fill="none" xmlns="http://www.w3.org/2000/svg">
<path d="M61.7 57.3H60.3V26.8C60.3 26.5 60.1 26.3 59.8 26.3H59.3V23.1L59.4 23C60 22.3 60.2 21.3 60.1 20.4C60 19.5 59.5 18.6 58.8 18.1L54.4 14.6V14.3C54.7 14.1 55 13.8 55 13.4C55 12.8 54.5 12.3 53.9 12.3C53.3 12.3 52.8 12.8 52.8 13.4C52.8 13.8 53 14.2 53.4 14.3V14.6L49 18.1C48.3 18.7 47.8 19.5 47.7 20.4C47.6 21.3 47.8 22.2 48.4 22.9V25.4H47.9C47.6 25.4 47.4 25.6 47.4 25.9V26.4H41.2L39.4 23.7V20.1L41.4 17.1C41.5 16.9 41.5 16.7 41.4 16.6C41.3 16.4 41.1 16.3 41 16.3H39.4V15.1L39.5 15C40.4 13.8 40.7 12.3 40.4 10.9C40.1 9.49999 39.2 8.29999 37.9 7.59999L34.5 5.79999V3.79999C34.5 3.49999 34.3 3.29999 34 3.29999H33.5V2.29999C33.5 1.19999 32.6 0.299988 31.5 0.299988C30.4 0.299988 29.5 1.19999 29.5 2.29999V3.29999H29C28.7 3.29999 28.5 3.49999 28.5 3.79999V5.79999C28.5 5.79999 28.5 5.79999 28.5 5.89999L25 7.59999C23.6 8.39999 22.7 9.79999 22.4 11.2C22.2 12.5 22.5 13.7 23.3 14.8V16.3H21.9C21.7 16.3 21.5 16.4 21.5 16.6C21.4 16.8 21.4 17 21.5 17.1L23.3 19.8V23.6L21.6 26.2H15.3V25.7C15.3 25.4 15.1 25.2 14.8 25.2H14.3V23L14.4 22.9C15 22.2 15.2 21.2 15.1 20.3C15 19.4 14.5 18.5 13.8 18L9.39999 14.5V14.2C9.69999 14 9.99999 13.7 9.99999 13.3C9.99999 12.7 9.49999 12.2 8.89999 12.2C8.29999 12.2 7.79999 12.7 7.79999 13.3C7.79999 13.7 7.99999 14.1 8.39999 14.2V14.5L3.99999 18.1C3.29999 18.7 2.79999 19.5 2.7 20.4C2.6 21.3 2.79999 22.2 3.39999 22.9V26.4H2.89999C2.59999 26.4 2.39999 26.6 2.39999 26.9V57.4H0.899994C0.599994 57.4 0.399994 57.6 0.399994 57.9C0.399994 58.2 0.599994 58.4 0.899994 58.4H2.89999H10.9H11.4H12.4H15.5H17.8H21.9H24.2H28.3H34.3H38.4H40.8H44.9H47.3H49.3H51.3H51.4H59.8H61.7C62 58.4 62.2 58.2 62.2 57.9C62.2 57.6 62 57.3 61.7 57.3ZM48.6 20.5C48.7 19.8 49 19.2 49.5 18.8L53.8 15.4L58.1 18.8C58.6 19.2 59 19.8 59 20.5C59.1 21.2 58.9 21.8 58.5 22.3H49C48.7 21.8 48.6 21.2 48.6 20.5ZM49.3 23.3H58.3V26.3H54.3H51.3V25.8C51.3 25.5 51.1 25.3 50.8 25.3H49.3V23.3ZM47.3 44.3H44.9V40.3H47.3V44.3ZM44.9 45.3H47.3V48.3H44.9V45.3ZM47.3 39.3H44.9V36.3H47.3V39.3ZM47.8 35.3H47.3H44.9H44.4H41.3H40.8H38.4H37.8H34.8H34.3H28.3H27.8H24.7H24.2H21.9H21.4H18.3H17.8H15.5H15H11.4H10.4V33.3H52.4V35.3H51.5H47.8ZM38.4 40.3H40.8V44.3H38.4V40.3ZM40.8 39.3H38.4V36.3H40.8V39.3ZM38.4 45.3H40.8V48.3H38.4V45.3ZM28.3 40.3H34.3V44.3H28.3V40.3ZM34.3 39.3H28.3V36.3H34.3V39.3ZM28.3 45.3H34.3V48.3H28.3V45.3ZM21.8 40.3H24.1V44.3H21.8V40.3ZM24.2 39.3H21.9V36.3H24.2V39.3ZM21.8 45.3H24.1V48.3H21.8V45.3ZM17.7 39.3H15.4V36.3H17.7V39.3ZM15.4 40.3H17.7V44.3H15.4V40.3ZM15.4 45.3H17.7V48.3H15.4V45.3ZM52.8 32.3H9.79999H9.09999L11.1 30.3H11.8H14.8H14.9H27.8H34.8H47.8H50.8H51.7L53.7 32.3H52.8ZM12.3 26.3H14.3V29.3H12.3V26.3ZM24.3 20.3H26.4L26.3 23.3H24.3V20.3ZM29.4 23.4C29.4 23.4 29.3 23.3 29.4 23.4H27.3L27.4 20.4H35.5L35.4 23.4H33.3H33.2L31.5 22.4C31.3 22.3 31.2 22.3 31 22.4L29.4 23.4ZM35.3 26.3V24.8C35.3 24.6 35.2 24.5 35 24.4L34.9 24.3H35.6L36.9 26.3H35.5H35.3ZM36.5 20.3H38.3V23.3H36.4L36.5 20.3ZM27.2 19.3L25.9 17.3H37L35.7 19.3H27.2ZM27.7 24.3L27.6 24.4C27.4 24.5 27.3 24.7 27.3 24.8V26.3H27.1H25.8L27.1 24.3H27.7ZM28.3 25.1L31.3 23.4L34.3 25.1V29.3H28.3V25.1ZM48.3 26.3H50.3V29.3H48.3V26.3ZM47.3 29.3H35.3V27.3H35.6H40.9H47.3V29.3ZM38.2 26.3L36.9 24.3H38.6L40 26.3H38.2ZM38.6 19.3H36.9L38.2 17.3H38.8H40L38.6 19.3ZM30.3 2.29999C30.3 1.79999 30.8 1.29999 31.3 1.29999C31.8 1.29999 32.3 1.69999 32.3 2.29999V3.29999H30.3V2.29999ZM29.3 4.29999H33.3V5.29999H29.3V4.29999ZM23.4 11.4C23.6 10.2 24.4 9.09999 25.5 8.49999L29.6 6.29999H33.1L37.2 8.49999C38.2 9.09999 39 9.99999 39.2 11.1C39.4 12.2 39.2 13.3 38.5 14.3H33.2V13.2C33.2 12.3 32.8 11.6 32 11.1L31.4 10.7C31.2 10.6 31 10.6 30.9 10.7L30.3 11.1C29.6 11.6 29.2 12.3 29.2 13.2V14.3H24C23.5 13.4 23.2 12.4 23.4 11.4ZM32.3 14.3H30.3V13.2C30.3 12.7 30.6 12.2 31 11.9L31.3 11.7L31.6 11.9C32 12.2 32.3 12.6 32.3 13.2V14.3ZM24.3 15.3H38.3V16.3H24.3V15.3ZM23.8 17.3H24.6L25.9 19.3H24.1L22.8 17.3H23.8ZM24.1 24.3H25.9L24.6 26.3H22.8L24.1 24.3ZM15.4 27.3H21.9H27.1H27.3V29.3H15.4V27.3ZM3.59999 20.5C3.69999 19.8 3.99999 19.2 4.49999 18.8L8.79999 15.4L13.1 18.8C13.6 19.2 14 19.8 14 20.5C14.1 21.2 13.9 21.8 13.5 22.3H3.99999C3.69999 21.8 3.59999 21.2 3.59999 20.5ZM4.29999 23.3H13.3V25.3H11.8C11.5 25.3 11.3 25.5 11.3 25.8V26.3H8.29999H4.29999V23.3ZM10.8 57.3H3.29999V27.3H3.79999H8.29999H11.3V29.3H10.9C10.8 29.3 10.6 29.4 10.5 29.4L7.49999 32.4C7.39999 32.5 7.29999 32.8 7.39999 32.9C7.49999 33 7.69999 33.2 7.89999 33.2H9.29999V35.7C9.29999 36 9.49999 36.2 9.79999 36.2H11.3V57.2H10.8V57.3ZM12.3 57.3V36.3H14.4V39.8V44.8V48.8V57.3H12.3ZM15.4 57.3V49.3H17.7V57.3H15.4ZM18.7 57.3V48.8V44.8V39.8V36.3H20.8V57.3H18.7ZM21.8 57.3V49.3H24.1V57.3H21.8ZM25.2 57.3V44.8V36.3H27.3V57.3H25.2ZM28.3 57.3V49.3H34.3V57.3H28.3ZM35.3 57.3V36.3H37.4V57.3H35.3ZM38.4 57.3V49.3H40.8V57.3H38.4ZM41.8 57.3V36.3H43.9V57.3H41.8ZM44.9 57.3V49.3H47.3V57.3H44.9ZM49.3 57.3H48.3V48.8V44.8V39.8V36.3H50.4V57.3H49.3ZM51.4 57.3V36.3H52.8C53.1 36.3 53.3 36.1 53.3 35.8V33.3H54.9C55.1 33.3 55.3 33.2 55.4 33C55.5 32.8 55.4 32.6 55.3 32.5L52.3 29.5C52.2 29.4 52.1 29.4 51.9 29.4H51.3V27.4H54.3H58.8H59.3V57.4H51.4V57.3Z" fill="url(#paint0_linear_1185_638)"/>
<defs>
<linearGradient id="paint0_linear_1185_638" x1="31.3" y1="0.299988" x2="31.3" y2="58.4" gradientUnits="userSpaceOnUse">
<stop stop-color="#E02F8D"/>
<stop offset="1" stop-color="#0041A2"/>
</linearGradient>
</defs>
</svg>
