<svg width="68" height="68" viewBox="0 0 68 68" fill="none" xmlns="http://www.w3.org/2000/svg">
<path fill-rule="evenodd" clip-rule="evenodd" d="M37.0889 10.6292C37.1259 10.2924 36.9514 9.96243 36.6648 9.67581C35.226 8.23836 33.7942 6.7937 32.3467 5.36509C31.7783 4.80416 31.0555 4.78478 30.5543 5.27173C30.0394 5.77221 30.0659 6.52197 30.6403 7.10922C31.337 7.82173 32.0481 8.52022 32.7528 9.22477C33.5006 9.97263 34.2443 10.7246 34.9975 11.4669C35.3824 11.8461 35.8547 11.9428 36.3476 11.7429C36.7923 11.5627 37.055 11.2098 37.0889 10.6292ZM46.2923 10.5131C46.2855 11.1155 46.5178 11.5068 46.9836 11.7185C47.5224 11.9635 48.0152 11.8379 48.4318 11.4219C49.8709 9.98501 51.3144 8.55225 52.7445 7.10623C53.3218 6.52265 53.3382 5.76357 52.8217 5.26751C52.3183 4.78424 51.5971 4.8096 51.0302 5.37026C49.584 6.80016 48.1515 8.24387 46.7133 9.68186C46.4605 9.93482 46.2836 10.2224 46.2923 10.5131Z" fill="#FEFEFE"/>
<path fill-rule="evenodd" clip-rule="evenodd" d="M2.8683 28.0163C3.09753 27.7854 3.064 27.4629 3.1537 27.1842C3.96861 24.6536 6.30788 22.9192 8.98089 22.8827C9.85557 22.8708 10.7324 22.8463 11.6046 22.8927C12.0902 22.9184 12.1754 22.7475 12.1571 22.3133C12.1327 21.7272 12.1145 21.1382 12.236 20.551C12.7006 18.3067 14.7121 16.8207 17.0226 17.0344C19.166 17.2327 20.8757 19.1133 20.9377 21.3247C20.9518 21.8271 20.7139 22.4991 21.0328 22.787C21.3733 23.0946 22.0398 22.8718 22.5631 22.8754C24.1702 22.8864 25.7779 22.8637 27.3847 22.8904C27.7902 22.8972 27.9918 22.7578 28.1901 22.4164C29.454 20.24 30.7552 18.0854 32.0181 15.9084C32.3615 15.3162 32.8003 15.0545 33.4946 15.0567C38.9674 15.0741 44.4402 15.0732 49.9129 15.0573C50.5831 15.0554 51.0149 15.3119 51.3456 15.8796C52.5918 18.0193 53.873 20.1388 55.1084 22.2846C55.361 22.7232 55.6213 22.899 56.1451 22.8968C57.5051 22.8909 58.8757 22.7458 60.2256 22.9788C62.8444 23.4307 64.7397 25.3269 65.2567 27.9539C65.2725 28.0349 65.2762 28.1126 65.3725 28.1383C65.3725 38.8406 65.3725 49.5427 65.3725 60.245C65.1612 60.3355 65.2122 60.5562 65.1664 60.7124C64.4806 63.0631 62.9588 64.5436 60.5989 65.1891C60.3598 65.2544 60.0721 65.1386 59.8789 65.3723C59.7162 65.3723 59.5536 65.3723 59.3907 65.3723C59.2151 65.1585 58.9734 65.255 58.7631 65.2548C42.2733 65.2501 25.7833 65.2502 9.29348 65.2536C9.10199 65.2539 8.88113 65.1675 8.72799 65.3722C8.52454 65.3722 8.32101 65.3722 8.11763 65.3722C7.97585 65.156 7.72425 65.2088 7.52705 65.1537C5.33337 64.5404 3.90081 63.1341 3.14615 61.0065C3.05571 60.7519 3.08991 60.4517 2.86816 60.2449C2.8683 49.5022 2.8683 38.7593 2.8683 28.0163ZM34.1184 25.3214C25.8587 25.3214 17.5991 25.3206 9.33945 25.322C6.85969 25.3223 5.31106 26.873 5.31066 29.358C5.30923 39.184 5.30957 49.0101 5.31052 58.8363C5.31066 61.3471 6.86881 62.9194 9.37331 62.9199C25.8723 62.9225 42.3714 62.9226 58.8702 62.9199C61.3753 62.9194 62.9302 61.3476 62.9305 58.833C62.9315 49.0271 62.9315 39.2212 62.9305 29.4156C62.9303 26.8494 61.4019 25.3219 58.8364 25.3218C50.5971 25.321 42.3577 25.3214 34.1184 25.3214ZM30.8495 22.8503C38.1006 22.8503 45.3078 22.8503 52.5199 22.8503C52.549 22.6172 52.4002 22.4861 52.3125 22.3363C51.4601 20.8827 50.5868 19.441 49.755 17.9759C49.5429 17.6024 49.2994 17.4985 48.8899 17.4998C44.4582 17.5138 40.0258 17.5572 35.5956 17.4771C34.3617 17.4548 33.5863 17.7221 33.055 18.9078C32.5351 20.0675 31.7799 21.1215 31.1345 22.2258C31.0259 22.4115 30.8599 22.5755 30.8495 22.8503ZM16.5179 22.8803C16.6801 22.8803 16.8424 22.8803 17.0046 22.8803C18.5896 22.8803 18.5896 22.8803 18.4922 21.3118C18.427 20.2604 17.5794 19.4593 16.5343 19.4616C15.4954 19.4637 14.6413 20.2767 14.5924 21.3265C14.5737 21.7311 14.6014 22.1378 14.583 22.5426C14.5706 22.814 14.6773 22.8924 14.9365 22.8847C15.4633 22.8691 15.9907 22.8801 16.5179 22.8803Z" fill="url(#paint0_linear_1225_267)"/>
<path fill-rule="evenodd" clip-rule="evenodd" d="M41.9334 2.86816C42.6808 3.17321 42.941 3.72367 42.9239 4.52838C42.8824 6.47638 42.9124 8.42594 42.9094 10.375C42.9081 11.2685 42.4541 11.8189 41.717 11.8357C40.9562 11.8531 40.4709 11.2881 40.4694 10.3691C40.4665 8.46082 40.4999 6.55165 40.4534 4.64439C40.4343 3.86008 40.6329 3.26508 41.3231 2.86816C41.5266 2.86816 41.7301 2.86816 41.9334 2.86816Z" fill="url(#paint1_linear_1225_267)"/>
<path fill-rule="evenodd" clip-rule="evenodd" d="M8.72803 65.3724C8.88116 65.1677 9.10203 65.254 9.29351 65.2538C25.7834 65.2503 42.2733 65.2502 58.7632 65.255C58.9735 65.2551 59.2151 65.1586 59.3907 65.3724C42.5032 65.3724 25.6156 65.3724 8.72803 65.3724Z" fill="url(#paint2_linear_1225_267)"/>
<path fill-rule="evenodd" clip-rule="evenodd" d="M37.0889 10.6297C37.055 11.2101 36.7923 11.5632 36.3476 11.7434C35.8547 11.9433 35.3825 11.8467 34.9975 11.4674C34.2443 10.7252 33.5006 9.97308 32.7528 9.22529C32.0481 8.52074 31.337 7.82224 30.6403 7.10974C30.0659 6.52249 30.0394 5.77272 30.5543 5.27224C31.0555 4.78523 31.7783 4.80467 32.3467 5.36561C33.7942 6.79422 35.226 8.23888 36.6648 9.67633C36.9514 9.96295 37.1259 10.2929 37.0889 10.6297Z" fill="url(#paint3_linear_1225_267)"/>
<path fill-rule="evenodd" clip-rule="evenodd" d="M46.2923 10.5134C46.2835 10.2227 46.4605 9.93515 46.7132 9.68226C48.1514 8.24426 49.5839 6.80055 51.0302 5.37065C51.597 4.80992 52.3182 4.78455 52.8216 5.2679C53.3382 5.76396 53.3218 6.52304 52.7444 7.10662C51.3143 8.55264 49.8708 9.98533 48.4317 11.4223C48.0151 11.8383 47.5223 11.9639 46.9835 11.7189C46.5177 11.5072 46.2854 11.1159 46.2923 10.5134Z" fill="url(#paint4_linear_1225_267)"/>
<path fill-rule="evenodd" clip-rule="evenodd" d="M29.2189 37.5643C29.8353 38.0664 29.9356 38.6412 29.6477 39.401C26.6761 47.2405 31.4951 55.5597 39.7725 56.9156C46.4955 58.0171 53.2415 53.2244 54.3943 46.5282C55.6455 39.2598 51.1363 32.7262 43.889 31.3664C41.5195 30.9219 39.1937 31.1957 36.9413 32.0683C36.056 32.4113 35.6887 32.3027 35.0985 31.5584C34.9117 30.5687 35.1376 30.1686 36.0993 29.7873C45.1028 26.2166 55.2576 31.9647 56.844 41.5299C58.2756 50.161 52.3432 58.2141 43.7043 59.3668C35.1627 60.5064 27.3328 54.3332 26.4017 45.7336C26.1341 43.2613 26.4574 40.8725 27.3486 38.5569C27.7408 37.5374 28.1764 37.3118 29.2189 37.5643Z" fill="url(#paint5_linear_1225_267)"/>
<path fill-rule="evenodd" clip-rule="evenodd" d="M16.53 32.8896C17.5452 32.8896 18.5602 32.8843 19.5755 32.8914C20.3826 32.8971 20.9085 33.3572 20.9327 34.0592C20.9572 34.7728 20.4059 35.3215 19.597 35.327C17.5669 35.3411 15.5365 35.3399 13.5063 35.3279C12.6905 35.3231 12.1375 34.7931 12.1491 34.0808C12.1609 33.3554 12.6945 32.8955 13.5456 32.8909C14.5403 32.8854 15.5351 32.8896 16.53 32.8896Z" fill="url(#paint6_linear_1225_267)"/>
<path fill-rule="evenodd" clip-rule="evenodd" d="M32.6377 33.2945C32.8973 33.7802 33.0273 34.2677 32.6829 34.774C32.2692 35.3824 31.6055 35.4662 30.8248 35.0022C30.3356 34.2791 30.3406 33.6817 30.8402 33.2145C31.3253 32.7609 31.918 32.7872 32.6377 33.2945Z" fill="url(#paint7_linear_1225_267)"/>
<path fill-rule="evenodd" clip-rule="evenodd" d="M51.6997 44.1158C51.6948 49.6294 47.1936 54.129 41.685 54.1274C36.1806 54.1256 31.6765 49.6145 31.6792 44.1058C31.682 38.584 36.1652 34.1104 41.6948 34.1113C47.2216 34.1122 51.7046 38.5952 51.6997 44.1158ZM41.6904 36.5529C37.5199 36.5526 34.1215 39.9463 34.1211 44.111C34.121 48.2673 37.5363 51.6854 41.6893 51.6852C45.8447 51.6852 49.2577 48.2701 49.2578 44.1119C49.258 39.9442 45.8632 36.5532 41.6904 36.5529Z" fill="url(#paint8_linear_1225_267)"/>
<path fill-rule="evenodd" clip-rule="evenodd" d="M46.4936 43.8839C46.5298 44.6908 46.1193 45.2419 45.4181 45.3276C44.7438 45.4099 44.1896 44.9183 44.0773 44.1378C43.8468 42.536 43.2174 41.9165 41.6131 41.7133C40.8823 41.6208 40.4084 41.0705 40.4764 40.3933C40.5434 39.7245 41.1103 39.267 41.8461 39.2883C44.3388 39.3603 46.3814 41.3798 46.4936 43.8839Z" fill="url(#paint9_linear_1225_267)"/>
<defs>
<linearGradient id="paint0_linear_1225_267" x1="34.1203" y1="15.0566" x2="34.1203" y2="65.3723" gradientUnits="userSpaceOnUse">
<stop stop-color="#DD3690"/>
<stop offset="1" stop-color="#0041A2"/>
</linearGradient>
<linearGradient id="paint1_linear_1225_267" x1="41.6884" y1="2.86816" x2="41.6884" y2="11.8361" gradientUnits="userSpaceOnUse">
<stop stop-color="#DD3690"/>
<stop offset="1" stop-color="#0041A2"/>
</linearGradient>
<linearGradient id="paint2_linear_1225_267" x1="34.0594" y1="65.2334" x2="34.0594" y2="65.3724" gradientUnits="userSpaceOnUse">
<stop stop-color="#DD3690"/>
<stop offset="1" stop-color="#0041A2"/>
</linearGradient>
<linearGradient id="paint3_linear_1225_267" x1="33.6408" y1="4.9248" x2="33.6408" y2="11.845" gradientUnits="userSpaceOnUse">
<stop stop-color="#DD3690"/>
<stop offset="1" stop-color="#0041A2"/>
</linearGradient>
<linearGradient id="paint4_linear_1225_267" x1="49.743" y1="4.92627" x2="49.743" y2="11.8435" gradientUnits="userSpaceOnUse">
<stop stop-color="#DD3690"/>
<stop offset="1" stop-color="#0041A2"/>
</linearGradient>
<linearGradient id="paint5_linear_1225_267" x1="41.6839" y1="28.7187" x2="41.6839" y2="59.5024" gradientUnits="userSpaceOnUse">
<stop stop-color="#DD3690"/>
<stop offset="1" stop-color="#0041A2"/>
</linearGradient>
<linearGradient id="paint6_linear_1225_267" x1="16.5412" y1="32.8877" x2="16.5412" y2="35.3372" gradientUnits="userSpaceOnUse">
<stop stop-color="#DD3690"/>
<stop offset="1" stop-color="#0041A2"/>
</linearGradient>
<linearGradient id="paint7_linear_1225_267" x1="31.6766" y1="32.8931" x2="31.6766" y2="35.2988" gradientUnits="userSpaceOnUse">
<stop stop-color="#DD3690"/>
<stop offset="1" stop-color="#0041A2"/>
</linearGradient>
<linearGradient id="paint8_linear_1225_267" x1="41.6894" y1="34.1113" x2="41.6894" y2="54.1274" gradientUnits="userSpaceOnUse">
<stop stop-color="#DD3690"/>
<stop offset="1" stop-color="#0041A2"/>
</linearGradient>
<linearGradient id="paint9_linear_1225_267" x1="43.4829" y1="39.2876" x2="43.4829" y2="45.3366" gradientUnits="userSpaceOnUse">
<stop stop-color="#C83791"/>
<stop offset="1" stop-color="#173F9F"/>
</linearGradient>
</defs>
</svg>
