<svg width="60" height="60" viewBox="0 0 60 60" fill="none" xmlns="http://www.w3.org/2000/svg">
<path fill-rule="evenodd" clip-rule="evenodd" d="M49.4605 2.20691C51.283 3.00317 53.1011 3.80957 54.9291 4.59293C56.7068 5.35457 56.5754 5.20091 56.5754 7.09235C56.5747 15.8189 56.5659 24.5456 56.5898 33.2722C56.5921 34.1083 56.2972 34.5598 55.5285 34.8699C53.5974 35.6489 51.6895 36.4862 49.7815 37.3213C49.2592 37.5497 48.8296 37.505 48.3675 37.1645C44.6161 34.3991 40.8524 31.6501 37.0964 28.8908C35.2471 27.5321 34.2962 25.7071 34.2897 23.4027C34.289 23.1716 34.2896 22.9406 34.2896 22.681C33.6508 22.681 33.0783 22.681 32.4216 22.681C32.4216 22.9079 32.4216 23.1172 32.4216 23.3265C32.4216 28.7149 32.4165 34.1032 32.434 39.4916C32.4351 39.831 32.5434 40.2125 32.7198 40.5027C35.9019 45.7381 39.1026 50.9623 42.2982 56.1894C42.8094 57.0256 42.7632 57.3456 42.0568 57.953C41.8391 57.953 41.6213 57.953 41.4035 57.953C41.1609 57.6704 40.8764 57.4138 40.6824 57.101C39.4235 55.071 38.1764 53.0335 36.9463 50.9859C36.7466 50.6535 36.5397 50.5155 36.1388 50.518C33.0416 50.5366 29.9442 50.5367 26.8471 50.5178C26.4454 50.5154 26.2401 50.6556 26.0408 50.9872C24.8195 53.019 23.5815 55.0408 22.3315 57.055C22.1285 57.3822 21.8377 57.6551 21.5876 57.953C21.4061 57.953 21.2246 57.953 21.0432 57.953C20.2697 57.4877 20.1654 57.052 20.6549 56.2504C23.8485 51.0208 27.0492 45.7955 30.2285 40.5572C30.4222 40.2383 30.5425 39.82 30.5439 39.4474C30.5639 34.0763 30.5576 28.7051 30.5576 23.3342C30.5576 23.1197 30.5576 22.9054 30.5576 22.6942C30.1726 22.5934 29.8454 22.4867 29.5098 22.4317C29.3999 22.4137 29.2434 22.5028 29.1498 22.5883C26.4096 25.0954 24.9849 28.1818 24.9673 31.9229C24.9586 33.751 25.0077 35.6056 24.7271 37.4005C24.1118 41.3353 21.9854 44.3647 18.6511 46.5294C16.3163 48.0451 13.721 48.6726 10.9566 48.6704C8.97868 48.6688 7.00084 48.67 5.02294 48.67C4.89592 48.67 4.7683 48.676 4.642 48.6657C4.02226 48.6149 3.63364 48.2584 3.6274 47.741C3.6208 47.1961 4.0204 46.8195 4.67818 46.8157C6.8011 46.8037 8.9242 46.8094 11.0472 46.81C13.8386 46.8108 16.3853 46.0497 18.5882 44.3064C21.373 42.1026 22.8852 39.2026 23.0916 35.6611C23.1866 34.0329 23.0966 32.3941 23.1834 30.7649C23.3691 27.2803 24.7921 24.3362 27.2355 21.8684C27.3887 21.7138 27.5318 21.5462 27.7002 21.4101C27.9708 21.1913 27.972 20.9682 27.9296 20.6174C27.8351 19.8365 27.7595 19.0152 27.9012 18.2522C28.1402 16.9663 29.2427 16.1696 30.5844 16.1468C31.7635 16.1267 32.943 16.1371 34.1223 16.132C34.1552 16.1318 34.188 16.1083 34.2506 16.0844C34.2893 15.5231 34.2846 14.9413 34.3766 14.3753C34.6904 12.4414 35.7171 10.9634 37.3397 9.88367C41.1138 7.37237 44.8865 4.85897 48.6589 2.34497C48.7145 2.30795 48.7582 2.25335 48.8074 2.20697C49.0249 2.20691 49.2427 2.20691 49.4605 2.20691ZM48.1778 34.6908C48.1778 24.7372 48.1778 14.8534 48.1778 4.91171C47.9662 5.04641 47.8129 5.14007 47.6633 5.23973C44.6 7.28027 41.5437 9.33119 38.4716 11.3584C36.9053 12.3919 36.1223 13.804 36.1425 15.6926C36.1692 18.1964 36.1736 20.7008 36.141 23.2042C36.1171 25.044 36.8569 26.4365 38.3382 27.5087C41.4675 29.7737 44.5721 32.0725 47.6876 34.3565C47.8291 34.4604 47.9777 34.5548 48.1778 34.6908ZM54.679 32.1673C54.679 23.9296 54.679 15.7797 54.679 7.56917C54.4714 7.67867 54.3127 7.75703 54.1592 7.84445C52.9623 8.52569 51.7759 9.22595 50.5649 9.88085C50.1908 10.0831 50.0746 10.3137 50.0759 10.7299C50.0909 15.6276 50.0855 20.5253 50.0855 25.4231C50.0855 26.6566 50.076 27.8902 50.096 29.1233C50.099 29.3077 50.1883 29.5777 50.3258 29.6592C51.7414 30.4987 53.1752 31.3072 54.679 32.1673ZM27.4919 48.6277C30.2005 48.6277 32.7987 48.6277 35.4924 48.6277C34.1426 46.4198 32.8376 44.2853 31.4912 42.0829C30.1349 44.3023 28.8349 46.4299 27.4919 48.6277ZM34.287 17.9962C33.1299 17.9962 32.0301 17.9947 30.9303 17.9965C29.9345 17.9981 29.6418 18.2942 29.6391 19.2956C29.6388 19.4406 29.6352 19.5856 29.6404 19.7305C29.6642 20.3902 29.9792 20.762 30.6335 20.7801C31.7377 20.8107 32.8436 20.7991 33.9483 20.7779C34.0631 20.7757 34.2685 20.591 34.272 20.4858C34.2993 19.6756 34.287 18.8641 34.287 17.9962ZM53.5712 33.6733C52.3604 32.984 51.2618 32.3584 50.1117 31.7036C50.1117 32.8964 50.1117 33.9792 50.1117 35.1492C51.2553 34.6613 52.3458 34.1961 53.5712 33.6733ZM53.5648 6.03605C52.3779 5.52707 51.2762 5.05457 50.1301 4.56311C50.1301 5.73377 50.1301 6.83315 50.1301 7.99979C51.2856 7.33907 52.3785 6.71429 53.5648 6.03605Z" fill="url(#paint0_linear_1133_192)"/>
<path fill-rule="evenodd" clip-rule="evenodd" d="M21.5874 57.9529C21.8375 57.655 22.1284 57.3821 22.3313 57.0549C23.5814 55.0407 24.8194 53.0188 26.0406 50.987C26.2399 50.6554 26.4453 50.5153 26.847 50.5177C29.9442 50.5365 33.0415 50.5365 36.1387 50.5179C36.5395 50.5154 36.7464 50.6533 36.9462 50.9858C38.1762 53.0333 39.4233 55.0709 40.6823 57.1009C40.8762 57.4137 41.1608 57.6703 41.4034 57.9529C34.798 57.9529 28.1927 57.9529 21.5874 57.9529Z" fill="white"/>
<defs>
<linearGradient id="paint0_linear_1133_192" x1="30.1086" y1="2.20691" x2="30.1086" y2="57.953" gradientUnits="userSpaceOnUse">
<stop stop-color="#D5318E"/>
<stop offset="1" stop-color="#50469C"/>
</linearGradient>
</defs>
</svg>
