<svg width="60" height="60" viewBox="0 0 60 60" fill="none" xmlns="http://www.w3.org/2000/svg">
<path fill-rule="evenodd" clip-rule="evenodd" d="M2.15216 24.3702C2.61956 22.9099 3.64688 22.3101 5.14094 22.4154C5.41184 22.4345 5.68688 22.3987 5.95718 22.422C6.63116 22.4801 7.13612 22.4399 7.45724 21.6294C7.7759 20.825 8.60072 20.5003 9.47816 20.4897C10.6032 20.4761 11.7286 20.4789 12.8536 20.4888C13.4723 20.4944 13.808 20.786 13.8189 21.2863C13.8304 21.812 13.4919 22.11 12.8374 22.1159C11.785 22.1255 10.7322 22.1136 9.6797 22.1212C8.94692 22.1265 8.6873 22.3821 8.68688 23.0997C8.6843 27.7277 8.68406 32.3554 8.68736 36.9833C8.68778 37.6464 8.94206 37.929 9.60122 37.9303C13.7752 37.9395 17.9494 37.935 22.1235 37.9324C22.2103 37.9323 22.2972 37.9016 22.4025 37.8816C22.4025 32.6439 22.4025 27.4211 22.4025 22.1192C22.1923 22.1192 21.9995 22.1193 21.8067 22.1192C20.1734 22.1181 18.54 22.1252 16.9068 22.1113C16.3588 22.1066 16.0052 21.7567 16.0131 21.2935C16.0209 20.8334 16.38 20.5166 16.9311 20.4877C17.0577 20.481 17.185 20.4855 17.3121 20.4855C18.9999 20.4855 20.6879 20.4995 22.3752 20.471C22.6429 20.4665 22.9725 20.3365 23.1627 20.151C24.2908 19.0511 25.9472 19.0595 27.063 20.183C27.2188 20.34 27.4849 20.4721 27.7005 20.4729C32.4735 20.4892 37.2464 20.4835 42.0194 20.4899C42.318 20.4903 42.5032 20.4271 42.6572 20.1299C43.0424 19.3872 43.6819 18.9542 44.5229 18.9C46.8223 18.7522 49.1229 18.6245 51.4233 18.4935C52.7999 18.4151 54.1765 18.3162 55.5544 18.2815C56.6024 18.255 57.4843 18.9509 57.7956 19.9447C58.1124 20.9563 57.7803 21.9798 56.9257 22.5998C56.7502 22.7271 56.5586 22.833 56.3707 22.9422C55.6503 23.3606 54.9283 23.7761 54.1457 24.2281C55.8482 25.8045 56.6945 27.7283 56.5642 30.0149C56.4349 32.2861 55.3946 34.0914 53.5112 35.4628C53.68 35.5766 53.8038 35.6705 53.9372 35.7479C54.8152 36.2573 55.7002 36.7552 56.5735 37.2723C57.6293 37.8977 58.0686 38.9654 57.736 40.05C57.3883 41.1841 56.4483 41.8454 55.2109 41.7766C53.2906 41.6697 51.3722 41.5337 49.4527 41.4138C47.968 41.3211 46.4836 41.2101 44.9974 41.1523C43.9558 41.1117 43.1411 40.7473 42.6002 39.8211C42.5238 39.6904 42.2903 39.5814 42.1292 39.5809C37.3562 39.5684 32.5831 39.5677 27.8102 39.5829C27.6345 39.5835 27.4053 39.7198 27.2923 39.8643C26.1026 41.3853 24.1186 41.3854 22.9107 39.879C22.7657 39.6981 22.4311 39.5842 22.1838 39.583C18.0824 39.5651 13.9808 39.5594 9.87926 39.5766C8.58686 39.582 7.6238 39.1461 7.14464 37.8694C7.10234 37.7569 6.87896 37.6554 6.7346 37.6482C6.2096 37.6218 5.6807 37.6094 5.15654 37.6428C3.66494 37.7382 2.6309 37.1528 2.15216 35.6969C2.15216 31.9214 2.15216 28.1459 2.15216 24.3702ZM42.3421 22.1567C40.7778 22.1567 39.2815 22.1567 37.7816 22.1567C37.7816 27.4265 37.7816 32.6586 37.7816 37.8936C39.3222 37.8936 40.8169 37.8936 42.3421 37.8936C42.3421 37.6884 42.3421 37.5263 42.3421 37.3642C42.3421 35.6037 42.3453 33.8432 42.3402 32.0828C42.3387 31.595 42.4892 31.2166 43.012 31.114C43.5769 31.003 43.9716 31.3897 43.9734 32.0565C43.9792 34.1618 43.975 36.267 43.9761 38.3724C43.9765 39.2478 44.1916 39.4623 45.0449 39.5129C47.1639 39.6387 49.2823 39.7769 51.401 39.9092C52.6867 39.9895 53.9722 40.076 55.2585 40.1437C55.9116 40.1781 56.3432 39.735 56.1577 39.1898C56.0812 38.9643 55.8443 38.7514 55.6271 38.6224C54.2869 37.8261 52.9272 37.0627 51.583 36.2728C50.8381 35.835 50.8489 35.156 51.5899 34.7048C51.7911 34.5823 51.9992 34.4712 52.2011 34.3496C55.7917 32.186 55.8884 27.2882 52.3863 24.9846C51.5689 24.4468 51.5858 23.8179 52.4381 23.3231C53.5357 22.6859 54.6364 22.0542 55.7378 21.4239C56.116 21.2076 56.3866 20.9311 56.2383 20.4588C56.0955 20.0038 55.7437 19.883 55.2956 19.9086C51.8537 20.1048 48.4112 20.2892 44.9694 20.4882C44.1753 20.5341 43.9769 20.7737 43.9761 21.5935C43.9747 23.2813 43.976 24.9691 43.9755 26.6571C43.9753 27.147 43.9932 27.6382 43.9654 28.1266C43.939 28.59 43.5696 28.9258 43.1394 28.8936C42.6833 28.8593 42.4077 28.5991 42.3511 28.1392C42.3291 27.9603 42.3423 27.7767 42.3422 27.5953C42.3419 25.7997 42.3421 24.004 42.3421 22.1567ZM27.8004 22.1533C27.8004 27.4304 27.8004 32.6587 27.8004 37.8844C30.5846 37.8844 33.327 37.8844 36.0669 37.8844C36.0669 32.6171 36.0669 27.4021 36.0669 22.1533C33.3021 22.1533 30.5727 22.1533 27.8004 22.1533ZM7.00682 36.0021C7.00682 31.9858 7.00682 28.031 7.00682 24.0531C6.18368 24.0531 5.40518 24.0402 4.62728 24.0574C4.07954 24.0696 3.791 24.3616 3.7898 24.9133C3.78284 28.3208 3.78296 31.7285 3.78968 35.1361C3.79082 35.6908 4.07192 35.9824 4.62308 35.997C5.40062 36.0174 6.17906 36.0021 7.00682 36.0021ZM26.125 30.2143C26.125 29.2707 26.1252 28.3271 26.125 27.3834C26.1247 25.605 26.131 23.8265 26.1199 22.0482C26.1159 21.4092 25.7104 20.9939 25.1303 20.9795C24.5431 20.9651 24.1228 21.3595 24.0628 21.9836C24.0558 22.0556 24.058 22.1286 24.058 22.2011C24.0579 27.5181 24.0569 32.8351 24.0621 38.1521C24.0622 38.3475 24.0861 38.5582 24.1614 38.7352C24.3516 39.1831 24.7194 39.4125 25.2011 39.3573C25.7011 39.3001 26.0275 39.0017 26.1089 38.4882C26.137 38.3107 26.1245 38.1261 26.1246 37.9448C26.1253 35.3681 26.125 32.7912 26.125 30.2143Z" fill="url(#paint0_linear_1133_147)"/>
<path fill-rule="evenodd" clip-rule="evenodd" d="M40.0078 24.4729C39.8091 24.4721 39.6071 24.4957 39.4127 24.4674C38.9574 24.4009 38.6887 24.1132 38.6885 23.6618C38.6885 23.2101 38.9567 22.9052 39.4135 22.8608C39.8248 22.8209 40.2451 22.8259 40.6577 22.858C41.115 22.8936 41.3763 23.1778 41.4087 23.6357C41.4393 24.0707 41.1179 24.4237 40.6573 24.4699C40.4428 24.4915 40.2243 24.4737 40.0078 24.4729Z" fill="url(#paint1_linear_1133_147)"/>
<path fill-rule="evenodd" clip-rule="evenodd" d="M40.0462 27.6326C39.8297 27.6321 39.6097 27.6567 39.3974 27.6269C38.9656 27.5662 38.7089 27.2913 38.6906 26.8641C38.6711 26.4083 38.9253 26.0859 39.376 26.0324C39.8207 25.9796 40.2819 25.9783 40.726 26.0334C41.1746 26.0891 41.4264 26.4083 41.4045 26.8691C41.3839 27.3021 41.1246 27.5672 40.6954 27.6279C40.4829 27.6578 40.2629 27.6331 40.0462 27.6326Z" fill="url(#paint2_linear_1133_147)"/>
<path fill-rule="evenodd" clip-rule="evenodd" d="M40.0991 29.1887C40.3153 29.1887 40.5403 29.1504 40.7462 29.1966C41.1873 29.2954 41.4377 29.5923 41.4026 30.0546C41.3698 30.4866 41.1091 30.7566 40.6747 30.7907C40.2798 30.8217 39.88 30.8161 39.484 30.7961C39.0103 30.7722 38.6917 30.4429 38.6812 30.0087C38.6708 29.5818 38.9882 29.2283 39.4495 29.18C39.6638 29.1576 39.8824 29.1762 40.0989 29.1762C40.0991 29.1803 40.0991 29.1846 40.0991 29.1887Z" fill="url(#paint3_linear_1133_147)"/>
<path fill-rule="evenodd" clip-rule="evenodd" d="M40.0209 33.963C39.8403 33.963 39.659 33.9746 39.4796 33.9608C39.0071 33.9243 38.689 33.6029 38.6815 33.1687C38.6739 32.7423 38.9902 32.3813 39.4548 32.3461C39.8496 32.3162 40.2504 32.3162 40.6451 32.3464C41.1116 32.3821 41.4202 32.7385 41.412 33.1708C41.4035 33.6138 41.0964 33.9251 40.6163 33.9607C40.4188 33.9754 40.2194 33.9632 40.0209 33.963Z" fill="url(#paint4_linear_1133_147)"/>
<path fill-rule="evenodd" clip-rule="evenodd" d="M40.0371 37.1226C39.8386 37.122 39.6391 37.134 39.4417 37.1196C38.9998 37.0872 38.7404 36.8277 38.6951 36.402C38.6495 35.9727 38.8598 35.6203 39.2831 35.5581C39.7756 35.4857 40.2922 35.4832 40.786 35.5462C41.2075 35.5999 41.4352 35.9376 41.4028 36.3717C41.3688 36.8284 41.0995 37.0921 40.6326 37.1211C40.4348 37.1334 40.2357 37.1231 40.0371 37.1226Z" fill="url(#paint5_linear_1133_147)"/>
<defs>
<linearGradient id="paint0_linear_1133_147" x1="30.0328" y1="18.2808" x2="30.0328" y2="41.7815" gradientUnits="userSpaceOnUse">
<stop stop-color="#E02F8D"/>
<stop offset="1" stop-color="#47489D"/>
</linearGradient>
<linearGradient id="paint1_linear_1133_147" x1="40.0496" y1="22.8324" x2="40.0496" y2="24.4814" gradientUnits="userSpaceOnUse">
<stop stop-color="#E02F8D"/>
<stop offset="1" stop-color="#47489D"/>
</linearGradient>
<linearGradient id="paint2_linear_1133_147" x1="40.0477" y1="25.9924" x2="40.0477" y2="27.6427" gradientUnits="userSpaceOnUse">
<stop stop-color="#E02F8D"/>
<stop offset="1" stop-color="#47489D"/>
</linearGradient>
<linearGradient id="paint3_linear_1133_147" x1="40.0434" y1="29.1689" x2="40.0434" y2="30.8125" gradientUnits="userSpaceOnUse">
<stop stop-color="#E02F8D"/>
<stop offset="1" stop-color="#47489D"/>
</linearGradient>
<linearGradient id="paint4_linear_1133_147" x1="40.0467" y1="32.3237" x2="40.0467" y2="33.9679" gradientUnits="userSpaceOnUse">
<stop stop-color="#E02F8D"/>
<stop offset="1" stop-color="#47489D"/>
</linearGradient>
<linearGradient id="paint5_linear_1133_147" x1="40.0474" y1="35.5012" x2="40.0474" y2="37.1271" gradientUnits="userSpaceOnUse">
<stop stop-color="#E02F8D"/>
<stop offset="1" stop-color="#47489D"/>
</linearGradient>
</defs>
</svg>
