<svg width="24" height="24" viewBox="0 0 24 24" fill="none" xmlns="http://www.w3.org/2000/svg">
<g clip-path="url(#clip0_1225_159)">
<path d="M23.6437 8.67498C23.3268 8.27739 22.8513 8.04929 22.3392 8.04929H17.7171L15.2108 2.31024C15.0554 1.95441 14.6409 1.7918 14.285 1.94729C13.9291 2.10268 13.7666 2.5172 13.9221 2.87307L16.1826 8.04934H7.81739L10.0779 2.87307C10.2333 2.5172 10.0709 2.10273 9.71499 1.94729C9.35916 1.7918 8.94464 1.95432 8.78925 2.31024L6.28289 8.04934H1.66083C1.14867 8.04934 0.673222 8.27739 0.3563 8.67503C0.0451904 9.0654 -0.0696064 9.56725 0.0413467 10.052L2.50964 20.8333C2.682 21.5861 3.34796 22.1118 4.12913 22.1118H19.8709C20.6521 22.1118 21.318 21.5861 21.4904 20.8333L23.9587 10.052C24.0696 9.5672 23.9548 9.06536 23.6437 8.67498ZM19.8709 20.7056H4.12913C4.00974 20.7056 3.90516 20.6273 3.88046 20.5194L1.41216 9.7382C1.3928 9.65359 1.42528 9.58993 1.45603 9.55145C1.48453 9.51564 1.54908 9.45559 1.66083 9.45559H5.66878L5.48461 9.87732C5.32922 10.2332 5.49169 10.6477 5.84757 10.8031C5.93916 10.8431 6.0346 10.8621 6.12858 10.8621C6.39961 10.8621 6.65789 10.7044 6.7733 10.4402L7.20328 9.45568H16.7968L17.2268 10.4402C17.3422 10.7045 17.6005 10.8621 17.8715 10.8621C17.9655 10.8621 18.0609 10.8431 18.1525 10.8031C18.5084 10.6477 18.6709 10.2332 18.5155 9.87732L18.3313 9.45559H22.3393C22.451 9.45559 22.5156 9.51564 22.5441 9.55145C22.5748 9.58998 22.6073 9.65364 22.5879 9.73815L20.1196 20.5194C20.0949 20.6273 19.9903 20.7056 19.8709 20.7056Z" fill="#2D2D2D"/>
<path d="M7.78125 12.5023C7.39294 12.5023 7.07812 12.8171 7.07812 13.2054V18.3617C7.07812 18.75 7.39294 19.0648 7.78125 19.0648C8.16956 19.0648 8.48438 18.75 8.48438 18.3617V13.2054C8.48438 12.8171 8.16961 12.5023 7.78125 12.5023Z" fill="#2D2D2D"/>
<path d="M12 12.5023C11.6117 12.5023 11.2969 12.8171 11.2969 13.2054V18.3617C11.2969 18.75 11.6117 19.0648 12 19.0648C12.3883 19.0648 12.7031 18.75 12.7031 18.3617V13.2054C12.7031 12.8171 12.3883 12.5023 12 12.5023Z" fill="#2D2D2D"/>
<path d="M16.2188 12.5023C15.8304 12.5023 15.5156 12.8171 15.5156 13.2054V18.3617C15.5156 18.75 15.8304 19.0648 16.2188 19.0648C16.6071 19.0648 16.9219 18.75 16.9219 18.3617V13.2054C16.9218 12.8171 16.6071 12.5023 16.2188 12.5023Z" fill="#2D2D2D"/>
</g>
<defs>
<clipPath id="clip0_1225_159">
<rect width="24" height="24" fill="white"/>
</clipPath>
</defs>
</svg>
