<svg width="36" height="36" viewBox="0 0 36 36" fill="none" xmlns="http://www.w3.org/2000/svg">
<path fill-rule="evenodd" clip-rule="evenodd" d="M1.29126 14.6221C1.5717 13.7459 2.18809 13.3861 3.08453 13.4492C3.24707 13.4607 3.41209 13.4392 3.57427 13.4532C3.97866 13.488 4.28164 13.4639 4.47431 12.9776C4.6655 12.495 5.16039 12.3002 5.68686 12.2938C6.36186 12.2856 7.03711 12.2873 7.71215 12.2933C8.08334 12.2966 8.28476 12.4716 8.29131 12.7718C8.29823 13.0872 8.09511 13.266 7.70243 13.2695C7.07095 13.2753 6.43929 13.2682 5.80778 13.2727C5.36811 13.2759 5.21234 13.4293 5.21209 13.8598C5.21054 16.6366 5.2104 19.4133 5.21238 22.19C5.21263 22.5878 5.3652 22.7574 5.76069 22.7582C8.26511 22.7637 10.7696 22.761 13.2741 22.7595C13.3262 22.7594 13.3783 22.7409 13.4414 22.7289C13.4414 19.5863 13.4414 16.4527 13.4414 13.2715C13.3153 13.2715 13.1997 13.2716 13.084 13.2715C12.104 13.2708 11.124 13.2751 10.144 13.2668C9.81527 13.264 9.60308 13.054 9.60783 12.7761C9.61251 12.5 9.82797 12.3099 10.1586 12.2926C10.2346 12.2886 10.311 12.2913 10.3872 12.2913C11.3999 12.2913 12.4127 12.2997 13.4251 12.2826C13.5857 12.2799 13.7835 12.2019 13.8976 12.0906C14.5744 11.4306 15.5683 11.4357 16.2378 12.1098C16.3313 12.204 16.4909 12.2832 16.6202 12.2837C19.484 12.2935 22.3478 12.2901 25.2116 12.2939C25.3908 12.2942 25.5019 12.2562 25.5943 12.0779C25.8254 11.6323 26.2091 11.3725 26.7137 11.34C28.0933 11.2513 29.4737 11.1747 30.854 11.0961C31.6799 11.0491 32.5058 10.9897 33.3326 10.9689C33.9614 10.953 34.4905 11.3705 34.6773 11.9668C34.8674 12.5738 34.6682 13.1879 34.1554 13.5598C34.0501 13.6363 33.9352 13.6998 33.8224 13.7653C33.3901 14.0164 32.9569 14.2656 32.4874 14.5368C33.5089 15.4827 34.0167 16.637 33.9385 18.0089C33.8609 19.3716 33.2367 20.4548 32.1067 21.2777C32.208 21.346 32.2823 21.4023 32.3623 21.4487C32.8891 21.7544 33.4201 22.0531 33.9441 22.3634C34.5775 22.7386 34.8411 23.3792 34.6415 24.03C34.433 24.7104 33.8689 25.1072 33.1265 25.0659C31.9743 25.0018 30.8233 24.9202 29.6716 24.8483C28.7807 24.7926 27.8901 24.726 26.9984 24.6914C26.3734 24.667 25.8846 24.4484 25.5601 23.8927C25.5143 23.8143 25.3741 23.7488 25.2775 23.7485C22.4137 23.741 19.5498 23.7406 16.6861 23.7497C16.5807 23.7501 16.4432 23.8319 16.3754 23.9186C15.6615 24.8312 14.4711 24.8312 13.7464 23.9274C13.6594 23.8188 13.4586 23.7505 13.3102 23.7498C10.8494 23.7391 8.38844 23.7356 5.92752 23.746C5.15208 23.7492 4.57424 23.4877 4.28675 22.7217C4.26137 22.6541 4.12734 22.5932 4.04072 22.5889C3.72572 22.5731 3.40838 22.5656 3.09389 22.5857C2.19893 22.6429 1.5785 22.2916 1.29126 21.4181C1.29126 19.1528 1.29126 16.8875 1.29126 14.6221ZM25.4052 13.294C24.4667 13.294 23.5689 13.294 22.6689 13.294C22.6689 16.4559 22.6689 19.5951 22.6689 22.7361C23.5933 22.7361 24.4901 22.7361 25.4052 22.7361C25.4052 22.613 25.4052 22.5158 25.4052 22.4185C25.4052 21.3622 25.4072 20.3059 25.4041 19.2497C25.4032 18.957 25.4935 18.7299 25.8072 18.6684C26.1461 18.6018 26.3829 18.8338 26.384 19.2339C26.3875 20.4971 26.3849 21.7602 26.3856 23.0234C26.3858 23.5487 26.5149 23.6774 27.0269 23.7077C28.2983 23.7832 29.5694 23.8661 30.8406 23.9455C31.612 23.9937 32.3833 24.0456 33.1551 24.0862C33.5469 24.1068 33.8059 23.841 33.6946 23.5139C33.6487 23.3786 33.5066 23.2509 33.3763 23.1735C32.5721 22.6956 31.7563 22.2376 30.9497 21.7637C30.5028 21.501 30.5093 21.0936 30.9539 20.8229C31.0746 20.7494 31.1995 20.6827 31.3206 20.6097C33.475 19.3116 33.533 16.3729 31.4317 14.9907C30.9413 14.6681 30.9515 14.2907 31.4628 13.9939C32.1214 13.6115 32.7818 13.2325 33.4426 12.8543C33.6695 12.7245 33.8319 12.5586 33.7429 12.2753C33.6573 12.0023 33.4462 11.9298 33.1773 11.9451C31.1122 12.0628 29.0467 12.1735 26.9816 12.2929C26.5051 12.3205 26.3861 12.4642 26.3856 12.9561C26.3848 13.9688 26.3856 14.9814 26.3852 15.9942C26.3852 16.2882 26.3959 16.5829 26.3792 16.8759C26.3633 17.154 26.1417 17.3555 25.8836 17.3361C25.6099 17.3156 25.4446 17.1594 25.4106 16.8835C25.3974 16.7762 25.4054 16.666 25.4053 16.5572C25.4051 15.4798 25.4052 14.4024 25.4052 13.294ZM16.6802 13.292C16.6802 16.4582 16.6802 19.5952 16.6802 22.7306C18.3507 22.7306 19.9962 22.7306 21.6401 22.7306C21.6401 19.5702 21.6401 16.4412 21.6401 13.292C19.9812 13.292 18.3436 13.292 16.6802 13.292ZM4.20406 21.6012C4.20406 19.1915 4.20406 16.8186 4.20406 14.4318C3.71017 14.4318 3.24307 14.4241 2.77633 14.4344C2.44769 14.4418 2.27456 14.6169 2.27384 14.948C2.26967 16.9925 2.26974 19.0371 2.27377 21.0817C2.27446 21.4145 2.44312 21.5894 2.77381 21.5982C3.24034 21.6104 3.7074 21.6012 4.20406 21.6012ZM15.675 18.1286C15.675 17.5624 15.6751 16.9962 15.675 16.43C15.6748 15.363 15.6786 14.2959 15.6719 13.2289C15.6695 12.8455 15.4262 12.5963 15.0781 12.5877C14.7258 12.579 14.4736 12.8157 14.4376 13.1901C14.4335 13.2333 14.4348 13.2771 14.4348 13.3207C14.4347 16.5109 14.4341 19.7011 14.4372 22.8912C14.4373 23.0085 14.4516 23.1349 14.4968 23.2411C14.6109 23.5099 14.8316 23.6475 15.1206 23.6144C15.4206 23.5801 15.6165 23.401 15.6653 23.0929C15.6822 22.9864 15.6747 22.8757 15.6747 22.7669C15.6752 21.2208 15.675 19.6747 15.675 18.1286Z" fill="url(#paint0_linear_1185_950)"/>
<path fill-rule="evenodd" clip-rule="evenodd" d="M24.0047 14.6838C23.8855 14.6833 23.7643 14.6974 23.6476 14.6805C23.3744 14.6406 23.2132 14.4679 23.2131 14.1971C23.2131 13.9261 23.3741 13.7432 23.6481 13.7165C23.8949 13.6926 24.147 13.6955 24.3946 13.7148C24.669 13.7362 24.8258 13.9067 24.8452 14.1815C24.8636 14.4425 24.6708 14.6542 24.3944 14.682C24.2657 14.6949 24.1346 14.6842 24.0047 14.6838Z" fill="url(#paint1_linear_1185_950)"/>
<path fill-rule="evenodd" clip-rule="evenodd" d="M24.0277 16.5796C23.8978 16.5793 23.7658 16.594 23.6384 16.5761C23.3794 16.5397 23.2254 16.3748 23.2144 16.1185C23.2026 15.845 23.3552 15.6515 23.6256 15.6195C23.8924 15.5878 24.1691 15.587 24.4356 15.62C24.7047 15.6535 24.8558 15.845 24.8427 16.1215C24.8303 16.3813 24.6747 16.5403 24.4172 16.5767C24.2898 16.5947 24.1577 16.5799 24.0277 16.5796Z" fill="url(#paint2_linear_1185_950)"/>
<path fill-rule="evenodd" clip-rule="evenodd" d="M24.0594 17.5132C24.1891 17.5132 24.3241 17.4902 24.4477 17.5179C24.7123 17.5773 24.8626 17.7554 24.8415 18.0327C24.8218 18.292 24.6654 18.454 24.4047 18.4744C24.1678 18.493 23.928 18.4897 23.6904 18.4777C23.4061 18.4633 23.215 18.2658 23.2086 18.0052C23.2025 17.7491 23.3929 17.537 23.6697 17.508C23.7982 17.4945 23.9294 17.5057 24.0593 17.5057C24.0594 17.5082 24.0594 17.5107 24.0594 17.5132Z" fill="url(#paint3_linear_1185_950)"/>
<path fill-rule="evenodd" clip-rule="evenodd" d="M24.0125 20.3778C23.9041 20.3778 23.7954 20.3848 23.6877 20.3765C23.4042 20.3546 23.2134 20.1617 23.2088 19.9012C23.2043 19.6454 23.3941 19.4288 23.6728 19.4076C23.9097 19.3897 24.1502 19.3897 24.387 19.4078C24.6669 19.4292 24.8521 19.6431 24.8471 19.9025C24.842 20.1683 24.6578 20.355 24.3697 20.3764C24.2512 20.3852 24.1316 20.3779 24.0125 20.3778Z" fill="url(#paint4_linear_1185_950)"/>
<path fill-rule="evenodd" clip-rule="evenodd" d="M24.0223 22.2735C23.9031 22.2732 23.7835 22.2804 23.665 22.2717C23.3999 22.2523 23.2443 22.0966 23.2171 21.8412C23.1897 21.5836 23.3159 21.3721 23.5699 21.3348C23.8653 21.2914 24.1753 21.2899 24.4716 21.3277C24.7245 21.3599 24.8611 21.5625 24.8417 21.823C24.8213 22.097 24.6597 22.2552 24.3796 22.2726C24.2609 22.28 24.1414 22.2738 24.0223 22.2735Z" fill="url(#paint5_linear_1185_950)"/>
<defs>
<linearGradient id="paint0_linear_1185_950" x1="18.0197" y1="10.9684" x2="18.0197" y2="25.0689" gradientUnits="userSpaceOnUse">
<stop stop-color="#E02F8D"/>
<stop offset="1" stop-color="#47489D"/>
</linearGradient>
<linearGradient id="paint1_linear_1185_950" x1="24.0298" y1="13.6994" x2="24.0298" y2="14.6888" gradientUnits="userSpaceOnUse">
<stop stop-color="#E02F8D"/>
<stop offset="1" stop-color="#47489D"/>
</linearGradient>
<linearGradient id="paint2_linear_1185_950" x1="24.0286" y1="15.5955" x2="24.0286" y2="16.5856" gradientUnits="userSpaceOnUse">
<stop stop-color="#E02F8D"/>
<stop offset="1" stop-color="#47489D"/>
</linearGradient>
<linearGradient id="paint3_linear_1185_950" x1="24.026" y1="17.5014" x2="24.026" y2="18.4875" gradientUnits="userSpaceOnUse">
<stop stop-color="#E02F8D"/>
<stop offset="1" stop-color="#47489D"/>
</linearGradient>
<linearGradient id="paint4_linear_1185_950" x1="24.028" y1="19.3942" x2="24.028" y2="20.3807" gradientUnits="userSpaceOnUse">
<stop stop-color="#E02F8D"/>
<stop offset="1" stop-color="#47489D"/>
</linearGradient>
<linearGradient id="paint5_linear_1185_950" x1="24.0284" y1="21.3007" x2="24.0284" y2="22.2762" gradientUnits="userSpaceOnUse">
<stop stop-color="#E02F8D"/>
<stop offset="1" stop-color="#47489D"/>
</linearGradient>
</defs>
</svg>
