<svg width="36" height="36" viewBox="0 0 36 36" fill="none" xmlns="http://www.w3.org/2000/svg">
<path fill-rule="evenodd" clip-rule="evenodd" d="M29.6763 1.32416C30.7698 1.80191 31.8607 2.28575 32.9575 2.75577C34.0241 3.21275 33.9453 3.12056 33.9452 4.25542C33.9448 9.49137 33.9395 14.7274 33.9539 19.9633C33.9552 20.465 33.7783 20.7359 33.3171 20.922C32.1584 21.3894 31.0137 21.8918 29.8689 22.3928C29.5555 22.5299 29.2978 22.503 29.0205 22.2987C26.7697 20.6395 24.5115 18.9901 22.2579 17.3345C21.1483 16.5193 20.5777 15.4243 20.5738 14.0416C20.5734 13.903 20.5737 13.7644 20.5737 13.6086C20.1905 13.6086 19.847 13.6086 19.453 13.6086C19.453 13.7447 19.453 13.8703 19.453 13.9959C19.453 17.229 19.4499 20.4619 19.4604 23.695C19.4611 23.8986 19.5261 24.1275 19.6319 24.3016C21.5412 27.4429 23.4616 30.5774 25.3789 33.7137C25.6856 34.2154 25.6579 34.4073 25.2341 34.7718C25.1034 34.7718 24.9728 34.7718 24.8421 34.7718C24.6965 34.6022 24.5259 34.4483 24.4094 34.2606C23.6541 33.0426 22.9058 31.8201 22.1678 30.5916C22.0479 30.3921 21.9238 30.3093 21.6833 30.3108C19.825 30.322 17.9665 30.322 16.1083 30.3107C15.8672 30.3092 15.7441 30.3933 15.6245 30.5923C14.8917 31.8114 14.1489 33.0245 13.3989 34.233C13.2771 34.4293 13.1026 34.5931 12.9525 34.7718C12.8437 34.7718 12.7348 34.7718 12.6259 34.7718C12.1618 34.4926 12.0992 34.2312 12.3929 33.7502C14.3091 30.6125 16.2295 27.4773 18.1371 24.3344C18.2533 24.143 18.3255 23.892 18.3264 23.6684C18.3383 20.4458 18.3345 17.2231 18.3345 14.0005C18.3345 13.8718 18.3345 13.7432 18.3345 13.6165C18.1036 13.556 17.9073 13.492 17.7059 13.459C17.64 13.4482 17.5461 13.5017 17.4899 13.553C15.8457 15.0573 14.991 16.9091 14.9804 19.1537C14.9752 20.2506 15.0046 21.3633 14.8362 22.4403C14.4671 24.8012 13.1913 26.6188 11.1907 27.9176C9.78976 28.827 8.23258 29.2036 6.57395 29.2022C5.38721 29.2013 4.2005 29.202 3.01376 29.202C2.93755 29.202 2.86098 29.2056 2.7852 29.1994C2.41336 29.1689 2.18018 28.955 2.17644 28.6446C2.17248 28.3176 2.41224 28.0917 2.80691 28.0894C4.08066 28.0822 5.35452 28.0856 6.62834 28.086C8.30314 28.0865 9.83116 27.6298 11.1529 26.5838C12.8238 25.2616 13.7311 23.5216 13.855 21.3967C13.912 20.4198 13.858 19.4365 13.9101 18.459C14.0215 16.3682 14.8753 14.6018 16.3413 13.1211C16.4332 13.0283 16.5191 12.9277 16.6201 12.8461C16.7825 12.7148 16.7832 12.5809 16.7578 12.3705C16.701 11.9019 16.6557 11.4091 16.7407 10.9513C16.8841 10.1798 17.5456 9.70176 18.3507 9.68811C19.0581 9.67605 19.7658 9.68224 20.4734 9.67918C20.4931 9.67911 20.5128 9.665 20.5503 9.65067C20.5736 9.31386 20.5708 8.9648 20.6259 8.62521C20.8143 7.46482 21.4303 6.57804 22.4038 5.93021C24.6683 4.42343 26.9319 2.91539 29.1953 1.40699C29.2287 1.38478 29.2549 1.35202 29.2844 1.32419C29.4149 1.32416 29.5456 1.32416 29.6763 1.32416ZM28.9067 20.8145C28.9067 14.8423 28.9067 8.91202 28.9067 2.94704C28.7797 3.02786 28.6877 3.08405 28.598 3.14385C26.76 4.36817 24.9262 5.59873 23.083 6.81506C22.1432 7.43516 21.6734 8.28238 21.6855 9.41559C21.7015 10.9178 21.7041 12.4205 21.6846 13.9225C21.6703 15.0264 22.1141 15.8619 23.0029 16.5052C24.8805 17.8642 26.7433 19.2435 28.6125 20.6139C28.6975 20.6763 28.7866 20.7329 28.9067 20.8145ZM32.8074 19.3004C32.8074 14.3577 32.8074 9.46783 32.8074 4.54151C32.6828 4.60721 32.5876 4.65423 32.4955 4.70668C31.7774 5.11543 31.0655 5.53558 30.3389 5.92852C30.1145 6.04988 30.0448 6.18823 30.0456 6.43792C30.0546 9.37657 30.0513 12.3152 30.0513 15.2539C30.0513 15.9939 30.0456 16.7341 30.0576 17.474C30.0594 17.5846 30.1129 17.7466 30.1955 17.7955C31.0448 18.2992 31.9051 18.7843 32.8074 19.3004ZM16.4951 29.1766C18.1203 29.1766 19.6792 29.1766 21.2955 29.1766C20.4856 27.8519 19.7026 26.5712 18.8947 25.2497C18.081 26.5814 17.3009 27.858 16.4951 29.1766ZM20.5722 10.7977C19.8779 10.7977 19.2181 10.7968 18.5582 10.7979C17.9607 10.7989 17.7851 10.9765 17.7835 11.5774C17.7833 11.6644 17.7811 11.7514 17.7842 11.8383C17.7985 12.2341 17.9875 12.4572 18.3801 12.4681C19.0426 12.4864 19.7061 12.4795 20.369 12.4667C20.4378 12.4654 20.5611 12.3546 20.5632 12.2915C20.5796 11.8054 20.5722 11.3185 20.5722 10.7977ZM32.1427 20.204C31.4163 19.7904 30.7571 19.4151 30.067 19.0222C30.067 19.7379 30.067 20.3875 30.067 21.0895C30.7532 20.7968 31.4075 20.5177 32.1427 20.204ZM32.1389 3.62164C31.4268 3.31625 30.7657 3.03275 30.0781 2.73788C30.0781 3.44027 30.0781 4.0999 30.0781 4.79989C30.7714 4.40345 31.4271 4.02859 32.1389 3.62164Z" fill="url(#paint0_linear_1185_958)"/>
<path fill-rule="evenodd" clip-rule="evenodd" d="M12.9524 34.7718C13.1025 34.593 13.277 34.4293 13.3988 34.233C14.1488 33.0245 14.8916 31.8113 15.6243 30.5923C15.7439 30.3933 15.8671 30.3092 16.1081 30.3107C17.9664 30.322 19.8248 30.322 21.6832 30.3108C21.9237 30.3093 22.0478 30.392 22.1677 30.5915C22.9057 31.8201 23.6539 33.0426 24.4093 34.2606C24.5257 34.4483 24.6964 34.6022 24.842 34.7718C20.8788 34.7718 16.9156 34.7718 12.9524 34.7718Z" fill="white"/>
<defs>
<linearGradient id="paint0_linear_1185_958" x1="18.0651" y1="1.32416" x2="18.0651" y2="34.7718" gradientUnits="userSpaceOnUse">
<stop stop-color="#D5318E"/>
<stop offset="1" stop-color="#50469C"/>
</linearGradient>
</defs>
</svg>
