<svg width="36" height="36" viewBox="0 0 36 36" fill="none" xmlns="http://www.w3.org/2000/svg">
<path fill-rule="evenodd" clip-rule="evenodd" d="M3.74676 16.7019C1.87829 17.2489 1.10458 18.1215 1.09961 19.7122C1.08838 23.2226 1.0864 26.7331 1.09979 30.2436C1.10656 32.0173 2.31411 33.1908 4.09621 33.1942C6.47193 33.1983 8.84775 33.1952 11.2235 33.1951C15.39 33.1951 19.5566 33.1996 23.7231 33.1929C25.3951 33.1901 26.5622 32.0611 26.6568 30.3929C26.6695 30.1704 26.6022 29.938 26.7289 29.6955C26.8932 29.7701 27.0541 29.8361 27.2085 29.9145C28.724 30.6833 30.2388 31.4529 31.7526 32.2247C33.5291 33.1306 35.0754 32.1827 35.0773 30.1796C35.0803 26.7044 35.0809 23.2294 35.0768 19.7543C35.0747 17.7926 33.5244 16.833 31.7848 17.7128C30.2212 18.5037 28.6572 19.2939 27.1013 20.0996C26.7542 20.2792 26.6614 20.2323 26.6502 19.829C26.5944 17.8091 25.4925 16.7582 23.459 16.7511C23.03 16.7495 22.601 16.7508 22.0735 16.7508C25.0146 14.2679 26.0591 11.3185 24.7627 7.75523C23.7395 4.94273 20.9397 2.94048 18.0082 2.99837C13.3198 3.09085 10.866 5.74935 10.1382 10.2284C7.87251 8.2966 5.32968 8.90316 3.97302 10.1411C3.15661 10.8862 2.66277 11.8014 2.50714 12.8963C2.2996 14.3565 2.78556 15.6028 3.74676 16.7019Z" fill="#FEFEFE"/>
<path fill-rule="evenodd" clip-rule="evenodd" d="M3.74676 16.7019C2.78556 15.6028 2.2996 14.3565 2.50707 12.8963C2.66269 11.8014 3.15654 10.8862 3.97295 10.1411C5.32965 8.90313 7.87247 8.2966 10.1381 10.2284C10.866 5.74931 13.3198 3.09082 18.0081 2.99837C20.9397 2.94048 23.7395 4.94277 24.7627 7.75534C26.0591 11.3186 25.0146 14.268 22.0735 16.7509C22.601 16.7509 23.03 16.7496 23.459 16.7512C25.4925 16.7583 26.5944 17.8092 26.6502 19.8291C26.6615 20.2324 26.7542 20.2793 27.1013 20.0997C28.6572 19.2941 30.2212 18.5038 31.7848 17.7129C33.5244 16.833 35.0748 17.7926 35.0768 19.7544C35.0808 23.2295 35.0803 26.7045 35.0773 30.1797C35.0754 32.1828 33.5291 33.1307 31.7526 32.2248C30.2388 31.453 28.724 30.6835 27.2085 29.9146C27.0541 29.8363 26.8932 29.7702 26.7289 29.6956C26.6022 29.9381 26.6695 30.1706 26.6568 30.393C26.5622 32.0612 25.3951 33.1902 23.7231 33.193C19.5566 33.1997 15.3899 33.1952 11.2235 33.1952C8.84771 33.1953 6.47193 33.1984 4.09621 33.1943C2.31411 33.191 1.10656 32.0174 1.09979 30.2437C1.0864 26.7332 1.08838 23.2227 1.09961 19.7123C1.10461 18.1215 1.87829 17.2489 3.74676 16.7019ZM13.9288 31.916C17.1017 31.916 20.2746 31.9163 23.4474 31.916C24.8227 31.9158 25.3632 31.37 25.3636 29.9784C25.3645 26.6466 25.3644 23.3149 25.3636 19.9833C25.3634 18.5565 24.8461 18.0431 23.3992 18.046C21.3964 18.0501 19.3936 18.0689 17.3908 18.0676C12.9776 18.0647 8.5645 18.0487 4.15147 18.0481C2.9665 18.0479 2.39277 18.6286 2.39053 19.8158C2.38409 23.2546 2.38438 26.6933 2.39053 30.1321C2.39277 31.3354 2.98997 31.9152 4.1973 31.9156C7.44112 31.9168 10.6849 31.916 13.9288 31.916ZM17.741 16.7198C20.7111 16.8756 23.9784 14.394 24.0178 10.5143C24.0527 7.08261 21.1924 4.25059 17.7594 4.25319C14.3244 4.25581 11.4763 7.08894 11.5108 10.5224C11.5497 14.3909 14.8247 16.8616 17.741 16.7198ZM33.7862 25.0029C33.7862 23.2653 33.7887 21.5277 33.7853 19.7902C33.7831 18.7301 33.262 18.4007 32.3311 18.8716C30.578 19.7586 28.8313 20.6588 27.0722 21.5334C26.7729 21.682 26.6779 21.8562 26.6806 22.1831C26.6964 24.0447 26.696 25.9066 26.6809 27.7681C26.6783 28.0926 26.7681 28.2699 27.0698 28.4196C28.8297 29.2927 30.5764 30.1918 32.3298 31.0779C33.2661 31.551 33.783 31.226 33.785 30.1626C33.7887 28.4427 33.786 26.7228 33.7862 25.0029ZM6.97906 16.7192C8.81301 16.7183 10.2201 15.3291 10.2215 13.5182C10.2228 11.7174 8.78903 10.2803 6.99123 10.2802C5.19173 10.2802 3.73974 11.7184 3.73488 13.5058C3.72995 15.3 5.16369 16.72 6.97906 16.7192ZM13.5361 16.7508C12.6588 16.0974 11.9826 15.4132 11.3974 14.5234C11.1679 15.3982 10.7592 16.0837 10.1623 16.7508C11.3156 16.7508 12.3534 16.7508 13.5361 16.7508Z" fill="url(#paint0_linear_1185_941)"/>
<path fill-rule="evenodd" clip-rule="evenodd" d="M13.5362 16.7508C12.3535 16.7508 11.3156 16.7508 10.1624 16.7508C10.7592 16.0837 11.168 15.3982 11.3975 14.5234C11.9827 15.4132 12.6588 16.0974 13.5362 16.7508Z" fill="#EDF5F8"/>
<path fill-rule="evenodd" clip-rule="evenodd" d="M19.1315 27.9885C19.1236 26.7074 20.1226 25.6734 21.3878 25.6523C22.6678 25.6308 23.7277 26.6804 23.7271 27.9686C23.7267 29.2262 22.6835 30.2785 21.4335 30.2827C20.1668 30.2869 19.1392 29.2628 19.1315 27.9885ZM21.4411 28.9773C22.0046 28.9689 22.4539 28.5154 22.4486 27.9595C22.4434 27.4086 21.978 26.9367 21.4347 26.9313C20.8615 26.9259 20.3999 27.4056 20.4118 27.994C20.4236 28.5699 20.8589 28.9857 21.4411 28.9773Z" fill="url(#paint1_linear_1185_941)"/>
<path fill-rule="evenodd" clip-rule="evenodd" d="M6.9716 20.3859C7.48482 20.3859 7.99818 20.3775 8.51122 20.3885C8.94037 20.3976 9.24828 20.5987 9.23197 21.0565C9.21692 21.4777 8.9196 21.6753 8.5133 21.6782C7.50455 21.6853 6.49565 21.6844 5.48682 21.6787C5.05856 21.6764 4.74162 21.4774 4.73831 21.0291C4.73489 20.5739 5.0573 20.3887 5.48502 20.3844C5.98052 20.3793 6.47599 20.3831 6.9716 20.3831C6.9716 20.3842 6.9716 20.385 6.9716 20.3859Z" fill="url(#paint2_linear_1185_941)"/>
<path fill-rule="evenodd" clip-rule="evenodd" d="M6.98802 26.8273C6.47502 26.8275 5.96195 26.8222 5.44902 26.829C5.02491 26.8345 4.74778 26.6351 4.73781 26.2169C4.72776 25.7981 5.01252 25.563 5.41853 25.5565C6.46199 25.5401 7.50592 25.5417 8.54934 25.5555C8.95776 25.5609 9.23989 25.7899 9.23219 26.2102C9.22466 26.6296 8.94966 26.8315 8.52702 26.8282C8.01398 26.8243 7.50098 26.8272 6.98802 26.8273Z" fill="url(#paint3_linear_1185_941)"/>
<path fill-rule="evenodd" clip-rule="evenodd" d="M7.02077 24.2559C6.50845 24.2558 5.9961 24.254 5.48378 24.2563C5.04383 24.2584 4.74348 24.0528 4.74636 23.6091C4.74927 23.1626 5.05502 22.974 5.4953 22.9769C6.48462 22.9835 7.474 22.9836 8.46328 22.9766C8.89744 22.974 9.18973 23.1463 9.23494 23.5952C9.27422 23.985 8.95375 24.2454 8.45169 24.2542C7.97484 24.2625 7.49776 24.2559 7.02077 24.2559Z" fill="url(#paint4_linear_1185_941)"/>
<defs>
<linearGradient id="paint0_linear_1185_941" x1="18.0851" y1="2.99715" x2="18.0851" y2="33.1967" gradientUnits="userSpaceOnUse">
<stop stop-color="#E72E8C"/>
<stop offset="1" stop-color="#40499E"/>
</linearGradient>
<linearGradient id="paint1_linear_1185_941" x1="21.4293" y1="25.652" x2="21.4293" y2="30.2827" gradientUnits="userSpaceOnUse">
<stop stop-color="#7D3F97"/>
<stop offset="1" stop-color="#44489E"/>
</linearGradient>
<linearGradient id="paint2_linear_1185_941" x1="6.98544" y1="20.3817" x2="6.98544" y2="21.6833" gradientUnits="userSpaceOnUse">
<stop stop-color="#983B95"/>
<stop offset="1" stop-color="#7B3F98"/>
</linearGradient>
<linearGradient id="paint3_linear_1185_941" x1="6.98495" y1="25.5447" x2="6.98495" y2="26.8291" gradientUnits="userSpaceOnUse">
<stop stop-color="#52469C"/>
<stop offset="1" stop-color="#363C93"/>
</linearGradient>
<linearGradient id="paint4_linear_1185_941" x1="6.99226" y1="22.9766" x2="6.99226" y2="24.2584" gradientUnits="userSpaceOnUse">
<stop stop-color="#714199"/>
<stop offset="1" stop-color="#52469C"/>
</linearGradient>
</defs>
</svg>
