<svg width="36" height="36" viewBox="0 0 36 36" fill="none" xmlns="http://www.w3.org/2000/svg">
<path fill-rule="evenodd" clip-rule="evenodd" d="M16.658 33.8965C16.0203 33.8552 15.3817 33.825 14.7451 33.7707C13.2742 33.6451 11.8 33.5228 10.3976 33.0154C10.063 32.8945 9.73848 32.7158 9.44778 32.5096C8.87596 32.104 8.89331 31.4666 9.45145 31.0345C9.95441 30.6452 10.5426 30.4399 11.1476 30.3172C12.0462 30.135 12.9575 30.0149 13.8635 29.8687C13.9335 29.8574 14.004 29.8494 14.0946 29.8371C14.0177 29.1019 13.7423 28.4561 13.3546 27.8537C13.3078 27.7809 13.2151 27.7338 13.1368 27.686C10.1332 25.8517 8.00163 23.2537 6.50766 20.1018C5.28038 17.5125 4.55412 14.7847 4.28131 11.934C4.23307 11.4298 4.33056 11.2639 4.81865 11.1133C5.68049 10.8474 6.49906 10.4894 7.27065 10.0206C7.42066 9.92942 7.48261 9.83939 7.46721 9.6542C7.37937 8.59872 8.35569 7.77036 9.37848 8.02819C9.5542 8.07251 9.67415 8.0621 9.80631 7.91119C10.855 6.71318 11.7193 5.40573 12.2868 3.90785C12.5058 3.32979 13.0293 3.06851 13.5621 2.85323C14.5383 2.45888 15.5667 2.3003 16.6087 2.20962C16.7293 2.19914 16.8483 2.16897 16.968 2.14795C17.6708 2.14795 18.3735 2.14795 19.0763 2.14795C19.6667 2.23003 20.2602 2.2944 20.8468 2.39837C21.6412 2.53923 22.4216 2.73759 23.1135 3.17913C23.4432 3.38945 23.6637 3.67359 23.8126 4.0521C24.3895 5.51805 25.2435 6.81596 26.3108 7.9721C26.3671 8.03305 26.5129 8.05292 26.6046 8.03345C27.7344 7.79315 28.6274 8.54234 28.5861 9.69024C28.5823 9.79237 28.6691 9.9525 28.7574 9.99458C29.5369 10.3664 30.3154 10.7452 31.1165 11.0662C31.728 11.3111 31.8138 11.3888 31.7515 12.031C31.4653 14.978 30.6866 17.7885 29.3741 20.4418C27.9108 23.4002 25.861 25.8491 23.0368 27.6128C22.8297 27.7421 22.6497 27.9466 22.5151 28.1537C22.1978 28.642 22.0281 29.1999 21.95 29.8329C22.4969 29.9059 23.0459 29.9705 23.592 30.0541C24.4498 30.1855 25.3015 30.3489 26.0903 30.7322C26.2924 30.8304 26.4893 30.9523 26.6627 31.0949C27.1401 31.4873 27.1601 32.133 26.6419 32.4637C26.1545 32.7747 25.6115 33.0398 25.0566 33.1963C23.3773 33.6698 21.6416 33.7682 19.9074 33.8491C19.7334 33.8573 19.56 33.8803 19.3864 33.8964C18.477 33.8965 17.5675 33.8965 16.658 33.8965ZM9.02626 11.2179C8.71083 11.0902 8.43269 10.9645 8.14462 10.8688C8.05671 10.8396 7.93081 10.8701 7.84035 10.912C7.09353 11.2585 6.35625 11.6261 5.60356 11.959C5.39922 12.0494 5.35645 12.1474 5.38118 12.3496C5.73265 15.225 6.52994 17.9621 7.90241 20.5216C9.81106 24.0812 12.5829 26.6694 16.4032 28.0822C17.4207 28.4585 18.4433 28.5002 19.4651 28.1423C22.2135 27.1801 24.5013 25.5555 26.3274 23.2896C27.7344 21.5439 28.7497 19.5803 29.4887 17.4701C30.074 15.7988 30.4653 14.0821 30.6633 12.3219C30.6798 12.1751 30.6895 12.0691 30.5007 11.9851C29.7113 11.6333 28.9357 11.2502 28.1528 10.8834C28.0858 10.852 27.9908 10.8253 27.9282 10.8485C27.6254 10.9612 27.3291 11.0917 27.017 11.2215C26.9855 12.5425 26.4462 13.079 24.9047 13.2766C24.8605 13.9419 24.6127 14.5107 24.0692 14.9296C23.5283 15.3466 22.9171 15.4412 22.2476 15.3108C22.0914 16.3458 21.5594 17.0836 20.5623 17.3818C19.573 17.6777 18.7156 17.3762 18.0201 16.6067C17.3048 17.3922 16.4459 17.6783 15.4551 17.373C14.46 17.0664 13.9469 16.3147 13.7915 15.3065C13.0997 15.4466 12.4933 15.3354 11.953 14.9125C11.4146 14.4913 11.1858 13.9141 11.1324 13.2599C9.66634 13.3086 8.94749 12.2393 9.02626 11.2179ZM23.2411 5.39411C19.7384 6.7319 16.2957 6.73583 12.8046 5.39403C12.2094 6.55439 11.4443 7.68954 10.5095 8.70722C10.4732 8.74679 10.4417 8.82156 10.4532 8.86886C10.5109 9.1047 10.5837 9.33686 10.6534 9.57849C11.1707 9.52446 11.6258 9.65305 12.0267 9.96769C12.4273 10.282 12.6251 10.7144 12.7207 11.1977C13.8751 10.9685 14.9797 11.525 15.3632 12.8766C16.4013 12.5469 17.2849 12.822 18.0219 13.6241C18.7635 12.788 19.6591 12.562 20.6886 12.8703C21.1966 11.5005 21.7358 11.1579 23.3217 11.1855C23.5731 10.0765 24.2715 9.52518 25.3982 9.56049C25.4637 9.33233 25.5345 9.12835 25.576 8.91858C25.5907 8.84435 25.5581 8.73408 25.5065 8.67731C24.589 7.67129 23.8354 6.55305 23.2411 5.39411ZM25.8319 31.804C25.3673 31.3706 22.6818 30.9223 21.9154 30.9545C21.9597 31.1684 22.0063 31.3775 22.0461 31.5877C22.1155 31.9543 21.9648 32.2276 21.6641 32.2894C21.3483 32.3542 21.0711 32.1892 21.0194 31.8247C20.9358 31.2356 20.8628 30.6384 20.8685 30.0455C20.8731 29.5804 21.0034 29.1165 21.0858 28.6026C19.0448 29.7269 16.9936 29.7262 14.914 28.5784C15.2695 30.0491 15.2936 30.741 15.046 31.763C14.9467 32.1725 14.7148 32.3565 14.3826 32.2897C14.0628 32.2253 13.9227 31.9371 14.0098 31.529C14.0514 31.3337 14.0879 31.1375 14.1343 30.9036C12.7697 31.0856 11.452 31.188 10.2338 31.8111C10.722 32.0106 11.2079 32.1778 11.7064 32.2875C13.2242 32.6217 14.7682 32.7433 16.3176 32.8007C18.8103 32.8931 21.2954 32.8238 23.7604 32.4034C24.4601 32.2842 25.1584 32.1469 25.8319 31.804ZM13.261 4.22364C13.2614 4.26864 13.2618 4.31367 13.2622 4.35864C13.5352 4.49141 13.7986 4.65103 14.0828 4.75233C15.385 5.21641 16.7412 5.3198 18.1101 5.31458C19.4167 5.30954 20.7105 5.19722 21.9515 4.75266C22.2413 4.64883 22.5082 4.48064 22.7856 4.34201C22.7823 4.30338 22.7788 4.26475 22.7755 4.22605C22.6348 4.13151 22.5047 4.01156 22.3512 3.94766C22.019 3.80931 21.6822 3.67039 21.3344 3.58313C19.7339 3.18173 18.1072 3.13359 16.4725 3.28343C15.5353 3.36936 14.6079 3.51894 13.7437 3.92095C13.5729 4.00047 13.4214 4.12165 13.261 4.22364ZM16.1762 13.7974C15.4436 13.7952 14.8583 14.3751 14.8557 15.1057C14.8531 15.839 15.4315 16.4225 16.164 16.4254C16.899 16.4284 17.4806 15.8524 17.4843 15.1177C17.488 14.3847 16.9083 13.7996 16.1762 13.7974ZM19.8641 16.4257C20.5977 16.4305 21.1851 15.8527 21.189 15.1223C21.1929 14.3887 20.6163 13.8027 19.8857 13.7976C19.1522 13.7924 18.5658 14.3691 18.5602 15.1011C18.5546 15.8349 19.1313 16.4208 19.8641 16.4257ZM14.3098 13.258C14.3092 12.6817 13.8467 12.2097 13.2734 12.2006C12.6993 12.1914 12.1995 12.6856 12.2007 13.2612C12.2019 13.833 12.6711 14.3038 13.2457 14.3096C13.8433 14.3157 14.3105 13.854 14.3098 13.258ZM22.7997 14.3096C23.374 14.3035 23.843 13.8322 23.8438 13.2605C23.8445 12.685 23.3445 12.1912 22.7706 12.2006C22.1974 12.21 21.735 12.682 21.7345 13.2581C21.7341 13.8526 22.2036 14.3161 22.7997 14.3096ZM10.8688 12.1956C11.2912 12.2001 11.6643 11.8376 11.6698 11.4174C11.6754 10.9963 11.3121 10.6272 10.8877 10.6229C10.4623 10.6185 10.0917 10.9779 10.087 11.3992C10.0824 11.8198 10.447 12.1912 10.8688 12.1956ZM25.9576 11.4038C25.9555 10.9824 25.5868 10.6206 25.1615 10.6227C24.737 10.6248 24.3715 10.9915 24.3743 11.4127C24.3771 11.8317 24.7495 12.1978 25.171 12.1956C25.5936 12.1933 25.9596 11.8248 25.9576 11.4038ZM9.54257 9.54203C9.53551 9.25979 9.30684 9.03407 9.02773 9.03374C8.73905 9.03345 8.499 9.28085 8.50714 9.57032C8.51488 9.84741 8.75039 10.0792 9.02532 10.0802C9.31462 10.0813 9.54995 9.83643 9.54257 9.54203ZM26.9931 10.0801C27.2664 10.0943 27.5117 9.87459 27.5333 9.59606C27.556 9.30367 27.3337 9.04908 27.0428 9.03407C26.7647 9.01981 26.5242 9.23516 26.5044 9.51614C26.4834 9.81343 26.7012 10.0647 26.9931 10.0801Z" fill="url(#paint0_linear_1185_965)"/>
<defs>
<linearGradient id="paint0_linear_1185_965" x1="18.0194" y1="2.14795" x2="18.0194" y2="33.8965" gradientUnits="userSpaceOnUse">
<stop stop-color="#D1328E"/>
<stop offset="1" stop-color="#843E97"/>
</linearGradient>
</defs>
</svg>
