<svg width="36" height="36" viewBox="0 0 36 36" fill="none" xmlns="http://www.w3.org/2000/svg">
<path fill-rule="evenodd" clip-rule="evenodd" d="M16.147 33.8657C15.8128 33.6842 15.7057 33.4066 15.7081 33.027C15.7219 30.8783 15.7148 28.7293 15.7148 26.5803C15.7148 26.4693 15.7148 26.3582 15.7148 26.2103C15.4085 26.2103 15.1242 26.2103 14.8398 26.2103C14.0995 26.2103 13.3592 26.214 12.6189 26.2094C11.2254 26.201 10.21 25.1781 10.2161 23.7841C10.2249 21.7499 10.7636 19.8613 11.8708 18.1579C12.4614 17.2492 12.5747 16.3422 12.2315 15.3186C11.6705 13.6453 11.1604 11.9548 10.633 10.2702C10.056 8.42705 10.9662 6.76544 12.8289 6.25373C13.195 6.15319 13.5637 6.06135 13.9279 5.95447C14.7682 5.70779 15.2774 5.02847 15.2865 4.14899C15.2901 3.79943 15.3057 3.44858 15.2824 3.1006C15.2571 2.72167 15.3889 2.44457 15.7148 2.25604C17.2788 2.25604 18.8428 2.25604 20.4069 2.25604C20.7331 2.44457 20.8637 2.72264 20.8391 3.10085C20.8165 3.44897 20.8318 3.79976 20.8351 4.14925C20.8434 5.04057 21.3701 5.72633 22.2238 5.9608C22.6394 6.07499 23.0585 6.17749 23.4704 6.30367C25.1268 6.81109 26.0292 8.43217 25.5356 10.0919C25.0033 11.8819 24.4353 13.6617 23.8562 15.4373C23.5468 16.386 23.6612 17.2401 24.2049 18.0771C25.3297 19.8084 25.8951 21.7169 25.9053 23.7841C25.9122 25.1783 24.8969 26.202 23.5028 26.2092C22.4859 26.2144 21.4689 26.2102 20.4069 26.2102C20.4069 26.3331 20.4069 26.4412 20.4069 26.5495C20.4069 28.7086 20.3998 30.8678 20.4135 33.0269C20.4159 33.4062 20.308 33.6836 19.9747 33.8658C18.6988 33.8657 17.4228 33.8657 16.147 33.8657ZM16.521 3.50524C16.521 3.76775 16.5242 3.99355 16.5205 4.21916C16.4977 5.59119 15.6022 6.7582 14.2798 7.13573C13.9048 7.24287 13.5272 7.3414 13.1503 7.44227C11.9817 7.75493 11.4439 8.72877 11.8068 9.88772C12.3346 11.5727 12.8416 13.2649 13.4053 14.9379C13.8764 16.3364 13.7119 17.6022 12.9005 18.839C11.9251 20.3257 11.462 21.9866 11.4507 23.7679C11.446 24.5184 11.9037 24.9746 12.6615 24.9748C16.2611 24.9763 19.8609 24.9763 23.4606 24.9748C24.2173 24.9745 24.6762 24.5166 24.6705 23.7671C24.6565 21.9308 24.1458 20.2405 23.143 18.7046C22.4084 17.5793 22.2516 16.3957 22.6665 15.1156C23.2299 13.3773 23.7692 11.6312 24.3148 9.88714C24.6738 8.74018 24.154 7.77848 23.0009 7.44839C22.5569 7.32124 22.1014 7.22728 21.6675 7.07256C20.5744 6.6825 19.8937 5.90569 19.6669 4.76747C19.586 4.36093 19.5995 3.93551 19.569 3.50528C18.562 3.50524 17.5593 3.50524 16.521 3.50524ZM16.9614 32.6073C17.7136 32.6073 18.4367 32.6073 19.1572 32.6073C19.1572 30.4692 19.1572 28.3549 19.1572 26.2285C18.4192 26.2285 17.6962 26.2285 16.9614 26.2285C16.9614 28.3611 16.9614 30.4753 16.9614 32.6073Z" fill="url(#paint0_linear_1185_962)"/>
<defs>
<linearGradient id="paint0_linear_1185_962" x1="18.0607" y1="2.25604" x2="18.0607" y2="33.8658" gradientUnits="userSpaceOnUse">
<stop stop-color="#D2328E"/>
<stop offset="1" stop-color="#833E97"/>
</linearGradient>
</defs>
</svg>
