<svg width="36" height="36" viewBox="0 0 36 36" fill="none" xmlns="http://www.w3.org/2000/svg">
<path fill-rule="evenodd" clip-rule="evenodd" d="M32.949 26.2191C33.0408 28.4253 31.2966 30.5128 29.1003 30.8461C28.5772 30.9255 28.0557 30.9015 27.5332 30.9036C26.5602 30.9076 25.5871 30.8984 24.6141 30.8947C24.7821 30.6168 25.105 30.5581 25.3414 30.3784C25.5509 30.2191 25.8701 30.1965 25.9621 29.8889C26.7616 29.8851 27.5614 29.8964 28.3603 29.8741C29.6829 29.8372 30.7017 29.2493 31.4145 28.1319C31.7006 27.6833 31.8202 27.1774 31.9312 26.6677C32.0463 26.621 32.169 26.5873 32.2749 26.5249C32.4893 26.3984 32.6881 26.2418 32.949 26.2191Z" fill="#40499E"/>
<path fill-rule="evenodd" clip-rule="evenodd" d="M23.9834 10.1633C24.1476 10.3206 24.343 10.3649 24.5688 10.3641C26.2036 10.3579 27.8384 10.3579 29.4733 10.362C30.159 10.3638 30.8047 10.5137 31.368 10.9306C31.0474 11.1345 30.7268 11.3383 30.4064 11.5421C29.9306 11.3934 29.4415 11.384 28.9478 11.3864C27.4505 11.3935 25.953 11.3914 24.4556 11.3865C23.8983 11.3847 23.4346 11.1884 23.1351 10.6897C23.3714 10.4394 23.6872 10.3171 23.9834 10.1633Z" fill="#AA64A8"/>
<path fill-rule="evenodd" clip-rule="evenodd" d="M3.18101 13.8274C3.14112 12.2177 4.35029 10.7086 5.92047 10.4367C6.28266 10.374 6.65732 10.3664 7.02646 10.364C8.00926 10.3578 8.99213 10.3682 9.9749 10.372C9.8971 10.6334 9.61734 10.6372 9.44872 10.7836C9.19283 11.0058 8.7996 11.0388 8.6268 11.3771C8.05016 11.3808 7.47347 11.3868 6.89675 11.3877C5.44808 11.3898 4.62587 12.0013 4.22206 13.3804C4.07464 13.3775 3.96333 13.4707 3.83841 13.5264C3.61827 13.6244 3.44619 13.8273 3.18101 13.8274Z" fill="#E72E8C"/>
<path fill-rule="evenodd" clip-rule="evenodd" d="M12.4312 8.1135C12.8023 6.4683 14.3816 5.0256 16.0878 4.7772C16.9581 4.65055 17.8333 4.72579 18.7066 4.72176C18.6486 4.95054 18.42 4.97668 18.2673 5.09357C17.9735 5.31846 17.5582 5.36911 17.3585 5.7281C16.9231 5.74528 16.4866 5.73293 16.0561 5.832C15.0409 6.06546 14.3081 6.67224 13.7645 7.53653C13.6093 7.56645 13.4763 7.6482 13.334 7.70969C13.0312 7.84041 12.7984 8.13038 12.4312 8.1135Z" fill="#E72E8C"/>
<path fill-rule="evenodd" clip-rule="evenodd" d="M21.9177 30.8953C19.9062 30.8951 17.8946 30.895 15.8831 30.8948C16.0129 30.6595 16.2725 30.5958 16.4676 30.447C16.7185 30.2556 17.0985 30.2396 17.2311 29.8888C19.2213 29.8886 21.2115 29.8885 23.2018 29.8882C23.0962 30.2046 22.7604 30.2243 22.5448 30.3988C22.3374 30.5664 22.012 30.5852 21.9177 30.8953Z" fill="#5B50A0"/>
<path fill-rule="evenodd" clip-rule="evenodd" d="M3.18102 26.091C3.18092 24.8923 3.18077 23.6937 3.18066 22.4951C3.30551 22.5073 3.40764 22.4456 3.50884 22.3883C3.7297 22.2633 3.93512 22.1083 4.18748 22.0456C4.18737 23.2444 4.18726 24.4429 4.18715 25.6416C4.07987 25.6858 3.97212 25.7291 3.86538 25.7747C3.63426 25.8735 3.45635 26.0876 3.18102 26.091Z" fill="#AA64A8"/>
<path fill-rule="evenodd" clip-rule="evenodd" d="M3.18107 26.091C3.4564 26.0876 3.63431 25.8736 3.86543 25.7747C3.97217 25.7291 4.07992 25.6859 4.1872 25.6416C4.20009 25.992 4.19821 26.3437 4.22874 26.6926C4.30211 27.5317 4.70265 28.2214 5.24582 28.8409C4.98035 29.0427 4.6008 29.0939 4.44827 29.4449C3.53729 28.5116 3.13931 27.3844 3.18107 26.091Z" fill="#9761A7"/>
<path fill-rule="evenodd" clip-rule="evenodd" d="M9.65544 30.8949C8.67494 30.8849 7.68959 30.9954 6.71751 30.7785C6.62539 30.7579 6.53636 30.7236 6.44593 30.6956C6.43045 30.5147 6.56473 30.4532 6.68551 30.3621C6.905 30.1966 7.22029 30.1572 7.34582 29.8678C8.56507 29.8747 9.78429 29.8817 11.0036 29.8887C10.9944 30.0089 10.9136 30.0757 10.8195 30.1296C10.5083 30.3079 10.1961 30.4843 9.88422 30.6613C9.78555 30.7174 9.65926 30.7461 9.65544 30.8949Z" fill="#7B5AA5"/>
<path fill-rule="evenodd" clip-rule="evenodd" d="M32.9488 14.2782C32.949 15.3696 32.9492 16.4609 32.9495 17.5522C32.8422 17.5967 32.7287 17.6303 32.6292 17.6882C32.4102 17.8154 32.2093 17.9789 31.943 18.0015C31.9432 16.9102 31.9434 15.8188 31.9437 14.7275C32.0682 14.7386 32.1702 14.6771 32.2713 14.62C32.4918 14.4954 32.6964 14.3396 32.9488 14.2782Z" fill="#7B5AA5"/>
<path fill-rule="evenodd" clip-rule="evenodd" d="M21.0182 5.10109C21.5189 5.19801 21.8964 5.51545 22.2634 5.83182C22.7473 6.24917 23.1377 6.74712 23.3868 7.34443C23.052 7.41834 22.8322 7.72096 22.496 7.79238C21.986 6.78103 21.1845 6.12385 20.0952 5.81638C20.3265 5.65193 20.5481 5.47312 20.8116 5.35795C20.9214 5.30993 21.01 5.23537 21.0182 5.10109Z" fill="#D14296"/>
<path fill-rule="evenodd" clip-rule="evenodd" d="M32.9491 26.2191C32.6882 26.2418 32.4894 26.3984 32.2749 26.5249C32.169 26.5873 32.0462 26.621 31.9312 26.6678C31.9353 25.5767 31.9396 24.4858 31.9438 23.3947C32.0683 23.4059 32.1702 23.3443 32.2712 23.2873C32.4917 23.1625 32.6964 23.0071 32.9485 22.9455C32.9487 24.0367 32.9489 25.1279 32.9491 26.2191Z" fill="#494B9E"/>
<path fill-rule="evenodd" clip-rule="evenodd" d="M9.6554 30.8949C9.65925 30.7461 9.7855 30.7174 9.88418 30.6613C10.196 30.4843 10.5082 30.3079 10.8194 30.1296C10.9136 30.0757 10.9943 30.0089 11.0035 29.8887C12.0521 29.8887 13.1006 29.8887 14.1491 29.8887C14.1258 30.0803 13.955 30.1155 13.8271 30.2022C13.4857 30.4341 13.0662 30.5507 12.801 30.8948C11.7525 30.8949 10.7039 30.8949 9.6554 30.8949Z" fill="#7055A2"/>
<path fill-rule="evenodd" clip-rule="evenodd" d="M12.801 30.8948C13.0663 30.5507 13.4858 30.4341 13.8271 30.2022C13.955 30.1155 14.1258 30.0803 14.1492 29.8887C15.1765 29.8887 16.2038 29.8888 17.2311 29.8888C17.0984 30.2396 16.7185 30.2556 16.4676 30.4471C16.2725 30.5959 16.013 30.6595 15.883 30.8948C14.8558 30.8948 13.8284 30.8948 12.801 30.8948Z" fill="#6755A2"/>
<path fill-rule="evenodd" clip-rule="evenodd" d="M3.1807 21.082C3.1807 20.1189 3.18066 19.1557 3.18066 18.1928C3.28802 18.1486 3.39587 18.1055 3.50265 18.0599C3.73391 17.9611 3.912 17.747 4.18744 17.7435C4.18744 18.7065 4.18737 19.6696 4.18737 20.6327C3.99905 20.6328 3.86034 20.7489 3.70468 20.8307C3.53364 20.9208 3.3944 21.0806 3.1807 21.082Z" fill="#C1539F"/>
<path fill-rule="evenodd" clip-rule="evenodd" d="M4.18751 17.7435C3.91208 17.747 3.73395 17.9611 3.50272 18.0599C3.39591 18.1055 3.28809 18.1486 3.18074 18.1928C3.18074 17.2299 3.18066 16.267 3.18066 15.3041C3.3058 15.3173 3.40282 15.2449 3.50999 15.2001C3.74475 15.1019 3.92842 14.9043 4.18751 14.8547C4.18751 15.8176 4.18751 16.7806 4.18751 17.7435Z" fill="#D14296"/>
<path fill-rule="evenodd" clip-rule="evenodd" d="M21.9177 30.8953C22.012 30.5852 22.3375 30.5664 22.5447 30.3988C22.7604 30.2243 23.0962 30.2047 23.2017 29.8883C24.1219 29.8886 25.0421 29.8888 25.9622 29.8889C25.8702 30.1965 25.551 30.2191 25.3415 30.3784C25.1051 30.5581 24.7822 30.6168 24.6142 30.8947C23.7154 30.8948 22.8166 30.8951 21.9177 30.8953Z" fill="#494B9E"/>
<path fill-rule="evenodd" clip-rule="evenodd" d="M21.0181 5.10109C21.0099 5.23537 20.9214 5.30993 20.8115 5.35795C20.548 5.47311 20.3264 5.65193 20.0952 5.81637C19.7049 5.77317 19.3157 5.72774 18.9205 5.73527C18.4001 5.74524 17.8792 5.73163 17.3585 5.72814C17.5582 5.36911 17.9735 5.31846 18.2673 5.0936C18.4201 4.97671 18.6486 4.95058 18.7066 4.7218C19.5062 4.67075 20.2874 4.73155 21.0181 5.10109Z" fill="#DD3690"/>
<path fill-rule="evenodd" clip-rule="evenodd" d="M7.34581 29.8678C7.22028 30.1572 6.90499 30.1967 6.6855 30.3621C6.56472 30.4532 6.43044 30.5147 6.44592 30.6956C5.66342 30.465 4.99101 30.0584 4.44824 29.4448C4.60077 29.0939 4.98036 29.0427 5.24575 28.8409C5.84691 29.3853 6.54834 29.7247 7.34581 29.8678Z" fill="#885EA6"/>
<path fill-rule="evenodd" clip-rule="evenodd" d="M12.4312 8.1135C12.7984 8.13039 13.0312 7.84041 13.334 7.70969C13.4763 7.6482 13.6093 7.56645 13.7645 7.53653C13.44 8.22795 13.2162 8.94338 13.2437 9.71882C12.9368 9.78891 12.7058 10.0103 12.4239 10.1289C12.3405 10.1639 12.2539 10.2925 12.1504 10.1542C12.2681 9.75269 12.2323 9.33484 12.2794 8.92563C12.3109 8.65026 12.3435 8.37735 12.4312 8.1135Z" fill="#DD3690"/>
<path fill-rule="evenodd" clip-rule="evenodd" d="M12.1504 10.1542C12.2539 10.2925 12.3405 10.1639 12.4239 10.1288C12.7058 10.0103 12.9369 9.78887 13.2437 9.71878C13.3006 10.6163 12.6867 11.3472 11.8255 11.3822C11.3808 11.4002 10.9345 11.3806 10.489 11.3779C10.5022 11.2442 10.5965 11.1795 10.7026 11.1219C10.9074 11.0106 11.1239 10.9145 11.3109 10.7783C11.4908 10.6472 11.768 10.6339 11.8387 10.3642C11.9426 10.2942 12.0465 10.2242 12.1504 10.1542Z" fill="#D14296"/>
<path fill-rule="evenodd" clip-rule="evenodd" d="M30.4062 11.5421C30.7268 11.3383 31.0474 11.1345 31.368 10.9306C31.9806 11.2993 32.4135 11.8203 32.6819 12.4806C32.3198 12.513 32.0323 12.6863 31.7928 12.9507C31.5054 12.309 31.0366 11.8462 30.4062 11.5421Z" fill="#9761A7"/>
<path fill-rule="evenodd" clip-rule="evenodd" d="M31.7927 12.9508C32.0323 12.6863 32.3199 12.513 32.6819 12.4806C32.9415 13.0545 32.9918 13.6595 32.9487 14.2782C32.6963 14.3396 32.4917 14.4954 32.2712 14.62C32.1701 14.6771 32.0681 14.7386 31.9436 14.7274C31.9077 14.134 31.9931 13.5303 31.7927 12.9508Z" fill="#885EA6"/>
<path fill-rule="evenodd" clip-rule="evenodd" d="M32.9486 22.9455C32.6964 23.0071 32.4918 23.1625 32.2713 23.2872C32.1702 23.3443 32.0684 23.4058 31.9439 23.3947C31.9436 22.774 31.9434 22.1533 31.9431 21.5325C32.0502 21.4875 32.1636 21.4534 32.2631 21.3953C32.4818 21.2675 32.6834 21.1059 32.9494 21.0831C32.9491 21.7039 32.9488 22.3247 32.9486 22.9455Z" fill="#5B50A0"/>
<path fill-rule="evenodd" clip-rule="evenodd" d="M11.8386 10.3642C11.7679 10.6339 11.4907 10.6472 11.3108 10.7782C11.1238 10.9144 10.9074 11.0106 10.7025 11.1218C10.5965 11.1794 10.5021 11.2441 10.4889 11.3779C9.86819 11.3776 9.24754 11.3774 8.62683 11.3771C8.79963 11.0387 9.19282 11.0058 9.44875 10.7836C9.61737 10.6372 9.89713 10.6334 9.97493 10.372C10.5961 10.3694 11.2174 10.3668 11.8386 10.3642Z" fill="#DD3690"/>
<path fill-rule="evenodd" clip-rule="evenodd" d="M32.9493 21.0831C32.6834 21.106 32.4818 21.2675 32.2631 21.3954C32.1636 21.4534 32.0502 21.4875 31.9431 21.5325C31.9431 20.9119 31.9431 20.2912 31.9431 19.6705C32.0679 19.6822 32.165 19.6101 32.2721 19.5655C32.5069 19.4678 32.6897 19.269 32.9493 19.2213C32.9493 19.8419 32.9493 20.4625 32.9493 21.0831Z" fill="#6755A2"/>
<path fill-rule="evenodd" clip-rule="evenodd" d="M32.9492 19.2212C32.6897 19.2689 32.5068 19.4678 32.272 19.5655C32.1649 19.6101 32.0678 19.6822 31.943 19.6705C31.943 19.1142 31.943 18.5578 31.9429 18.0016C32.2092 17.9789 32.4101 17.8154 32.6291 17.6882C32.7286 17.6304 32.8421 17.5967 32.9494 17.5522C32.9493 18.1085 32.9493 18.6648 32.9492 19.2212Z" fill="#7055A2"/>
<path fill-rule="evenodd" clip-rule="evenodd" d="M23.9834 10.1633C23.6872 10.3171 23.3715 10.4394 23.1352 10.6897C22.972 10.4979 22.8972 10.2689 22.8806 10.0243C22.8606 9.7304 22.8589 9.43531 22.8494 9.14069C23.2259 9.09256 23.5094 8.86108 23.8056 8.6548C23.91 8.99568 23.9117 9.34672 23.9021 9.69761C23.8976 9.86026 23.9136 10.0155 23.9834 10.1633Z" fill="#BB5BA3"/>
<path fill-rule="evenodd" clip-rule="evenodd" d="M4.18751 14.8547C3.92842 14.9043 3.74471 15.1019 3.50999 15.2001C3.40282 15.2449 3.30576 15.3173 3.18066 15.3041C3.18077 14.8119 3.18092 14.3196 3.1811 13.8274C3.44627 13.8272 3.61835 13.6243 3.83853 13.5264C3.96348 13.4707 4.07476 13.3775 4.22214 13.3804C4.21052 13.8718 4.19907 14.3633 4.18751 14.8547Z" fill="#DD3690"/>
<path fill-rule="evenodd" clip-rule="evenodd" d="M23.8056 8.65476C23.5094 8.86104 23.2259 9.09252 22.8493 9.14065C22.8045 8.67204 22.6524 8.23162 22.496 7.79231C22.8321 7.72096 23.052 7.41834 23.3868 7.34443C23.6191 7.75148 23.7523 8.19036 23.8056 8.65476Z" fill="#C1539F"/>
<path fill-rule="evenodd" clip-rule="evenodd" d="M3.18074 21.082C3.39443 21.0806 3.53368 20.9207 3.70472 20.8307C3.86038 20.7488 3.99909 20.6328 4.1874 20.6326C4.1874 21.1037 4.18748 21.5747 4.18748 22.0457C3.93512 22.1083 3.72974 22.2633 3.50884 22.3884C3.40764 22.4457 3.30551 22.5074 3.18066 22.4952C3.1807 22.0241 3.18074 21.553 3.18074 21.082Z" fill="#BB5BA3"/>
<path fill-rule="evenodd" clip-rule="evenodd" d="M25.1994 24.1787C24.6802 25.1769 23.9686 26.0141 23.0619 26.6769C21.4209 27.8763 19.5781 28.3927 17.5519 28.2639C17.5649 28.1156 17.6756 28.055 17.7893 27.9936C18.0022 27.8787 18.2199 27.7704 18.4223 27.6389C18.5621 27.5481 18.7759 27.5149 18.7718 27.2793C19.0349 27.2362 19.3002 27.2033 19.561 27.1485C21.0275 26.8406 22.2577 26.1063 23.3108 25.0559C23.3611 25.0438 23.4171 25.0421 23.4608 25.018C23.95 24.7477 24.4355 24.4707 24.927 24.2046C25.0044 24.1629 25.096 24.0401 25.1994 24.1787Z" fill="#6755A2"/>
<path fill-rule="evenodd" clip-rule="evenodd" d="M11.0581 15.8667C11.8904 14.4365 13.0818 13.3975 14.5639 12.6892C15.7084 12.1422 16.9193 11.8727 18.193 11.9141C18.2193 12.0822 18.0786 12.1345 17.9772 12.1955C17.6497 12.3927 17.3149 12.5778 16.9809 12.7639C16.8396 12.8426 16.7024 12.9217 16.6522 13.0904C16.227 13.1833 15.8082 13.2978 15.3996 13.4496C14.417 13.8148 13.578 14.3995 12.8293 15.1235C12.6933 15.0913 12.5804 15.153 12.4687 15.2147C12.0894 15.4244 11.7131 15.6397 11.3302 15.8428C11.2523 15.8842 11.1605 16.0066 11.0581 15.8667Z" fill="#C1539F"/>
<path fill-rule="evenodd" clip-rule="evenodd" d="M18.0597 9.33392C17.4085 9.33392 16.7574 9.33644 16.1064 9.33299C15.7274 9.33097 15.5012 9.13693 15.4986 8.82384C15.4958 8.51025 15.7233 8.30772 16.0978 8.30704C17.4107 8.30477 18.7235 8.30509 20.0363 8.30848C20.4074 8.30948 20.637 8.51864 20.6296 8.8313C20.6226 9.13211 20.4006 9.3286 20.0449 9.33119C19.3832 9.33587 18.7214 9.33248 18.0597 9.33248C18.0597 9.33299 18.0597 9.33345 18.0597 9.33392Z" fill="#D14296"/>
<path fill-rule="evenodd" clip-rule="evenodd" d="M20.2492 12.2202C21.4296 12.5097 22.4619 13.0853 23.3836 13.8644C23.6747 14.1105 23.9793 14.3497 24.1827 14.6841C24.1466 14.809 24.0231 14.8364 23.9401 14.9095C23.7835 15.047 23.5085 15.041 23.4578 15.3048C23.0123 14.8594 22.5536 14.4318 22.0175 14.0917C21.1763 13.5578 20.254 13.2452 19.2854 13.0498C19.3001 12.8855 19.4464 12.8477 19.5479 12.7595C19.7715 12.5654 20.151 12.5739 20.2492 12.2202Z" fill="#AA64A8"/>
<path fill-rule="evenodd" clip-rule="evenodd" d="M11.058 15.8667C11.1603 16.0066 11.2521 15.8842 11.3301 15.8428C11.7129 15.6396 12.0893 15.4244 12.4686 15.2147C12.5803 15.153 12.6932 15.0913 12.8291 15.1234C12.7984 15.1668 12.7721 15.2141 12.7365 15.2529C11.7074 16.3808 11.1846 17.7383 10.9347 19.2199C10.8147 19.2131 10.7159 19.2581 10.6058 19.3087C10.3568 19.4229 10.1604 19.6461 9.86841 19.6691C9.94304 18.3009 10.3061 17.023 11.058 15.8667Z" fill="#BB5BA3"/>
<path fill-rule="evenodd" clip-rule="evenodd" d="M26.1251 18.5809C26.3986 19.8629 26.2716 21.1244 25.9299 22.3748C25.7073 22.3832 25.5393 22.5195 25.3561 22.6198C25.1549 22.7299 24.9729 22.8876 24.7222 22.8732C25.1994 21.6067 25.3822 20.3085 25.1436 18.9649C25.3132 18.9725 25.4397 18.8641 25.5818 18.7997C25.76 18.7189 25.8992 18.5429 26.1251 18.5809Z" fill="#7B5AA5"/>
<path fill-rule="evenodd" clip-rule="evenodd" d="M7.7864 14.4697C7.45584 14.4697 7.12504 14.4766 6.7947 14.4677C6.46879 14.459 6.25506 14.2497 6.25355 13.9582C6.25204 13.6664 6.46616 13.4485 6.7897 13.4447C7.46142 13.4369 8.1334 13.4364 8.80509 13.4458C9.12492 13.4503 9.33901 13.678 9.33131 13.9692C9.32393 14.2475 9.11649 14.4561 8.81006 14.4662C8.46918 14.4773 8.12768 14.4687 7.7864 14.4687C7.7864 14.469 7.7864 14.4693 7.7864 14.4697Z" fill="#D14296"/>
<path fill-rule="evenodd" clip-rule="evenodd" d="M9.86845 19.6691C10.1605 19.6461 10.3569 19.4229 10.6058 19.3087C10.7159 19.2581 10.8147 19.213 10.9347 19.2199C10.8171 20.1741 10.8984 21.1149 11.1242 22.046C10.7588 22.0222 10.5357 22.3284 10.2259 22.4336C9.93743 21.534 9.81639 20.6128 9.86845 19.6691Z" fill="#AA64A8"/>
<path fill-rule="evenodd" clip-rule="evenodd" d="M10.2258 22.4336C10.5356 22.3284 10.7587 22.0222 11.1242 22.046C11.385 22.8998 11.7816 23.6871 12.287 24.4211C11.9343 24.4885 11.6991 24.7952 11.3547 24.8793C10.8166 24.1387 10.4358 23.3256 10.2258 22.4336Z" fill="#9761A7"/>
<path fill-rule="evenodd" clip-rule="evenodd" d="M18.7718 27.2793C18.7759 27.5149 18.5622 27.5481 18.4224 27.6389C18.2199 27.7704 18.0022 27.8786 17.7894 27.9936C17.6756 28.055 17.5649 28.1156 17.5519 28.2639C16.6707 28.235 15.8206 28.0618 15.0074 27.7164C15.3517 27.4898 15.6958 27.2632 16.0399 27.0367C16.9386 27.2512 17.8457 27.3724 18.7718 27.2793Z" fill="#7055A2"/>
<path fill-rule="evenodd" clip-rule="evenodd" d="M11.3547 24.8793C11.6992 24.7952 11.9343 24.4885 12.2871 24.4211C12.4243 24.4856 12.4326 24.6447 12.5306 24.7462C12.9979 25.23 13.4911 25.6828 14.0289 26.0868C13.7094 26.2676 13.3477 26.3841 13.1107 26.6904C12.4076 26.2008 11.8195 25.5998 11.3547 24.8793Z" fill="#885EA6"/>
<path fill-rule="evenodd" clip-rule="evenodd" d="M20.2492 12.2202C20.151 12.5739 19.7715 12.5654 19.5479 12.7595C19.4464 12.8477 19.3001 12.8855 19.2854 13.0497C18.4059 12.9509 17.528 12.9452 16.6522 13.0903C16.7024 12.9217 16.8396 12.8426 16.9809 12.7639C17.3149 12.5778 17.6497 12.3927 17.9772 12.1955C18.0786 12.1345 18.2192 12.0823 18.193 11.9141C18.8952 11.9028 19.5822 11.9947 20.2492 12.2202Z" fill="#BB5BA3"/>
<path fill-rule="evenodd" clip-rule="evenodd" d="M26.1252 18.5808C25.8993 18.5428 25.76 18.7189 25.5819 18.7996C25.4398 18.864 25.3133 18.9724 25.1437 18.9648C25.0188 18.265 24.7946 17.5951 24.5354 16.9355C24.7371 16.6362 25.0612 16.5273 25.3718 16.3971C25.7509 17.0809 25.9979 17.8102 26.1252 18.5808Z" fill="#885EA6"/>
<path fill-rule="evenodd" clip-rule="evenodd" d="M13.1106 26.6903C13.3476 26.3841 13.7093 26.2676 14.0288 26.0867C14.6519 26.5034 15.3428 26.7766 16.0399 27.0366C15.6957 27.2632 15.3516 27.4898 15.0074 27.7164C14.3146 27.4862 13.6805 27.1476 13.1106 26.6903Z" fill="#7B5AA5"/>
<path fill-rule="evenodd" clip-rule="evenodd" d="M24.7223 22.8731C24.973 22.8875 25.155 22.7299 25.3562 22.6198C25.5394 22.5195 25.7074 22.3832 25.93 22.3747C25.758 23.0051 25.5568 23.6235 25.1994 24.1787C25.096 24.0401 25.0044 24.1629 24.927 24.2047C24.4356 24.4707 23.95 24.7477 23.4608 25.018C23.4172 25.0421 23.3611 25.0438 23.3108 25.056C23.8843 24.3949 24.362 23.672 24.7223 22.8731Z" fill="#7055A2"/>
<path fill-rule="evenodd" clip-rule="evenodd" d="M25.3717 16.3971C25.0611 16.5273 24.737 16.6362 24.5353 16.9355C24.2195 16.3632 23.8839 15.8041 23.4576 15.3049C23.5084 15.041 23.7834 15.047 23.9399 14.9095C24.023 14.8365 24.1464 14.8091 24.1825 14.6841C24.6968 15.1733 25.0665 15.7629 25.3717 16.3971Z" fill="#9761A7"/>
</svg>
