<svg width="39" height="62" viewBox="0 0 39 62" fill="none" xmlns="http://www.w3.org/2000/svg">
<path d="M21.9004 0.5C20.9624 0.5 20.1992 1.26122 20.1992 2.19922V4C20.1992 4.276 20.4252 4.5 20.7012 4.5C20.9772 4.5 21.2012 4.276 21.2012 4V2.19922C21.2012 1.81322 21.5153 1.5 21.9023 1.5C22.2873 1.5 22.5996 1.81322 22.5996 2.19922L22.5723 11.8359C22.5723 11.8836 22.5826 11.9207 22.584 11.9668C21.8465 11.8202 21.1011 11.7185 20.3535 11.6406C20.2743 11.6139 20.1905 11.5997 20.1035 11.6152H20.1016C18.8881 11.5019 17.6672 11.4708 16.4512 11.5508C15.9657 11.5827 15.4829 11.6328 15 11.6953V11C15 10.724 14.776 10.5 14.5 10.5C14.224 10.5 14 10.724 14 11V11.8496C11.4714 12.2889 9.01328 13.1464 6.75977 14.373L5.34766 7.2168C5.27566 6.8728 5.31798 6.61148 5.45898 6.52148C5.58198 6.43848 5.80191 6.47509 6.00391 6.62109L10.707 9.58594C12.056 10.3609 13.7931 10.0229 14.7461 8.79688C14.9511 8.53288 15.0959 8.22139 15.1699 7.90039L16.3926 2.30469C16.3996 2.26969 16.4043 2.23422 16.4043 2.19922C16.4043 1.81322 16.7166 1.5 17.1016 1.5C17.4866 1.5 17.8008 1.81322 17.8008 2.19922V4C17.8008 4.276 18.0228 4.5 18.2988 4.5C18.5748 4.5 18.7988 4.276 18.7988 4V2.20117C18.7988 1.26417 18.0376 0.501953 17.1016 0.501953C16.1836 0.501953 15.4323 1.23353 15.4023 2.14453L14.2715 7.41016L14.2012 7.64844C14.1542 7.85244 14.0681 8.03759 13.9551 8.18359C13.3061 9.01759 12.1237 9.24847 11.2227 8.73047L6.56641 5.79688C6.05441 5.42188 5.39292 5.37564 4.91992 5.68164C4.67792 5.83664 4.13919 6.31502 4.36719 7.41602L5.89258 15.1465C6.93473 20.426 8.20595 22.8126 13 23.0742V30.5H3.5C3.224 30.5 3 30.724 3 31V60.5H0.5C0.224 60.5 0 60.724 0 61C0 61.276 0.224 61.5 0.5 61.5H3.5H35.5H38.5C38.776 61.5 39 61.276 39 61C39 60.724 38.776 60.5 38.5 60.5H36V31C36 30.724 35.776 30.5 35.5 30.5H16V23.0332L16.5703 22.9961C16.7747 22.9796 16.9753 22.9419 17.1777 22.9141C17.195 22.9147 17.2112 22.9196 17.2285 22.9199H17.2363C17.3055 22.9199 17.3717 22.9043 17.4316 22.8789C18.732 22.6688 20.0125 22.2336 21.3926 21.5059C22.9366 20.6909 24.4618 19.5745 25.9258 18.1875L26.7148 17.4395C27.4038 16.7855 28.3425 16.4426 29.2715 16.4766L31.7734 16.7031C33.0314 16.8041 33.8823 16.3248 34.2812 15.2598C34.4533 14.7398 34.4111 14.1824 34.1641 13.6934C33.9171 13.2044 33.4956 12.8409 32.9746 12.6699L29.2441 11.4395C28.8881 11.3235 28.3496 11.1997 27.7656 11.4707C27.7336 11.4857 27.7018 11.5044 27.6738 11.5254C26.5878 12.3484 24.7274 13.3396 23.9824 12.9746C23.7084 12.8376 23.5684 12.4539 23.5684 11.8359L23.5996 2.19922C23.5996 1.26222 22.8374 0.5 21.9004 0.5ZM16.5 5.75C16.362 5.75 16.25 5.862 16.25 6C16.25 6.138 16.362 6.25 16.5 6.25H17.5C17.638 6.25 17.75 6.138 17.75 6C17.75 5.862 17.638 5.75 17.5 5.75H16.5ZM20.5 5.75C20.362 5.75 20.25 5.862 20.25 6C20.25 6.138 20.362 6.25 20.5 6.25H21.5C21.638 6.25 21.75 6.138 21.75 6C21.75 5.862 21.638 5.75 21.5 5.75H20.5ZM18.5 7.75C18.362 7.75 18.25 7.862 18.25 8C18.25 8.138 18.362 8.25 18.5 8.25H19.5C19.638 8.25 19.75 8.138 19.75 8C19.75 7.862 19.638 7.75 19.5 7.75H18.5ZM16.5 9.75C16.362 9.75 16.25 9.862 16.25 10C16.25 10.138 16.362 10.25 16.5 10.25H17.5C17.638 10.25 17.75 10.138 17.75 10C17.75 9.862 17.638 9.75 17.5 9.75H16.5ZM20.5 9.75C20.362 9.75 20.25 9.862 20.25 10C20.25 10.138 20.362 10.25 20.5 10.25H21.5C21.638 10.25 21.75 10.138 21.75 10C21.75 9.862 21.638 9.75 21.5 9.75H20.5ZM28.5742 12.3066C28.69 12.315 28.8085 12.3467 28.9375 12.3887L32.668 13.6172C32.934 13.7042 33.1503 13.8926 33.2773 14.1426C33.4033 14.3936 33.4248 14.6778 33.3438 14.9258C33.1808 15.3568 32.8733 15.791 31.8633 15.707L29.3438 15.4785C28.1448 15.4355 26.9163 15.8749 26.0312 16.7129L25.2422 17.4609C23.8432 18.7849 22.3937 19.8471 20.9297 20.6191C19.6049 21.318 18.3877 21.7265 17.1582 21.9102C16.2367 21.8479 15.5 21.0745 15.5 20.1406C15.5 19.8316 15.5804 19.5297 15.7324 19.2617C15.8684 19.0217 15.7849 18.7151 15.5449 18.5781C15.3059 18.4451 14.9993 18.5276 14.8613 18.7676C14.6243 19.1846 14.498 19.6586 14.498 20.1406C14.498 20.8892 14.802 21.574 15.291 22.0762L15.123 22.0859C14.994 22.0939 14.8653 22.0977 14.7363 22.0977H13.9355C9.24201 22.0977 8.03822 20.4872 6.99414 15.5H14.5C14.569 15.5 14.6355 15.4862 14.6953 15.4609C14.8748 15.385 15 15.207 15 15V12.709C15.3826 12.6571 15.7664 12.6231 16.1504 12.5898L16.5703 14.4785C16.7433 15.0825 17.2974 15.483 17.9824 15.5H18.0254C18.6974 15.5 19.2568 15.123 19.4648 14.498L19.8535 12.9609L20.123 14.3613C20.289 15.0283 20.8628 15.485 21.5508 15.5H21.582C22.254 15.5 22.8303 15.0687 23.0273 14.3887L23.1953 13.6191C23.2989 13.7168 23.4111 13.8037 23.543 13.8691C24.0584 14.124 24.7062 14.063 25.3555 13.873C25.953 14.4254 26.7182 14.75 27.5312 14.75C27.9473 14.75 28.357 14.6697 28.75 14.5117C28.826 14.4797 28.8814 14.4111 28.8984 14.3301C28.9164 14.2491 28.8939 14.1655 28.8359 14.1055C28.4153 13.6693 28.1168 13.1362 27.9473 12.5527C28.0346 12.4911 28.1842 12.3932 28.2324 12.3574C28.3454 12.3119 28.4585 12.2983 28.5742 12.3066ZM18.0898 12.5039C18.37 12.5056 18.6495 12.527 18.9297 12.5391L18.5078 14.2168C18.4348 14.4338 18.2419 14.516 18.0059 14.502C17.8249 14.498 17.5921 14.4154 17.5391 14.2324L17.1621 12.5312C17.4712 12.5202 17.78 12.5021 18.0898 12.5039ZM20.8203 12.6973C21.3238 12.7612 21.8243 12.8421 22.3223 12.9395L22.0586 14.1406C21.9596 14.4786 21.6743 14.509 21.5703 14.5C21.4803 14.498 21.1796 14.4655 21.0996 14.1465L20.8203 12.6973ZM27.5254 12.8418C27.6836 13.3193 27.9071 13.7691 28.2207 14.1602C27.4153 14.3713 26.5679 14.1727 25.9102 13.6797C26.5172 13.4349 27.0903 13.119 27.5254 12.8418ZM14 12.8633V14.5H8.75C10.426 13.746 12.1918 13.1918 14 12.8633ZM14 23.0996H14.7344H15V30.5H14V23.0996ZM4 31.5H35V60.5H34V59V49V33C34 32.724 33.776 32.5 33.5 32.5H5.5C5.224 32.5 5 32.724 5 33V60.5H4V31.5ZM6 33.5H13V53.5H12.5C12.224 53.5 12 53.724 12 54V60.5H6V33.5ZM14 33.5H15V53.5H14V33.5ZM16 33.5H33V47.0137C32.5808 46.6962 32.0654 46.5 31.5 46.5H21.5C20.121 46.5 19 47.621 19 49V59C19 59.5654 19.1962 60.0808 19.5137 60.5H17V54C17 53.724 16.776 53.5 16.5 53.5H16V33.5ZM21.5 47.5H31.5C32.327 47.5 33 48.173 33 49V59C33 59.827 32.327 60.5 31.5 60.5H21.5C20.673 60.5 20 59.827 20 59V49C20 48.173 20.673 47.5 21.5 47.5ZM13 54.5H13.5H15.5H16V60.5H13V54.5Z" fill="url(#paint0_linear_1185_626)"/>
<defs>
<linearGradient id="paint0_linear_1185_626" x1="19.5" y1="0.5" x2="19.5" y2="61.5" gradientUnits="userSpaceOnUse">
<stop stop-color="#E02F8D"/>
<stop offset="1" stop-color="#0041A2"/>
</linearGradient>
</defs>
</svg>
