<svg width="75" height="68" viewBox="0 0 75 68" fill="none" xmlns="http://www.w3.org/2000/svg">
<path d="M37.5 0.839854C37.2875 0.839854 37.115 1.01233 37.115 1.22485V5.48241H35.584L35.575 4.3244C35.5734 4.11342 35.401 3.94241 35.19 3.94241H35.187C34.9745 3.94395 34.8034 4.1179 34.805 4.33042L34.817 5.87042V7.76985H34.42C34.2075 7.76985 34.035 7.94233 34.035 8.15485C34.035 8.36737 34.2075 8.53985 34.42 8.53985H34.6651L33.2063 13.1599H32.495V12.0049C32.495 11.7923 32.3225 11.6199 32.11 11.6199C31.8975 11.6199 31.725 11.7923 31.725 12.0049V13.5449V15.0849V17.7799C31.725 17.7953 31.7325 17.8073 31.734 17.822L30.203 22.6691C30.1992 22.6821 30.2031 22.6958 30.2 22.7097C30.1946 22.7351 30.185 22.7579 30.185 22.7849V24.3249V25.0949V44.7299H13.245V43.9824H13.6511C13.8636 43.9824 14.0361 43.8099 14.0361 43.5974C14.0361 43.3849 13.8636 43.2124 13.6511 43.2124H13.1487L11.0944 37.0524H11.332C11.5445 37.0524 11.717 36.8799 11.717 36.6674C11.717 36.4549 11.5445 36.2824 11.332 36.2824H10.5605H10.1755V34.3574V32.8174C10.1755 32.6049 10.003 32.4324 9.79053 32.4324C9.57801 32.4324 9.40553 32.6049 9.40553 32.8174V33.9724H5.55553V32.8174C5.55553 32.6049 5.38305 32.4324 5.17053 32.4324C4.95801 32.4324 4.78552 32.6049 4.78552 32.8174V34.3574V36.2824H4.393H3.63654C3.42402 36.2824 3.25154 36.4549 3.25154 36.6674C3.25154 36.8799 3.42402 37.0524 3.63654 37.0524H3.86062L1.80328 43.2124H1.31751C1.10499 43.2124 0.932514 43.3849 0.932514 43.5974C0.932514 43.8099 1.10499 43.9824 1.31751 43.9824H1.695V45.8849V46.6549V66.2899H0.539999C0.327479 66.2899 0.154999 66.4623 0.154999 66.6749C0.154999 66.8874 0.327479 67.0599 0.539999 67.0599H2.08H12.86H30.57H44.43H62.14H72.92H74.46C74.6725 67.0599 74.845 66.8874 74.845 66.6749C74.845 66.4623 74.6733 66.2899 74.46 66.2899H73.305V46.6549V45.8849V43.9824H73.69C73.9025 43.9824 74.075 43.8099 74.075 43.5974C74.075 43.3849 73.9025 43.2124 73.69 43.2124H73.2042L71.1499 37.0524H71.3875C71.6 37.0524 71.7725 36.8799 71.7725 36.6674C71.7725 36.4549 71.6 36.2824 71.3875 36.2824H70.616H70.231V34.3574V32.8174C70.231 32.6049 70.0585 32.4324 69.846 32.4324C69.6335 32.4324 69.461 32.6049 69.461 32.8174V33.9724H65.611V32.8174C65.611 32.6049 65.4385 32.4324 65.226 32.4324C65.0135 32.4324 64.841 32.6049 64.841 32.8174V34.3574V36.2824H64.4485H63.6905C63.478 36.2824 63.3055 36.4549 63.3055 36.6674C63.3055 36.8799 63.478 37.0524 63.6905 37.0524H63.9146L61.8648 43.1899H61.3715C61.159 43.1899 60.9865 43.3623 60.9865 43.5749C60.9865 43.7874 61.159 43.9599 61.3715 43.9599H61.7565V44.7299H44.8165V25.0949V24.3249V22.7849C44.8165 22.7579 44.8069 22.7351 44.8015 22.7097C44.7992 22.6958 44.8031 22.6821 44.7985 22.6691L43.2675 17.822C43.269 17.8073 43.275 17.7945 43.275 17.7799V15.0849V13.5449V12.0049C43.275 11.7923 43.1026 11.6199 42.89 11.6199C42.6775 11.6199 42.505 11.7923 42.505 12.0049V13.1599H41.7952L40.3364 8.53985H40.58C40.7926 8.53985 40.965 8.36737 40.965 8.15485C40.965 7.94233 40.7926 7.76985 40.58 7.76985H40.2071V5.86741V5.86587V5.86433L40.195 4.32433C40.1935 4.11335 40.021 3.94234 39.81 3.94234H39.807C39.5945 3.94388 39.4235 4.11783 39.425 4.33035L39.4341 5.48234H37.885V1.22478C37.885 1.01226 37.7126 0.839783 37.5 0.839783L37.5 0.839854ZM35.587 6.25241H36.345V7.76985H35.587V6.25241ZM37.115 6.25241H37.885V7.76985H37.115V6.25241ZM38.655 6.25241H39.437V7.76985H38.655V6.25241ZM35.4652 8.56241H39.5363L43.9051 22.3999H41.7365V20.4749C41.7365 20.2623 41.564 20.0899 41.3515 20.0899H40.016L37.8639 14.184C37.8093 14.0331 37.6647 13.9314 37.5045 13.9299H37.5015C37.3421 13.9299 37.199 14.0279 37.1421 14.1765L34.8621 20.0899H33.6515C33.439 20.0899 33.2665 20.2623 33.2665 20.4749V22.3999H31.0979L35.4652 8.56241H35.4652ZM32.495 13.9299H32.9642L32.495 15.4112V15.0849V13.9299ZM42.0373 13.9299H42.505V15.0849V15.4112L42.0373 13.9299ZM37.491 15.4097L39.3844 20.6057C39.3852 20.608 39.3874 20.6079 39.3889 20.6102C39.4143 20.6765 39.4583 20.7295 39.5137 20.7727C39.5261 20.7819 39.5367 20.7905 39.5498 20.7982C39.6084 20.8336 39.6722 20.8584 39.7453 20.8584H40.965V22.7804V22.7834C40.965 22.9959 41.1375 23.1684 41.35 23.1684H42.12H43.66H44.045V23.2391C43.9241 23.1959 43.7955 23.1684 43.66 23.1684C43.3636 23.1684 43.0948 23.2844 42.89 23.4692C42.6852 23.2844 42.4165 23.1684 42.12 23.1684C41.4832 23.1684 40.965 23.6866 40.965 24.3234V25.0934C40.965 25.3059 41.1375 25.4784 41.35 25.4784C41.5625 25.4784 41.735 25.3059 41.735 25.0934V24.3234C41.735 24.1116 41.9083 23.9384 42.12 23.9384C42.3318 23.9384 42.505 24.1116 42.505 24.3234V25.0934C42.505 25.3059 42.6775 25.4784 42.89 25.4784C43.1025 25.4784 43.275 25.3059 43.275 25.0934V24.3234C43.275 24.1116 43.4483 23.9384 43.66 23.9384C43.8718 23.9384 44.045 24.1116 44.045 24.3234V25.0934V29.3284H39.81H35.19H30.955V25.0934V24.3234C30.955 24.1116 31.1283 23.9384 31.34 23.9384C31.5518 23.9384 31.725 24.1116 31.725 24.3234V25.0934C31.725 25.3059 31.8975 25.4784 32.11 25.4784C32.3225 25.4784 32.495 25.3059 32.495 25.0934V24.3234C32.495 24.1116 32.6683 23.9384 32.88 23.9384C33.0918 23.9384 33.265 24.1116 33.265 24.3234V25.0934C33.265 25.3059 33.4375 25.4784 33.65 25.4784C33.8625 25.4784 34.035 25.3059 34.035 25.0934V24.3234C34.035 23.6917 33.5248 23.1781 32.8951 23.1699H33.65C33.8625 23.1699 34.035 22.9974 34.035 22.7849V20.8599H35.1268C35.1292 20.8599 35.1305 20.8583 35.1329 20.8583C35.1521 20.8576 35.17 20.8502 35.1885 20.8463C35.3225 20.824 35.434 20.7394 35.4833 20.6162C35.484 20.6147 35.484 20.6132 35.4848 20.6117L37.491 15.4097L37.491 15.4097ZM30.955 23.1699H31.3325C31.1999 23.1709 31.0735 23.1968 30.955 23.239V23.1699ZM31.355 23.1699H32.8649C32.5746 23.1738 32.3112 23.2875 32.11 23.4691C31.9087 23.2875 31.6454 23.1738 31.355 23.1699ZM37.5 23.1699C36.0139 23.1699 34.805 24.3788 34.805 25.8649C34.805 27.351 36.0147 28.5599 37.5 28.5599C38.9861 28.5599 40.195 27.351 40.195 25.8649C40.195 24.3788 38.9861 23.1699 37.5 23.1699ZM37.5 23.9399C38.5618 23.9399 39.425 24.803 39.425 25.8649C39.425 26.9267 38.5618 27.7899 37.5 27.7899C36.4382 27.7899 35.575 26.9267 35.575 25.8649C35.575 24.803 36.4382 23.9399 37.5 23.9399ZM37.5 24.7099C37.2875 24.7099 37.115 24.8823 37.115 25.0949V25.8649C37.1158 26.0774 37.2875 26.2499 37.5 26.2499C37.5069 26.2499 37.5141 26.2469 37.521 26.2469C37.528 26.2469 37.5337 26.2499 37.5406 26.2499H38.655C38.8675 26.2499 39.04 26.0774 39.04 25.8649C39.04 25.6523 38.8675 25.4799 38.655 25.4799H37.885V25.0949C37.885 24.8823 37.7125 24.7099 37.5 24.7099H37.5ZM30.955 30.0999H34.805V31.2549C34.805 31.4004 34.8884 31.5338 35.0185 31.5992L36.345 32.2625V33.5649C36.345 33.7774 36.5175 33.9499 36.73 33.9499H37.115V35.4899C36.9025 35.4899 36.73 35.6623 36.73 35.8749C36.73 36.0874 36.9025 36.2599 37.115 36.2599H37.885C38.0975 36.2599 38.27 36.0874 38.27 35.8749C38.27 35.6623 38.0975 35.4899 37.885 35.4899V33.9499H38.27C38.4825 33.9499 38.655 33.7774 38.655 33.5649V32.2625L39.9829 31.5992C40.1131 31.5338 40.195 31.4004 40.195 31.2549V30.0999H44.045V39.3399H40.965V37.7999C40.965 36.9505 40.2743 36.2599 39.425 36.2599C38.5757 36.2599 37.885 36.9505 37.885 37.7999V39.3399H37.115V37.7999C37.115 36.9505 36.4243 36.2599 35.575 36.2599C34.7257 36.2599 34.035 36.9505 34.035 37.7999V39.3399H30.955V30.0999ZM35.575 30.1014H39.425V31.0173L38.0985 31.6805C37.9684 31.7459 37.885 31.8794 37.885 32.0249V33.1799H37.115V32.0249C37.115 31.8794 37.0331 31.7459 36.9029 31.6805L35.575 31.0173V30.1014ZM5.55701 34.7424H6.31498V36.2599H5.55701V34.7424ZM7.08498 34.7424H7.85498V36.2599H7.08498V34.7424ZM8.62498 34.7424H9.40701V36.2599H8.62498V34.7424ZM65.611 34.7424H66.3705V36.2599H65.611V34.7424ZM67.1405 34.7424H67.9105V36.2599H67.1405V34.7424ZM68.679 34.7424H69.461V36.2599H68.679V34.7424ZM35.575 37.0299C36 37.0299 36.345 37.3748 36.345 37.7999V39.7249V41.2649V43.1899H34.805V37.7999C34.805 37.3748 35.1499 37.0299 35.575 37.0299ZM39.425 37.0299C39.85 37.0299 40.195 37.3748 40.195 37.7999V43.1899H38.655V41.2649V39.7249V37.7999C38.655 37.3748 38.9999 37.0299 39.425 37.0299ZM4.67272 37.0524H10.2853L12.3381 43.2124H11.4884H9.95293L7.75572 40.9942C7.68334 40.921 7.58516 40.8799 7.48352 40.8799H7.48198C7.37957 40.8799 7.28138 40.9203 7.20977 40.9926L5.00053 43.2124H3.78838H2.61534L4.67268 37.0524H4.67272ZM64.7267 37.0524H70.3393L72.3921 43.2124H71.3815H70.0069L67.8097 40.9942C67.7373 40.921 67.6392 40.8799 67.5375 40.8799H67.536C67.4336 40.8799 67.3354 40.9203 67.2638 40.9926L65.056 43.2124H63.7942C63.7581 43.2016 63.7207 43.1899 63.6815 43.1899H62.6783L64.7267 37.0524L64.7267 37.0524ZM30.955 40.1099H34.035V43.1899H33.65C33.4375 43.1899 33.265 43.3623 33.265 43.5749V45.1149C33.265 45.3274 33.4375 45.4999 33.65 45.4999H41.35C41.5625 45.4999 41.735 45.3274 41.735 45.1149V43.5749C41.735 43.3623 41.5625 43.1899 41.35 43.1899H40.965V40.1099H44.045V45.1149V48.9649V54.7399H40.965V48.9649C40.965 47.903 40.1018 47.0399 39.04 47.0399C38.4078 47.0399 37.8511 47.3506 37.5 47.8219C37.1489 47.3506 36.5922 47.0399 35.96 47.0399C34.8982 47.0399 34.035 47.903 34.035 48.9649V54.7399H30.955V48.9649V45.1149V40.1099V40.1099ZM37.115 40.1099H37.885V40.8799H37.115V40.1099ZM37.115 41.6499H37.885V43.1899H37.115V41.6499V41.6499ZM7.48051 41.8123L9.51831 43.8681C9.59069 43.9413 9.68961 43.9824 9.79201 43.9824H11.4884H12.475V44.8005C12.3541 44.7574 12.2255 44.7299 12.09 44.7299C11.7935 44.7299 11.5248 44.8458 11.32 45.0306C11.1152 44.8458 10.8464 44.7299 10.55 44.7299C9.91319 44.7299 9.39498 45.2481 9.39498 45.8849V46.6549C9.39498 46.8674 9.56746 47.0399 9.77998 47.0399C9.9925 47.0399 10.165 46.8674 10.165 46.6549V45.8849C10.165 45.6731 10.3382 45.4999 10.55 45.4999C10.7617 45.4999 10.935 45.6731 10.935 45.8849V46.6549C10.935 46.8674 11.1075 47.0399 11.32 47.0399C11.5325 47.0399 11.705 46.8674 11.705 46.6549V45.8849C11.705 45.6731 11.8782 45.4999 12.09 45.4999C12.3017 45.4999 12.475 45.6731 12.475 45.8849V46.6549V48.9649V66.2899H10.8959V63.5873C10.8959 61.677 9.34125 60.1223 7.43088 60.1223C5.52051 60.1223 3.96588 61.677 3.96588 63.5873V66.2899H2.46498V46.6549V45.8849C2.46498 45.6731 2.63823 45.4999 2.84998 45.4999C3.06173 45.4999 3.23498 45.6731 3.23498 45.8849V46.6549C3.23498 46.8674 3.40746 47.0399 3.61998 47.0399C3.8325 47.0399 4.00498 46.8674 4.00498 46.6549V45.8849C4.00498 45.6731 4.17823 45.4999 4.38998 45.4999C4.60173 45.4999 4.77498 45.6731 4.77498 45.8849V46.6549C4.77498 46.8674 4.94746 47.0399 5.15998 47.0399C5.3725 47.0399 5.54498 46.8674 5.54498 46.6549V45.8849C5.54498 45.2481 5.02677 44.7299 4.38998 44.7299C4.09353 44.7299 3.8248 44.8458 3.61998 45.0306C3.41516 44.8458 3.14643 44.7299 2.84998 44.7299C2.71446 44.7299 2.58587 44.7574 2.46498 44.8005V43.9824H3.78842H5.15998C5.26239 43.9824 5.36209 43.942 5.4337 43.8696L7.48051 41.8123V41.8123ZM67.5345 41.8123L69.5723 43.8681C69.6447 43.9413 69.7436 43.9824 69.846 43.9824H71.38H72.535V44.8005C72.4141 44.7574 72.2855 44.7299 72.15 44.7299C71.8535 44.7299 71.5848 44.8458 71.38 45.0306C71.1752 44.8458 70.9064 44.7299 70.61 44.7299C69.9732 44.7299 69.455 45.2481 69.455 45.8849V46.6549C69.455 46.8674 69.6275 47.0399 69.84 47.0399C70.0525 47.0399 70.225 46.8674 70.225 46.6549V45.8849C70.225 45.6731 70.3982 45.4999 70.61 45.4999C70.8217 45.4999 70.995 45.6731 70.995 45.8849V46.6549C70.995 46.8674 71.1675 47.0399 71.38 47.0399C71.5925 47.0399 71.765 46.8674 71.765 46.6549V45.8849C71.765 45.6731 71.9382 45.4999 72.15 45.4999C72.3617 45.4999 72.535 45.6731 72.535 45.8849V46.6549V66.2899H70.9559V63.5873C70.9559 61.677 69.4013 60.1223 67.4909 60.1223C65.5805 60.1223 64.0259 61.677 64.0259 63.5873V66.2899H62.5265V48.9649V46.6549V45.8849C62.5265 45.6731 62.6997 45.4999 62.9115 45.4999C63.1232 45.4999 63.2965 45.6731 63.2965 45.8849V46.6549C63.2965 46.8674 63.469 47.0399 63.6815 47.0399C63.894 47.0399 64.0665 46.8674 64.0665 46.6549V45.8849C64.0665 45.6731 64.2397 45.4999 64.4515 45.4999C64.6632 45.4999 64.8365 45.6731 64.8365 45.8849V46.6549C64.8365 46.8674 65.009 47.0399 65.2215 47.0399C65.434 47.0399 65.6065 46.8674 65.6065 46.6549V45.8849C65.6065 45.2481 65.0883 44.7299 64.4515 44.7299C64.155 44.7299 63.8863 44.8458 63.6815 45.0306C63.4767 44.8458 63.2079 44.7299 62.9115 44.7299C62.776 44.7299 62.6474 44.7574 62.5265 44.8005V43.9824H65.2155C65.3179 43.9824 65.4161 43.942 65.4877 43.8696L67.5345 41.8123V41.8123ZM7.46998 43.1899C6.83319 43.1899 6.31498 43.7081 6.31498 44.3449V46.6549C6.31498 46.8674 6.48746 47.0399 6.69998 47.0399H8.23998C8.4525 47.0399 8.62498 46.8674 8.62498 46.6549V44.3449C8.62498 43.7081 8.10677 43.1899 7.46998 43.1899ZM67.53 43.1899C66.8932 43.1899 66.375 43.7081 66.375 44.3449V46.6549C66.375 46.8674 66.5475 47.0399 66.76 47.0399H68.3C68.5125 47.0399 68.685 46.8674 68.685 46.6549V44.3449C68.685 43.7081 68.1668 43.1899 67.53 43.1899ZM7.46998 43.9599C7.68173 43.9599 7.85498 44.1331 7.85498 44.3449V46.2699H7.08498V44.3449C7.08498 44.1331 7.25823 43.9599 7.46998 43.9599ZM34.035 43.9599H34.42H34.805V44.7299H34.035V43.9599ZM35.575 43.9599H36.345V44.7299H35.575V43.9599ZM37.115 43.9599H37.885V44.7299H37.115V43.9599ZM38.655 43.9599H39.425V44.7299H38.655V43.9599ZM40.195 43.9599H40.58H40.965V44.7299H40.195V43.9599ZM67.53 43.9599C67.7417 43.9599 67.915 44.1331 67.915 44.3449V46.2699H67.145V44.3449C67.145 44.1331 67.3182 43.9599 67.53 43.9599ZM13.245 45.4999H30.185V48.5799H13.245V46.6549V45.8849V45.4999ZM44.815 45.4999H61.755V45.8849V46.6549V48.5799H44.815V45.4999ZM35.96 47.8099C36.5968 47.8099 37.115 48.3281 37.115 48.9649V54.7399H34.805V48.9649C34.805 48.3281 35.3232 47.8099 35.96 47.8099ZM39.04 47.8099C39.6768 47.8099 40.195 48.3281 40.195 48.9649V54.7399H37.885V48.9649C37.885 48.3281 38.4032 47.8099 39.04 47.8099ZM7.46998 49.3423C5.88917 49.3423 4.56813 50.4115 4.15387 51.8614C4.12923 51.9053 4.11414 51.9549 4.10875 52.0073C4.04715 52.2652 4.00649 52.5301 4.00649 52.8073V58.1973C4.00572 58.4091 4.17746 58.5823 4.38998 58.5823H10.55C10.7625 58.5823 10.935 58.4099 10.935 58.1973V52.8073C10.935 52.5278 10.8935 52.2585 10.8312 51.9982C10.8251 51.949 10.8122 51.9045 10.7891 51.8629C10.3756 50.4122 9.05155 49.3423 7.46997 49.3423H7.46998ZM67.5315 49.3423C65.9507 49.3423 64.6281 50.4115 64.2139 51.8614C64.1892 51.9053 64.1756 51.9549 64.1703 52.0073C64.1087 52.2652 64.0665 52.5301 64.0665 52.8073V58.1973C64.0665 58.4099 64.239 58.5823 64.4515 58.5823H70.6115C70.824 58.5823 70.9965 58.4099 70.9965 58.1973V52.8073C70.9965 52.5278 70.9551 52.26 70.8927 51.9997C70.8858 51.9497 70.8714 51.9045 70.8491 51.8629C70.4356 50.4122 69.1131 49.3423 67.5315 49.3423V49.3423ZM13.245 49.3499H30.185V55.5099H29.415V52.2374C29.415 51.4943 28.8105 50.8899 28.0675 50.8899C27.6902 50.8899 27.3498 51.0472 27.105 51.2974C26.8601 51.0464 26.5198 50.8899 26.1425 50.8899C25.3994 50.8899 24.795 51.4943 24.795 52.2374V55.5099H24.025V52.2374C24.025 51.4943 23.4205 50.8899 22.6775 50.8899C22.3002 50.8899 21.9598 51.0472 21.715 51.2974C21.4701 51.0464 21.1298 50.8899 20.7525 50.8899C20.0094 50.8899 19.405 51.4943 19.405 52.2374V55.5099H18.635V52.2374C18.635 51.4943 18.0305 50.8899 17.2875 50.8899C16.9102 50.8899 16.5698 51.0472 16.325 51.2974C16.0801 51.0464 15.7398 50.8899 15.3625 50.8899C14.6194 50.8899 14.015 51.4943 14.015 52.2374V55.5099H13.245V49.3499ZM44.815 49.3499H61.755V55.5099H60.985V52.2374C60.985 51.4943 60.3805 50.8899 59.6375 50.8899C59.2602 50.8899 58.9198 51.0472 58.675 51.2974C58.4301 51.0464 58.0898 50.8899 57.7125 50.8899C56.9694 50.8899 56.365 51.4943 56.365 52.2374V55.5099H55.595V52.2374C55.595 51.4943 54.9905 50.8899 54.2475 50.8899C53.8702 50.8899 53.5298 51.0472 53.285 51.2974C53.0401 51.0464 52.6998 50.8899 52.3225 50.8899C51.5794 50.8899 50.975 51.4943 50.975 52.2374V55.5099H50.205V52.2374C50.205 51.4943 49.6005 50.8899 48.8575 50.8899C48.4802 50.8899 48.1398 51.0472 47.895 51.2974C47.6501 51.0464 47.3098 50.8899 46.9325 50.8899C46.1894 50.8899 45.585 51.4943 45.585 52.2374V55.5099H44.815V49.3499ZM7.46998 50.1124C8.54413 50.1124 9.46756 50.7482 9.9003 51.6599H5.04117C5.47391 50.7474 6.39583 50.1124 7.46998 50.1124ZM67.53 50.1124C68.6041 50.1124 69.5276 50.7482 69.9603 51.6599H65.1012C65.5339 50.7474 66.4558 50.1124 67.53 50.1124ZM15.3625 51.6599C15.6805 51.6599 15.94 51.9194 15.94 52.2374V55.5099H14.785V52.2374C14.785 51.9194 15.0445 51.6599 15.3625 51.6599ZM17.2875 51.6599C17.6055 51.6599 17.865 51.9194 17.865 52.2374V55.5099H16.71V52.2374C16.71 51.9194 16.9695 51.6599 17.2875 51.6599ZM20.7525 51.6599C21.0705 51.6599 21.33 51.9194 21.33 52.2374V55.5099H20.175V52.2374C20.175 51.9194 20.4345 51.6599 20.7525 51.6599ZM22.6775 51.6599C22.9955 51.6599 23.255 51.9194 23.255 52.2374V55.5099H22.1V52.2374C22.1 51.9194 22.3595 51.6599 22.6775 51.6599ZM26.1425 51.6599C26.4605 51.6599 26.72 51.9194 26.72 52.2374V55.5099H25.565V52.2374C25.565 51.9194 25.8245 51.6599 26.1425 51.6599ZM28.0675 51.6599C28.3855 51.6599 28.645 51.9194 28.645 52.2374V55.5099H27.49V52.2374C27.49 51.9194 27.7495 51.6599 28.0675 51.6599ZM46.9325 51.6599C47.2505 51.6599 47.51 51.9194 47.51 52.2374V55.5099H46.355V52.2374C46.355 51.9194 46.6145 51.6599 46.9325 51.6599ZM48.8575 51.6599C49.1755 51.6599 49.435 51.9194 49.435 52.2374V55.5099H48.28V52.2374C48.28 51.9194 48.5395 51.6599 48.8575 51.6599ZM52.3225 51.6599C52.6405 51.6599 52.9 51.9194 52.9 52.2374V55.5099H51.745V52.2374C51.745 51.9194 52.0045 51.6599 52.3225 51.6599ZM54.2475 51.6599C54.5655 51.6599 54.825 51.9194 54.825 52.2374V55.5099H53.67V52.2374C53.67 51.9194 53.9295 51.6599 54.2475 51.6599ZM57.7125 51.6599C58.0305 51.6599 58.29 51.9194 58.29 52.2374V55.5099H57.135V52.2374C57.135 51.9194 57.3945 51.6599 57.7125 51.6599ZM59.6375 51.6599C59.9555 51.6599 60.215 51.9194 60.215 52.2374V55.5099H59.06V52.2374C59.06 51.9194 59.3195 51.6599 59.6375 51.6599ZM4.81408 52.4299H5.54498V53.1999H4.77498V52.8074C4.77498 52.678 4.79639 52.5539 4.8141 52.4299H4.81408ZM6.31498 52.4299H7.08498V53.1999H6.31498V52.4299ZM7.85498 52.4299H8.62498V53.1999H7.85498V52.4299ZM9.39498 52.4299H10.1274C10.1459 52.5539 10.165 52.678 10.165 52.8074V53.1999H9.39496V52.4299H9.39498ZM64.8741 52.4299H65.605V53.1999H64.835V52.8074C64.835 52.678 64.8564 52.5539 64.8741 52.4299V52.4299ZM66.375 52.4299H67.145V53.1999H66.375V52.4299ZM67.915 52.4299H68.685V53.1999H67.915V52.4299ZM69.455 52.4299H70.1874C70.2051 52.5539 70.225 52.6788 70.225 52.8074V53.1999H69.455V52.4299H69.455ZM4.77498 53.9699H5.54498V57.8124H4.77498V53.9699ZM6.31498 53.9699H7.08498V57.8124H6.31498V53.9699ZM7.85498 53.9699H8.62498V57.8124H7.85498V53.9699ZM9.39498 53.9699H10.165V57.8124H9.39498V53.9699ZM64.835 53.9699H65.605V57.8124H64.835V53.9699ZM66.375 53.9699H67.145V57.8124H66.375V53.9699ZM67.915 53.9699H68.685V57.8124H67.915V53.9699ZM69.455 53.9699H70.225V57.8124H69.455V53.9699ZM30.9565 55.5099H34.42H37.5H40.58H44.045V66.2899H41.6959V61.2774C41.6959 58.9427 39.7955 57.0424 37.4609 57.0424C35.1262 57.0424 33.2259 58.9427 33.2259 61.2774V66.2899H30.9565V55.5099ZM13.245 56.2799H14.4H16.325H18.25H19.79H21.715H23.64H25.18H27.105H29.03H30.185V66.2899H29.415V63.2054C29.415 61.9318 28.3786 60.8954 27.105 60.8954C25.8314 60.8954 24.795 61.9318 24.795 63.2054V66.2899H24.025V63.2054C24.025 61.9318 22.9886 60.8954 21.715 60.8954C20.4414 60.8954 19.405 61.9318 19.405 63.2054V66.2899H18.635V63.2054C18.635 61.9318 17.5986 60.8954 16.325 60.8954C15.0514 60.8954 14.015 61.9318 14.015 63.2054V66.2899H13.245V56.2799ZM44.815 56.2799H45.97H47.895H49.82H51.36H53.285H55.21H56.75H58.675H60.6H61.755V66.2899H60.985V63.2054C60.985 61.9318 59.9486 60.8954 58.675 60.8954C57.4014 60.8954 56.365 61.9318 56.365 63.2054V66.2899H55.595V63.2054C55.595 61.9318 54.5586 60.8954 53.285 60.8954C52.0114 60.8954 50.975 61.9318 50.975 63.2054V66.2899H50.205V63.2054C50.205 61.9318 49.1686 60.8954 47.895 60.8954C46.6214 60.8954 45.585 61.9318 45.585 63.2054V66.2899H44.815V56.2799ZM14.4 57.0424C14.1875 57.0424 14.015 57.2148 14.015 57.4274V59.3524C14.015 59.5649 14.1875 59.7374 14.4 59.7374H16.325H18.25C18.4625 59.7374 18.635 59.5649 18.635 59.3524V57.4274C18.635 57.2148 18.4625 57.0424 18.25 57.0424H16.325H14.4ZM19.79 57.0424C19.5775 57.0424 19.405 57.2148 19.405 57.4274V59.3524C19.405 59.5649 19.5775 59.7374 19.79 59.7374H21.715H23.64C23.8525 59.7374 24.025 59.5649 24.025 59.3524V57.4274C24.025 57.2148 23.8525 57.0424 23.64 57.0424H21.715H19.79ZM25.18 57.0424C24.9675 57.0424 24.795 57.2148 24.795 57.4274V59.3524C24.795 59.5649 24.9675 59.7374 25.18 59.7374H27.105H29.03C29.2425 59.7374 29.415 59.5649 29.415 59.3524V57.4274C29.415 57.2148 29.2425 57.0424 29.03 57.0424H27.105H25.18ZM45.97 57.0424C45.7575 57.0424 45.585 57.2148 45.585 57.4274V59.3524C45.585 59.5649 45.7575 59.7374 45.97 59.7374H47.895H49.82C50.0325 59.7374 50.205 59.5649 50.205 59.3524V57.4274C50.205 57.2148 50.0325 57.0424 49.82 57.0424H47.895H45.97ZM51.36 57.0424C51.1475 57.0424 50.975 57.2148 50.975 57.4274V59.3524C50.975 59.5649 51.1475 59.7374 51.36 59.7374H53.285H55.21C55.4225 59.7374 55.595 59.5649 55.595 59.3524V57.4274C55.595 57.2148 55.4225 57.0424 55.21 57.0424H53.285H51.36ZM56.75 57.0424C56.5375 57.0424 56.365 57.2148 56.365 57.4274V59.3524C56.365 59.5649 56.5375 59.7374 56.75 59.7374H58.675H60.6C60.8125 59.7374 60.985 59.5649 60.985 59.3524V57.4274C60.985 57.2148 60.8125 57.0424 60.6 57.0424H58.675H56.75ZM14.785 57.8124H15.94V58.9674H14.785V57.8124ZM16.71 57.8124H17.865V58.9674H16.71V57.8124ZM20.175 57.8124H21.33V58.9674H20.175V57.8124ZM22.1 57.8124H23.255V58.9674H22.1V57.8124ZM25.565 57.8124H26.72V58.9674H25.565V57.8124ZM27.49 57.8124H28.645V58.9674H27.49V57.8124ZM37.4609 57.8124C39.3713 57.8124 40.9259 59.367 40.9259 61.2774V66.2824H33.9959V61.2774C33.9959 59.367 35.5505 57.8124 37.4609 57.8124ZM46.355 57.8124H47.51V58.9674H46.355V57.8124ZM48.28 57.8124H49.435V58.9674H48.28V57.8124ZM51.745 57.8124H52.9V58.9674H51.745V57.8124ZM53.67 57.8124H54.825V58.9674H53.67V57.8124ZM57.135 57.8124H58.29V58.9674H57.135V57.8124ZM59.06 57.8124H60.215V58.9674H59.06V57.8124ZM7.43088 60.8924C8.91698 60.8924 10.1259 62.1013 10.1259 63.5874V66.2824H4.73588V63.5874C4.73588 62.1013 5.94478 60.8924 7.43088 60.8924ZM67.4909 60.8924C68.977 60.8924 70.1859 62.1013 70.1859 63.5874V66.2824H64.7959V63.5874C64.7959 62.1013 66.0048 60.8924 67.4909 60.8924ZM16.325 61.6653C17.1743 61.6653 17.865 62.356 17.865 63.2053V66.2899H14.785V63.2053C14.785 62.356 15.4757 61.6653 16.325 61.6653ZM21.715 61.6653C22.5643 61.6653 23.255 62.356 23.255 63.2053V66.2899H20.175V63.2053C20.175 62.356 20.8657 61.6653 21.715 61.6653ZM27.105 61.6653C27.9543 61.6653 28.645 62.356 28.645 63.2053V66.2899H25.565V63.2053C25.565 62.356 26.2557 61.6653 27.105 61.6653ZM47.895 61.6653C48.7443 61.6653 49.435 62.356 49.435 63.2053V66.2899H46.355V63.2053C46.355 62.356 47.0457 61.6653 47.895 61.6653V61.6653ZM53.285 61.6653C54.1343 61.6653 54.825 62.356 54.825 63.2053V66.2899H51.745V63.2053C51.745 62.356 52.4357 61.6653 53.285 61.6653ZM58.675 61.6653C59.5243 61.6653 60.215 62.356 60.215 63.2053V66.2899H57.135V63.2053C57.135 62.356 57.8257 61.6653 58.675 61.6653Z" fill="url(#paint0_linear_1185_528)"/>
<defs>
<linearGradient id="paint0_linear_1185_528" x1="37.5" y1="0.839783" x2="37.5" y2="67.0599" gradientUnits="userSpaceOnUse">
<stop stop-color="#E02F8D"/>
<stop offset="1" stop-color="#0041A2"/>
</linearGradient>
</defs>
</svg>
