<svg width="60" height="60" viewBox="0 0 60 60" fill="none" xmlns="http://www.w3.org/2000/svg">
<path fill-rule="evenodd" clip-rule="evenodd" d="M26.9117 56.443C26.3547 56.1403 26.1763 55.6778 26.1803 55.0451C26.2033 51.4639 26.1914 47.8823 26.1914 44.3006C26.1914 44.1155 26.1914 43.9303 26.1914 43.6838C25.6809 43.6838 25.207 43.6838 24.7331 43.6838C23.4992 43.6838 22.2654 43.6901 21.0316 43.6825C18.7091 43.6684 17.0168 41.9636 17.0269 39.6402C17.0417 36.2498 17.9394 33.1022 19.7847 30.2632C20.769 28.7488 20.9579 27.2371 20.3859 25.5311C19.4508 22.7422 18.6007 19.9247 17.7218 17.117C16.7601 14.0452 18.277 11.2758 21.3816 10.423C21.9918 10.2554 22.6062 10.1023 23.2133 9.92417C24.6137 9.51305 25.4624 8.38085 25.4776 6.91505C25.4835 6.33245 25.5096 5.74769 25.4708 5.16773C25.4285 4.53617 25.6482 4.07435 26.1914 3.76013C28.7981 3.76013 31.4048 3.76013 34.0115 3.76013C34.5552 4.07435 34.7729 4.53779 34.7319 5.16815C34.6942 5.74835 34.7197 6.33299 34.7252 6.91547C34.7391 8.40101 35.6169 9.54395 37.0397 9.93473C37.7324 10.1251 38.4309 10.2959 39.1173 10.5062C41.8781 11.3519 43.3822 14.0537 42.5594 16.8199C41.6723 19.8032 40.7257 22.7696 39.7604 25.7289C39.2447 27.31 39.4354 28.7336 40.3416 30.1286C42.2162 33.014 43.1585 36.1948 43.1756 39.6402C43.187 41.9638 41.495 43.6701 39.1715 43.682C37.4766 43.6907 35.7815 43.6838 34.0116 43.6838C34.0116 43.8886 34.0116 44.0688 34.0116 44.2492C34.0116 47.8477 33.9998 51.4464 34.0226 55.0448C34.0266 55.6771 33.8468 56.1394 33.2913 56.443C31.1648 56.443 29.0381 56.443 26.9117 56.443ZM27.535 5.84213C27.535 6.27965 27.5403 6.65597 27.5342 7.03199C27.4963 9.31871 26.0037 11.2637 23.7998 11.893C23.1747 12.0715 22.5454 12.2357 21.9172 12.4039C19.9696 12.925 19.0732 14.548 19.6781 16.4796C20.5577 19.288 21.4028 22.1083 22.3422 24.8966C23.1274 27.2274 22.8532 29.337 21.5009 31.3985C19.8753 33.8762 19.1034 36.6445 19.0847 39.6133C19.0768 40.864 19.8396 41.6244 21.1025 41.6248C27.102 41.6272 33.1016 41.6272 39.101 41.6248C40.3623 41.6242 41.1271 40.8611 41.1176 39.6119C41.0943 36.5513 40.243 33.7342 38.5718 31.1744C37.3474 29.2989 37.086 27.3262 37.7775 25.1927C38.7165 22.2955 39.6154 19.3853 40.5248 16.4786C41.123 14.567 40.2568 12.9642 38.3349 12.4141C37.5949 12.2021 36.8358 12.0455 36.1126 11.7877C34.2908 11.1376 33.1562 9.84287 32.7783 7.94585C32.6433 7.26827 32.6658 6.55925 32.615 5.84219C30.9367 5.84213 29.2656 5.84213 27.535 5.84213ZM28.269 54.3455C29.5228 54.3455 30.7279 54.3455 31.9287 54.3455C31.9287 50.782 31.9287 47.2582 31.9287 43.7143C30.6987 43.7143 29.4937 43.7143 28.269 43.7143C28.269 47.2685 28.269 50.7923 28.269 54.3455Z" fill="url(#paint0_linear_1135_196)"/>
<defs>
<linearGradient id="paint0_linear_1135_196" x1="30.1012" y1="3.76013" x2="30.1012" y2="56.443" gradientUnits="userSpaceOnUse">
<stop stop-color="#D2328E"/>
<stop offset="1" stop-color="#833E97"/>
</linearGradient>
</defs>
</svg>
