<svg width="186" height="186" viewBox="0 0 186 186" fill="none" xmlns="http://www.w3.org/2000/svg">
<circle cx="93" cy="93" r="93" fill="#FFEEEE"/>
<path d="M126.75 70.425C114.263 69.1875 101.7 68.55 89.175 68.55C81.75 68.55 74.325 68.925 66.9 69.675L59.25 70.425" stroke="#2D2D2D" stroke-width="5" stroke-linecap="round" stroke-linejoin="round"/>
<path d="M79.875 66.6375L80.7 61.725C81.3 58.1625 81.75 55.5 88.0875 55.5H97.9125C104.25 55.5 104.737 58.3125 105.3 61.7625L106.125 66.6375" stroke="#2D2D2D" stroke-width="5" stroke-linecap="round" stroke-linejoin="round"/>
<path d="M118.687 82.2749L116.25 120.037C115.838 125.925 115.5 130.5 105.037 130.5H80.9625C70.5 130.5 70.1625 125.925 69.75 120.037L67.3125 82.2749" stroke="#2D2D2D" stroke-width="5" stroke-linecap="round" stroke-linejoin="round"/>
<path d="M86.7383 109.875H99.2258" stroke="#2D2D2D" stroke-width="5" stroke-linecap="round" stroke-linejoin="round"/>
<path d="M83.625 94.875H102.375" stroke="#2D2D2D" stroke-width="5" stroke-linecap="round" stroke-linejoin="round"/>
</svg>
