<svg width="52" height="64" viewBox="0 0 52 64" fill="none" xmlns="http://www.w3.org/2000/svg">
<path d="M22 0C21.724 0 21.5 0.224 21.5 0.5V2.05078C19.9732 2.27251 18.7719 3.47295 18.5508 5H16C15.724 5 15.5 5.224 15.5 5.5V7H10C9.724 7 9.5 7.224 9.5 7.5V16H7C6.724 16 6.5 16.224 6.5 16.5V19H5C4.724 19 4.5 19.224 4.5 19.5V23H2C1.827 23 1.66622 23.0903 1.57422 23.2383C1.48422 23.3853 1.47573 23.5696 1.55273 23.7246L4.5 29.6191V40H4C3.724 40 3.5 40.224 3.5 40.5C3.5 40.776 3.724 41 4 41H4.5V47H3.06445C2.87945 47 2.70905 47.1027 2.62305 47.2637C2.53505 47.4267 2.54544 47.6243 2.64844 47.7773L4.5 50.5547V60H4C3.724 60 3.5 60.224 3.5 60.5C3.5 60.776 3.724 61 4 61H4.5V63H0.5C0.224 63 0 63.224 0 63.5C0 63.776 0.224 64 0.5 64H7H17H37H47H51.5C51.776 64 52 63.776 52 63.5C52 63.224 51.776 63 51.5 63H47.5V61H48C48.276 61 48.5 60.776 48.5 60.5C48.5 60.224 48.276 60 48 60H47.5V50.6523L49.416 47.7773C49.518 47.6233 49.5294 47.4267 49.4414 47.2637C49.3554 47.1017 49.185 47 49 47H47.5V41H48C48.276 41 48.5 40.776 48.5 40.5C48.5 40.224 48.276 40 48 40H47.5V29.6172L50.4473 23.7227C50.5253 23.5677 50.5168 23.3833 50.4258 23.2363C50.3338 23.0893 50.173 23 50 23H47.5V19.5C47.5 19.224 47.276 19 47 19H45.5V16.5C45.5 16.224 45.276 16 45 16H42.5V7.5C42.5 7.224 42.276 7 42 7H36.5V5.5C36.5 5.224 36.276 5 36 5H33.4492C33.4394 4.93253 33.4433 4.8611 33.4297 4.79492C33.1359 3.36292 31.96 2.26221 30.5 2.05078V0.5C30.5 0.224 30.276 0 30 0H22ZM22.5 1H29.5V2H22.5V1ZM22 3H30C31.207 3 32.2192 3.86 32.4512 5H19.5508C19.7828 3.86 20.793 3 22 3ZM16.5 6H18.5H33.5H35.5V7H16.5V6ZM10.5 8H41.5V16H10.5V8ZM20 10C19.724 10 19.5 10.224 19.5 10.5V13.5C19.5 13.776 19.724 14 20 14H21.5V14.5C21.5 14.776 21.724 15 22 15H30C30.276 15 30.5 14.776 30.5 14.5V14H32C32.276 14 32.5 13.776 32.5 13.5V10.5C32.5 10.224 32.276 10 32 10H20ZM16 10.0215C14.621 10.0215 13.5 11.1425 13.5 12.5215C13.5 13.9005 14.621 15.0215 16 15.0215C17.379 15.0215 18.5 13.9005 18.5 12.5215C18.5 11.1425 17.379 10.0215 16 10.0215ZM36 10.0215C34.621 10.0215 33.5 11.1425 33.5 12.5215C33.5 13.9005 34.621 15.0215 36 15.0215C37.379 15.0215 38.5 13.9005 38.5 12.5215C38.5 11.1425 37.379 10.0215 36 10.0215ZM20.5 11H31.5V13H30C29.724 13 29.5 13.224 29.5 13.5V14H22.5V13.5C22.5 13.224 22.276 13 22 13H20.5V11ZM16 11.0215C16.827 11.0215 17.5 11.6945 17.5 12.5215C17.5 13.3485 16.827 14.0215 16 14.0215C15.173 14.0215 14.5 13.3485 14.5 12.5215C14.5 11.6945 15.173 11.0215 16 11.0215ZM36 11.0215C36.827 11.0215 37.5 11.6945 37.5 12.5215C37.5 13.3485 36.827 14.0215 36 14.0215C35.173 14.0215 34.5 13.3485 34.5 12.5215C34.5 11.6945 35.173 11.0215 36 11.0215ZM7.5 17H44.5V19H7.5V17ZM5.5 20H46.5V23H5.5V20ZM2.80859 24H49.1914L48.6914 25H3.30859L2.80859 24ZM3.80859 26H4.5V27.3828L3.80859 26ZM5.5 26H7.5V29H5.5V26ZM8.5 26H10.5V29H8.5V26ZM11.5 26H13.5V29H11.5V26ZM14.5 26H16.5V29H14.5V26ZM17.5 26H19.5V29H17.5V26ZM20.5 26H22.5V29H20.5V26ZM23.5 26H25.5V29H23.5V26ZM26.5 26H28.5V29H26.5V26ZM29.5 26H31.5V29H29.5V26ZM32.5 26H34.5V29H32.5V26ZM35.5 26H37.5V29H35.5V26ZM38.5 26H40.5V29H38.5V26ZM41.5 26H43.5V29H41.5V26ZM44.5 26H46.5V29H44.5V26ZM47.5 26H48.1914L47.5 27.3828V26ZM5.5 30H16.5V32.5V40H15.5V36.5C15.5 36.224 15.276 36 15 36H7C6.724 36 6.5 36.224 6.5 36.5V40H5.5V30ZM17.5 30H34.5V32H27C26.724 32 26.5 32.224 26.5 32.5V36H25.5V32.5C25.5 32.224 25.276 32 25 32H17.5V30ZM35.5 30H46.5V40H45.5V36.5C45.5 36.224 45.276 36 45 36H37C36.724 36 36.5 36.224 36.5 36.5V40H35.5V32.5V30ZM11 31C9.897 31 9 31.897 9 33C9 34.103 9.897 35 11 35C12.103 35 13 34.103 13 33C13 31.897 12.103 31 11 31ZM41 31C39.897 31 39 31.897 39 33C39 34.103 39.897 35 41 35C42.103 35 43 34.103 43 33C43 31.897 42.103 31 41 31ZM11 32C11.552 32 12 32.448 12 33C12 33.552 11.552 34 11 34C10.448 34 10 33.552 10 33C10 32.448 10.448 32 11 32ZM41 32C41.552 32 42 32.448 42 33C42 33.552 41.552 34 41 34C40.448 34 40 33.552 40 33C40 32.448 40.448 32 41 32ZM17.5 33H24.5V33.166C21.2422 33.8316 18.7491 36.6049 18.5234 40H17.5V33ZM27.5 33H34.5V40H33.4766C33.2509 36.6049 30.7578 33.8316 27.5 33.166V33ZM24.5 34.1855V35.2344C22.3559 35.8473 20.7549 37.7164 20.5449 40H19.5234C19.7413 37.1573 21.7953 34.8275 24.5 34.1855ZM27.5 34.1855C30.2047 34.8275 32.2587 37.1573 32.4766 40H31.4551C31.2452 37.7158 29.6447 35.8467 27.5 35.2344V34.1855ZM24.5 36.2812V36.5C24.5 36.776 24.724 37 25 37H27C27.276 37 27.5 36.776 27.5 36.5V36.2812C29.0898 36.8475 30.2627 38.2702 30.457 40H30C29.724 40 29.5 40.224 29.5 40.5C29.5 40.776 29.724 41 30 41H30.5V47H30C29.724 47 29.5 47.224 29.5 47.5C29.5 47.776 29.724 48 30 48H30.5V63H21.5V48H22C22.276 48 22.5 47.776 22.5 47.5C22.5 47.224 22.276 47 22 47H21.5V41H22C22.276 41 22.5 40.776 22.5 40.5C22.5 40.224 22.276 40 22 40H21.543C21.7374 38.2706 22.9106 36.8479 24.5 36.2812ZM7.5 37H9V38H7.5V37ZM10 37H12V38H10V37ZM13 37H14.5V38H13V37ZM37.5 37H39V38H37.5V37ZM40 37H42V38H40V37ZM43 37H44.5V38H43V37ZM7.5 39H14.5V40H7.5V39ZM37.5 39H44.5V40H37.5V39ZM5.5 41H6.5V42H5.5V41ZM7.5 41H14.5V42H7.5V41ZM15.5 41H16.5V42H15.5V41ZM17.5 41H20.5V47H19H17.5V41ZM31.5 41H34.5V47H33.75H31.5V41ZM35.5 41H36.5V42H35.5V41ZM37.5 41H44.5V42H37.5V41ZM45.5 41H46.5V42H45.5V41ZM5.5 43H6.5V47H5.5V43ZM7.5 43H8.5V45.5C8.5 45.776 8.724 46 9 46H13C13.276 46 13.5 45.776 13.5 45.5V43H14.5V47H7.5V43ZM9.5 43H12.5V45H9.5V43ZM15.5 43H16.5V47H15.5V43ZM35.5 43H36.5V47H35.5V43ZM37.5 43H38.5V45.5C38.5 45.776 38.724 46 39 46H43C43.276 46 43.5 45.776 43.5 45.5V43H44.5V47H37.5V43ZM39.5 43H42.5V45H39.5V43ZM45.5 43H46.5V47H45.5V43ZM3.99805 48H18.0664L16.7324 50H5.33008L3.99805 48ZM19.2676 48H20.5V63H17.5V50.6523L19.2676 48ZM31.5 48H32.7969L34.5 50.5547V63H31.5V48ZM33.998 48H48.0664L46.7324 50H35.3301L33.998 48ZM5.5 51H6.5V60H5.5V51ZM7.5 51H14.5V60H7.5V51ZM15.5 51H16.5V60H15.5V51ZM35.5 51H36.5V60H35.5V51ZM37.5 51H44.5V60H37.5V51ZM45.5 51H46.5V60H45.5V51ZM5.5 61H6.5V63H5.5V61ZM7.5 61H8.5V63H7.5V61ZM9.5 61H12.5V63H9.5V61ZM13.5 61H14.5V63H13.5V61ZM15.5 61H16.5V63H15.5V61ZM35.5 61H36.5V63H35.5V61ZM37.5 61H38.5V63H37.5V61ZM39.5 61H42.5V63H39.5V61ZM43.5 61H44.5V63H43.5V61ZM45.5 61H46.5V63H45.5V61Z" fill="url(#paint0_linear_1185_525)"/>
<defs>
<linearGradient id="paint0_linear_1185_525" x1="26" y1="0" x2="26" y2="64" gradientUnits="userSpaceOnUse">
<stop stop-color="#E02F8D"/>
<stop offset="1" stop-color="#0041A2"/>
</linearGradient>
</defs>
</svg>
