<svg width="30" height="30" viewBox="0 0 30 30" fill="none" xmlns="http://www.w3.org/2000/svg">
<path fill-rule="evenodd" clip-rule="evenodd" d="M8.55615 27.3262C8.27715 27.2679 7.99353 27.2258 7.71981 27.1487C5.96805 26.6552 4.86087 25.3049 4.78359 23.4662C4.70379 21.5666 4.91235 19.6946 5.63415 17.916C6.10017 16.7677 6.77697 15.7744 7.91139 15.1678C8.61105 14.7938 9.36171 14.615 10.1467 14.6312C10.3942 14.6364 10.6549 14.7615 10.881 14.8844C11.2452 15.0825 11.5829 15.3286 11.9364 15.5469C13.9922 16.8162 16.0488 16.8151 18.1027 15.5423C18.388 15.3655 18.6791 15.1949 18.9471 14.9942C19.4386 14.6259 19.9795 14.5798 20.5636 14.6656C22.1577 14.8998 23.2837 15.7732 24.0427 17.166C24.7204 18.4097 25.0256 19.7602 25.1613 21.1519C25.231 21.8666 25.2639 22.5884 25.2552 23.3064C25.2295 25.4505 23.7578 27.046 21.6253 27.2812C21.5722 27.2871 21.5212 27.3108 21.4692 27.3262C17.1649 27.3262 12.8605 27.3262 8.55615 27.3262Z" fill="#2D2D2D"/>
<path fill-rule="evenodd" clip-rule="evenodd" d="M15.421 2.748C15.7404 2.8119 16.062 2.86692 16.3791 2.9412C18.5563 3.45144 20.416 5.52888 20.7091 7.75128C20.9022 9.21426 20.6893 10.5969 19.8631 11.8339C18.7656 13.4771 17.2471 14.4337 15.2387 14.5695C12.6016 14.7478 10.4325 13.1965 9.4478 11.091C8.52296 9.11352 8.897 6.4791 10.3468 4.83984C11.2367 3.83376 12.3089 3.14046 13.6363 2.87022C13.8621 2.82426 14.0899 2.78844 14.3169 2.74794C14.6848 2.748 15.0529 2.748 15.421 2.748Z" fill="#2D2D2D"/>
</svg>
