<svg width="12" height="8" viewBox="0 0 12 8" fill="none" xmlns="http://www.w3.org/2000/svg">
<path d="M6.46824 7.33355L11.8083 1.9934C11.9319 1.86989 12 1.70501 12 1.52921C12 1.3534 11.9319 1.18853 11.8083 1.06501L11.4151 0.671749C11.1589 0.415848 10.7425 0.415848 10.4867 0.671749L6.00249 5.15601L1.51326 0.666773C1.38965 0.543262 1.22487 0.475067 1.04916 0.475067C0.873261 0.475067 0.708482 0.543262 0.584775 0.666773L0.191706 1.06004C0.0680971 1.18365 0 1.34843 0 1.52423C0 1.70003 0.0680971 1.86491 0.191706 1.98842L5.53664 7.33355C5.66064 7.45736 5.8262 7.52535 6.00219 7.52496C6.17888 7.52535 6.34434 7.45736 6.46824 7.33355Z" fill="#2D2D2D"/>
</svg>
