<svg width="48" height="48" viewBox="0 0 48 48" fill="none" xmlns="http://www.w3.org/2000/svg">
<path d="M24 5C18.9609 5 14.1282 7.00178 10.565 10.565C7.00178 14.1282 5 18.9609 5 24C5 29.0391 7.00178 33.8718 10.565 37.435C14.1282 40.9982 18.9609 43 24 43C29.0391 43 33.8718 40.9982 37.435 37.435C40.9982 33.8718 43 29.0391 43 24C43 18.9609 40.9982 14.1282 37.435 10.565C33.8718 7.00178 29.0391 5 24 5Z" fill="#039BE5"/>
<path d="M26.572 29.0358H31.489L32.261 24.0408H26.571V21.3108C26.571 19.2358 27.249 17.3958 29.19 17.3958H32.309V13.0368C31.761 12.9628 30.602 12.8008 28.412 12.8008C23.839 12.8008 21.158 15.2158 21.158 20.7178V24.0408H16.457V29.0358H21.158V42.7648C22.089 42.9048 23.032 42.9998 24 42.9998C24.875 42.9998 25.729 42.9198 26.572 42.8058V29.0358Z" fill="white"/>
</svg>
