<svg width="54" height="54" viewBox="0 0 54 54" fill="none" xmlns="http://www.w3.org/2000/svg">
<path fill-rule="evenodd" clip-rule="evenodd" d="M5.62014 25.0529C2.81744 25.8734 1.65687 27.1823 1.64942 29.5682C1.63257 34.8339 1.6296 40.0997 1.64969 45.3654C1.65984 48.0259 3.47116 49.7863 6.14432 49.7913C9.70789 49.7975 13.2716 49.7928 16.8352 49.7927C23.0849 49.7927 29.3349 49.7993 35.5846 49.7894C38.0926 49.7852 39.8433 48.0917 39.9853 45.5894C40.0042 45.2557 39.9033 44.9069 40.0934 44.5432C40.3398 44.6551 40.5812 44.7542 40.8128 44.8717C43.086 46.025 45.3582 47.1794 47.629 48.337C50.2936 49.6959 52.6131 48.2741 52.616 45.2694C52.6205 40.0567 52.6213 34.8442 52.6152 29.6315C52.6121 26.6889 50.2866 25.2494 47.6772 26.5693C45.3319 27.7555 42.9859 28.9409 40.6519 30.1494C40.1313 30.4189 39.9922 30.3484 39.9753 29.7435C39.8916 26.7137 38.2388 25.1373 35.1885 25.1266C34.545 25.1243 33.9015 25.1262 33.1102 25.1262C37.5219 21.4019 39.0887 16.9777 37.144 11.6329C35.6093 7.4141 31.4096 4.41073 27.0123 4.49756C19.9798 4.63629 16.2991 8.62403 15.2072 15.3427C11.8088 12.4449 7.99452 13.3548 5.95953 15.2117C4.73492 16.3293 3.99415 17.7022 3.76071 19.3444C3.4494 21.5348 4.17834 23.4041 5.62014 25.0529Z" fill="#FEFEFE"/>
<path fill-rule="evenodd" clip-rule="evenodd" d="M5.62014 25.0529C4.17834 23.4041 3.4494 21.5348 3.7606 19.3444C3.99404 17.7022 4.73481 16.3293 5.95943 15.2117C7.99447 13.3547 11.8087 12.4449 15.2071 15.3427C16.299 8.62397 19.9797 4.63623 27.0122 4.49756C31.4096 4.41073 35.6092 7.41416 37.144 11.633C39.0887 16.9779 37.5219 21.402 33.1102 25.1263C33.9015 25.1263 34.545 25.1244 35.1885 25.1268C38.2387 25.1374 39.8916 26.7139 39.9753 29.7436C39.9922 30.3485 40.1313 30.419 40.6519 30.1496C42.9859 28.9411 45.3319 27.7557 47.6772 26.5694C50.2866 25.2495 52.6121 26.689 52.6152 29.6316C52.6213 34.8443 52.6205 40.0568 52.616 45.2696C52.6131 48.2743 50.2936 49.696 47.629 48.3372C45.3582 47.1795 43.086 46.0252 40.8128 44.8719C40.5812 44.7544 40.3398 44.6553 40.0934 44.5434C39.9033 44.9071 40.0042 45.2558 39.9853 45.5896C39.8433 48.0919 38.0926 49.7854 35.5846 49.7896C29.3349 49.7995 23.0849 49.7929 16.8352 49.7929C13.2716 49.793 9.70789 49.7977 6.14432 49.7915C3.47116 49.7864 1.65984 48.0261 1.64969 45.3656C1.6296 40.0999 1.63257 34.8341 1.64942 29.5684C1.65692 27.1823 2.81744 25.8734 5.62014 25.0529ZM20.8932 47.874C25.6525 47.874 30.4119 47.8745 35.1712 47.874C37.2341 47.8737 38.0448 47.0551 38.0454 44.9675C38.0468 39.9699 38.0465 34.9724 38.0454 29.9749C38.0451 27.8347 37.2692 27.0647 35.0989 27.0691C32.0947 27.0751 29.0904 27.1034 26.0861 27.1015C19.4664 27.0971 12.8467 27.0731 6.22721 27.0722C4.44975 27.0719 3.58915 27.9429 3.5858 29.7237C3.57614 34.8819 3.57657 40.0399 3.5858 45.1982C3.58915 47.0032 4.48496 47.8727 6.29595 47.8734C11.1617 47.8753 16.0274 47.874 20.8932 47.874ZM26.6116 25.0797C31.0666 25.3134 35.9675 21.5909 36.0267 15.7715C36.0791 10.6239 31.7885 6.3759 26.6392 6.37979C21.4866 6.38373 17.2144 10.6334 17.2662 15.7836C17.3245 21.5863 22.237 25.2925 26.6116 25.0797ZM50.6794 37.5044C50.6794 34.8979 50.683 32.2916 50.6779 29.6853C50.6747 28.0951 49.893 27.601 48.4967 28.3074C45.867 29.6379 43.2469 30.9882 40.6083 32.3001C40.1593 32.523 40.0168 32.7844 40.021 33.2746C40.0447 36.0671 40.0441 38.86 40.0213 41.6522C40.0174 42.139 40.1522 42.4049 40.6047 42.6293C43.2446 43.9391 45.8646 45.2878 48.4947 46.6169C49.8991 47.3266 50.6745 46.839 50.6775 45.2439C50.683 42.6641 50.679 40.0842 50.6794 37.5044ZM10.4686 25.0788C13.2195 25.0774 15.3302 22.9936 15.3322 20.2773C15.3342 17.5761 13.1835 15.4205 10.4868 15.4203C7.7876 15.4203 5.60961 17.5777 5.60232 20.2588C5.59493 22.95 7.74553 25.08 10.4686 25.0788ZM20.3042 25.1262C18.9882 24.1461 17.9739 23.1198 17.0962 21.7852C16.7519 23.0973 16.1388 24.1255 15.2435 25.1262C16.9734 25.1262 18.5301 25.1262 20.3042 25.1262Z" fill="url(#paint0_linear_1131_118)"/>
<path fill-rule="evenodd" clip-rule="evenodd" d="M20.3042 25.1262C18.5302 25.1262 16.9734 25.1262 15.2435 25.1262C16.1388 24.1255 16.7519 23.0972 17.0962 21.7852C17.974 23.1198 18.9882 24.1461 20.3042 25.1262Z" fill="#EDF5F8"/>
<path fill-rule="evenodd" clip-rule="evenodd" d="M28.6972 41.9828C28.6853 40.0612 30.1838 38.5102 32.0817 38.4785C34.0016 38.4463 35.5915 40.0206 35.5906 41.9529C35.59 43.8394 34.0252 45.4179 32.1501 45.4241C30.2501 45.4304 28.7088 43.8943 28.6972 41.9828ZM32.1616 43.466C33.0068 43.4535 33.6808 42.7731 33.6728 41.9394C33.665 41.113 32.9669 40.4051 32.152 40.3971C31.2922 40.3889 30.5997 41.1085 30.6176 41.9911C30.6353 42.8549 31.2882 43.4786 32.1616 43.466Z" fill="url(#paint1_linear_1131_118)"/>
<path fill-rule="evenodd" clip-rule="evenodd" d="M10.4574 30.5789C11.2272 30.5789 11.9973 30.5663 12.7668 30.5828C13.4106 30.5965 13.8724 30.8981 13.848 31.5847C13.8254 32.2166 13.3794 32.5129 12.77 32.5173C11.2568 32.5281 9.74347 32.5267 8.23023 32.5181C7.58785 32.5147 7.11243 32.2162 7.10746 31.5436C7.10233 30.8609 7.58596 30.5831 8.22753 30.5766C8.97079 30.5689 9.71399 30.5747 10.4574 30.5747C10.4574 30.5763 10.4574 30.5775 10.4574 30.5789Z" fill="url(#paint2_linear_1131_118)"/>
<path fill-rule="evenodd" clip-rule="evenodd" d="M10.482 40.241C9.71247 40.2412 8.94286 40.2333 8.17347 40.2435C7.5373 40.2517 7.12161 39.9526 7.10665 39.3253C7.09158 38.6972 7.51872 38.3446 8.12773 38.3347C9.69292 38.3101 11.2588 38.3126 12.824 38.3333C13.4366 38.3414 13.8598 38.6849 13.8482 39.3153C13.8369 39.9444 13.4244 40.2473 12.7905 40.2423C12.0209 40.2365 11.2514 40.2408 10.482 40.241Z" fill="url(#paint3_linear_1131_118)"/>
<path fill-rule="evenodd" clip-rule="evenodd" d="M10.5311 36.3839C9.76258 36.3838 8.99406 36.3811 8.22558 36.3846C7.56565 36.3877 7.11513 36.0792 7.11945 35.4137C7.12382 34.7439 7.58244 34.461 8.24286 34.4653C9.72683 34.4753 11.2109 34.4755 12.6948 34.465C13.3461 34.461 13.7845 34.7196 13.8523 35.3928C13.9112 35.9776 13.4305 36.3682 12.6774 36.3813C11.9622 36.3937 11.2466 36.3839 10.5311 36.3839Z" fill="url(#paint4_linear_1131_118)"/>
<defs>
<linearGradient id="paint0_linear_1131_118" x1="27.1276" y1="4.49573" x2="27.1276" y2="49.795" gradientUnits="userSpaceOnUse">
<stop stop-color="#E72E8C"/>
<stop offset="1" stop-color="#40499E"/>
</linearGradient>
<linearGradient id="paint1_linear_1131_118" x1="32.1439" y1="38.478" x2="32.1439" y2="45.4241" gradientUnits="userSpaceOnUse">
<stop stop-color="#7D3F97"/>
<stop offset="1" stop-color="#44489E"/>
</linearGradient>
<linearGradient id="paint2_linear_1131_118" x1="10.4782" y1="30.5726" x2="10.4782" y2="32.525" gradientUnits="userSpaceOnUse">
<stop stop-color="#983B95"/>
<stop offset="1" stop-color="#7B3F98"/>
</linearGradient>
<linearGradient id="paint3_linear_1131_118" x1="10.4774" y1="38.317" x2="10.4774" y2="40.2436" gradientUnits="userSpaceOnUse">
<stop stop-color="#52469C"/>
<stop offset="1" stop-color="#363C93"/>
</linearGradient>
<linearGradient id="paint4_linear_1131_118" x1="10.4883" y1="34.465" x2="10.4883" y2="36.3876" gradientUnits="userSpaceOnUse">
<stop stop-color="#714199"/>
<stop offset="1" stop-color="#52469C"/>
</linearGradient>
</defs>
</svg>
