<svg width="52" height="65" viewBox="0 0 52 65" fill="none" xmlns="http://www.w3.org/2000/svg">
<path d="M51 41.5C51.3 41.5 51.5 41.3 51.5 41V29C51.5 28.7 51.3 28.5 51 28.5H48.5V21.5H50C50.3 21.5 50.5 21.3 50.5 21V17C50.5 16.7 50.3 16.5 50 16.5H48.5V13H49C49.3 13 49.5 12.8 49.5 12.5V9.5C49.5 9.2 49.3 9 49 9H48.5V5.7C48.5 4.6 48 3.6 47 3L46.5 2.7V1C46.5 0.7 46.3 0.5 46 0.5C45.7 0.5 45.5 0.7 45.5 1V2.7L45 3C44.1 3.6 43.5 4.6 43.5 5.7V9H43C42.7 9 42.5 9.2 42.5 9.5V12.5C42.5 12.8 42.7 13 43 13H43.5V16.5H42C41.7 16.5 41.5 16.7 41.5 17V21C41.5 21.3 41.7 21.5 42 21.5H43.5V22.5H8.5V21.5H10C10.3 21.5 10.5 21.3 10.5 21V17C10.5 16.7 10.3 16.5 10 16.5H8.5V13H9C9.3 13 9.5 12.8 9.5 12.5V9.5C9.5 9.2 9.3 9 9 9H8.5V5.7C8.5 4.6 8 3.6 7 3L6.5 2.7V1C6.5 0.7 6.3 0.5 6 0.5C5.7 0.5 5.5 0.7 5.5 1V2.7L5 3C4.1 3.6 3.5 4.6 3.5 5.7V9H3C2.7 9 2.5 9.2 2.5 9.5V12.5C2.5 12.8 2.7 13 3 13H3.5V16.5H2C1.7 16.5 1.5 16.7 1.5 17V21C1.5 21.3 1.7 21.5 2 21.5H3.5V28.5H1C0.7 28.5 0.5 28.7 0.5 29V41C0.5 41.3 0.7 41.5 1 41.5H2.5V63.5H1C0.7 63.5 0.5 63.7 0.5 64C0.5 64.3 0.7 64.5 1 64.5H3H9H15H37H43H49H51C51.3 64.5 51.5 64.3 51.5 64C51.5 63.7 51.3 63.5 51 63.5H49.5V41.5H51ZM50.5 40.5H49H43H41.5V29.5H44H48H50.5V40.5ZM37 40.5H35.5V36C35.5 34.5 36.6 33.8 37 33.5C37.4 33.7 38.5 34.4 38.5 36V40.5H37ZM37.2 32.5C37.1 32.5 37 32.5 36.9 32.5C36.8 32.5 34.5 33.4 34.5 36V40.5H33.5V36C33.5 33.4 31.3 32.6 31.2 32.5C31.1 32.5 31 32.5 30.9 32.5C30.8 32.5 28.5 33.4 28.5 36V40.5H23.5V36C23.5 33.4 21.3 32.6 21.2 32.5C21.1 32.5 21 32.5 20.9 32.5C20.8 32.5 18.5 33.4 18.5 36V40.5H17.5V36C17.5 33.4 15.3 32.6 15.2 32.5C15.1 32.5 15 32.5 14.9 32.5C14.8 32.5 12.5 33.4 12.5 36V40.5H11.5V29.5H12.5V30C12.5 30.3 12.7 30.5 13 30.5C13.3 30.5 13.5 30.3 13.5 30V29.5H14.5V30C14.5 30.3 14.7 30.5 15 30.5C15.3 30.5 15.5 30.3 15.5 30V29.5H16.5V30C16.5 30.3 16.7 30.5 17 30.5C17.3 30.5 17.5 30.3 17.5 30V29.5H18.5V30C18.5 30.3 18.7 30.5 19 30.5C19.3 30.5 19.5 30.3 19.5 30V29.5H20.5V30C20.5 30.3 20.7 30.5 21 30.5C21.3 30.5 21.5 30.3 21.5 30V29.5H22.5V30C22.5 30.3 22.7 30.5 23 30.5C23.3 30.5 23.5 30.3 23.5 30V29.5H24.5V30C24.5 30.3 24.7 30.5 25 30.5C25.3 30.5 25.5 30.3 25.5 30V29.5H26.5V30C26.5 30.3 26.7 30.5 27 30.5C27.3 30.5 27.5 30.3 27.5 30V29.5H28.5V30C28.5 30.3 28.7 30.5 29 30.5C29.3 30.5 29.5 30.3 29.5 30V29.5H30.5V30C30.5 30.3 30.7 30.5 31 30.5C31.3 30.5 31.5 30.3 31.5 30V29.5H32.5V30C32.5 30.3 32.7 30.5 33 30.5C33.3 30.5 33.5 30.3 33.5 30V29.5H34.5V30C34.5 30.3 34.7 30.5 35 30.5C35.3 30.5 35.5 30.3 35.5 30V29.5H36.5V30C36.5 30.3 36.7 30.5 37 30.5C37.3 30.5 37.5 30.3 37.5 30V29.5H38.5V30C38.5 30.3 38.7 30.5 39 30.5C39.3 30.5 39.5 30.3 39.5 30V29.5H40.5V40.5H39.5V36C39.5 33.4 37.3 32.6 37.2 32.5ZM29.5 40.5V36C29.5 34.5 30.6 33.8 31 33.5C31.4 33.7 32.5 34.4 32.5 36V40.5H29.5ZM19.5 40.5V36C19.5 34.5 20.6 33.8 21 33.5C21.4 33.7 22.5 34.4 22.5 36V40.5H19.5ZM15 40.5H13.5V36C13.5 34.5 14.6 33.8 15 33.5C15.4 33.7 16.5 34.4 16.5 36V40.5H15ZM8.5 25.5H43.5V28.5H41.5V28C41.5 27.2 40.8 26.5 40 26.5C39.2 26.5 38.5 27.2 38.5 28V28.5H37.5V28C37.5 27.2 36.8 26.5 36 26.5C35.2 26.5 34.5 27.2 34.5 28V28.5H33.5V28C33.5 27.2 32.8 26.5 32 26.5C31.2 26.5 30.5 27.2 30.5 28V28.5H29.5V28C29.5 27.2 28.8 26.5 28 26.5C27.2 26.5 26.5 27.2 26.5 28V28.5H25.5V28C25.5 27.2 24.8 26.5 24 26.5C23.2 26.5 22.5 27.2 22.5 28V28.5H21.5V28C21.5 27.2 20.8 26.5 20 26.5C19.2 26.5 18.5 27.2 18.5 28V28.5H17.5V28C17.5 27.2 16.8 26.5 16 26.5C15.2 26.5 14.5 27.2 14.5 28V28.5H13.5V28C13.5 27.2 12.8 26.5 12 26.5C11.2 26.5 10.5 27.2 10.5 28V28.5H8.5V25.5ZM40.5 28.5H39.5V28C39.5 27.7 39.7 27.5 40 27.5C40.3 27.5 40.5 27.7 40.5 28V28.5ZM36.5 28.5H35.5V28C35.5 27.7 35.7 27.5 36 27.5C36.3 27.5 36.5 27.7 36.5 28V28.5ZM32.5 28.5H31.5V28C31.5 27.7 31.7 27.5 32 27.5C32.3 27.5 32.5 27.7 32.5 28V28.5ZM28.5 28.5H27.5V28C27.5 27.7 27.7 27.5 28 27.5C28.3 27.5 28.5 27.7 28.5 28V28.5ZM24.5 28.5H23.5V28C23.5 27.7 23.7 27.5 24 27.5C24.3 27.5 24.5 27.7 24.5 28V28.5ZM20.5 28.5H19.5V28C19.5 27.7 19.7 27.5 20 27.5C20.3 27.5 20.5 27.7 20.5 28V28.5ZM16.5 28.5H15.5V28C15.5 27.7 15.7 27.5 16 27.5C16.3 27.5 16.5 27.7 16.5 28V28.5ZM12.5 28.5H11.5V28C11.5 27.7 11.7 27.5 12 27.5C12.3 27.5 12.5 27.7 12.5 28V28.5ZM48.5 12H48H47.5V11.5C47.5 11.2 47.3 11 47 11C46.7 11 46.5 11.2 46.5 11.5V12H45.5V11.5C45.5 11.2 45.3 11 45 11C44.7 11 44.5 11.2 44.5 11.5V12H44H43.5V10H48.5V12ZM45.5 3.9L46 3.6L46.5 3.9C47.1 4.3 47.4 4.9 47.5 5.5H44.5C44.6 4.8 44.9 4.2 45.5 3.9ZM44.5 6.5H47.5V9H46.5V8C46.5 7.7 46.3 7.5 46 7.5C45.7 7.5 45.5 7.7 45.5 8V9H44.5V6.5ZM44.5 13H47.5V16.5H44.5V13ZM42.5 20.5V17.5H44H48H49.5V20.5H48.5V19C48.5 18.7 48.3 18.5 48 18.5C47.7 18.5 47.5 18.7 47.5 19V20.5H46.5V19C46.5 18.7 46.3 18.5 46 18.5C45.7 18.5 45.5 18.7 45.5 19V20.5H44.5V19C44.5 18.7 44.3 18.5 44 18.5C43.7 18.5 43.5 18.7 43.5 19V20.5H42.5ZM47.5 21.5V28.5H44.5V21.5H47.5ZM43.5 23.5V24.5H8.5V23.5H43.5ZM8.5 12H8H7.5V11.5C7.5 11.2 7.3 11 7 11C6.7 11 6.5 11.2 6.5 11.5V12H5.5V11.5C5.5 11.2 5.3 11 5 11C4.7 11 4.5 11.2 4.5 11.5V12H4H3.5V10H8.5V12ZM5.5 3.9L6 3.6L6.5 3.9C7.1 4.3 7.4 4.9 7.5 5.5H4.5C4.6 4.8 4.9 4.2 5.5 3.9ZM4.5 6.5H7.5V9H6.5V8C6.5 7.7 6.3 7.5 6 7.5C5.7 7.5 5.5 7.7 5.5 8V9H4.5V6.5ZM4.5 13H7.5V16.5H4.5V13ZM2.5 20.5V17.5H4H8H9.5V20.5H8.5V19C8.5 18.7 8.3 18.5 8 18.5C7.7 18.5 7.5 18.7 7.5 19V20.5H6.5V20V19C6.5 18.7 6.3 18.5 6 18.5C5.7 18.5 5.5 18.7 5.5 19V20V20.5H4.5V19C4.5 18.7 4.3 18.5 4 18.5C3.7 18.5 3.5 18.7 3.5 19V20.5H2.5ZM4.5 21.5H7.5V23V25V28.5H4.5V21.5ZM1.5 29.5H4H8H10.5V40.5H9H3H1.5V29.5ZM3.5 41.5H8.5V63.5H3.5V41.5ZM9.5 41.5H10.5V42C10.5 42.3 10.7 42.5 11 42.5C11.3 42.5 11.5 42.3 11.5 42V41.5H12.5V42C12.5 42.3 12.7 42.5 13 42.5C13.3 42.5 13.5 42.3 13.5 42V41.5H14.5V63.5H9.5V41.5ZM15.5 41.5H16.5V42C16.5 42.3 16.7 42.5 17 42.5C17.3 42.5 17.5 42.3 17.5 42V41.5H18.5V42C18.5 42.3 18.7 42.5 19 42.5C19.3 42.5 19.5 42.3 19.5 42V41.5H20.5V42C20.5 42.3 20.7 42.5 21 42.5C21.3 42.5 21.5 42.3 21.5 42V41.5H22.5V42C22.5 42.3 22.7 42.5 23 42.5C23.3 42.5 23.5 42.3 23.5 42V41.5H24.5V42C24.5 42.3 24.7 42.5 25 42.5C25.3 42.5 25.5 42.3 25.5 42V41.5H26.5V42C26.5 42.3 26.7 42.5 27 42.5C27.3 42.5 27.5 42.3 27.5 42V41.5H28.5V42C28.5 42.3 28.7 42.5 29 42.5C29.3 42.5 29.5 42.3 29.5 42V41.5H30.5V42C30.5 42.3 30.7 42.5 31 42.5C31.3 42.5 31.5 42.3 31.5 42V41.5H32.5V42C32.5 42.3 32.7 42.5 33 42.5C33.3 42.5 33.5 42.3 33.5 42V41.5H34.5V42C34.5 42.3 34.7 42.5 35 42.5C35.3 42.5 35.5 42.3 35.5 42V41.5H36.5V63.5H34.5V53.6C34.5 50.2 32.6 47.1 29.3 45.3L26.2 43.6C26 43.5 25.9 43.5 25.7 43.6L22.6 45.3C19.4 47.1 17.4 50.2 17.4 53.6V63.5H15.4V41.5H15.5ZM33.5 63.5H18.5V53.6C18.5 50.6 20.2 47.8 23.1 46.2L26 44.6L28.8 46.2C31.7 47.8 33.5 50.6 33.5 53.6V63.5ZM37.5 41.5H38.5V42C38.5 42.3 38.7 42.5 39 42.5C39.3 42.5 39.5 42.3 39.5 42V41.5H40.5V42C40.5 42.3 40.7 42.5 41 42.5C41.3 42.5 41.5 42.3 41.5 42V41.5H42.5V63.5H37.5V41.5ZM48.5 63.5H43.5V41.5H48.5V63.5Z" fill="url(#paint0_linear_1185_531)"/>
<defs>
<linearGradient id="paint0_linear_1185_531" x1="26" y1="0.5" x2="26" y2="64.5" gradientUnits="userSpaceOnUse">
<stop stop-color="#E02F8D"/>
<stop offset="1" stop-color="#0041A2"/>
</linearGradient>
</defs>
</svg>
