<svg width="68" height="60" viewBox="0 0 68 60" fill="none" xmlns="http://www.w3.org/2000/svg">
<path d="M67.8 59H66.3V45.5V43.5V38.5V31.5V24.5C66.3 23.4 65.8 22.4 64.9 21.7L64.1 21.1C63.9 21 63.7 21 63.5 21.1L62.7 21.7C62.6 21.8 62.4 21.9 62.3 22.1V19.7C62.3 18.6 61.7 17.6 60.8 17L59.3 16.2V14.5C59.3 14.2 59.1 14 58.8 14C58.5 14 58.3 14.2 58.3 14.5V16.2L56.8 17C56.6 17.1 56.4 17.3 56.3 17.4V14.4C56.3 13.3 55.8 12.3 54.9 11.6L54.1 11C53.9 10.9 53.7 10.9 53.5 11L52.7 11.6C52.6 11.7 52.4 11.8 52.3 12V11.4C52.3 10.3 51.8 9.30002 50.9 8.60003L50.1 8.00002C49.9 7.90002 49.7 7.90002 49.5 8.00002L48.7 8.60003C48.5 8.70003 48.4 8.90002 48.2 9.10002C48 8.20002 47.5 7.40002 46.7 7.00002L45.2 6.20003V4.50002C45.2 4.20002 45 4.00002 44.7 4.00002C44.4 4.00002 44.2 4.20002 44.2 4.50002V6.20003L42.7 7.00002C42.5 7.10002 42.3 7.30002 42.1 7.40002C42.1 6.30002 41.6 5.30002 40.7 4.60003L39.9 4.00002C39.7 3.90002 39.5 3.90002 39.3 4.00002L38.5 4.60003C38.2 4.80003 38 5.10002 37.8 5.30002C37.5 4.70002 37.1 4.20002 36.6 3.90002L35.1 3.10003V1.40002C35.1 1.10002 34.9 0.900024 34.6 0.900024C34.3 0.900024 34.1 1.10002 34.1 1.40002V3.10003L32.6 3.90002C32 4.20002 31.6 4.70002 31.4 5.30002C31.2 5.00002 31 4.80003 30.7 4.60003L29.9 4.00002C29.7 3.90002 29.5 3.90002 29.3 4.00002L28.5 4.60003C27.6 5.20003 27.1 6.30002 27.1 7.40002C26.9 7.20002 26.8 7.10002 26.5 7.00002L25 6.20003V4.50002C25 4.20002 24.8 4.00002 24.5 4.00002C24.2 4.00002 24 4.20002 24 4.50002V6.20003L22.5 7.00002C21.7 7.50002 21.2 8.20002 21 9.10002C20.9 8.90002 20.7 8.80002 20.5 8.60003L19.7 8.00002C19.5 7.90002 19.3 7.90002 19.1 8.00002L18.3 8.60003C17.4 9.30002 16.9 10.3 16.9 11.4V12C16.8 11.9 16.6 11.7 16.5 11.6L15.7 11C15.5 10.9 15.3 10.9 15.1 11L14.3 11.6C13.4 12.3 12.9 13.3 12.9 14.4V17.4C12.7 17.2 12.6 17.1 12.4 17L10.9 16.2V14.5C10.9 14.2 10.7 14 10.4 14C10.1 14 9.89999 14.2 9.89999 14.5V16.2L8.39999 17C7.39999 17.5 6.89999 18.6 6.89999 19.7V22.1C6.79999 22 6.59999 21.8 6.49999 21.7L5.7 21.1C5.5 21 5.29999 21 5.09999 21.1L4.29999 21.7C3.39999 22.4 2.89999 23.4 2.89999 24.5V31.5V38.5V43.5V45.5V59H1.39999C1.09999 59 0.899994 59.2 0.899994 59.5C0.899994 59.8 1.09999 60 1.39999 60H3.29999H3.39999H7.39999H13.4H17.4H21.4H27.4H31.4H37.4H41.4H47.4H51.4H55.4H61.4H65.4H65.5H67.4C67.7 60 67.9 59.8 67.9 59.5C67.9 59.2 68.1 59 67.8 59ZM4.29999 31.5C4.29999 30.7 4.69999 30 5.29999 29.5L5.79999 29.1L6.29999 29.5C6.89999 30 7.29999 30.7 7.29999 31.5V36.1C7.19999 36 6.99999 35.8 6.89999 35.7L6.09999 35.1C5.89999 35 5.69999 35 5.49999 35.1L4.7 35.7C4.6 35.8 4.39999 35.9 4.29999 36.1V31.5ZM8.29999 23.7C8.29999 23 8.69999 22.3 9.29999 21.9L10.8 21.1L12.3 21.9C12.9 22.3 13.3 23 13.3 23.7V25.1V28.5C13.1 28.3 13 28.2 12.8 28.1L11.1 27.1C10.9 27 10.8 27 10.6 27.1L8.89999 28.1C8.69999 28.2 8.49999 28.4 8.39999 28.5V25.1V24.5V23.7H8.29999ZM8.29999 30.7C8.29999 30 8.69999 29.3 9.29999 28.9L10.8 28.1L12.3 28.9C12.9 29.3 13.3 30 13.3 30.7V35.5C13.1 35.3 13 35.2 12.8 35.1L11.1 34.1C10.9 34 10.8 34 10.6 34.1L8.89999 35.1C8.69999 35.2 8.49999 35.4 8.39999 35.5V31.5V30.7H8.29999ZM56.3 37.7C56.3 37 56.7 36.3 57.3 35.9L58.8 35.1L60.3 35.9C60.9 36.3 61.3 37 61.3 37.7V38.5V43H56.3V37.7ZM61.3 31.5V35.5C61.1 35.3 61 35.2 60.8 35.1L59.1 34.1C58.9 34 58.8 34 58.6 34.1L56.9 35.1C56.7 35.2 56.5 35.4 56.4 35.5V30.7C56.4 30 56.8 29.3 57.4 28.9L58.9 28.1L60.4 28.9C61 29.3 61.4 30 61.4 30.7V31.5H61.3ZM55.3 30.7V34.1C55.2 34 55 33.8 54.9 33.7L54.1 33.1C53.9 33 53.7 33 53.5 33.1L52.7 33.7C52.6 33.8 52.4 33.9 52.3 34.1V29.5C52.3 28.7 52.7 28 53.3 27.5L53.8 27.1L54.3 27.5C54.9 28 55.3 28.7 55.3 29.5V30.7ZM51.3 29.5V34.1C51.2 34 51 33.8 50.9 33.7L50.1 33.1C49.9 33 49.7 33 49.5 33.1L48.7 33.7C48.6 33.8 48.4 33.9 48.3 34.1V33.1V28.5C48.3 27.7 48.7 27 49.3 26.5L49.8 26.1L50.3 26.5C50.9 27 51.3 27.7 51.3 28.5V29.5ZM42.3 43V42.1V36.7C42.3 36 42.7 35.3 43.3 34.9L44.8 34.1L46.3 34.9C46.9 35.3 47.3 36 47.3 36.7V42.1V43H42.3ZM47.3 28.5V33.1V34.5C47.1 34.3 47 34.2 46.8 34.1L45.1 33.1C44.9 33 44.8 33 44.6 33.1L42.9 34.1C42.7 34.2 42.5 34.4 42.4 34.5V33.1V27.7C42.4 27 42.8 26.3 43.4 25.9L44.9 25.1L46.4 25.9C47 26.3 47.4 27 47.4 27.7V28.5H47.3ZM41.3 27.7V33.1V34.1C41.2 34 41 33.8 40.9 33.7L40.1 33.1C39.9 33 39.7 33 39.5 33.1L38.7 33.7C38.6 33.8 38.4 33.9 38.3 34.1V32.1V26.7V26.5C38.3 25.7 38.7 25 39.3 24.5L39.8 24.1L40.3 24.5C40.9 25 41.3 25.7 41.3 26.5V27.7ZM32.3 43V42.1V37.5V36.7C32.3 36 32.7 35.3 33.3 34.9L34.8 34.1L36.3 34.9C36.9 35.3 37.3 36 37.3 36.7V42.1V43H32.3ZM37.3 32.1V34.5C37.1 34.3 37 34.2 36.8 34.1L35.1 33.1C34.9 33 34.8 33 34.6 33.1L32.9 34.1C32.7 34.2 32.5 34.4 32.4 34.5V32.1V27.5V26.7C32.4 26 32.8 25.3 33.4 24.9L34.9 24.1L36.4 24.9C37 25.3 37.4 26 37.4 26.7V32.1H37.3ZM31.3 26.7V27.5V32.1V34.1C31.2 34 31 33.8 30.9 33.7L30.1 33.1C29.9 33 29.7 33 29.5 33.1L28.7 33.7C28.6 33.8 28.4 33.9 28.3 34.1V33.1V27.7V27.5V26.5C28.3 25.7 28.7 25 29.3 24.5L29.8 24.1L30.3 24.5C30.9 25 31.3 25.7 31.3 26.5V26.7ZM22.3 43V42.1V36.7C22.3 36 22.7 35.3 23.3 34.9L24.8 34.1L26.3 34.9C26.9 35.3 27.3 36 27.3 36.7V37.5V42.1V43H22.3ZM27.3 33.1V34.5C27.1 34.3 27 34.2 26.8 34.1L25.1 33.1C24.9 33 24.8 33 24.6 33.1L22.9 34.1C22.7 34.2 22.5 34.4 22.4 34.5V33.1V28.5V27.7C22.4 27 22.8 26.3 23.4 25.9L24.9 25.1L26.4 25.9C27 26.3 27.4 27 27.4 27.7V33.1H27.3ZM21.3 33.1V34.1C21.2 34 21 33.8 20.9 33.7L20.1 33.1C19.9 33 19.7 33 19.5 33.1L18.7 33.7C18.6 33.8 18.4 33.9 18.3 34.1V29.5V28.5C18.3 27.7 18.7 27 19.3 26.5L19.8 26.1L20.3 26.5C20.9 27 21.3 27.7 21.3 28.5V33.1ZM17.3 34.1C17.2 34 17 33.8 16.9 33.7L16.1 33.1C15.9 33 15.7 33 15.5 33.1L14.7 33.7C14.6 33.8 14.4 33.9 14.3 34.1V30.7V29.5C14.3 28.7 14.7 28 15.3 27.5L15.8 27.1L16.3 27.5C16.9 28 17.3 28.7 17.3 29.5V34.1ZM8.29999 38.5V37.7C8.29999 37 8.69999 36.3 9.29999 35.9L10.8 35.1L12.3 35.9C12.9 36.3 13.3 37 13.3 37.7V43H8.29999V38.5ZM8.29999 45.5V44H13.3V47.1C13 47 12.8 47 12.5 47C12.2 46.4 11.5 46 10.8 46C10.1 46 9.39999 46.4 9.09999 47C8.79999 46.9 8.59999 47 8.29999 47.1V45.5ZM14.3 37.7V36.5C14.3 35.7 14.7 35 15.3 34.5L15.8 34.1L16.3 34.5C16.9 35 17.3 35.7 17.3 36.5V43H14.3V37.7ZM18.3 36.5C18.3 35.7 18.7 35 19.3 34.5L19.8 34.1L20.3 34.5C20.9 35 21.3 35.7 21.3 36.5V36.7V42.1V43H18.3V36.5ZM22.3 44H27.3V47.1C27 47 26.8 47 26.5 47C26.2 46.4 25.5 46 24.8 46C24.1 46 23.4 46.4 23.1 47C22.8 46.9 22.6 47 22.3 47.1V44ZM28.3 42.1V37.5V36.7V36.5C28.3 35.7 28.7 35 29.3 34.5L29.8 34.1L30.3 34.5C30.9 35 31.3 35.7 31.3 36.5V36.7V37.5V42.1V43H28.3V42.1ZM32.3 44H37.3V47.1C37 47 36.8 47 36.5 47C36.2 46.4 35.5 46 34.8 46C34.1 46 33.4 46.4 33.1 47C32.8 46.9 32.6 47 32.3 47.1V44ZM38.3 42.1V36.7V36.5C38.3 35.7 38.7 35 39.3 34.5L39.8 34.1L40.3 34.5C40.9 35 41.3 35.7 41.3 36.5V36.7V42.1V43H38.3V42.1ZM42.3 44H47.3V47.1C47 47 46.8 47 46.5 47C46.2 46.4 45.5 46 44.8 46C44.1 46 43.4 46.4 43.1 47C42.8 46.9 42.6 47 42.3 47.1V44ZM48.3 42.1V36.7V36.5C48.3 35.7 48.7 35 49.3 34.5L49.8 34.1L50.3 34.5C50.9 35 51.3 35.7 51.3 36.5V43H48.3V42.1ZM52.3 36.5C52.3 35.7 52.7 35 53.3 34.5L53.8 34.1L54.3 34.5C54.9 35 55.3 35.7 55.3 36.5V37.7V43H52.3V36.5ZM56.3 44H61.3V45.5V47.1C61 47 60.8 47 60.5 47C60.2 46.4 59.5 46 58.8 46C58.1 46 57.4 46.4 57.1 47C56.8 46.9 56.6 47 56.3 47.1V44ZM62.3 38.5C62.3 37.7 62.7 37 63.3 36.5L63.8 36.1L64.3 36.5C64.9 37 65.3 37.7 65.3 38.5V43H62.3V38.5ZM65.3 36.1C65.2 36 65 35.8 64.9 35.7L64.1 35.1C63.9 35 63.7 35 63.5 35.1L62.7 35.7C62.6 35.8 62.4 35.9 62.3 36.1V31.5C62.3 30.7 62.7 30 63.3 29.5L63.8 29.1L64.3 29.5C64.9 30 65.3 30.7 65.3 31.5V36.1ZM61.3 24.5V25.1V28.5C61.1 28.3 61 28.2 60.8 28.1L59.1 27.1C58.9 27 58.8 27 58.6 27.1L56.9 28.1C56.7 28.2 56.5 28.4 56.4 28.5V25.1V23.7C56.4 23 56.8 22.3 57.4 21.9L58.9 21.1L60.4 21.9C61 22.3 61.4 23 61.4 23.7V24.5H61.3ZM55.3 23.7V25.1V27.1C55.2 27 55 26.8 54.9 26.7L54.1 26.1C53.9 26 53.7 26 53.5 26.1L52.7 26.7C52.6 26.8 52.4 26.9 52.3 27.1V21.5C52.3 20.7 52.7 20 53.3 19.5L53.8 19.1L54.3 19.5C54.9 20 55.3 20.7 55.3 21.5V23.7ZM51.3 21.5V26.1C51.2 26 51 25.8 50.9 25.7L50.1 25.1C49.9 25 49.7 25 49.5 25.1L48.7 25.7C48.6 25.8 48.4 25.9 48.3 26.1V24.1V20.5C48.3 19.7 48.7 19 49.3 18.5L49.8 18.1L50.3 18.5C50.9 19 51.3 19.7 51.3 20.5V21.5ZM47.3 20.5V24.1V25.5C47.1 25.3 47 25.2 46.8 25.1L45.1 24.1C44.9 24 44.8 24 44.6 24.1L42.9 25.1C42.7 25.2 42.5 25.4 42.4 25.5V24.1V18.7C42.4 18 42.8 17.3 43.4 16.9L44.9 16.1L46.4 16.9C47 17.3 47.4 18 47.4 18.7V20.5H47.3ZM41.3 18.5V18.7V24.1C41.2 24 41 23.8 40.9 23.7L40.1 23.1C39.9 23 39.7 23 39.5 23.1L38.7 23.7C38.6 23.8 38.4 23.9 38.3 24.1V22.1V18.5V17.5C38.3 16.7 38.7 16 39.3 15.5L39.8 15.1L40.3 15.5C40.9 16 41.3 16.7 41.3 17.5V18.5ZM37.3 17.5V18.5V22.1V24.5C37.1 24.3 37 24.2 36.8 24.1L35.1 23.1C34.9 23 34.8 23 34.6 23.1L32.9 24.1C32.7 24.2 32.5 24.4 32.4 24.5V22.1V17.5V16.7C32.4 16 32.8 15.3 33.4 14.9L34.9 14.1L36.4 14.9C37 15.3 37.4 16 37.4 16.7V17.5H37.3ZM31.3 22.1V24.1C31.2 24 31 23.8 30.9 23.7L30.1 23.1C29.9 23 29.7 23 29.5 23.1L28.7 23.7C28.6 23.8 28.4 23.9 28.3 24.1V18.7V18.1V17.5C28.3 16.7 28.7 16 29.3 15.5L29.8 15.1L30.3 15.5C30.9 16 31.3 16.7 31.3 17.5V22.1ZM27.3 24.1V25.5C27.1 25.3 27 25.2 26.8 25.1L25.1 24.1C24.9 24 24.8 24 24.6 24.1L22.9 25.1C22.7 25.2 22.5 25.4 22.4 25.5V24.1V20.5V18.7C22.4 18 22.8 17.3 23.4 16.9L24.9 16.1L26.4 16.9C27 17.3 27.4 18 27.4 18.7V24.1H27.3ZM21.3 24.1V26.1C21.2 26 21 25.8 20.9 25.7L20.1 25.1C19.9 25 19.7 25 19.5 25.1L18.7 25.7C18.6 25.8 18.4 25.9 18.3 26.1V21.5V20.5C18.3 19.7 18.7 19 19.3 18.5L19.8 18.1L20.3 18.5C20.9 19 21.3 19.7 21.3 20.5V24.1ZM17.3 27.1C17.2 27 17 26.8 16.9 26.7L16.1 26.1C15.9 26 15.7 26 15.5 26.1L14.7 26.7C14.6 26.8 14.4 26.9 14.3 27.1V25.1V23.7V21.5C14.3 20.7 14.7 20 15.3 19.5L15.8 19.1L16.3 19.5C16.9 20 17.3 20.7 17.3 21.5V27.1ZM4.29999 38.5C4.29999 37.7 4.69999 37 5.29999 36.5L5.79999 36.1L6.29999 36.5C6.89999 37 7.29999 37.7 7.29999 38.5V43H4.29999V38.5ZM8.29999 59V48.5C8.29999 48.2 8.49999 48 8.79999 48C8.89999 48 8.99999 48 9.09999 48.1C9.2 48.2 9.39999 48.2 9.59999 48.1C9.79999 48 9.89999 47.9 9.89999 47.7C9.99999 47.2 10.4 46.9 10.9 46.9C11.4 46.9 11.8 47.2 11.9 47.7C11.9 47.9 12 48 12.2 48.1C12.4 48.2 12.5 48.1 12.7 48.1C12.8 48 12.9 48 13 48C13.3 48 13.5 48.2 13.5 48.5V59H8.29999ZM14.3 59V44H17.3V59H14.3ZM18.3 59V44H21.3V59H18.3ZM22.3 59V48.5C22.3 48.2 22.5 48 22.8 48C22.9 48 23 48 23.1 48.1C23.2 48.2 23.4 48.2 23.6 48.1C23.8 48 23.9 47.9 23.9 47.7C24 47.2 24.4 46.9 24.9 46.9C25.4 46.9 25.8 47.2 25.9 47.7C25.9 47.9 26 48 26.2 48.1C26.3 48.2 26.5 48.1 26.7 48.1C26.8 48 26.9 48 27 48C27.3 48 27.5 48.2 27.5 48.5V59H22.3ZM28.3 59V44H31.3V59H28.3ZM32.3 59V48.5C32.3 48.2 32.5 48 32.8 48C32.9 48 33 48 33.1 48.1C33.2 48.2 33.4 48.2 33.6 48.1C33.8 48 33.9 47.9 33.9 47.7C34 47.2 34.4 46.9 34.9 46.9C35.4 46.9 35.8 47.2 35.9 47.7C35.9 47.9 36 48 36.2 48.1C36.3 48.2 36.5 48.1 36.7 48.1C36.8 48 36.9 48 37 48C37.3 48 37.5 48.2 37.5 48.5V59H32.3ZM38.3 59V44H41.3V59H38.3ZM42.3 59V48.5C42.3 48.2 42.5 48 42.8 48C42.9 48 43 48 43.1 48.1C43.2 48.2 43.4 48.2 43.6 48.1C43.8 48 43.9 47.9 43.9 47.7C44 47.2 44.4 46.9 44.9 46.9C45.4 46.9 45.8 47.2 45.9 47.7C45.9 47.9 46 48 46.2 48.1C46.3 48.2 46.5 48.1 46.7 48.1C46.8 48 46.9 48 47 48C47.3 48 47.5 48.2 47.5 48.5V59H42.3ZM48.3 59V44H51.3V59H48.3ZM52.3 59V44H55.3V59H52.3ZM56.3 59V48.5C56.3 48.2 56.5 48 56.8 48C56.9 48 57 48 57.1 48.1C57.2 48.2 57.4 48.2 57.6 48.1C57.8 48 57.9 47.9 57.9 47.7C58 47.2 58.4 46.9 58.9 46.9C59.4 46.9 59.8 47.2 59.9 47.7C59.9 47.9 60 48 60.2 48.1C60.3 48.2 60.5 48.1 60.7 48.1C60.8 48 60.9 48 61 48C61.3 48 61.5 48.2 61.5 48.5V59H56.3ZM62.3 59V45.5V44H65.3V45.5V59H62.3ZM63.3 22.5L63.8 22.1L64.3 22.5C64.9 23 65.3 23.7 65.3 24.5V29.1C65.2 29 65 28.8 64.9 28.7L64.1 28.1C63.9 28 63.7 28 63.5 28.1L62.7 28.7C62.6 28.8 62.4 28.9 62.3 29.1V25.1V24.5C62.3 23.7 62.7 23 63.3 22.5ZM57.3 17.9L58.8 17.1L60.3 17.9C60.9 18.3 61.3 19 61.3 19.7V21.5C61.1 21.3 61 21.2 60.8 21.1L59.1 20.1C58.9 20 58.8 20 58.6 20.1L56.9 21.1C56.7 21.2 56.5 21.4 56.4 21.5V19.7C56.3 19 56.7 18.3 57.3 17.9ZM53.3 12.5L53.8 12.1L54.3 12.5C54.9 13 55.3 13.7 55.3 14.5V19.1C55.2 19 55 18.8 54.9 18.7L54.1 18.1C53.9 18 53.7 18 53.5 18.1L52.7 18.7C52.6 18.8 52.4 18.9 52.3 19.1V18.5V14.5C52.3 13.7 52.7 13 53.3 12.5ZM49.3 9.50002L49.8 9.10002L50.3 9.50002C50.9 10 51.3 10.7 51.3 11.5V14.5V18.1C51.2 18 51 17.8 50.9 17.7L50.1 17.1C49.9 17 49.7 17 49.5 17.1L48.7 17.7C48.6 17.8 48.4 17.9 48.3 18.1V15.1V11.5C48.3 10.7 48.7 10 49.3 9.50002ZM43.3 7.90002L44.8 7.10003L46.3 7.90002C46.9 8.30002 47.3 9.00003 47.3 9.70003V11.5V15.1V16.5C47.1 16.3 47 16.2 46.8 16.1L45.1 15.1C44.9 15 44.8 15 44.6 15.1L42.9 16.1C42.7 16.2 42.5 16.4 42.4 16.5V15.1V9.70003C42.3 9.00003 42.7 8.30002 43.3 7.90002ZM39.3 5.50002L39.8 5.10003L40.3 5.50002C40.9 6.00002 41.3 6.70002 41.3 7.50002V9.70003V15.1C41.2 15 41 14.8 40.9 14.7L40.1 14.1C39.9 14 39.7 14 39.5 14.1L38.7 14.7C38.6 14.8 38.4 14.9 38.3 15.1V12.1V7.50002C38.3 6.70002 38.7 6.00002 39.3 5.50002ZM32.3 6.70003C32.3 6.00003 32.7 5.30002 33.3 4.90002L34.8 4.10003L36.3 4.90002C36.9 5.30002 37.3 6.00003 37.3 6.70003V7.50002V12.1V14.5C37.1 14.3 37 14.2 36.8 14.1L35.1 13.1C34.9 13 34.8 13 34.6 13.1L32.9 14.1C32.7 14.2 32.5 14.4 32.4 14.5V12.1V7.50002V6.70003H32.3ZM28.3 7.50002C28.3 6.70002 28.7 6.00002 29.3 5.50002L29.8 5.10003L30.3 5.50002C30.9 6.00002 31.3 6.70002 31.3 7.50002V12.1V15.1C31.2 15 31 14.8 30.9 14.7L30.1 14.1C29.9 14 29.7 14 29.5 14.1L28.7 14.7C28.6 14.8 28.4 14.9 28.3 15.1V14.5V9.70003V7.50002ZM22.3 9.70003C22.3 9.00003 22.7 8.30002 23.3 7.90002L24.8 7.10003L26.3 7.90002C26.9 8.30002 27.3 9.00003 27.3 9.70003V14.5V16.5C27.1 16.3 27 16.2 26.8 16.1L25.1 15.1C24.9 15 24.8 15 24.6 15.1L22.9 16.1C22.7 16.2 22.5 16.4 22.4 16.5V15.1V11.5V9.70003H22.3ZM18.3 11.5C18.3 10.7 18.7 10 19.3 9.50002L19.8 9.10002L20.3 9.50002C20.9 10 21.3 10.7 21.3 11.5V15.1V18.1C21.2 18 21 17.8 20.9 17.7L20.1 17.1C19.9 17 19.7 17 19.5 17.1L18.7 17.7C18.6 17.8 18.4 17.9 18.3 18.1V14.5V11.5ZM15.3 12.5L15.8 12.1L16.3 12.5C16.9 13 17.3 13.7 17.3 14.5V18.5V19.1C17.2 19 17 18.8 16.9 18.7L16.1 18.1C15.9 18 15.7 18 15.5 18.1L14.7 18.7C14.6 18.8 14.4 18.9 14.3 19.1V14.5C14.3 13.7 14.7 13 15.3 12.5ZM9.29999 17.9L10.8 17.1L12.3 17.9C12.9 18.3 13.3 19 13.3 19.7V21.5C13.1 21.3 13 21.2 12.8 21.1L11.1 20.1C10.9 20 10.8 20 10.6 20.1L8.89999 21.1C8.69999 21.2 8.49999 21.4 8.39999 21.5V19.7C8.29999 19 8.69999 18.3 9.29999 17.9ZM5.29999 22.5L5.79999 22.1L6.29999 22.5C6.89999 23 7.29999 23.7 7.29999 24.5V25.1V29.1C7.19999 29 6.99999 28.8 6.89999 28.7L6.09999 28.1C5.89999 28 5.69999 28 5.49999 28.1L4.7 28.7C4.6 28.8 4.39999 28.9 4.29999 29.1V24.5C4.29999 23.7 4.69999 23 5.29999 22.5ZM4.29999 45.5V44H7.29999V45.5V59H4.29999V45.5Z" fill="url(#paint0_linear_1185_578)"/>
<defs>
<linearGradient id="paint0_linear_1185_578" x1="34.4326" y1="0.900024" x2="34.4326" y2="60" gradientUnits="userSpaceOnUse">
<stop stop-color="#E02F8D"/>
<stop offset="1" stop-color="#0041A2"/>
</linearGradient>
</defs>
</svg>
