<svg width="60" height="60" viewBox="0 0 60 60" fill="none" xmlns="http://www.w3.org/2000/svg">
<path fill-rule="evenodd" clip-rule="evenodd" d="M27.7635 56.4941C26.7006 56.4254 25.6363 56.375 24.5753 56.2845C22.1238 56.0752 19.6667 55.8713 17.3294 55.0258C16.7717 54.8242 16.2309 54.5264 15.7464 54.1828C14.7933 53.5067 14.8223 52.4443 15.7525 51.7241C16.5908 51.0754 17.5712 50.7331 18.5793 50.5288C20.0771 50.225 21.5959 50.0248 23.1059 49.7812C23.2225 49.7624 23.34 49.7491 23.4911 49.7286C23.3629 48.5032 22.904 47.4269 22.2577 46.4228C22.1798 46.3016 22.0252 46.223 21.8947 46.1434C16.8887 43.0861 13.3361 38.7562 10.8462 33.503C8.80072 29.1875 7.59028 24.6412 7.1356 19.89C7.0552 19.0498 7.21768 18.7732 8.03116 18.5222C9.46756 18.0791 10.8318 17.4824 12.1178 16.7011C12.3678 16.5491 12.4711 16.399 12.4454 16.0904C12.299 14.3312 13.9262 12.9506 15.6309 13.3804C15.9237 13.4542 16.1237 13.4369 16.3439 13.1854C18.0918 11.1887 19.5322 9.0096 20.4781 6.51312C20.8431 5.5497 21.7155 5.11422 22.6036 4.75542C24.2305 4.09818 25.9446 3.83388 27.6812 3.68274C27.8823 3.66528 28.0805 3.615 28.2801 3.57996C29.4514 3.57996 30.6226 3.57996 31.7939 3.57996C32.7779 3.71676 33.7671 3.82404 34.7448 3.99732C36.0687 4.2321 37.3694 4.5627 38.5226 5.2986C39.0721 5.64912 39.4395 6.1227 39.6877 6.75354C40.6493 9.1968 42.0726 11.36 43.8515 13.2869C43.9452 13.3885 44.1882 13.4216 44.3411 13.3891C46.2241 12.9886 47.7124 14.2373 47.6435 16.1504C47.6373 16.3207 47.7819 16.5875 47.929 16.6577C49.2283 17.2774 50.5257 17.9087 51.8609 18.4436C52.8801 18.8519 53.0231 18.9813 52.9192 20.0518C52.4423 24.9633 51.1443 29.6476 48.957 34.0697C46.5181 39.0003 43.1018 43.0819 38.3948 46.0214C38.0496 46.2369 37.7495 46.5776 37.5252 46.9229C36.9965 47.7367 36.7136 48.6666 36.5834 49.7216C37.4949 49.8433 38.4099 49.9509 39.32 50.0903C40.7498 50.3093 42.1693 50.5816 43.4838 51.2203C43.8208 51.3841 44.1489 51.5873 44.4378 51.8248C45.2336 52.4789 45.2669 53.555 44.4032 54.1061C43.5908 54.6246 42.6858 55.0664 41.7611 55.3273C38.9622 56.1164 36.0694 56.2803 33.1791 56.4152C32.8891 56.4288 32.6001 56.4673 32.3107 56.4941C30.795 56.4942 29.2792 56.4941 27.7635 56.4941ZM15.0438 18.6965C14.5181 18.4837 14.0546 18.2743 13.5744 18.1148C13.4279 18.0661 13.2181 18.1168 13.0673 18.1867C11.8226 18.7642 10.5938 19.3769 9.33934 19.9318C8.99878 20.0824 8.9275 20.2457 8.96872 20.5828C9.5545 25.3751 10.8833 29.9369 13.1708 34.2028C16.3518 40.1353 20.9715 44.449 27.3387 46.8038C29.0345 47.4308 30.7389 47.5003 32.442 46.9039C37.0226 45.3002 40.8356 42.5926 43.8791 38.8161C46.224 35.9065 47.9163 32.6338 49.148 29.1169C50.1234 26.3314 50.7756 23.4703 51.1055 20.5366C51.133 20.2919 51.1492 20.1152 50.8346 19.9751C49.5188 19.3889 48.2263 18.7504 46.9215 18.1391C46.8097 18.0867 46.6514 18.0422 46.5471 18.0809C46.0424 18.2687 45.5486 18.4862 45.0284 18.7026C44.9759 20.9042 44.0771 21.7983 41.508 22.1277C41.4343 23.2365 41.0212 24.1846 40.1153 24.8827C39.2139 25.5776 38.1953 25.7353 37.0794 25.5181C36.8191 27.243 35.9325 28.4727 34.2706 28.9697C32.6218 29.4629 31.1927 28.9603 30.0336 27.6778C28.8414 28.9871 27.4099 29.4638 25.7585 28.9551C24.1001 28.4441 23.2449 27.1912 22.986 25.5108C21.8328 25.7444 20.8223 25.5591 19.9217 24.8543C19.0244 24.1522 18.6431 23.1902 18.554 22.0999C16.1106 22.181 14.9126 20.3989 15.0438 18.6965ZM38.7352 8.99022C32.8974 11.2199 27.1595 11.2264 21.3411 8.9901C20.3491 10.924 19.074 12.8159 17.5158 14.5121C17.4554 14.578 17.4029 14.7026 17.4221 14.7815C17.5182 15.1745 17.6395 15.5615 17.7558 15.9642C18.618 15.8741 19.3764 16.0885 20.0445 16.6129C20.7123 17.1367 21.042 17.8574 21.2013 18.6629C23.1252 18.2808 24.9663 19.2083 25.6054 21.4611C27.3356 20.9116 28.8082 21.37 30.0366 22.7069C31.2726 21.3134 32.7652 20.9366 34.4811 21.4505C35.3278 19.1676 36.2264 18.5965 38.8696 18.6425C39.2885 16.7942 40.4525 15.8753 42.3305 15.9342C42.4395 15.5539 42.5575 15.214 42.6267 14.8643C42.6512 14.7406 42.597 14.5568 42.5108 14.4622C40.9817 12.7855 39.7258 10.9218 38.7352 8.99022ZM43.0533 53.0067C42.2789 52.2844 37.8031 51.5371 36.5258 51.5908C36.5996 51.9474 36.6772 52.2959 36.7436 52.6463C36.8592 53.2573 36.6081 53.7127 36.1068 53.8157C35.5806 53.9237 35.1186 53.6486 35.0324 53.0411C34.8931 52.0594 34.7714 51.0641 34.781 50.0758C34.7885 49.3006 35.0057 48.5276 35.143 47.6711C31.7414 49.5448 28.3228 49.5437 24.8567 47.6307C25.4492 50.0819 25.4894 51.2351 25.0767 52.9384C24.9113 53.6208 24.5247 53.9275 23.971 53.8162C23.438 53.709 23.2046 53.2285 23.3498 52.5483C23.4191 52.2229 23.4798 51.8959 23.5572 51.506C21.2829 51.8093 19.0867 51.9801 17.0564 53.0186C17.8701 53.3511 18.68 53.6296 19.5107 53.8125C22.0404 54.3695 24.6137 54.5722 27.196 54.6679C31.3506 54.8219 35.4924 54.7064 39.6008 54.0058C40.7669 53.807 41.9307 53.5782 43.0533 53.0067ZM22.1018 7.03944C22.1024 7.11444 22.1031 7.1895 22.1038 7.26444C22.5587 7.48572 22.9978 7.75176 23.4714 7.9206C25.6417 8.69406 27.9021 8.86638 30.1835 8.85768C32.3613 8.84928 34.5176 8.66208 36.5859 7.92114C37.0689 7.7481 37.5137 7.46778 37.976 7.23672C37.9705 7.17234 37.9648 7.10796 37.9593 7.04346C37.7248 6.8859 37.508 6.68598 37.2521 6.57948C36.6984 6.3489 36.1371 6.11736 35.5574 5.97192C32.8899 5.30292 30.1787 5.2227 27.4542 5.47242C25.8922 5.61564 24.3465 5.86494 22.9063 6.53496C22.6215 6.6675 22.3691 6.86946 22.1018 7.03944ZM26.9604 22.9957C25.7394 22.9921 24.764 23.9585 24.7595 25.1762C24.7552 26.3984 25.7192 27.3709 26.94 27.3758C28.1651 27.3807 29.1344 26.4208 29.1406 25.1962C29.1467 23.9745 28.1806 22.9993 26.9604 22.9957ZM33.1069 27.3761C34.3296 27.3842 35.3086 26.4212 35.3151 25.2038C35.3215 23.9813 34.3605 23.0045 33.1429 22.996C31.9204 22.9874 30.9431 23.9485 30.9338 25.1686C30.9243 26.3915 31.8856 27.368 33.1069 27.3761ZM23.8498 22.0967C23.8487 21.1361 23.0778 20.3495 22.1224 20.3343C21.1656 20.3191 20.3325 21.1427 20.3346 22.1021C20.3366 23.0551 21.1186 23.8397 22.0763 23.8494C23.0723 23.8596 23.8509 23.09 23.8498 22.0967ZM37.9996 23.8494C38.9567 23.8391 39.7383 23.0537 39.7397 22.1008C39.7409 21.1417 38.9076 20.3186 37.9511 20.3343C36.9958 20.35 36.225 21.1367 36.2243 22.0969C36.2236 23.0878 37.006 23.8601 37.9996 23.8494ZM18.1148 20.3261C18.8187 20.3335 19.4405 19.7294 19.4498 19.029C19.4591 18.3272 18.8535 17.712 18.1462 17.7048C17.4372 17.6976 16.8195 18.2965 16.8117 18.9987C16.8041 19.6997 17.4117 20.3187 18.1148 20.3261ZM43.2627 19.0064C43.2593 18.304 42.6448 17.701 41.9359 17.7045C41.2283 17.708 40.6192 18.3193 40.6239 19.0212C40.6285 19.7196 41.2493 20.3297 41.9517 20.326C42.6561 20.3222 43.2661 19.7081 43.2627 19.0064ZM15.9044 15.9034C15.8926 15.433 15.5115 15.0568 15.0463 15.0563C14.5652 15.0558 14.1651 15.4681 14.1786 15.9506C14.1915 16.4124 14.5841 16.7987 15.0423 16.8004C15.5244 16.8023 15.9167 16.3941 15.9044 15.9034ZM44.9885 16.8002C45.444 16.8239 45.8528 16.4577 45.8889 15.9935C45.9268 15.5062 45.5563 15.0818 45.0714 15.0568C44.6079 15.0331 44.2071 15.392 44.1741 15.8603C44.1391 16.3558 44.502 16.7746 44.9885 16.8002Z" fill="url(#paint0_linear_1135_202)"/>
<defs>
<linearGradient id="paint0_linear_1135_202" x1="30.0324" y1="3.57996" x2="30.0324" y2="56.4941" gradientUnits="userSpaceOnUse">
<stop stop-color="#D1328E"/>
<stop offset="1" stop-color="#843E97"/>
</linearGradient>
</defs>
</svg>
