<svg width="65" height="58" viewBox="0 0 65 58" fill="none" xmlns="http://www.w3.org/2000/svg">
<path d="M64.2 56.5H62.7V47.5H63.2C63.5 47.5 63.7 47.3 63.7 47C63.7 46.7 63.5 46.5 63.2 46.5H62.7V38.5H63.2C63.5 38.5 63.7 38.3 63.7 38C63.7 37.7 63.5 37.5 63.2 37.5H62.7V34.5H63.2C63.5 34.5 63.7 34.3 63.7 34C63.7 33.7 63.5 33.5 63.2 33.5H62.7V31.6V31V30C62.7 29.7 62.5 29.5 62.2 29.5C61.9 29.5 61.7 29.7 61.7 30V30.5H60.7V27.5H61.2C61.5 27.5 61.7 27.3 61.7 27C61.7 26.7 61.5 26.5 61.2 26.5H60.7C60.7 25.6 60.1 24.8 59.2 24.6V23C59.2 22.7 59 22.5 58.7 22.5C58.4 22.5 58.2 22.7 58.2 23V24.6C57.3 24.8 56.7 25.6 56.7 26.5H56.2C55.9 26.5 55.7 26.7 55.7 27C55.7 27.3 55.9 27.5 56.2 27.5H56.7V30.5H55.7V30C55.7 29.7 55.5 29.5 55.2 29.5C54.9 29.5 54.7 29.7 54.7 30V31V31.6V33.5H54.2C53.9 33.5 53.7 33.7 53.7 34C53.7 34.3 53.9 34.5 54.2 34.5H54.7V35.5H46.7V34.5H47.2C47.5 34.5 47.7 34.3 47.7 34C47.7 33.7 47.5 33.5 47.2 33.5H46.7V28.5H47.2C47.5 28.5 47.7 28.3 47.7 28C47.7 27.7 47.5 27.5 47.2 27.5H46.7C46.5 26.5 45.7 25.7 44.7 25.5V24C44.7 23.7 44.5 23.5 44.2 23.5C43.9 23.5 43.7 23.7 43.7 24V25.5H43.2C42 25.5 41 24.6 40.8 23.5H42.2C42.5 23.5 42.7 23.3 42.7 23V21C42.7 20.7 42.5 20.5 42.2 20.5H40.7V18.5H41.2C41.5 18.5 41.7 18.3 41.7 18C41.7 17.7 41.5 17.5 41.2 17.5H40.7C40.3 14.4 38.2 11.9 35.3 10.9V7.5H35.8C36.1 7.5 36.3 7.3 36.3 7C36.3 6.7 36.1 6.5 35.8 6.5H35.3C35.1 5.5 34.3 4.7 33.3 4.5V1C33.3 0.7 33.1 0.5 32.8 0.5C32.5 0.5 32.3 0.7 32.3 1V4.5C31.3 4.7 30.5 5.5 30.3 6.5H29.8C29.5 6.5 29.3 6.7 29.3 7C29.3 7.3 29.5 7.5 29.8 7.5H30.3V10.9C27.4 11.9 25.3 14.4 24.9 17.5H24.3C24 17.5 23.8 17.7 23.8 18C23.8 18.3 24 18.5 24.3 18.5H24.8V20.5H23.3C23 20.5 22.8 20.7 22.8 21V23C22.8 23.3 23 23.5 23.3 23.5H24.7C24.5 24.6 23.5 25.5 22.3 25.5H21.8V24C21.8 23.7 21.6 23.5 21.3 23.5C21 23.5 20.8 23.7 20.8 24V25.5C19.8 25.7 19 26.5 18.8 27.5H18.3C18 27.5 17.8 27.7 17.8 28C17.8 28.3 18 28.5 18.3 28.5H18.8V33.5H18.3C18 33.5 17.8 33.7 17.8 34C17.8 34.3 18 34.5 18.3 34.5H18.8V35.5H10.8V34.5H11.3C11.6 34.5 11.8 34.3 11.8 34C11.8 33.7 11.6 33.5 11.3 33.5H10.8V31.6V31V30C10.8 29.7 10.6 29.5 10.3 29.5C9.99999 29.5 9.79999 29.7 9.79999 30V30.5H8.79999V27.5H9.29999C9.59999 27.5 9.79999 27.3 9.79999 27C9.79999 26.7 9.59999 26.5 9.29999 26.5H8.79999C8.79999 25.6 8.19999 24.8 7.29999 24.6V23C7.29999 22.7 7.09999 22.5 6.79999 22.5C6.49999 22.5 6.29999 22.7 6.29999 23V24.6C5.39999 24.8 4.79999 25.6 4.79999 26.5H4.29999C3.99999 26.5 3.79999 26.7 3.79999 27C3.79999 27.3 3.99999 27.5 4.29999 27.5H4.79999V30.5H3.79999V30C3.79999 29.7 3.59999 29.5 3.29999 29.5C2.99999 29.5 2.79999 29.7 2.79999 30V31V31.6V33.5H2.29999C1.99999 33.5 1.79999 33.7 1.79999 34C1.79999 34.3 1.99999 34.5 2.29999 34.5H2.79999V37.5H2.29999C1.99999 37.5 1.79999 37.7 1.79999 38C1.79999 38.3 1.99999 38.5 2.29999 38.5H2.79999V46.5H2.29999C1.99999 46.5 1.79999 46.7 1.79999 47C1.79999 47.3 1.99999 47.5 2.29999 47.5H2.79999V56.5H1.29999C0.999988 56.5 0.799988 56.7 0.799988 57C0.799988 57.3 0.999988 57.5 1.29999 57.5H3.29999H10.3H19.3H22.3H25.3H28.3H37.3H40.3H43.3H46.3H55.3H62.3H64.3C64.6 57.5 64.8 57.3 64.8 57C64.8 56.7 64.5 56.5 64.2 56.5ZM61.7 46.5H55.7V40V38.5H61.7V46.5ZM58.7 25.5C59.3 25.5 59.7 25.9 59.7 26.5H57.7C57.7 25.9 58.2 25.5 58.7 25.5ZM57.7 27.5H59.7V30.5H57.7V27.5ZM55.7 31.6L57.2 31.5H60.2H61.6V31.6V33.5H55.6V31.6H55.7ZM61.7 34.5V37.5H55.7V36V34.5H61.7ZM54.7 36.5V37.5H54.2C53.9 37.5 53.7 37.7 53.7 38C53.7 38.3 53.9 38.5 54.2 38.5H54.7V39.5H46.7V38.5H47.2C47.5 38.5 47.7 38.3 47.7 38C47.7 37.7 47.5 37.5 47.2 37.5H46.7V36.5H54.7ZM28.7 53.5V44.5C28.7 42.3 30.5 40.5 32.7 40.5C34.9 40.5 36.7 42.3 36.7 44.5V53.5V56.5H28.7V53.5ZM32.7 39.5C31.1 39.5 29.6 40.3 28.7 41.5V38.5H30.2H35.2H36.7V41.5C35.8 40.3 34.4 39.5 32.7 39.5ZM35.2 37.5H30.2H28.7V35.5H36.7V37.5H35.2ZM25.7 30.5H27.7V32.5H25.7V30.5ZM30.2 30.5H35.2H36.7V32.5H28.7V30.5H30.2ZM27.7 23.5H28.7V27.5H27.7V23.5ZM29.7 23.5H35.7V27.5H35.2H34.7V26.4C34.7 25.3 33.8 24.4 32.7 24.4C31.6 24.4 30.7 25.3 30.7 26.4V27.5H30.2H29.7V23.5ZM37.7 27.5H36.7V23.5H37.7V27.5ZM33.7 27.5H31.7V26.4C31.7 25.8 32.1 25.4 32.7 25.4C33.3 25.4 33.7 25.8 33.7 26.4V27.5ZM30.7 28.5H34.7V29.5H30.7V28.5ZM39.7 32.5H37.7V30.5H39.7V32.5ZM25.2 33.5H28.2H37.2H40.2H41.7V34C41.7 34 41.7 34 41.7 34.1V34.5H40.2H37.2H28.2H25.2H23.7V34V33.5H25.2ZM19.7 36V34.5H22.7V35C22.7 35.3 22.9 35.5 23.2 35.5H24.7V37.5H22.2H19.7V36ZM24.7 38.5V40.8C24.4 40.6 24.1 40.5 23.7 40.5C23.3 40.5 23 40.6 22.7 40.8V38.5H24.7ZM24.7 51.5H22.7V49.5C22.7 48.9 23.1 48.5 23.7 48.5C24.3 48.5 24.7 48.9 24.7 49.5V51.5ZM23.7 47.5C23.3 47.5 23 47.6 22.7 47.8V45.5H24.7V47.8C24.4 47.6 24.1 47.5 23.7 47.5ZM24.7 44.5H22.7V42.5C22.7 41.9 23.1 41.5 23.7 41.5C24.3 41.5 24.7 41.9 24.7 42.5V44.5ZM22.7 52.5H24.7V56.5H22.7V52.5ZM25.7 35.5H27.7V37.5H25.7V35.5ZM37.7 35.5H39.7V37.5H37.7V35.5ZM42.7 51.5H40.7V49.5C40.7 48.9 41.1 48.5 41.7 48.5C42.3 48.5 42.7 48.9 42.7 49.5V51.5ZM41.7 47.5C41.3 47.5 41 47.6 40.7 47.8V45.5H42.7V47.8C42.4 47.6 42.1 47.5 41.7 47.5ZM42.7 44.5H40.7V42.5C40.7 41.9 41.1 41.5 41.7 41.5C42.3 41.5 42.7 41.9 42.7 42.5V44.5ZM40.7 52.5H42.7V56.5H40.7V52.5ZM42.7 40.8C42.4 40.6 42.1 40.5 41.7 40.5C41.3 40.5 41 40.6 40.7 40.8V38.5H42.7V40.8ZM40.7 37.5V35.5H42.2C42.5 35.5 42.7 35.3 42.7 35V34.5H45.7V36V37.5H43.2H40.7ZM45.7 33.5H44.7C44.7 33.5 44.7 33.5 44.7 33.4V31C44.7 30.7 44.5 30.5 44.2 30.5C43.9 30.5 43.7 30.7 43.7 31V33.4C43.7 33.4 43.7 33.4 43.7 33.5H42.7V33C42.7 33 42.7 33 42.7 32.9V28.5H45.7V33.5ZM45.6 27.5H42.8C43 26.9 43.6 26.5 44.2 26.5C44.8 26.5 45.4 26.9 45.6 27.5ZM42.3 26.4C42 26.7 41.8 27.1 41.7 27.5H41.2C40.9 27.5 40.7 27.7 40.7 28C40.7 28.3 40.9 28.5 41.2 28.5H41.7V32.5H40.7V30C40.7 29.7 40.5 29.5 40.2 29.5H37.2H35.7V28.5H39.2C39.5 28.5 39.7 28.3 39.7 28C39.7 27.7 39.5 27.5 39.2 27.5H38.7V23.5H39.8C40 24.9 41 26 42.3 26.4ZM39.7 20.5H38.7V18.5H39.7V20.5ZM27.7 18.5H29.7V20.5H27.7V18.5ZM30.7 18.5H34.7V20.5H30.7V18.5ZM35.7 18.5H37.7V20.5H35.7V18.5ZM32.7 5.5C33.4 5.5 33.9 5.9 34.1 6.5H31.3C31.5 5.9 32 5.5 32.7 5.5ZM31.2 7.5H34.2V10.6C33.9 10.5 33.5 10.5 33.2 10.5V10.4V9C33.2 8.7 33 8.5 32.7 8.5C32.4 8.5 32.2 8.7 32.2 9V10.4V10.5C31.9 10.5 31.5 10.6 31.2 10.6V7.5ZM32.7 11.5C36.2 11.5 39.1 14.1 39.6 17.5H25.8C26.3 14.1 29.2 11.5 32.7 11.5ZM25.7 18.5H26.7V20.5H25.7V18.5ZM23.7 21.5H41.7V22.5H23.7V21.5ZM25.7 23.5H26.8V27.5H26.3C26 27.5 25.8 27.7 25.8 28C25.8 28.3 26 28.5 26.3 28.5H29.8V29.5H28.3H25.3C25 29.5 24.8 29.7 24.8 30V32.5H23.8V28.5H24.3C24.6 28.5 24.8 28.3 24.8 28C24.8 27.7 24.6 27.5 24.3 27.5H23.8C23.7 27.1 23.5 26.7 23.2 26.4C24.4 26 25.5 24.9 25.7 23.5ZM21.2 26.5C21.9 26.5 22.4 26.9 22.6 27.5H19.8C20 26.9 20.6 26.5 21.2 26.5ZM22.7 28.5V33V33.5H21.7C21.7 33.5 21.7 33.5 21.7 33.4V31C21.7 30.7 21.5 30.5 21.2 30.5C20.9 30.5 20.7 30.7 20.7 31V33.4C20.7 33.4 20.7 33.4 20.7 33.5H19.7V28.5H22.7ZM18.7 36.5V37.5H18.2C17.9 37.5 17.7 37.7 17.7 38C17.7 38.3 17.9 38.5 18.2 38.5H18.7V39.5H10.7V38.5H11.2C11.5 38.5 11.7 38.3 11.7 38C11.7 37.7 11.5 37.5 11.2 37.5H10.7V36.5H18.7ZM6.69999 25.5C7.29999 25.5 7.69999 25.9 7.69999 26.5H5.69999C5.69999 25.9 6.09999 25.5 6.69999 25.5ZM5.69999 27.5H7.69999V30.5H5.69999V27.5ZM3.69999 31.6L5.09999 31.5H8.09999H9.59999V31.6V33.5H3.59999V31.6H3.69999ZM3.69999 34.5H9.69999V36V37.5H3.69999V34.5ZM3.69999 38.5H9.69999V40V46.5H3.69999V38.5ZM3.69999 47.5H9.69999V56.5H3.69999V47.5ZM10.7 47.5H11.2C11.5 47.5 11.7 47.3 11.7 47C11.7 46.7 11.5 46.5 11.2 46.5H10.7V40.5H18.7V56.5H10.7V47.5ZM19.7 56.5V40V38.5H21.7V42.5V45V49.5V52V56.5H19.7ZM25.7 56.5V52V49.5V45V42.5V38.5H27.7V44.5V53.5V56.5H25.7ZM37.7 56.5V53.5V44.5V38.5H39.7V42.5V45V49.5V52V56.5H37.7ZM43.7 52V49.5V45V42.5V38.5H45.7V40V56.5H43.7V52ZM46.7 40.5H54.7V46.5H54.2C53.9 46.5 53.7 46.7 53.7 47C53.7 47.3 53.9 47.5 54.2 47.5H54.7V56.5H46.7V40.5ZM55.7 56.5V47.5H61.7V56.5H55.7Z" fill="url(#paint0_linear_1185_630)"/>
<defs>
<linearGradient id="paint0_linear_1185_630" x1="32.8" y1="0.5" x2="32.8" y2="57.5" gradientUnits="userSpaceOnUse">
<stop stop-color="#E02F8D"/>
<stop offset="1" stop-color="#0041A2"/>
</linearGradient>
</defs>
</svg>
