<svg width="14" height="21" viewBox="0 0 14 21" fill="none" xmlns="http://www.w3.org/2000/svg">
<path d="M6.80004 20.3859L6.75548 20.3374C6.72448 20.3038 6.69441 20.275 6.66101 20.243C6.63967 20.2226 6.61697 20.2008 6.59178 20.1757C6.53331 20.1173 6.46962 20.0476 6.42253 19.9628C4.87506 17.1757 3.33242 14.3859 1.78984 11.5963C1.57258 11.2034 1.35532 10.8105 1.13804 10.4176C0.458254 9.18838 0.158107 7.86474 0.315189 6.466C0.557072 4.31219 1.60496 2.62681 3.43263 1.45201M6.80004 20.3859L6.47597 0.45053L6.48667 0.600148L6.47587 0.450537M6.80004 20.3859H6.86587M6.80004 20.3859H6.86587M3.43263 1.45201L3.51374 1.5782L3.43263 1.45202C3.43263 1.45202 3.43263 1.45202 3.43263 1.45201ZM3.43263 1.45201C4.35833 0.856979 5.37879 0.529017 6.47587 0.450537M6.47587 0.450537C6.47906 0.450307 6.48578 0.449249 6.50109 0.444905M6.47587 0.450537L6.50109 0.444905M6.86587 20.3859L7.09651 20.3858L7.16222 20.3857L7.20671 20.3374C7.2377 20.3037 7.26775 20.2749 7.30112 20.2429C7.32247 20.2225 7.34518 20.2008 7.37038 20.1756C7.42883 20.1172 7.49249 20.0475 7.53959 19.9627L7.53961 19.9627C9.30776 16.7772 11.0715 13.5894 12.8316 10.3995C13.6191 8.97223 13.8615 7.44792 13.5557 5.84787C13.3034 4.52748 12.693 3.38372 11.7517 2.42813C10.9298 1.59385 9.95325 0.993119 8.81175 0.69199L8.7735 0.836968L8.81174 0.691988C8.48796 0.606591 8.15104 0.551893 7.82275 0.498597C7.67687 0.474915 7.5327 0.45151 7.39214 0.42581L7.37877 0.423364H7.36517H7.36366H7.36216H7.36066H7.35916H7.35766H7.35616H7.35466H7.35316H7.35166H7.35016H7.34866H7.34716H7.34566H7.34416H7.34266H7.34116H7.33966H7.33816H7.33666H7.33516H7.33366H7.33216H7.33066H7.32915H7.32765H7.32615H7.32465H7.32315H7.32165H7.32015H7.31865H7.31715H7.31565H7.31415H7.31265H7.31115H7.30965H7.30815H7.30665H7.30515H7.30365H7.30215H7.30065H7.29915H7.29765H7.29615H7.29465H7.29315H7.29164H7.29014H7.28864H7.28714H7.28564H7.28414H7.28264H7.28114H7.27964H7.27814H7.27664H7.27514H7.27364H7.27214H7.27064H7.26914H7.26764H7.26614H7.26464H7.26314H7.26164H7.26014H7.25864H7.25714H7.25564H7.25414H7.25264H7.25114H7.24964H7.24813H7.24663H7.24513H7.24363H7.24213H7.24063H7.23913H7.23763H7.23613H7.23463H7.23313H7.23163H7.23013H7.22863H7.22713H7.22563H7.22413H7.22263H7.22113H7.21963H7.21813H7.21663H7.21513H7.21363H7.21213H7.21063H7.20913H7.20763H7.20613H7.20463H7.20313H7.20163H7.20013H7.19863H7.19712H7.19562H7.19412H7.19262H7.19112H7.18962H7.18812H7.18662H7.18512H7.18362H7.18212H7.18062H7.17912H7.17762H7.17612H7.17462H7.17312H7.17162H7.17012H7.16862H7.16712H7.16562H7.16412H7.16262H7.16112H7.15962H7.15812H7.15662H7.15512H7.15362H7.15212H7.15062H7.14912H7.14762H7.14612H7.14462H7.14312H7.14162H7.14012H7.13862H7.13712H7.13562H7.13411H7.13261H7.13111H7.12961H7.12811H7.12661H7.12511H7.12361H7.12211H7.12061H7.11911H7.11761H7.11611H7.11461H7.11311H7.11161H7.11011H7.10861H7.10711H7.10561H7.10411H7.10261H7.10111H7.09961H7.09811H7.09661H7.09511H7.09361H7.09211H7.09061H7.08911H7.08761H7.08611H7.08461H7.08311H7.08161H7.08011H7.07861H7.07711H7.07561H7.07411H7.07261H7.07111H7.06961H7.06811H7.06661H7.06511H7.06361H7.06211H7.06061H7.05911H7.05761H7.05611H7.05461H7.05311H7.05161H7.05011H7.0486H7.0471H7.0456H7.0441H7.0426H7.0411H7.0396H7.0381H7.0366H7.0351H7.0336H7.0321H7.0306H7.0291H7.0276H7.0261H7.0246H7.0231H7.0216H7.0201H7.0186H7.0171H7.0156H7.0141H7.0126H7.0111H7.0096H7.0081H7.0066H7.0051H7.0036H7.0021H7.0006H6.9991H6.9976H6.9961H6.9946H6.9931H6.9916H6.9901H6.9886H6.9871H6.9856H6.9841H6.9826H6.9811H6.9796H6.9781H6.9766H6.9751H6.9736H6.9721H6.9706H6.9691H6.9676H6.9661H6.9646H6.9631H6.9616H6.9601H6.9586H6.9571H6.9556H6.9541H6.9526H6.9511H6.9496H6.9481H6.9466H6.9451H6.9436H6.9421H6.9406H6.9391H6.9376H6.9361H6.9346H6.93309H6.93159H6.93009H6.92859H6.92709H6.92559H6.92409H6.92259H6.92109H6.91959H6.91809H6.91659H6.91509H6.91359H6.91209H6.91059H6.90909H6.90759H6.90609H6.90459H6.90309H6.90159H6.90009H6.89859H6.89709H6.89559H6.89409H6.89259H6.89109H6.88959H6.88809H6.88659H6.88509H6.88359H6.88209H6.88059H6.87909H6.87759H6.87609H6.87459H6.87309H6.87159H6.87009H6.86859H6.86709H6.86559H6.86409H6.86259H6.86109H6.85959H6.85809H6.85659H6.85509H6.85359H6.85209H6.85059H6.84909H6.84759H6.84609H6.84459H6.84309H6.84159H6.84009H6.83859H6.83709H6.83559H6.83409H6.83259H6.83109H6.82959H6.82809H6.82659H6.82509H6.82359H6.82209H6.82059H6.81909H6.81759H6.81609H6.81459H6.81309H6.81159H6.81009H6.80859H6.80709H6.80559H6.80409H6.80259H6.80109H6.79959H6.79809H6.79659H6.79509H6.79359H6.79209H6.79059H6.78909H6.78759H6.78609H6.78459H6.78309H6.78159H6.78009H6.77858H6.77708H6.77558H6.77408H6.77258H6.77108H6.76958H6.76808H6.76658H6.76508H6.76358H6.76208H6.76058H6.75908H6.75758H6.75608H6.75458H6.75308H6.75158H6.75008H6.74858H6.74708H6.74558H6.74408H6.74258H6.74108H6.73958H6.73808H6.73658H6.73508H6.73358H6.73208H6.73058H6.72908H6.72758H6.72608H6.72458H6.72308H6.72158H6.72008H6.71858H6.71708H6.71558H6.71408H6.71258H6.71108H6.70958H6.70808H6.70658H6.70508H6.70358H6.70208H6.70058H6.69908H6.69758H6.69608H6.69458H6.69308H6.69158H6.69008H6.68858H6.68708H6.68558H6.68408H6.68258H6.68108H6.67958H6.67808H6.67658H6.67508H6.67358H6.67208H6.67058H6.66908H6.66758H6.66608H6.66458H6.66308H6.66158H6.66008H6.65858H6.65707H6.65557H6.65407H6.65257H6.65107H6.64957H6.64807H6.64657H6.64507H6.64357H6.64207H6.64057H6.63907H6.63757H6.63607H6.63457H6.63307H6.63157H6.63007H6.62857H6.62707H6.62557H6.62407H6.62257H6.62107H6.61957H6.61807H6.61657H6.61507H6.61357H6.61207H6.61057H6.60907H6.60757H6.60607H6.60457H6.60307H6.60157H6.60007H6.59857H6.59707H6.57856M6.86587 20.3859L6.57856 0.423364M6.57856 0.423364L6.5606 0.427865M6.57856 0.423364L6.5606 0.427865M6.5606 0.427865C6.54585 0.431561 6.52594 0.437513 6.51265 0.441487M6.5606 0.427865L6.51265 0.441487M6.51265 0.441487C6.50765 0.44298 6.50359 0.444194 6.50109 0.444905M6.51265 0.441487L6.50109 0.444905M6.9812 18.669C6.81418 18.3671 6.64867 18.068 6.48419 17.7707C6.14119 17.1508 5.80268 16.539 5.4643 15.9271C5.07211 15.2176 4.68001 14.5081 4.2879 13.7986C3.57617 12.5106 2.86441 11.2227 2.15195 9.93509C1.26809 8.33776 1.13382 6.68533 1.82742 5.00602L1.82742 5.00601C2.51565 3.33954 3.75211 2.23659 5.49621 1.75828L5.45675 1.61439L5.49621 1.75828C7.32633 1.25636 9.00645 1.61427 10.4887 2.79644L10.5823 2.67917L10.4887 2.79645C11.6481 3.72097 12.3209 4.94359 12.514 6.42111C12.6716 7.62636 12.4542 8.76587 11.8672 9.83036C10.6422 12.0522 9.41382 14.2722 8.18543 16.4923C7.78399 17.2179 7.38254 17.9434 6.9812 18.669Z" fill="#2D2D2D" stroke="#2D2D2D" stroke-width="0.3"/>
<path d="M6.9818 3.69958H6.98179C5.10637 3.69868 3.58183 5.21552 3.55875 7.10123C3.53574 8.98054 5.06202 10.5326 6.95023 10.5538C8.83997 10.575 10.3888 9.04379 10.4038 7.1437C10.4187 5.25611 8.87255 3.70058 6.9818 3.69958ZM4.67378 7.12074V7.12073C4.67747 5.85286 5.71354 4.82237 6.98362 4.82417C8.25495 4.82597 9.28779 5.85784 9.2886 7.12562C9.28936 8.39144 8.25743 9.42832 6.98725 9.43635C5.72145 9.44436 4.67004 8.39311 4.67378 7.12074Z" fill="#2D2D2D" stroke="#2D2D2D" stroke-width="0.3"/>
</svg>
