<svg width="60" height="49" viewBox="0 0 60 49" fill="none" xmlns="http://www.w3.org/2000/svg">
<path d="M59 23.5C59.3 23.5 59.5 23.3 59.5 23V20C59.5 19.7 59.3 19.5 59 19.5H57.5V13C57.5 12.7 57.3 12.5 57 12.5H56.5V8.9V7.5H57C57.3 7.5 57.5 7.3 57.5 7C57.5 6.7 57.3 6.5 57 6.5H56.5V5.7C56.5 4.6 56 3.6 55 3L54.5 2.7V1C54.5 0.7 54.3 0.5 54 0.5C53.7 0.5 53.5 0.7 53.5 1V2.7L53 3.1C52.1 3.7 51.5 4.7 51.5 5.8V6.6H51C50.7 6.6 50.5 6.8 50.5 7.1C50.5 7.4 50.7 7.6 51 7.6H51.5V9V9.5C51.4 9.5 51.4 9.4 51.3 9.4L51 9V8.5C51 8.2 50.8 8 50.5 8C50.2 8 50 8.2 50 8.5V9L49.6 9.2C49.3 9.4 49.1 9.6 49 9.8C48.8 9.6 48.6 9.3 48.3 9.2L48 9V8.5C48 8.2 47.8 8 47.5 8C47.2 8 47 8.2 47 8.5V9L46.6 9.2C46.3 9.4 46.1 9.6 46 9.8C45.8 9.6 45.6 9.3 45.3 9.2L45 9V8.5C45 8.2 44.8 8 44.5 8C44.2 8 44 8.2 44 8.5V9L43.6 9.2C43.3 9.4 43.1 9.6 43 9.8C42.8 9.6 42.6 9.3 42.3 9.2L42 9V8.5C42 8.2 41.8 8 41.5 8C41.2 8 41 8.2 41 8.5V9L40.6 9.2C40.3 9.4 40.1 9.6 40 9.8C39.8 9.6 39.6 9.3 39.3 9.2L39 9V8.5C39 8.2 38.8 8 38.5 8C38.2 8 38 8.2 38 8.5V9L37.6 9.2C36.9 9.7 36.5 10.4 36.5 11.3V12.4H35V8.2C35 7.2 34.4 6.3 33.4 6C33.4 6 33.4 6 33.4 5.9V5.4C33.4 5.1 33.2 4.9 32.9 4.9C32.6 4.9 32.4 5.1 32.4 5.4V6H30.4V5.5C30.4 5.2 30.2 5 29.9 5C29.6 5 29.4 5.2 29.4 5.5V6H27.4V5.5C27.4 5.2 27.2 5 26.9 5C26.6 5 26.4 5.2 26.4 5.5V6V6.1C25.5 6.5 24.9 7.3 24.9 8.3V11.2V11.3V12.4H23.4V11.3C23.4 10.4 23 9.7 22.2 9.2L22 9V8.5C22 8.2 21.8 8 21.5 8C21.2 8 21 8.2 21 8.5V9L20.6 9.2C20.3 9.4 20.1 9.6 20 9.8C19.8 9.6 19.6 9.3 19.3 9.2L19 9V8.5C19 8.2 18.8 8 18.5 8C18.2 8 18 8.2 18 8.5V9L17.6 9.2C17.3 9.4 17.1 9.6 17 9.8C16.8 9.6 16.6 9.3 16.3 9.2L16 9V8.5C16 8.2 15.8 8 15.5 8C15.2 8 15 8.2 15 8.5V9L14.6 9.2C14.3 9.4 14.1 9.6 14 9.8C13.8 9.6 13.6 9.3 13.3 9.2L13 9V8.5C13 8.2 12.8 8 12.5 8C12.2 8 12 8.2 12 8.5V9L11.6 9.2C11.3 9.4 11.1 9.6 11 9.8C10.8 9.6 10.6 9.3 10.3 9.2L10 9V8.5C10 8.2 9.8 8 9.5 8C9.2 8 9 8.2 9 8.5V9L8.6 9.2C8.5 9.2 8.5 9.3 8.5 9.3V8.8V7.4H9C9.3 7.4 9.5 7.2 9.5 6.9C9.5 6.6 9.3 6.4 9 6.4H8.5V5.6C8.5 4.5 8 3.5 7 2.9L6.5 2.6V1C6.5 0.7 6.3 0.5 6 0.5C5.7 0.5 5.5 0.7 5.5 1V2.7L5 3.1C4.1 3.7 3.5 4.7 3.5 5.8V6.6H3C2.7 6.6 2.5 6.8 2.5 7.1C2.5 7.4 2.7 7.6 3 7.6H3.5V9V12.6H3C2.7 12.6 2.5 12.8 2.5 13.1V19.6H1C0.7 19.6 0.5 19.8 0.5 20.1V23.1C0.5 23.4 0.7 23.6 1 23.6H2.5V47.6H1C0.7 47.6 0.5 47.8 0.5 48.1C0.5 48.4 0.7 48.6 1 48.6H3H9H19H25H35H41H51H57H59C59.3 48.6 59.5 48.4 59.5 48.1C59.5 47.8 59.3 47.6 59 47.6H57.5V23.6H59V23.5ZM53.5 3.9L54 3.6L54.5 3.9C55.1 4.3 55.5 5 55.5 5.7V6.5H52.5V5.7C52.5 5 52.9 4.3 53.5 3.9ZM55.5 7.5V8.9V12.5H54.5V10C54.5 9.7 54.3 9.5 54 9.5C53.7 9.5 53.5 9.7 53.5 10V12.5H52.5V11.4V8.9V7.5H55.5ZM50.2 10.1L50.5 9.9L50.8 10.1C51.2 10.4 51.5 10.8 51.5 11.4V12.5H49.5V11.4C49.5 10.8 49.8 10.4 50.2 10.1ZM47.2 10.1L47.5 9.9L47.8 10.1C48.2 10.4 48.5 10.8 48.5 11.4V12.5H46.5V11.4C46.5 10.8 46.8 10.4 47.2 10.1ZM44.2 10.1L44.5 9.9L44.8 10.1C45.2 10.4 45.5 10.8 45.5 11.4V12.5H43.5V11.4C43.5 10.8 43.8 10.4 44.2 10.1ZM41.2 10.1L41.5 9.9L41.8 10.1C42.2 10.4 42.5 10.8 42.5 11.4V12.5H40.5V11.4C40.5 10.8 40.8 10.4 41.2 10.1ZM37.5 11.4C37.5 10.9 37.8 10.4 38.2 10.1L38.5 9.9L38.8 10.1C39.2 10.4 39.5 10.8 39.5 11.4V12.5H37.5V11.4ZM29 12.5V11.4C29 10.9 29.3 10.4 29.7 10.1L30 9.9L30.3 10.1C30.7 10.4 31 10.8 31 11.4V12.5H29ZM26 12.5V11.2C26 10.7 26.3 10.3 26.7 10.1L27 9.9L27.3 10.1C27.7 10.4 28 10.8 28 11.4V12.5H26ZM32.6 10.1L32.9 9.9L33.2 10.1C33.6 10.4 33.9 10.8 33.9 11.4V12.5H31.9V11.4C32 10.8 32.2 10.4 32.6 10.1ZM27 7H32.9C33.5 7.2 34 7.7 34 8.3V9.4C33.9 9.3 33.9 9.3 33.8 9.2L33.4 9V8.5C33.4 8.2 33.2 8 32.9 8C32.6 8 32.4 8.2 32.4 8.5V9L32 9.2C31.7 9.4 31.5 9.6 31.4 9.8C31.2 9.6 31 9.3 30.7 9.2L30.4 9V8.5C30.4 8.2 30.2 8 29.9 8C29.6 8 29.4 8.2 29.4 8.5V9L29 9.2C28.7 9.4 28.5 9.6 28.4 9.8C28.2 9.6 28 9.3 27.7 9.2L27.4 9V8.5C27.4 8.2 27.2 8 26.9 8C26.6 8 26.4 8.2 26.4 8.5V9L26 9.2L25.9 9.3V8.3C26 7.7 26.4 7.1 27 7ZM21.2 10.1L21.5 9.9L21.8 10.1C22.2 10.4 22.5 10.8 22.5 11.4V12.5H20.5V11.4C20.5 10.8 20.8 10.4 21.2 10.1ZM18.2 10.1L18.5 9.9L18.8 10.1C19.2 10.4 19.5 10.8 19.5 11.4V12.5H17.5V11.4C17.5 10.8 17.8 10.4 18.2 10.1ZM15.2 10.1L15.5 9.9L15.8 10.1C16.2 10.4 16.5 10.8 16.5 11.4V12.5H14.5V11.4C14.5 10.8 14.8 10.4 15.2 10.1ZM12.2 10.1L12.5 9.9L12.8 10.1C13.2 10.4 13.5 10.8 13.5 11.4V12.5H11.5V11.4C11.5 10.8 11.8 10.4 12.2 10.1ZM9.2 10.1L9.5 9.9L9.8 10.1C10.2 10.4 10.5 10.8 10.5 11.4V12.5H8.5V11.4C8.5 10.8 8.8 10.4 9.2 10.1ZM5.5 3.9L6 3.6L6.5 3.9C7.1 4.3 7.5 5 7.5 5.7V6.5H4.5V5.7C4.5 5 4.9 4.3 5.5 3.9ZM4.5 8.9V7.5H7.5V8.9V11.4V12.5H6.5V10C6.5 9.7 6.3 9.5 6 9.5C5.7 9.5 5.5 9.7 5.5 10V12.5H4.5V8.9ZM3.5 13.5H4H8H52H56H56.5V19.5H3.5V13.5ZM1.5 22.5V20.5H58.5V22.5H51H41H35H25H19H9H1.5ZM50.5 31.5H41.5V23.5H50.5V31.5ZM32.5 47.5H27.5V39.1C27.5 37.9 28.1 36.8 29.1 36.2L30 35.6L30.9 36.2C31.9 36.8 32.5 37.9 32.5 39.2V47.5ZM31.4 35.3L30.3 34.6C30.1 34.5 29.9 34.5 29.8 34.6L28.6 35.3C27.3 36.1 26.5 37.5 26.5 39.1V47.5H25.5V32.5H34.5V47.5H33.5V39.1C33.5 37.6 32.7 36.1 31.4 35.3ZM25.5 31.5V23.5H34.5V31.5H25.5ZM9.5 23.5H18.5V31.5H9.5V23.5ZM19.5 23.5H24.5V31.5H19.5V23.5ZM35.5 23.5H40.5V31.5H35.5V23.5ZM3.5 23.5H8.5V47.5H3.5V23.5ZM9.5 32.5H18.5V47.5H17.5V39.1C17.5 37.6 16.7 36.1 15.4 35.3L14.3 34.6C14.1 34.5 13.9 34.5 13.8 34.6L12.6 35.3C11.3 36.1 10.5 37.5 10.5 39.1V47.5H9.5V32.5ZM16.5 47.5H11.5V39.1C11.5 37.9 12.1 36.8 13.1 36.2L14 35.6L14.9 36.2C15.9 36.8 16.5 37.9 16.5 39.2V47.5ZM19.5 47.5V32.5H24.5V47.5H19.5ZM35.5 47.5V32.5H40.5V47.5H35.5ZM48.5 47.5H43.5V39.1C43.5 37.9 44.1 36.8 45.1 36.2L46 35.6L46.9 36.2C47.9 36.8 48.5 37.9 48.5 39.2V47.5ZM49.5 47.5V39.1C49.5 37.6 48.7 36.1 47.4 35.3L46.3 34.6C46.1 34.5 45.9 34.5 45.8 34.6L44.6 35.3C43.3 36.1 42.5 37.5 42.5 39.1V47.5H41.5V32.5H50.5V47.5H49.5ZM56.5 47.5H51.5V23.5H56.5V47.5Z" fill="url(#paint0_linear_1185_575)"/>
<defs>
<linearGradient id="paint0_linear_1185_575" x1="30" y1="0.5" x2="30" y2="48.6" gradientUnits="userSpaceOnUse">
<stop stop-color="#E02F8D"/>
<stop offset="1" stop-color="#0041A2"/>
</linearGradient>
</defs>
</svg>
