<svg width="68" height="68" viewBox="0 0 68 68" fill="none" xmlns="http://www.w3.org/2000/svg">
<path fill-rule="evenodd" clip-rule="evenodd" d="M38.2714 3.70368C38.7858 3.99873 38.9491 4.4595 38.9934 5.03315C39.106 6.49202 39.2758 7.94634 39.4013 9.40426C39.4293 9.73106 39.5522 9.87563 39.8713 9.96043C41.8302 10.4816 43.6819 11.2678 45.4202 12.3091C45.7047 12.4794 45.865 12.4116 46.0856 12.2263C47.2362 11.2584 48.3975 10.3035 49.5563 9.34544C50.2558 8.76703 50.6648 8.77818 51.3018 9.41323C53.0674 11.1737 54.8298 12.9374 56.5898 14.7035C57.1997 15.3155 57.2217 15.7348 56.6708 16.4071C55.7176 17.57 54.7641 18.733 53.7885 19.8769C53.5547 20.151 53.548 20.3477 53.7295 20.6495C54.7443 22.3351 55.5065 24.1326 56.0047 26.0361C56.1045 26.4174 56.2681 26.5844 56.6776 26.6147C58.0777 26.7181 59.4745 26.8645 60.8728 26.9925C62.039 27.0992 62.2674 27.3452 62.2677 28.5087C62.2681 30.903 62.2686 33.2974 62.2672 35.6918C62.2666 36.7156 62.0082 36.9859 61.007 37.0801C59.5105 37.2208 58.0142 37.3669 56.5218 37.5436C56.3537 37.5635 56.1184 37.7689 56.0702 37.9337C55.5021 39.8777 54.7513 41.7421 53.7088 43.4811C53.5354 43.7704 53.5671 43.9588 53.7793 44.209C54.7388 45.3405 55.6789 46.4885 56.625 47.6315C57.2435 48.3786 57.2157 48.8263 56.5059 49.4556C55.2179 50.5974 53.931 51.7408 52.6363 52.8752C51.9009 53.5197 51.3827 53.4569 50.8118 52.6671C48.807 49.8942 46.8045 47.1195 44.8029 44.3443C44.2415 43.5661 44.2621 43.2206 44.9104 42.5292C48.0523 39.1788 49.4083 35.1991 49.0634 30.6377C48.5576 23.9501 43.1199 18.1168 36.4846 17.1144C28.1939 15.862 20.7156 21.0059 19.1258 29.1823C18.1525 34.1882 19.5072 38.6175 22.928 42.4029C23.7331 43.2939 23.7643 43.4791 23.0917 44.4443C21.2036 47.1543 19.3157 49.8644 17.4252 52.5725C16.7818 53.494 16.2948 53.5441 15.4452 52.7922C14.1858 51.6777 12.9226 50.5675 11.6663 49.4495C10.9663 48.8266 10.9294 48.3925 11.5165 47.6772C12.4582 46.5305 13.3997 45.3833 14.3612 44.2532C14.5988 43.974 14.6458 43.7731 14.4439 43.4351C13.4246 41.7303 12.6599 39.9114 12.1543 37.9898C12.0631 37.6431 11.9005 37.5329 11.5531 37.5037C10.0556 37.3776 8.5614 37.2135 7.06506 37.073C6.21798 36.9936 5.89566 36.6765 5.89314 35.8278C5.88566 33.3148 5.88628 30.8015 5.8926 28.2885C5.89471 27.4515 6.1661 27.1262 6.99039 27.0371C8.48456 26.8756 9.98137 26.7355 11.4793 26.6149C11.8725 26.5833 12.0582 26.4533 12.1621 26.0537C12.6572 24.1499 13.4207 22.3513 14.4332 20.6651C14.6306 20.3365 14.6154 20.1392 14.367 19.8495C13.4014 18.7232 12.4653 17.5714 11.52 16.4277C10.9533 15.742 10.9698 15.3165 11.6044 14.6799C13.3506 12.9281 15.1002 11.1794 16.8514 9.43254C17.5128 8.77288 17.9069 8.7554 18.6431 9.36094C19.8954 10.3911 21.1414 11.4291 22.3173 12.4035C23.8511 11.7275 25.3263 11.0739 26.8052 10.4294C27.0395 10.3272 27.287 10.2163 27.5361 10.1939C28.5555 10.1018 28.8625 9.52774 28.8825 8.55691C28.9073 7.35406 29.1146 6.15617 29.1948 4.95298C29.2305 4.41809 29.4221 4.01485 29.8415 3.70361C32.6515 3.70368 35.4615 3.70368 38.2714 3.70368ZM21.2741 43.5765C14.9377 36.4524 15.6292 25.9501 22.0432 19.7541C28.3153 13.6953 38.2137 13.2794 44.8818 18.8342C48.2933 21.6763 50.3541 25.3148 50.9363 29.7138C51.6286 34.9449 50.1447 39.5616 46.6929 43.5669C48.4474 45.9976 50.1878 48.4084 51.9433 50.8408C52.8953 49.9976 53.7802 49.2134 54.6872 48.4099C53.6491 47.1554 52.6469 45.9322 51.63 44.7215C51.2522 44.2717 51.1703 43.8122 51.4919 43.3116C52.8403 41.2135 53.7971 38.9513 54.3533 36.5195C54.4785 35.9726 54.8119 35.6753 55.3869 35.631C56.254 35.5644 57.1197 35.4757 57.9853 35.3892C58.7448 35.3134 59.503 35.2274 60.2838 35.1437C60.2838 33.2129 60.2668 31.3537 60.2952 29.4952C60.3026 29.0116 60.118 28.903 59.6839 28.8703C58.304 28.7669 56.9267 28.6268 55.5492 28.4914C54.7519 28.413 54.492 28.198 54.3221 27.4466C53.7936 25.1095 52.8705 22.9414 51.5812 20.9245C51.1574 20.2615 51.187 19.9227 51.6815 19.3234C52.687 18.1053 53.6938 16.8882 54.6774 15.6981C53.2079 14.2228 51.7728 12.7821 50.3029 11.3064C49.1377 12.272 47.9535 13.2538 46.7691 14.235C46.0322 14.8456 45.7804 14.866 44.9762 14.3568C43.125 13.1842 41.1366 12.3295 39.0166 11.7808C37.6168 11.4184 37.565 11.363 37.4521 9.91854C37.4459 9.83966 37.4455 9.7603 37.4377 9.6817C37.3089 8.3695 37.1793 7.05758 37.0497 5.74457C35.0455 5.74457 33.0997 5.74457 31.1226 5.74457C30.971 7.29891 30.815 8.81245 30.6789 10.3278C30.5972 11.2377 30.4333 11.4655 29.5652 11.6774C27.2815 12.2349 25.1418 13.1287 23.153 14.3853C22.3999 14.8612 22.1441 14.8347 21.4601 14.2699C20.2578 13.2775 19.0561 12.2843 17.889 11.3202C16.4141 12.7929 14.9752 14.2297 13.5013 15.7013C14.4726 16.8754 15.4818 18.0898 16.4845 19.3096C17.0127 19.9522 17.0424 20.2333 16.609 20.9051C15.3105 22.9182 14.404 25.0937 13.8508 27.4219C13.6592 28.2282 13.4324 28.4135 12.5911 28.4955C11.6072 28.5916 10.6219 28.6743 9.63804 28.7701C9.058 28.8266 8.47932 28.8972 7.91914 28.9594C7.91914 31.07 7.91914 33.1 7.91914 35.1465C9.50666 35.3072 11.0593 35.4642 12.6118 35.6216C13.4653 35.7081 13.6524 35.8581 13.8559 36.698C14.4143 39.0032 15.3198 41.1595 16.5885 43.1645C17.036 43.8718 17.0078 44.1559 16.4682 44.8089C15.4868 45.997 14.5042 47.184 13.4888 48.4115C14.4088 49.2212 15.3033 50.0084 16.2264 50.8207C17.9368 48.3657 19.5972 45.983 21.2741 43.5765Z" fill="url(#paint0_linear_1225_317)"/>
<path fill-rule="evenodd" clip-rule="evenodd" d="M32.335 64.4943C31.6653 64.2154 30.9643 63.994 30.3309 63.6485C26.1326 61.3596 25.1749 55.5223 28.3936 51.774C28.9286 51.151 29.6265 50.6703 30.2228 50.0964C30.3979 49.9278 30.591 49.6654 30.5919 49.4452C30.6131 44.7165 30.6017 39.9879 30.6189 35.2593C30.6204 34.8371 30.3811 34.7375 30.0904 34.5951C27.2884 33.2228 25.6549 30.3287 25.8528 27.1034C26.0664 23.6225 27.918 21.0456 30.9497 20.0097C32.0814 19.623 32.6477 20.0304 32.5735 21.2125C32.4991 22.3967 32.4011 23.5797 32.2849 24.7604C32.2536 25.0783 32.3308 25.2543 32.6406 25.3184C32.8718 25.3663 33.1015 25.4364 33.3353 25.4549C34.6511 25.56 34.9006 25.3286 34.8188 24.0576C34.7554 23.0708 34.6466 22.0868 34.5942 21.0996C34.5438 20.1491 35.0899 19.7357 36.0258 19.9636C41.9828 21.4148 43.2357 28.3863 39.8697 32.4229C39.3076 33.0971 38.5581 33.6127 37.9217 34.229C37.7497 34.3955 37.5717 34.6617 37.5708 34.883C37.5507 39.6116 37.558 44.3403 37.5501 49.069C37.5496 49.3773 37.6152 49.5519 37.9239 49.7049C40.9696 51.2142 42.5753 54.0094 42.2845 57.5155C42.0078 60.8543 40.3135 63.2028 37.1022 64.3625C37.0129 64.3948 36.9318 64.4498 36.8468 64.4943C36.6489 64.4943 36.451 64.4943 36.2531 64.4943C35.6656 64.1943 35.4793 63.7185 35.5527 63.0719C35.664 62.0903 35.7202 61.1023 35.8077 60.1179C35.9021 59.0563 35.7921 58.9126 34.7123 58.8773C34.3825 58.8665 34.0487 58.9449 33.7187 58.9949C33.3645 59.0481 33.2403 59.2445 33.2744 59.6151C33.3795 60.7566 33.4281 61.9038 33.5455 63.0439C33.6145 63.7127 33.4307 64.2009 32.81 64.4943C32.6516 64.4943 32.4934 64.4943 32.335 64.4943ZM37.6541 61.9515C39.7789 60.4364 40.5201 58.4703 40.2802 56.1226C40.0453 53.8236 38.8359 52.1914 36.6662 51.3249C35.6552 50.9213 35.5575 50.8057 35.5575 49.7196C35.5573 44.5951 35.5686 39.4704 35.5453 34.346C35.5417 33.581 35.7916 33.1271 36.4821 32.747C39.4568 31.1094 40.581 27.3377 39.0062 24.4523C38.4916 23.5094 37.7481 22.8118 36.6822 22.3055C36.7621 23.3701 36.8107 24.3345 36.9146 25.2928C36.9802 25.8969 36.7882 26.3269 36.2779 26.6438C34.5363 27.7252 32.7837 27.7437 31.006 26.732C30.3805 26.376 30.1438 25.8858 30.2477 25.1552C30.3704 24.2918 30.3955 23.4144 30.4716 22.4295C30.208 22.6111 30.0549 22.6972 29.9245 22.8095C28.0986 24.3814 27.5602 26.4079 27.9563 28.701C28.3207 30.8106 29.5322 32.2837 31.5527 33.0543C32.4882 33.411 32.5879 33.543 32.5881 34.5232C32.5888 39.7269 32.5807 44.9307 32.598 50.1343C32.6003 50.7882 32.3718 51.1822 31.7906 51.4992C29.2215 52.9007 28.0208 55.5771 28.6673 58.4212C29.027 60.0039 29.9113 61.1991 31.4584 61.9889C31.3831 60.9189 31.3327 59.9381 31.2385 58.9614C31.1818 58.3736 31.4077 57.9772 31.8928 57.6779C33.5506 56.6558 35.2323 56.6095 36.9631 57.497C37.709 57.8793 38.0269 58.4205 37.8998 59.2725C37.7756 60.1075 37.7414 60.9557 37.6541 61.9515Z" fill="url(#paint1_linear_1225_317)"/>
<path fill-rule="evenodd" clip-rule="evenodd" d="M32.8098 64.494C33.4305 64.2006 33.6143 63.7124 33.5453 63.0436C33.4279 61.9035 33.3792 60.7563 33.2742 59.6148C33.2401 59.2442 33.3643 59.0478 33.7184 58.9946C34.0485 58.9446 34.3824 58.8662 34.7121 58.877C35.792 58.9123 35.9018 59.056 35.8075 60.1176C35.7199 61.1021 35.6638 62.0901 35.5525 63.0716C35.4791 63.7182 35.6653 64.194 36.2529 64.4939C35.1054 64.494 33.9575 64.494 32.8098 64.494Z" fill="white"/>
<defs>
<linearGradient id="paint0_linear_1225_317" x1="34.0779" y1="3.70361" x2="34.0779" y2="53.3139" gradientUnits="userSpaceOnUse">
<stop stop-color="#E02F8D"/>
<stop offset="1" stop-color="#0041A2"/>
</linearGradient>
<linearGradient id="paint1_linear_1225_317" x1="34.0774" y1="19.8682" x2="34.0774" y2="64.4943" gradientUnits="userSpaceOnUse">
<stop stop-color="#E02F8D"/>
<stop offset="1" stop-color="#0041A2"/>
</linearGradient>
</defs>
</svg>
