<svg width="120" height="120" viewBox="0 0 120 120" fill="none" xmlns="http://www.w3.org/2000/svg">
<path d="M11.4502 38.8999V87.5499C11.4502 97.0499 18.2002 100.95 26.4002 96.2499L38.1502 89.5499C40.7002 88.0999 44.9502 87.9499 47.6002 89.2999L73.8502 102.45C76.5002 103.75 80.7502 103.65 83.3002 102.2L104.95 89.7999C107.7 88.1999 110 84.2999 110 81.0999V32.4499C110 22.9499 103.25 19.0499 95.0502 23.7499L83.3002 30.4499C80.7502 31.8999 76.5002 32.0499 73.8502 30.6999L47.6002 17.5999C44.9502 16.2999 40.7002 16.3999 38.1502 17.8499L16.5002 30.2499C13.7002 31.8499 11.4502 35.7499 11.4502 38.8999Z" stroke="#2D2D2D" stroke-width="3" stroke-linecap="round" stroke-linejoin="round"/>
<path d="M42.7998 20V85" stroke="#2D2D2D" stroke-width="3" stroke-linecap="round" stroke-linejoin="round"/>
<path d="M78.6504 33.1001V100" stroke="#2D2D2D" stroke-width="3" stroke-linecap="round" stroke-linejoin="round"/>
</svg>
