<svg width="24" height="24" viewBox="0 0 24 24" fill="none" xmlns="http://www.w3.org/2000/svg">
<path d="M13 16.5H11C10.17 16.5 9.49997 17.17 9.49997 18V21.5H14.5V18C14.5 17.17 13.83 16.5 13 16.5Z" stroke="#0041A2" stroke-width="2" stroke-miterlimit="10" stroke-linejoin="round"/>
<path d="M10.0701 2.81985L3.14005 8.36985C2.36005 8.98985 1.86005 10.2998 2.03005 11.2798L3.36005 19.2398C3.60005 20.6598 4.96005 21.8098 6.40005 21.8098H17.6001C19.0301 21.8098 20.4001 20.6498 20.6401 19.2398L21.9701 11.2798C22.1301 10.2998 21.6301 8.98985 20.8601 8.36985L13.9301 2.82985C12.8601 1.96985 11.1301 1.96985 10.0701 2.81985Z" stroke="#0041A2" stroke-width="2" stroke-linecap="round" stroke-linejoin="round"/>
</svg>
