<svg width="64" height="50" viewBox="0 0 64 50" fill="none" xmlns="http://www.w3.org/2000/svg">
<path d="M63 48.5H60.5V27.5H62C62.2 27.5 62.4 27.4 62.5 27.2L63.5 24.2C63.6 24 63.5 23.9 63.4 23.7C63.3 23.6 63.2 23.5 63 23.5H60.5V19.5H61C61.3 19.5 61.5 19.3 61.5 19V16C61.5 15.7 61.3 15.5 61 15.5H46.5V12C46.5 11.7 46.3 11.5 46 11.5H45.5V6.5V6V4.5C45.5 3.6 44.9 2.8 44 2.6V1C44 0.7 43.8 0.5 43.5 0.5C43.2 0.5 43 0.7 43 1V2.6C42.1 2.8 41.5 3.6 41.5 4.5V6V6.5V8.5H22.5V6.5V6V4.5C22.5 3.6 21.9 2.8 21 2.6V1C21 0.7 20.8 0.5 20.5 0.5C20.2 0.5 20 0.7 20 1V2.6C19.1 2.8 18.5 3.6 18.5 4.5V6V6.5V11.5H18C17.7 11.5 17.5 11.7 17.5 12V15.5H3C2.7 15.5 2.5 15.7 2.5 16V19C2.5 19.3 2.7 19.5 3 19.5H3.5V23.5H1C0.8 23.5 0.7 23.6 0.6 23.7C0.5 23.8 0.5 24 0.5 24.2L1.5 27.2C1.6 27.4 1.8 27.5 2 27.5H3.5V48.5H1C0.7 48.5 0.5 48.7 0.5 49C0.5 49.3 0.7 49.5 1 49.5H4H9.5H13.5H18H23H41H46H50.5H54.5H60H63C63.3 49.5 63.5 49.3 63.5 49C63.5 48.7 63.3 48.5 63 48.5ZM61.6 26.5H46.5V24.5H62.3L61.6 26.5ZM23.5 12.5H40.5V18.5H23.5V12.5ZM45.5 12.5V18.5H41.5V12.5H42H45H45.5ZM28.5 19.5V23.5H26.5V19.5H28.5ZM29.5 19.5H31.5V23.5H29.5V19.5ZM32.5 19.5H34.5V23.5H32.5V19.5ZM35.5 19.5H37.5V23.5H35.5V19.5ZM38.5 19.5H40.5V23.5H38.5V19.5ZM41.5 23.5V19.5H45.5V23.5H41.5ZM25.5 19.5V23.5H23.5V19.5H25.5ZM22.5 23.5H18.5V19.5H22.5V23.5ZM22.5 24.5V26.5H18.5V24.5H22.5ZM41.5 24.5H45.5V26.5H41.5V24.5ZM59.5 23.5H46.5V19.5H59.5V23.5ZM60.5 16.5V18.5H60H46.5V16.5H60.5ZM42.5 11.5V6.5H44.5V11.5H42.5ZM43.5 3.5C44.1 3.5 44.5 3.9 44.5 4.5V5.5H42.5V4.5C42.5 3.9 42.9 3.5 43.5 3.5ZM41.5 9.5V11.5H41.3H41H23H22.5V9.5H41.5ZM20.5 3.5C21.1 3.5 21.5 3.9 21.5 4.5V5.5H19.5V4.5C19.5 3.9 19.9 3.5 20.5 3.5ZM19.5 6.5H21.5V11.5H19.5V6.5ZM19 12.5H22H22.5V18.5H18.5V16V12.5H19ZM3.5 16.5H17.5V18.5H4H3.5V16.5ZM4.5 19.5H17.5V23.5H4.5V19.5ZM1.7 24.5H17.5V26.5H2.4L1.7 24.5ZM4.5 27.5H17.5V48.5H16V37.1C16 34.4 14.5 32 12 30.8C11.7 30.6 11.3 30.6 10.9 30.8C8.5 32 7 34.4 6.9 37.1V48.5H4.4V27.5H4.5ZM9 48.5H8V37.5H15V48.5H14V42C14 39.4 11.8 38.6 11.7 38.5C11.6 38.5 11.5 38.5 11.4 38.5C11.3 38.5 9 39.4 9 42V48.5ZM8 36.5C8.2 34.4 9.4 32.5 11.4 31.5C11.5 31.5 11.5 31.5 11.6 31.5C13.5 32.5 14.8 34.3 15 36.5H8ZM10 48.5V42C10 40.5 11.1 39.8 11.5 39.5C12 39.8 13 40.5 13 42V48.5H10ZM18.5 48.5V27.5H22.5V48.5H18.5ZM25.5 48.5V37.6C25.5 34.6 27 31.8 29.6 30.2L32 28.6L34.4 30.1C37 31.7 38.5 34.5 38.5 37.6V48.6H25.5V48.5ZM34.9 29.3L32.2 27.6C32 27.5 31.8 27.5 31.7 27.6L29 29.3C26.2 31.1 24.5 34.2 24.5 37.6V48.5H23.5V24.5H40.5V48.5H39.5V37.5C39.5 34.2 37.8 31.1 34.9 29.3ZM41.5 48.5V27.5H45.5V48.5H41.5ZM49 37.5H56V48.5H55V42C55 39.4 52.8 38.6 52.7 38.5C52.6 38.5 52.5 38.5 52.4 38.5C52.3 38.5 50 39.4 50 42V48.5H49V37.5ZM49 36.5C49.2 34.4 50.4 32.5 52.4 31.5C52.5 31.5 52.5 31.5 52.6 31.5C54.5 32.5 55.8 34.3 56 36.5H49ZM51 48.5V42C51 40.5 52.1 39.8 52.5 39.5C53 39.8 54 40.5 54 42V48.5H51ZM57 48.5V37.1C57 34.4 55.5 32 53 30.7C52.7 30.5 52.3 30.5 51.9 30.7C49.5 31.9 47.9 34.4 47.9 37.1V48.5H46.4V27.5H59.4V48.5H57Z" fill="url(#paint0_linear_1185_508)"/>
<defs>
<linearGradient id="paint0_linear_1185_508" x1="32.0207" y1="0.5" x2="32.0207" y2="49.5" gradientUnits="userSpaceOnUse">
<stop stop-color="#E02F8D"/>
<stop offset="1" stop-color="#0041A2"/>
</linearGradient>
</defs>
</svg>
