<svg width="88" height="88" viewBox="0 0 88 88" fill="none" xmlns="http://www.w3.org/2000/svg">
<path fill-rule="evenodd" clip-rule="evenodd" d="M79.5515 51.8694C78.811 54.5777 78.0662 57.2846 77.3312 59.9944C76.721 62.2436 75.4078 63.3665 73.086 63.6788C72.8447 63.7112 72.5702 63.9973 72.4346 64.2358C71.1669 66.4637 69.3384 67.9189 66.7801 68.3424C63.6389 68.8628 61.3658 67.1034 61.0218 63.9313C61.0145 63.8622 60.9872 63.7949 60.9516 63.6601C60.7112 63.6601 60.4673 63.6601 60.2233 63.6601C52.2509 63.6601 44.2784 63.666 36.3061 63.6471C35.7616 63.6457 35.4866 63.7993 35.2276 64.2932C33.7796 67.0534 30.5942 68.8095 27.921 68.3789C25.5335 67.9943 24.1373 66.4971 23.9056 64.0739C23.8962 63.9765 23.879 63.8799 23.8544 63.7049C23.6186 63.6898 23.3813 63.663 23.144 63.6621C21.8734 63.6576 20.6024 63.6784 19.3323 63.6543C17.7525 63.6245 16.8514 62.5371 17.2334 61.0259C17.9341 58.2533 18.6969 55.4961 19.4534 52.7379C19.6532 52.0094 20.2197 51.6954 20.8691 51.876C21.4827 52.0468 21.7766 52.626 21.5808 53.3719C20.9555 55.7531 20.314 58.1305 19.6802 60.5097C19.6102 60.7719 19.5487 61.0366 19.4557 61.4117C21.0593 61.4117 22.6118 61.4298 24.1624 61.3854C24.3301 61.3806 24.5173 61.03 24.6449 60.8106C26.1252 58.2659 28.2409 56.6944 31.2606 56.6393C33.9455 56.5906 35.7792 58.3029 36.0388 60.9712C36.0508 61.0931 36.0666 61.2144 36.0854 61.3759C41.7229 61.3759 47.3454 61.3759 53.0737 61.3759C55.6359 51.8161 58.207 42.2223 60.8067 32.523C60.4566 32.5031 60.1985 32.4761 59.9402 32.4756C57.8224 32.4721 55.7048 32.477 53.587 32.472C52.6428 32.4698 52.1947 32.127 52.1691 31.4132C52.1427 30.6739 52.6359 30.2393 53.5678 30.2353C55.9096 30.2247 58.2515 30.2288 60.5933 30.2324C62.3305 30.2351 62.9794 30.8234 63.1594 32.6355C63.4134 32.6355 63.6786 32.6355 63.9435 32.6355C66.4351 32.6355 68.9264 32.6314 71.4177 32.6369C73.6714 32.6419 74.7491 33.7287 74.7568 35.9946C74.7679 39.2335 74.7864 42.4723 74.7733 45.7111C74.7715 46.1927 74.919 46.4886 75.3155 46.7519C76.1447 47.3023 76.924 47.9292 77.7589 48.4703C78.6038 49.0181 79.2555 49.6936 79.5516 50.6735C79.5515 51.0722 79.5515 51.4708 79.5515 51.8694ZM57.9644 51.8321C59.8917 51.8321 61.7053 51.8321 63.5188 51.8321C65.9102 51.8322 68.302 51.8268 70.6932 51.8362C71.5001 51.8393 71.9426 52.2194 71.9735 52.8827C72.0057 53.5722 71.5415 54.0192 70.7309 54.0702C70.5323 54.0826 70.3325 54.0743 70.1331 54.0743C66.0975 54.0745 62.0618 54.0856 58.0262 54.0611C57.5019 54.0578 57.2897 54.2192 57.164 54.7165C56.6764 56.6453 56.1469 58.5633 55.6373 60.4862C55.5627 60.7677 55.5104 61.0552 55.4307 61.4178C57.2542 61.4178 58.9948 61.3966 60.7344 61.4305C61.2716 61.441 61.5559 61.2955 61.8237 60.7947C62.992 58.6093 64.7997 57.1813 67.248 56.7302C71.0431 56.0308 73.1455 58.5808 73.1715 61.002C73.1728 61.1147 73.2285 61.2266 73.2648 61.3599C74.0923 61.233 74.7081 60.8086 74.9296 60.0901C75.5338 58.1315 76.0425 56.1436 76.602 54.1202C76.1492 54.0825 75.7984 54.0899 75.4644 54.0178C74.841 53.8835 74.5242 53.4665 74.5825 52.8274C74.6376 52.223 75.0018 51.8887 75.6087 51.8436C75.8814 51.8235 76.1623 51.8691 76.4288 51.8228C76.7157 51.773 76.9902 51.6504 77.2701 51.5598C77.1183 51.2264 77.0536 50.784 76.7985 50.5801C75.8664 49.8349 74.8911 49.1374 73.8881 48.4901C73.519 48.2519 73.0298 48.0925 72.5925 48.0853C70.2265 48.0464 67.8596 48.0808 65.493 48.0628C63.1706 48.0446 61.9238 46.4267 62.4875 44.1806C62.778 43.0231 63.0843 41.8689 63.4079 40.72C63.9559 38.7745 65.6135 37.4905 67.6388 37.4392C68.4603 37.4184 69.2827 37.4348 70.1048 37.4345C70.8903 37.4343 71.6758 37.4344 72.5148 37.4344C72.5148 36.8981 72.5165 36.4788 72.5146 36.0596C72.5094 34.9933 72.3965 34.88 71.3 34.8787C68.6096 34.8761 65.9188 34.8972 63.2288 34.8627C62.6323 34.8552 62.4324 35.0667 62.2881 35.6165C61.1338 40.0184 59.9444 44.4113 58.7666 48.807C58.5053 49.7834 58.2484 50.7608 57.9644 51.8321ZM72.5072 39.6774C70.9418 39.6774 69.4076 39.6689 67.8737 39.68C66.5984 39.6894 65.846 40.2814 65.5081 41.5229C65.2344 42.528 64.9704 43.5358 64.7068 44.5437C64.4384 45.5698 64.6196 45.8198 65.6564 45.8229C67.7185 45.8291 69.7809 45.8262 71.8432 45.8227C72.0594 45.8225 72.2757 45.7946 72.5072 45.7787C72.5072 43.7377 72.5072 41.7553 72.5072 39.6774ZM31.207 58.8696C28.9758 58.8831 26.5847 60.8881 26.1933 63.0738C25.8419 65.0353 27.0762 66.3945 29.0188 66.1854C31.2171 65.9489 33.2622 64.117 33.7266 61.9689C34.1162 60.1663 33.0529 58.8583 31.207 58.8696ZM70.9358 61.3892C70.9806 59.9155 70.0613 58.9315 68.5854 58.8733C66.1221 58.7762 63.5388 60.9967 63.2787 63.4349C63.1151 64.9697 64.0683 66.0891 65.6297 66.1959C68.0946 66.3643 70.8606 63.8586 70.9358 61.3892Z" fill="url(#paint0_linear_1225_282)"/>
<path fill-rule="evenodd" clip-rule="evenodd" d="M3.01514 48.8803C3.44158 48.3671 3.98115 48.2154 4.64813 48.2203C8.30913 48.2462 11.9704 48.2322 15.6315 48.2337C15.8553 48.2337 16.0832 48.2259 16.302 48.2636C16.8648 48.3604 17.185 48.713 17.2168 49.2789C17.2485 49.8436 16.9753 50.2423 16.4247 50.3931C16.1658 50.4642 15.8837 50.4711 15.612 50.4716C11.9509 50.4763 8.28977 50.4643 4.62868 50.484C3.96031 50.4875 3.41705 50.3238 3.01514 49.7772C3.01514 49.4782 3.01514 49.1792 3.01514 48.8803Z" fill="url(#paint1_linear_1225_282)"/>
<path fill-rule="evenodd" clip-rule="evenodd" d="M31.7286 51.6692C21.9273 51.7152 13.8343 43.6682 13.7924 33.8349C13.7506 24.0047 21.7655 15.9101 31.5877 15.8625C41.4952 15.8147 49.6013 23.8732 49.5986 33.7677C49.5961 43.6046 41.5917 51.6228 31.7286 51.6692ZM47.3562 33.7905C47.3869 25.231 40.3771 18.1558 31.8149 18.1051C23.1656 18.0537 16.0673 25.0684 16.0347 33.6995C16.0021 42.3348 23.05 49.417 31.6867 49.4271C40.2864 49.4376 47.3252 42.4132 47.3562 33.7905Z" fill="url(#paint2_linear_1225_282)"/>
<path fill-rule="evenodd" clip-rule="evenodd" d="M11.2757 55.27C10.18 55.27 9.08426 55.2807 7.98863 55.2665C7.12295 55.2552 6.60766 54.8131 6.61308 54.1261C6.61866 53.4398 7.12353 53.0333 8.01136 53.0308C10.2276 53.0247 12.4439 53.0237 14.6601 53.0312C15.5487 53.034 16.0343 53.4444 16.0258 54.1489C16.0173 54.8503 15.5291 55.2567 14.6373 55.2669C13.5169 55.2797 12.3963 55.27 11.2757 55.27Z" fill="url(#paint3_linear_1225_282)"/>
<path fill-rule="evenodd" clip-rule="evenodd" d="M12.4593 60.057C12.0864 60.057 11.7115 60.0827 11.3412 60.0513C10.6503 59.9932 10.1921 59.5127 10.2064 58.9042C10.2207 58.2944 10.6963 57.845 11.3937 57.8283C12.1638 57.81 12.9352 57.8073 13.7051 57.8316C14.374 57.8527 14.8045 58.2793 14.8279 58.8824C14.8513 59.4894 14.4562 59.967 13.7999 60.038C13.3579 60.0861 12.9065 60.0473 12.4593 60.0473C12.4593 60.0503 12.4593 60.0536 12.4593 60.057Z" fill="url(#paint4_linear_1225_282)"/>
<path fill-rule="evenodd" clip-rule="evenodd" d="M31.0915 62.5339C31.0857 63.1423 30.5266 63.6735 29.9224 63.6453C29.3246 63.6174 28.8593 63.1226 28.8618 62.5178C28.8646 61.8758 29.3662 61.3986 30.0119 61.4238C30.6124 61.4471 31.0971 61.9456 31.0915 62.5339Z" fill="url(#paint5_linear_1225_282)"/>
<path fill-rule="evenodd" clip-rule="evenodd" d="M67.1326 63.6458C66.5261 63.6578 65.9798 63.1152 65.9881 62.5093C65.9966 61.9163 66.4857 61.4328 67.0878 61.4225C67.7024 61.412 68.1845 61.86 68.2122 62.4669C68.2412 63.1031 67.7553 63.6336 67.1326 63.6458Z" fill="url(#paint6_linear_1225_282)"/>
<path fill-rule="evenodd" clip-rule="evenodd" d="M31.5807 37.264C31.4569 37.2532 31.2566 37.2893 31.1141 37.2149C30.2398 36.7583 29.7136 37.2374 29.1862 37.8517C28.7657 38.3413 28.2875 38.7831 27.819 39.2295C27.2435 39.7777 26.5601 39.8054 26.1017 39.3214C25.6406 38.8345 25.6717 38.2361 26.2201 37.6679C26.8426 37.0232 27.4757 36.388 28.1234 35.7691C28.3996 35.5052 28.5203 35.2826 28.3812 34.8683C27.9295 33.5231 28.2171 32.2977 29.2144 31.2946C30.2126 30.2905 31.4377 30.0042 32.7848 30.4445C33.1889 30.5765 33.4146 30.481 33.6886 30.2038C35.4916 28.3804 37.3125 26.5748 39.1205 24.7564C39.5934 24.2809 40.1035 24.0651 40.7136 24.4688C41.3413 24.8843 41.3489 25.6919 40.7172 26.3292C38.9645 28.0972 37.2056 29.8592 35.4336 31.6079C35.0589 31.9776 34.879 32.2612 35.0631 32.8689C35.7391 35.0995 33.9688 37.3107 31.5807 37.264ZM32.9478 33.7803C32.956 33.0693 32.393 32.4924 31.6928 32.4942C31.001 32.4958 30.4131 33.0934 30.4244 33.783C30.4355 34.4544 30.9815 35.0005 31.6588 35.0171C32.3854 35.0352 32.9395 34.5036 32.9478 33.7803Z" fill="url(#paint7_linear_1225_282)"/>
<path fill-rule="evenodd" clip-rule="evenodd" d="M32.8062 22.3761C32.8063 23.5849 32.4582 24.1034 31.6612 24.0813C30.8951 24.0599 30.564 23.5481 30.564 22.3841C30.5639 21.218 30.9571 20.6362 31.7279 20.662C32.4694 20.6867 32.806 21.222 32.8062 22.3761Z" fill="url(#paint8_linear_1225_282)"/>
<path fill-rule="evenodd" clip-rule="evenodd" d="M20.2873 34.8661C19.1467 34.8773 18.6016 34.5232 18.5919 33.7774C18.5824 33.0277 19.1513 32.6374 20.2607 32.6374C20.5085 32.6374 20.7595 32.6264 21.0032 32.6613C21.6616 32.7554 22.0538 33.2066 22.008 33.8247C21.9605 34.4649 21.5864 34.8061 20.9565 34.863C20.7351 34.8829 20.5105 34.8661 20.2873 34.8661Z" fill="url(#paint9_linear_1225_282)"/>
<path fill-rule="evenodd" clip-rule="evenodd" d="M43.0355 34.8583C42.8128 34.8583 42.5878 34.8792 42.3678 34.8543C41.7643 34.7861 41.4217 34.4275 41.3892 33.8309C41.3547 33.1966 41.6843 32.7706 42.3104 32.6832C42.7959 32.6157 43.3024 32.616 43.7902 32.6697C44.4116 32.7382 44.7643 33.132 44.7771 33.7709C44.7898 34.3857 44.373 34.8033 43.7037 34.8641C43.4828 34.8842 43.2583 34.8673 43.0354 34.8673C43.0355 34.8643 43.0355 34.8614 43.0355 34.8583Z" fill="url(#paint10_linear_1225_282)"/>
<path fill-rule="evenodd" clip-rule="evenodd" d="M32.8055 45.1446C32.8063 46.3476 32.4516 46.8775 31.6623 46.8538C30.9085 46.8311 30.5641 46.2981 30.564 45.1531C30.5639 45.0045 30.5583 44.8554 30.5663 44.707C30.6101 43.8982 31.0424 43.4321 31.7273 43.4512C32.3902 43.4694 32.772 43.9103 32.8037 44.6988C32.8097 44.8472 32.8047 44.9961 32.8055 45.1446Z" fill="url(#paint11_linear_1225_282)"/>
<defs>
<linearGradient id="paint0_linear_1225_282" x1="48.3488" y1="30.2285" x2="48.3488" y2="68.4436" gradientUnits="userSpaceOnUse">
<stop stop-color="#E02F8D"/>
<stop offset="1" stop-color="#0041A2"/>
</linearGradient>
<linearGradient id="paint1_linear_1225_282" x1="10.1172" y1="48.2202" x2="10.1172" y2="50.4841" gradientUnits="userSpaceOnUse">
<stop stop-color="#E02F8D"/>
<stop offset="1" stop-color="#0041A2"/>
</linearGradient>
<linearGradient id="paint2_linear_1225_282" x1="31.6954" y1="15.8623" x2="31.6954" y2="51.6694" gradientUnits="userSpaceOnUse">
<stop stop-color="#E02F8D"/>
<stop offset="1" stop-color="#0041A2"/>
</linearGradient>
<linearGradient id="paint3_linear_1225_282" x1="11.3195" y1="53.0259" x2="11.3195" y2="55.2738" gradientUnits="userSpaceOnUse">
<stop stop-color="#E02F8D"/>
<stop offset="1" stop-color="#0041A2"/>
</linearGradient>
<linearGradient id="paint4_linear_1225_282" x1="12.5175" y1="57.814" x2="12.5175" y2="60.0669" gradientUnits="userSpaceOnUse">
<stop stop-color="#E02F8D"/>
<stop offset="1" stop-color="#0041A2"/>
</linearGradient>
<linearGradient id="paint5_linear_1225_282" x1="29.9767" y1="61.4229" x2="29.9767" y2="63.6464" gradientUnits="userSpaceOnUse">
<stop stop-color="#E02F8D"/>
<stop offset="1" stop-color="#0041A2"/>
</linearGradient>
<linearGradient id="paint6_linear_1225_282" x1="67.1008" y1="61.4224" x2="67.1008" y2="63.646" gradientUnits="userSpaceOnUse">
<stop stop-color="#E02F8D"/>
<stop offset="1" stop-color="#0041A2"/>
</linearGradient>
<linearGradient id="paint7_linear_1225_282" x1="33.484" y1="24.2568" x2="33.484" y2="39.6638" gradientUnits="userSpaceOnUse">
<stop stop-color="#E02F8D"/>
<stop offset="1" stop-color="#0041A2"/>
</linearGradient>
<linearGradient id="paint8_linear_1225_282" x1="31.6851" y1="20.6611" x2="31.6851" y2="24.0819" gradientUnits="userSpaceOnUse">
<stop stop-color="#E02F8D"/>
<stop offset="1" stop-color="#0041A2"/>
</linearGradient>
<linearGradient id="paint9_linear_1225_282" x1="20.3017" y1="32.6357" x2="20.3017" y2="34.8727" gradientUnits="userSpaceOnUse">
<stop stop-color="#E02F8D"/>
<stop offset="1" stop-color="#0041A2"/>
</linearGradient>
<linearGradient id="paint10_linear_1225_282" x1="43.0821" y1="32.6309" x2="43.0821" y2="34.874" gradientUnits="userSpaceOnUse">
<stop stop-color="#E02F8D"/>
<stop offset="1" stop-color="#0041A2"/>
</linearGradient>
<linearGradient id="paint11_linear_1225_282" x1="31.6843" y1="43.4507" x2="31.6843" y2="46.8546" gradientUnits="userSpaceOnUse">
<stop stop-color="#E02F8D"/>
<stop offset="1" stop-color="#0041A2"/>
</linearGradient>
</defs>
</svg>
