<svg width="30" height="30" viewBox="0 0 30 30" fill="none" xmlns="http://www.w3.org/2000/svg">
<circle cx="15" cy="15" r="15" fill="#0041A2"/>
<path fill-rule="evenodd" clip-rule="evenodd" d="M24.5298 9.11964C24.4195 9.42913 24.1914 9.64875 23.9661 9.87398C20.1774 13.6598 16.39 17.4468 12.6046 21.2358C12.3205 21.5203 12.0014 21.6915 11.5997 21.5605C11.4349 21.5068 11.2702 21.4028 11.1467 21.2801C9.53335 19.6778 7.92461 18.0709 6.3242 16.4556C6.18203 16.312 6.10648 16.1025 6 15.9236C6 15.803 6 15.6823 6 15.5617C6.11829 15.3859 6.20894 15.18 6.3607 15.0407C6.66857 14.7582 7.1453 14.7655 7.47792 15.0201C7.55418 15.0784 7.62421 15.1458 7.69228 15.2138C9.02341 16.5435 10.354 17.8737 11.6838 19.2048C11.7347 19.2558 11.7767 19.3158 11.861 19.4179C11.9262 19.3263 11.9636 19.2546 12.0181 19.2C15.6288 15.5873 19.2415 11.9765 22.8516 8.36322C23.1584 8.05616 23.4991 7.90721 23.9282 8.06155C24.258 8.18015 24.4257 8.44233 24.5298 8.7578C24.5298 8.87835 24.5298 8.999 24.5298 9.11964Z" fill="white"/>
</svg>
