<svg width="64" height="64" viewBox="0 0 64 64" fill="none" xmlns="http://www.w3.org/2000/svg">
<path fill-rule="evenodd" clip-rule="evenodd" d="M41.0516 3.93275C42.4849 4.26663 43.3215 5.23642 43.9978 6.49044C46.1584 10.496 48.3842 14.4664 50.5726 18.457C50.7074 18.7028 50.8037 19.0063 50.8048 19.2833C50.8156 22.2296 50.8036 25.1759 50.7979 28.1222C50.7977 28.2319 50.8015 28.3421 50.7949 28.4515C50.7497 29.2016 50.2658 29.7093 49.6058 29.702C48.9455 29.6948 48.4494 29.1844 48.4434 28.4288C48.4274 26.3793 48.4372 24.3295 48.4368 22.2798C48.4366 21.6593 48.4368 21.0388 48.4368 20.3709C34.3778 20.3709 20.3584 20.3709 6.26649 20.3709C6.26649 20.5999 6.26649 20.8131 6.26649 21.0264C6.26649 29.7558 6.26637 38.4854 6.26669 47.2147C6.26669 48.2538 6.44659 48.4363 7.4711 48.4365C19.0005 48.4368 30.53 48.4362 42.0594 48.439C42.3322 48.439 42.6122 48.4429 42.8761 48.5018C43.4034 48.6198 43.7594 49.0946 43.7584 49.618C43.7572 50.143 43.4009 50.6084 42.8736 50.734C42.6631 50.7842 42.4393 50.7952 42.2215 50.7952C30.6005 50.7979 18.9795 50.7924 7.35866 50.8031C5.57926 50.8048 4.4976 49.9236 3.93286 48.2993C3.93286 38.4523 3.93286 28.6052 3.93286 18.7581C3.96832 18.7199 4.0135 18.687 4.03808 18.6427C6.25542 14.6293 8.49645 10.6287 10.6721 6.59284C11.3511 5.33313 12.1592 4.31195 13.5969 3.93262C22.7484 3.93275 31.9 3.93275 41.0516 3.93275ZM26.158 17.973C26.158 14.0547 26.158 10.1884 26.158 6.30036C25.9951 6.28705 25.8707 6.26798 25.7463 6.26798C21.9779 6.26631 18.2095 6.27143 14.4412 6.26241C13.7749 6.26081 13.3669 6.56718 13.0546 7.13914C11.172 10.5871 9.26976 14.0243 7.37555 17.4658C7.29146 17.6187 7.2231 17.7801 7.1303 17.9731C13.4961 17.973 19.8031 17.973 26.158 17.973ZM28.5493 17.9521C34.915 17.9521 41.2281 17.9521 47.5943 17.9521C47.4866 17.742 47.4088 17.5807 47.3226 17.424C45.4466 14.0147 43.5599 10.6111 41.7011 7.19246C41.3436 6.53511 40.871 6.25274 40.1225 6.25697C36.4643 6.27777 32.8061 6.26638 29.1477 6.26638C28.9537 6.26638 28.7597 6.26638 28.5493 6.26638C28.5493 10.2017 28.5493 14.0574 28.5493 17.9521Z" fill="url(#paint0_linear_1225_310)"/>
<path fill-rule="evenodd" clip-rule="evenodd" d="M58.6224 60.1596C57.9941 59.8101 57.807 59.2737 57.8134 58.5667C57.8294 56.7744 57.8557 54.9766 57.744 53.1895C57.3873 47.4856 52.7424 42.4495 47.0906 41.6129C45.9419 41.4431 44.7704 41.4266 43.6094 41.3394C43.5701 41.4099 43.5307 41.4803 43.4914 41.5508C43.6318 41.6481 43.7819 41.7345 43.9113 41.845C45.5255 43.2234 47.1367 44.6053 48.7485 45.9866C48.8596 46.0817 48.9706 46.1773 49.0791 46.2756C49.7002 46.8385 49.7904 47.5278 49.3126 48.0531C48.8538 48.5573 48.1546 48.5596 47.5515 48.0469C46.5757 47.2173 45.606 46.3806 44.6322 45.5485C42.9351 44.0985 41.2366 42.6498 39.5392 41.2005C38.8995 40.6545 38.8856 39.8618 39.5316 39.3071C42.2109 37.0064 44.8944 34.7103 47.5825 32.4201C48.192 31.901 48.8805 31.9336 49.3353 32.4672C49.784 32.9933 49.6998 33.6773 49.0901 34.2039C47.249 35.7941 45.3996 37.3744 43.4187 39.0745C43.7776 39.0745 43.9963 39.0796 44.2147 39.0737C48.1579 38.9692 51.6917 40.0972 54.7144 42.6558C57.8095 45.2759 59.5941 48.6213 60.0645 52.6583C60.0786 52.7813 60.1273 52.9004 60.1599 53.0214C60.1599 55.108 60.1599 57.1946 60.1599 59.2812C59.8671 59.574 59.5743 59.8668 59.2814 60.1597C59.0617 60.1596 58.842 60.1596 58.6224 60.1596Z" fill="url(#paint1_linear_1225_310)"/>
<path fill-rule="evenodd" clip-rule="evenodd" d="M13.5969 3.93262C12.1592 4.31195 11.3511 5.33313 10.6721 6.59284C8.49644 10.6287 6.25542 14.6293 4.03808 18.6427C4.01357 18.6871 3.96838 18.72 3.93286 18.7582C3.93286 13.8273 3.93286 8.89659 3.93286 3.93268C7.15417 3.93262 10.3755 3.93262 13.5969 3.93262Z" fill="white"/>
<path fill-rule="evenodd" clip-rule="evenodd" d="M59.2815 60.1598C59.5744 59.8669 59.8671 59.5742 60.1601 59.2812C60.1601 59.5741 60.1601 59.8669 60.1601 60.1598C59.8672 60.1598 59.5744 60.1598 59.2815 60.1598Z" fill="white"/>
<defs>
<linearGradient id="paint0_linear_1225_310" x1="27.371" y1="3.93262" x2="27.371" y2="50.8031" gradientUnits="userSpaceOnUse">
<stop stop-color="#E02F8D"/>
<stop offset="1" stop-color="#0041A2"/>
</linearGradient>
<linearGradient id="paint1_linear_1225_310" x1="49.6066" y1="32.0483" x2="49.6066" y2="60.1597" gradientUnits="userSpaceOnUse">
<stop stop-color="#E02F8D"/>
<stop offset="1" stop-color="#0041A2"/>
</linearGradient>
</defs>
</svg>
