<svg width="88" height="66" viewBox="0 0 88 66" fill="none" xmlns="http://www.w3.org/2000/svg">
<path d="M30.36 0.822815C30.1937 0.822815 30.0412 0.916439 29.9664 1.06516L28.3284 4.34281H26.84C26.6737 4.34281 26.5212 4.43644 26.4464 4.58516L23.8064 9.86516C23.8045 9.86889 23.8065 9.87342 23.8047 9.87719C23.778 9.93396 23.76 9.99424 23.76 10.0611V11.8211C23.76 12.064 23.9571 12.2611 24.2 12.2611H25.52V18.9041L20.7247 18.4245C20.7183 18.4238 20.7122 18.4267 20.7058 18.4263C20.6968 18.4257 20.6891 18.4211 20.68 18.4211H11.88C11.8709 18.4211 11.8632 18.4257 11.8542 18.4263C11.8478 18.4267 11.8417 18.4238 11.8353 18.4245L3.03531 19.3045C2.81003 19.3265 2.64 19.5149 2.64 19.7411V30.3011V64.2H0.656563C0.262532 64.2 0 64.376 0 64.64C0 64.904 0.262532 65.08 0.656563 65.08H87.3434C87.7375 65.08 88 64.904 88 64.64C88 64.376 87.7375 64.2 87.3434 64.2H86.24V30.3011V19.7411C86.24 19.5149 86.07 19.3265 85.8447 19.3045L77.0447 18.4245C77.0383 18.4238 77.0322 18.4267 77.0258 18.4263C77.0168 18.4257 77.0091 18.4211 77 18.4211H68.2C68.1909 18.4211 68.1832 18.4257 68.1742 18.4263C68.1678 18.4267 68.1617 18.4238 68.1553 18.4245L63.36 18.9041V12.2611H64.68C64.9229 12.2611 65.12 12.0649 65.12 11.8211V10.0611C65.12 10.0556 65.1168 10.0511 65.1166 10.0456C65.1157 10.0212 65.1078 9.99779 65.1028 9.97344C65.0959 9.94072 65.0908 9.90851 65.077 9.87891C65.075 9.87445 65.0758 9.86958 65.0736 9.86516L62.4336 4.58516C62.3588 4.43644 62.2063 4.3411 62.04 4.3411H60.5516L58.9136 1.06516C58.8388 0.916439 58.6863 0.822815 58.52 0.822815H30.36ZM30.6316 1.7011H58.2484L59.6063 4.41672C59.4846 4.49503 59.4 4.62577 59.4 4.7811C59.4 5.02398 59.5971 5.2211 59.84 5.2211H60.0084L60.4484 6.1011H28.4316L30.6316 1.7011ZM60.9916 5.2211H61.7684L63.9684 9.6211H59.84V8.7411H61.16C61.4029 8.7411 61.6 8.54486 61.6 8.3011V6.5411C61.6 6.47423 61.582 6.41396 61.5553 6.35719C61.5536 6.35342 61.5554 6.34889 61.5536 6.34516L60.9916 5.2211ZM27.1116 5.22282H27.8884L27.3264 6.34516C27.3245 6.34889 27.3265 6.35342 27.3247 6.35719C27.298 6.41396 27.28 6.47423 27.28 6.5411V8.3011C27.28 8.54398 27.4771 8.7411 27.72 8.7411H29.04V9.6211H24.9116L27.1116 5.22282ZM28.16 6.9811H60.72V7.8611H28.16V6.9811ZM29.92 8.7411H33.44V12.3917C33.2026 12.311 32.9146 12.2611 32.56 12.2611C31.5894 12.2611 30.8 12.9026 30.8 13.6911V14.0211C30.5571 14.0211 30.36 14.2182 30.36 14.4611C30.36 14.704 30.5571 14.9011 30.8 14.9011V19.3011H29.92V11.8211V10.0611V8.7411ZM34.32 8.7411H54.56V14.0211C54.3171 14.0211 54.12 14.2182 54.12 14.4611C54.12 14.704 54.3171 14.9011 54.56 14.9011V19.3011H53.68L53.6834 11.3811C53.6834 10.4105 52.6961 9.6211 51.4817 9.6211C50.7602 9.6211 50.1233 9.9041 49.7217 10.3344C49.32 9.90398 48.6839 9.6211 47.9617 9.6211C47.2402 9.6211 46.6033 9.9041 46.2017 10.3344C45.8 9.90398 45.1639 9.6211 44.4417 9.6211C43.7202 9.6211 43.0833 9.9041 42.6817 10.3344C42.28 9.90398 41.6439 9.6211 40.9217 9.6211C40.2002 9.6211 39.5633 9.9041 39.1617 10.3344C38.76 9.90398 38.1239 9.6211 37.4017 9.6211C36.1882 9.6211 35.2 10.4105 35.2 11.3811V12.2611C34.9571 12.2611 34.76 12.4582 34.76 12.7011C34.76 12.944 34.9571 13.1411 35.2 13.1411V19.3011H34.32V8.7411ZM55.44 8.7411H58.96V10.0611V11.8211V19.3011H58.08V14.0211C58.08 13.9623 58.0683 13.9074 58.0473 13.8561C58.0679 13.8051 58.08 13.7496 58.08 13.6911C58.08 12.9035 57.2906 12.2611 56.32 12.2611C55.9978 12.2611 55.7 12.3373 55.44 12.4605V8.7411ZM24.64 10.5011H29.04V11.3811H24.64V10.5011ZM37.4017 10.5011C38.0996 10.5011 38.7111 10.9068 38.7217 11.3691C38.7217 11.3732 38.72 11.377 38.72 11.3811V12.2611C38.4771 12.2611 38.28 12.4582 38.28 12.7011C38.28 12.944 38.4771 13.1411 38.72 13.1411V17.5411H36.08V13.1411C36.3229 13.1411 36.52 12.944 36.52 12.7011C36.52 12.4582 36.3229 12.2611 36.08 12.2611V11.3811C36.08 10.9129 36.6977 10.5011 37.4017 10.5011ZM40.9217 10.5011C41.6196 10.5011 42.2311 10.9068 42.2417 11.3691C42.2417 11.3732 42.24 11.377 42.24 11.3811V12.2611C41.9971 12.2611 41.8 12.4582 41.8 12.7011C41.8 12.944 41.9971 13.1411 42.24 13.1411V17.5411H39.6017L39.6034 13.1411C39.8447 13.1392 40.04 12.9428 40.04 12.7011C40.04 12.4594 39.8447 12.263 39.6034 12.2611V11.3811C39.6034 11.377 39.6018 11.3732 39.6017 11.3691C39.6124 10.906 40.2239 10.5011 40.9217 10.5011ZM44.4417 10.5011C45.1396 10.5011 45.7511 10.9068 45.7617 11.3691C45.7617 11.3732 45.76 11.377 45.76 11.3811V12.2611C45.5171 12.2611 45.32 12.4582 45.32 12.7011C45.32 12.944 45.5171 13.1411 45.76 13.1411V17.5411H43.1217L43.1234 13.1411C43.3647 13.1392 43.56 12.9428 43.56 12.7011C43.56 12.4594 43.3647 12.263 43.1234 12.2611V11.3811C43.1234 11.377 43.1218 11.3732 43.1217 11.3691C43.1324 10.906 43.7439 10.5011 44.4417 10.5011ZM47.9617 10.5011C48.6596 10.5011 49.2711 10.9068 49.2817 11.3691C49.2817 11.3732 49.28 11.377 49.28 11.3811V12.2611C49.0371 12.2611 48.84 12.4582 48.84 12.7011C48.84 12.944 49.0371 13.1411 49.28 13.1411V17.5411H46.6417L46.6434 13.1411C46.8847 13.1392 47.08 12.9428 47.08 12.7011C47.08 12.4594 46.8847 12.263 46.6434 12.2611V11.3811C46.6434 11.377 46.6418 11.3732 46.6417 11.3691C46.6524 10.906 47.2639 10.5011 47.9617 10.5011ZM51.4817 10.5011C52.1857 10.5011 52.8034 10.9138 52.8034 11.3811V12.268C52.6879 12.2671 52.5711 12.3095 52.4906 12.3934C52.4035 12.4735 52.36 12.5867 52.36 12.7011C52.36 12.8155 52.4026 12.9296 52.4906 13.0088C52.5707 13.0968 52.6856 13.1411 52.8 13.1411C52.8011 13.1411 52.8023 13.1411 52.8034 13.1411L52.8017 17.5411H50.1617L50.1634 13.1411C50.4047 13.1392 50.6 12.9428 50.6 12.7011C50.6 12.4594 50.4047 12.263 50.1634 12.2611V11.3811C50.1634 11.377 50.1618 11.3732 50.1617 11.3691C50.1724 10.906 50.7839 10.5011 51.4817 10.5011ZM59.84 10.5011H64.24V11.3811H59.84V10.5011ZM26.4 12.2611H29.04V19.2564L26.4 18.9917V12.2611ZM59.84 12.2611H62.48V18.9917L59.84 19.2564V12.2611ZM32.56 13.1411C32.9833 13.1411 33.44 13.2481 33.44 13.4848V14.04C33.3262 14.0406 33.2155 14.0709 33.1323 14.1534C33.0452 14.2335 33.0017 14.3467 33.0017 14.4611C33.0017 14.5755 33.0443 14.6896 33.1323 14.7688C33.1675 14.8119 33.2205 14.8482 33.2733 14.8667C33.3261 14.8931 33.3784 14.9011 33.44 14.9011V17.5411H31.68V14.9011C31.9229 14.9011 32.12 14.704 32.12 14.4611C32.12 14.2182 31.9229 14.0211 31.68 14.0211V13.6911C31.68 13.4315 32.0566 13.1411 32.56 13.1411ZM56.32 13.1411C56.8234 13.1411 57.2 13.4315 57.2 13.6911C57.2 13.7499 57.2117 13.8048 57.2327 13.8561C57.2117 13.9074 57.2 13.9623 57.2 14.0211V14.04C57.0834 14.04 56.9701 14.0704 56.8923 14.1534C56.8052 14.2335 56.7617 14.3467 56.7617 14.4611C56.7617 14.5755 56.8043 14.6896 56.8923 14.7688C56.9275 14.8119 56.9805 14.8482 57.0333 14.8667C57.0861 14.8931 57.1384 14.9011 57.2 14.9011V17.5411H55.44V14.9011C55.6829 14.9011 55.88 14.704 55.88 14.4611C55.88 14.2182 55.6829 14.0211 55.44 14.0211V13.6911C55.44 13.4315 55.8166 13.1411 56.32 13.1411ZM31.68 18.4211H33.44V19.3011H31.68V18.4211ZM36.08 18.4211H38.72V19.3011H36.08V18.4211ZM39.6 18.4211H42.24V19.3011H39.6V18.4211ZM43.12 18.4211H45.76V19.3011H43.12V18.4211ZM46.64 18.4211H49.28V19.3011H46.64V18.4211ZM50.16 18.4211H52.8V19.3011H50.16V18.4211ZM55.44 18.4211H57.2V19.3011H55.44V18.4211ZM12.32 19.3011H20.24V21.0611H12.32V19.3011ZM68.64 19.3011H76.56V21.0611H68.64V19.3011ZM11.44 19.3475V21.0611H3.52V20.1398L11.44 19.3475ZM21.12 19.3475L29.04 20.1398V21.0611H21.12V19.3475ZM67.76 19.3475V21.0611H59.84V20.1398L67.76 19.3475ZM77.44 19.3475L85.36 20.1398V21.0611H77.44V19.3475ZM29.92 20.1811H32.56V21.0611H29.92V20.1811ZM33.44 20.1811H55.44V21.9411H33.44V20.1811ZM56.32 20.1811H58.96V21.0611H56.32V20.1811ZM3.52 21.9411H11.44V29.8611H3.52V21.9411ZM12.32 21.9411H20.24V29.8611H12.32V21.9411ZM21.12 21.9411H29.04V29.8611H21.12V21.9411ZM29.92 21.9411H32.56V22.3811C32.56 22.624 32.7571 22.8211 33 22.8211H33.44V25.0211V28.5411V29.715V29.88H29.92V21.9411ZM56.32 21.9411H58.96V29.88H55.44V29.715V25.0211V22.8211H55.88C56.1229 22.8211 56.32 22.6249 56.32 22.3811V21.9411ZM59.84 21.9411H67.76V29.8611H59.84V21.9411ZM68.64 21.9411H76.56V29.8611H68.64V21.9411ZM77.44 21.9411H85.36V29.8611H77.44V21.9411ZM34.32 22.8211H54.56V24.5811H34.32V23.7011V22.8211ZM7.48 23.7011C6.75224 23.7011 6.16 24.2933 6.16 25.0211V27.6611C6.16 27.904 6.35712 28.1011 6.6 28.1011H8.36C8.60288 28.1011 8.8 27.9049 8.8 27.6611V25.0211C8.8 24.2933 8.20776 23.7011 7.48 23.7011ZM16.28 23.7011C15.5522 23.7011 14.96 24.2933 14.96 25.0211V27.6611C14.96 27.904 15.1571 28.1011 15.4 28.1011H17.16C17.4029 28.1011 17.6 27.9049 17.6 27.6611V25.0211C17.6 24.2933 17.0078 23.7011 16.28 23.7011ZM25.08 23.7011C24.3522 23.7011 23.76 24.2933 23.76 25.0211V27.6611C23.76 27.904 23.9571 28.1011 24.2 28.1011H25.96C26.2029 28.1011 26.4 27.9049 26.4 27.6611V25.0211C26.4 24.2933 25.8078 23.7011 25.08 23.7011ZM63.8 23.7011C63.0722 23.7011 62.48 24.2933 62.48 25.0211V27.6611C62.48 27.904 62.6771 28.1011 62.92 28.1011H64.68C64.9229 28.1011 65.12 27.9049 65.12 27.6611V25.0211C65.12 24.2933 64.5278 23.7011 63.8 23.7011ZM72.6 23.7011C71.8722 23.7011 71.28 24.2933 71.28 25.0211V27.6611C71.28 27.904 71.4771 28.1011 71.72 28.1011H73.48C73.7229 28.1011 73.92 27.9049 73.92 27.6611V25.0211C73.92 24.2933 73.3278 23.7011 72.6 23.7011ZM81.4 23.7011C80.6722 23.7011 80.08 24.2933 80.08 25.0211V27.6611C80.08 27.904 80.2771 28.1011 80.52 28.1011H82.28C82.5229 28.1011 82.72 27.9049 82.72 27.6611V25.0211C82.72 24.2933 82.1278 23.7011 81.4 23.7011ZM4.84 23.72C4.59712 23.72 4.4 23.9162 4.4 24.16V27.68C4.4 27.9229 4.59712 28.12 4.84 28.12C5.08288 28.12 5.28 27.9229 5.28 27.68V24.16C5.28 23.9162 5.08288 23.72 4.84 23.72ZM10.12 23.72C9.87712 23.72 9.68 23.9171 9.68 24.16V27.68C9.68 27.9229 9.87712 28.12 10.12 28.12C10.3629 28.12 10.56 27.9229 10.56 27.68V24.16C10.56 23.9171 10.3629 23.72 10.12 23.72ZM13.64 23.72C13.3971 23.72 13.2 23.9171 13.2 24.16V27.68C13.2 27.9229 13.3971 28.12 13.64 28.12C13.8829 28.12 14.08 27.9229 14.08 27.68V24.16C14.08 23.9171 13.8829 23.72 13.64 23.72ZM18.92 23.72C18.6771 23.72 18.48 23.9171 18.48 24.16V27.68C18.48 27.9229 18.6771 28.12 18.92 28.12C19.1629 28.12 19.36 27.9229 19.36 27.68V24.16C19.36 23.9171 19.1629 23.72 18.92 23.72ZM22.44 23.72C22.1971 23.72 22 23.9171 22 24.16V27.68C22 27.9229 22.1971 28.12 22.44 28.12C22.6829 28.12 22.88 27.9229 22.88 27.68V24.16C22.88 23.9171 22.6829 23.72 22.44 23.72ZM27.72 23.72C27.4771 23.72 27.28 23.9171 27.28 24.16V27.68C27.28 27.9229 27.4771 28.12 27.72 28.12C27.9629 28.12 28.16 27.9229 28.16 27.68V24.16C28.16 23.9171 27.9629 23.72 27.72 23.72ZM61.16 23.72C60.9171 23.72 60.72 23.9171 60.72 24.16V27.68C60.72 27.9229 60.9171 28.12 61.16 28.12C61.4029 28.12 61.6 27.9229 61.6 27.68V24.16C61.6 23.9171 61.4029 23.72 61.16 23.72ZM66.44 23.72C66.1971 23.72 66 23.9171 66 24.16V27.68C66 27.9229 66.1971 28.12 66.44 28.12C66.6829 28.12 66.88 27.9229 66.88 27.68V24.16C66.88 23.9171 66.6829 23.72 66.44 23.72ZM69.96 23.72C69.7171 23.72 69.52 23.9171 69.52 24.16V27.68C69.52 27.9229 69.7171 28.12 69.96 28.12C70.2029 28.12 70.4 27.9229 70.4 27.68V24.16C70.4 23.9171 70.2029 23.72 69.96 23.72ZM75.24 23.72C74.9971 23.72 74.8 23.9171 74.8 24.16V27.68C74.8 27.9229 74.9971 28.12 75.24 28.12C75.4829 28.12 75.68 27.9229 75.68 27.68V24.16C75.68 23.9171 75.4829 23.72 75.24 23.72ZM78.76 23.72C78.5171 23.72 78.32 23.9171 78.32 24.16V27.68C78.32 27.9229 78.5171 28.12 78.76 28.12C79.0029 28.12 79.2 27.9229 79.2 27.68V24.16C79.2 23.9171 79.0029 23.72 78.76 23.72ZM84.04 23.72C83.7971 23.72 83.6 23.9171 83.6 24.16V27.68C83.6 27.9229 83.7971 28.12 84.04 28.12C84.2829 28.12 84.48 27.9229 84.48 27.68V24.16C84.48 23.9171 84.2829 23.72 84.04 23.72ZM7.48 24.5811C7.722 24.5811 7.92 24.7791 7.92 25.0211V27.2211H7.04V25.0211C7.04 24.7791 7.238 24.5811 7.48 24.5811ZM16.28 24.5811C16.522 24.5811 16.72 24.7791 16.72 25.0211V27.2211H15.84V25.0211C15.84 24.7791 16.038 24.5811 16.28 24.5811ZM25.08 24.5811C25.322 24.5811 25.52 24.7791 25.52 25.0211V27.2211H24.64V25.0211C24.64 24.7791 24.838 24.5811 25.08 24.5811ZM63.8 24.5811C64.042 24.5811 64.24 24.7791 64.24 25.0211V27.2211H63.36V25.0211C63.36 24.7791 63.558 24.5811 63.8 24.5811ZM72.6 24.5811C72.842 24.5811 73.04 24.7791 73.04 25.0211V27.2211H72.16V25.0211C72.16 24.7791 72.358 24.5811 72.6 24.5811ZM81.4 24.5811C81.642 24.5811 81.84 24.7791 81.84 25.0211V27.2211H80.96V25.0211C80.96 24.7791 81.158 24.5811 81.4 24.5811ZM34.32 25.4611H54.56V26.7931C54.1911 26.5138 53.7376 26.3411 53.24 26.3411C52.5175 26.3411 51.8813 26.6958 51.48 27.2348C51.0787 26.6958 50.4425 26.3411 49.72 26.3411C48.9975 26.3411 48.3613 26.6958 47.96 27.2348C47.5587 26.6958 46.9225 26.3411 46.2 26.3411C45.4775 26.3411 44.8413 26.6958 44.44 27.2348C44.0387 26.6958 43.4025 26.3411 42.68 26.3411C41.9575 26.3411 41.3213 26.6958 40.92 27.2348C40.5187 26.6958 39.8825 26.3411 39.16 26.3411C38.4375 26.3411 37.8013 26.6958 37.4 27.2348C36.9987 26.6958 36.3625 26.3411 35.64 26.3411C35.1424 26.3411 34.6889 26.5138 34.32 26.7931V25.4611ZM35.64 27.2211C36.3678 27.2211 36.96 27.8133 36.96 28.5411V29.715C36.96 29.7671 36.9726 29.8147 36.9892 29.8611H34.32V28.5411C34.32 27.8133 34.9122 27.2211 35.64 27.2211ZM39.16 27.2211C39.8878 27.2211 40.48 27.8133 40.48 28.5411V29.715C40.48 29.7671 40.4926 29.8147 40.5092 29.8611H37.8108C37.8274 29.8147 37.84 29.7671 37.84 29.715V28.5411C37.84 27.8133 38.4322 27.2211 39.16 27.2211ZM42.68 27.2211C43.4078 27.2211 44 27.8133 44 28.5411V29.715C44 29.7671 44.0126 29.8147 44.0292 29.8611H41.3308C41.3474 29.8147 41.36 29.7671 41.36 29.715V28.5411C41.36 27.8133 41.9522 27.2211 42.68 27.2211ZM46.2 27.2211C46.9278 27.2211 47.52 27.8133 47.52 28.5411V29.715C47.52 29.7671 47.5326 29.8147 47.5492 29.8611H44.8508C44.8674 29.8147 44.88 29.7671 44.88 29.715V28.5411C44.88 27.8133 45.4722 27.2211 46.2 27.2211ZM49.72 27.2211C50.4478 27.2211 51.04 27.8133 51.04 28.5411V29.715C51.04 29.7671 51.0526 29.8147 51.0692 29.8611H48.3708C48.3874 29.8147 48.4 29.7671 48.4 29.715V28.5411C48.4 27.8133 48.9922 27.2211 49.72 27.2211ZM53.24 27.2211C53.9678 27.2211 54.56 27.8133 54.56 28.5411V29.8611H51.8908C51.9074 29.8147 51.92 29.7671 51.92 29.715V28.5411C51.92 27.8133 52.5122 27.2211 53.24 27.2211ZM3.52 30.7411H11.44V31.6211H3.52V30.7411ZM12.32 30.7411H20.24V31.6211H12.32V30.7411ZM21.12 30.7411H29.04V31.6211H21.12V30.7411ZM34.32 30.7411H54.56V31.6211H34.32V30.7411ZM59.84 30.7411H67.76V31.6211H61.16H59.84V30.7411ZM68.64 30.7411H76.56V31.6211H68.64V30.7411ZM77.44 30.7411H85.36V31.6211H77.44V30.7411ZM29.92 30.76H33.44V31.6211H29.92V30.76ZM55.44 30.76H58.96V31.6211H55.44V30.76ZM3.52 32.5011H11.44V64.1811H3.52V32.5011ZM12.32 32.5011H20.24V64.1811H12.32V32.5011ZM21.12 32.5011H29.04V64.1811H21.12V32.5011ZM29.92 32.5011H33.44V64.1811H29.92V32.5011ZM34.32 32.5011H54.56V64.1811H52.8V51.0481C52.8 48.409 51.388 45.9387 49.115 44.6011L45.1052 42.243C44.9617 42.1594 44.7853 42.161 44.6462 42.2498L40.4542 44.8898C38.2657 46.2662 36.96 48.632 36.96 51.2183V64.1811H34.32V32.5011ZM55.44 32.5011H58.96V64.1811H55.44V32.5011ZM59.84 32.5011H61.16H67.76V64.1811H59.84V32.5011ZM68.64 32.5011H76.56V64.1811H68.64V32.5011ZM77.44 32.5011H85.36V64.1811H77.44V32.5011ZM4.84 34.28C4.59712 34.28 4.4 34.4762 4.4 34.72V40C4.4 40.2429 4.59712 40.44 4.84 40.44C5.08288 40.44 5.28 40.2429 5.28 40V34.72C5.28 34.4762 5.08288 34.28 4.84 34.28ZM7.48 34.28C7.23712 34.28 7.04 34.4762 7.04 34.72V40C7.04 40.2429 7.23712 40.44 7.48 40.44C7.72288 40.44 7.92 40.2429 7.92 40V34.72C7.92 34.4762 7.72288 34.28 7.48 34.28ZM10.12 34.28C9.87712 34.28 9.68 34.4771 9.68 34.72V40C9.68 40.2429 9.87712 40.44 10.12 40.44C10.3629 40.44 10.56 40.2429 10.56 40V34.72C10.56 34.4771 10.3629 34.28 10.12 34.28ZM13.64 34.28C13.3971 34.28 13.2 34.4771 13.2 34.72V40C13.2 40.2429 13.3971 40.44 13.64 40.44C13.8829 40.44 14.08 40.2429 14.08 40V34.72C14.08 34.4771 13.8829 34.28 13.64 34.28ZM16.28 34.28C16.0371 34.28 15.84 34.4771 15.84 34.72V40C15.84 40.2429 16.0371 40.44 16.28 40.44C16.5229 40.44 16.72 40.2429 16.72 40V34.72C16.72 34.4771 16.5229 34.28 16.28 34.28ZM18.92 34.28C18.6771 34.28 18.48 34.4771 18.48 34.72V40C18.48 40.2429 18.6771 40.44 18.92 40.44C19.1629 40.44 19.36 40.2429 19.36 40V34.72C19.36 34.4771 19.1629 34.28 18.92 34.28ZM22.44 34.28C22.1971 34.28 22 34.4771 22 34.72V40C22 40.2429 22.1971 40.44 22.44 40.44C22.6829 40.44 22.88 40.2429 22.88 40V34.72C22.88 34.4771 22.6829 34.28 22.44 34.28ZM25.08 34.28C24.8371 34.28 24.64 34.4771 24.64 34.72V40C24.64 40.2429 24.8371 40.44 25.08 40.44C25.3229 40.44 25.52 40.2429 25.52 40V34.72C25.52 34.4771 25.3229 34.28 25.08 34.28ZM27.72 34.28C27.4771 34.28 27.28 34.4771 27.28 34.72V40C27.28 40.2429 27.4771 40.44 27.72 40.44C27.9629 40.44 28.16 40.2429 28.16 40V34.72C28.16 34.4771 27.9629 34.28 27.72 34.28ZM31.68 34.28C31.4371 34.28 31.24 34.4771 31.24 34.72V40C31.24 40.2429 31.4371 40.44 31.68 40.44C31.9229 40.44 32.12 40.2429 32.12 40V34.72C32.12 34.4771 31.9229 34.28 31.68 34.28ZM37.4 34.28C37.1571 34.28 36.96 34.4771 36.96 34.72V40C36.96 40.2429 37.1571 40.44 37.4 40.44C37.6429 40.44 37.84 40.2429 37.84 40V34.72C37.84 34.4771 37.6429 34.28 37.4 34.28ZM40.92 34.28C40.6771 34.28 40.48 34.4771 40.48 34.72V40C40.48 40.2429 40.6771 40.44 40.92 40.44C41.1629 40.44 41.36 40.2429 41.36 40V34.72C41.36 34.4771 41.1629 34.28 40.92 34.28ZM44.44 34.28C44.1971 34.28 44 34.4771 44 34.72V40C44 40.2429 44.1971 40.44 44.44 40.44C44.6829 40.44 44.88 40.2429 44.88 40V34.72C44.88 34.4771 44.6829 34.28 44.44 34.28ZM47.96 34.28C47.7171 34.28 47.52 34.4771 47.52 34.72V40C47.52 40.2429 47.7171 40.44 47.96 40.44C48.2029 40.44 48.4 40.2429 48.4 40V34.72C48.4 34.4771 48.2029 34.28 47.96 34.28ZM51.48 34.28C51.2371 34.28 51.04 34.4771 51.04 34.72V40C51.04 40.2429 51.2371 40.44 51.48 40.44C51.7229 40.44 51.92 40.2429 51.92 40V34.72C51.92 34.4771 51.7229 34.28 51.48 34.28ZM57.2 34.28C56.9571 34.28 56.76 34.4771 56.76 34.72V40C56.76 40.2429 56.9571 40.44 57.2 40.44C57.4429 40.44 57.64 40.2429 57.64 40V34.72C57.64 34.4771 57.4429 34.28 57.2 34.28ZM61.16 34.28C60.9171 34.28 60.72 34.4771 60.72 34.72V40C60.72 40.2429 60.9171 40.44 61.16 40.44C61.4029 40.44 61.6 40.2429 61.6 40V34.72C61.6 34.4771 61.4029 34.28 61.16 34.28ZM63.8 34.28C63.5571 34.28 63.36 34.4771 63.36 34.72V40C63.36 40.2429 63.5571 40.44 63.8 40.44C64.0429 40.44 64.24 40.2429 64.24 40V34.72C64.24 34.4771 64.0429 34.28 63.8 34.28ZM66.44 34.28C66.1971 34.28 66 34.4771 66 34.72V40C66 40.2429 66.1971 40.44 66.44 40.44C66.6829 40.44 66.88 40.2429 66.88 40V34.72C66.88 34.4771 66.6829 34.28 66.44 34.28ZM69.96 34.28C69.7171 34.28 69.52 34.4771 69.52 34.72V40C69.52 40.2429 69.7171 40.44 69.96 40.44C70.2029 40.44 70.4 40.2429 70.4 40V34.72C70.4 34.4771 70.2029 34.28 69.96 34.28ZM72.6 34.28C72.3571 34.28 72.16 34.4771 72.16 34.72V40C72.16 40.2429 72.3571 40.44 72.6 40.44C72.8429 40.44 73.04 40.2429 73.04 40V34.72C73.04 34.4771 72.8429 34.28 72.6 34.28ZM75.24 34.28C74.9971 34.28 74.8 34.4771 74.8 34.72V40C74.8 40.2429 74.9971 40.44 75.24 40.44C75.4829 40.44 75.68 40.2429 75.68 40V34.72C75.68 34.4771 75.4829 34.28 75.24 34.28ZM78.76 34.28C78.5171 34.28 78.32 34.4771 78.32 34.72V40C78.32 40.2429 78.5171 40.44 78.76 40.44C79.0029 40.44 79.2 40.2429 79.2 40V34.72C79.2 34.4771 79.0029 34.28 78.76 34.28ZM81.4 34.28C81.1571 34.28 80.96 34.4771 80.96 34.72V40C80.96 40.2429 81.1571 40.44 81.4 40.44C81.6429 40.44 81.84 40.2429 81.84 40V34.72C81.84 34.4771 81.6429 34.28 81.4 34.28ZM84.04 34.28C83.7971 34.28 83.6 34.4771 83.6 34.72V40C83.6 40.2429 83.7971 40.44 84.04 40.44C84.2829 40.44 84.48 40.2429 84.48 40V34.72C84.48 34.4771 84.2829 34.28 84.04 34.28ZM39.16 41.3011C38.4322 41.3011 37.84 41.8933 37.84 42.6211C37.84 43.3489 38.4322 43.9411 39.16 43.9411C39.8878 43.9411 40.48 43.3489 40.48 42.6211C40.48 41.8933 39.8878 41.3011 39.16 41.3011ZM49.72 41.3011C48.9922 41.3011 48.4 41.8933 48.4 42.6211C48.4 43.3489 48.9922 43.9411 49.72 43.9411C50.4478 43.9411 51.04 43.3489 51.04 42.6211C51.04 41.8933 50.4478 41.3011 49.72 41.3011ZM39.16 42.1811C39.402 42.1811 39.6 42.3791 39.6 42.6211C39.6 42.8631 39.402 43.0611 39.16 43.0611C38.918 43.0611 38.72 42.8631 38.72 42.6211C38.72 42.3791 38.918 42.1811 39.16 42.1811ZM49.72 42.1811C49.962 42.1811 50.16 42.3791 50.16 42.6211C50.16 42.8631 49.962 43.0611 49.72 43.0611C49.478 43.0611 49.28 42.8631 49.28 42.6211C49.28 42.3791 49.478 42.1811 49.72 42.1811ZM44.8886 43.1367L48.6664 45.3591C50.6728 46.54 51.92 48.7196 51.92 51.0481V64.1811H50.16V51.0945C50.16 50.8742 50.1458 50.657 50.117 50.4414C49.9157 48.9325 49.0261 47.5706 47.697 46.7891L45.1034 45.2628C45.1029 45.2625 45.1022 45.2631 45.1017 45.2628L44.8714 45.127L44.6445 45.2697L41.9323 46.9781C40.4715 47.8977 39.6 49.478 39.6 51.2045V64.1811H37.84V51.2183C37.84 48.9356 38.9927 46.8476 40.9234 45.6323L44.8886 43.1367ZM45.32 46.4109L47.2502 47.547C47.6146 47.7614 47.9327 48.0344 48.2092 48.3411H45.32V46.4109ZM44.44 46.4384V48.3411H41.6419C41.8676 48.1093 42.1196 47.8998 42.4016 47.7223L44.44 46.4384ZM48.8108 49.2056C49.0286 49.6256 49.1805 50.081 49.2439 50.5566C49.2626 50.6967 49.2691 50.8384 49.2731 50.9811H45.32V49.2211H48.73C48.7585 49.2211 48.7838 49.2108 48.8108 49.2056ZM40.9888 49.2125C40.9889 49.2122 40.9903 49.2128 40.9905 49.2125C41.0041 49.2138 41.016 49.2211 41.03 49.2211H44.44V50.9811H40.4938C40.5274 50.3515 40.6937 49.7473 40.9888 49.2125ZM40.48 51.8611H44.44V53.6211H40.48V51.8611ZM45.32 51.8611H49.28V53.6211H45.32V51.8611ZM40.48 54.5011H44.44V56.2611H40.48V54.5011ZM45.32 54.5011H49.28V56.2611H45.32V54.5011ZM40.48 57.1411H44.44V58.9011H40.48V57.1411ZM45.32 57.1411H49.28V58.9011H45.32V57.1411ZM40.48 59.7811H44.44V61.5411H40.48V59.7811ZM45.32 59.7811H49.28V61.5411H45.32V59.7811ZM40.48 62.4211H44.44V64.1811H40.48V62.4211ZM45.32 62.4211H49.28V64.1811H45.32V62.4211Z" fill="url(#paint0_linear_1185_585)"/>
<defs>
<linearGradient id="paint0_linear_1185_585" x1="44" y1="0.822815" x2="44" y2="65.08" gradientUnits="userSpaceOnUse">
<stop stop-color="#E02F8D"/>
<stop offset="1" stop-color="#0041A2"/>
</linearGradient>
</defs>
</svg>
