<svg width="186" height="186" viewBox="0 0 186 186" fill="none" xmlns="http://www.w3.org/2000/svg">
<circle cx="93" cy="93" r="93" fill="#EEFFEE"/>
<path d="M126.413 89.7001C126.413 108.038 113.1 125.213 94.9129 130.238C93.6754 130.575 92.3254 130.575 91.0879 130.238C72.9004 125.213 59.5879 108.038 59.5879 89.7001V73.2376C59.5879 70.1626 61.9129 66.6751 64.8004 65.5126L85.6879 56.9627C90.3754 55.0502 95.6629 55.0502 100.35 56.9627L121.238 65.5126C124.088 66.6751 126.45 70.1626 126.45 73.2376L126.413 89.7001Z" stroke="#2D2D2D" stroke-width="5" stroke-linecap="round" stroke-linejoin="round"/>
<path d="M93 94.875C97.1421 94.875 100.5 91.5171 100.5 87.375C100.5 83.2329 97.1421 79.875 93 79.875C88.8579 79.875 85.5 83.2329 85.5 87.375C85.5 91.5171 88.8579 94.875 93 94.875Z" stroke="#2D2D2D" stroke-width="5" stroke-miterlimit="10" stroke-linecap="round" stroke-linejoin="round"/>
<path d="M93 94.875V106.125" stroke="#2D2D2D" stroke-width="5" stroke-miterlimit="10" stroke-linecap="round" stroke-linejoin="round"/>
</svg>
