<svg width="186" height="186" viewBox="0 0 186 186" fill="none" xmlns="http://www.w3.org/2000/svg">
<circle cx="93" cy="93" r="93" fill="#E7F0FF"/>
<path d="M102.15 119.438L107.85 125.138L119.25 113.738" stroke="#292D32" stroke-width="5" stroke-linecap="round" stroke-linejoin="round"/>
<path d="M93.6 88.7625C93.225 88.725 92.775 88.725 92.3625 88.7625C83.4375 88.4625 76.35 81.15 76.35 72.15C76.3125 62.9625 83.775 55.5 92.9625 55.5C102.15 55.5 109.612 62.9625 109.612 72.15C109.612 81.15 102.487 88.4625 93.6 88.7625Z" stroke="#292D32" stroke-width="5" stroke-linecap="round" stroke-linejoin="round"/>
<path d="M92.9624 129.788C86.1374 129.788 79.3499 128.063 74.1749 124.613C65.0999 118.538 65.0999 108.638 74.1749 102.6C84.4874 95.7 101.4 95.7 111.712 102.6" stroke="#292D32" stroke-width="5" stroke-linecap="round" stroke-linejoin="round"/>
</svg>
