<svg width="22" height="22" viewBox="0 0 22 22" fill="none" xmlns="http://www.w3.org/2000/svg">
<path fill-rule="evenodd" clip-rule="evenodd" d="M21.9568 10.3854C21.9568 10.8124 21.9568 11.2394 21.9568 11.6663C21.9393 11.8199 21.9215 11.9734 21.9045 12.1271C21.6429 14.4792 20.7445 16.5541 19.1591 18.3133C17.4759 20.1811 15.3904 21.3471 12.909 21.7864C12.4977 21.8592 12.0809 21.9005 11.6667 21.9564C11.2397 21.9564 10.8127 21.9564 10.3858 21.9564C10.3309 21.9443 10.2764 21.9251 10.221 21.9213C8.51111 21.8006 6.91163 21.3115 5.45212 20.4171C2.62038 18.6817 0.877647 16.1797 0.265911 12.9065C0.189327 12.4968 0.151479 12.0799 0.0957031 11.6663C0.0957031 11.2394 0.0957031 10.8124 0.0957031 10.3854C0.113151 10.2318 0.130911 10.0782 0.147975 9.92456C0.409623 7.57249 1.30794 5.49759 2.89334 3.73842C4.57653 1.87059 6.66208 0.704601 9.14346 0.265305C9.55473 0.192513 9.97154 0.151185 10.3858 0.0953369C10.8127 0.0953369 11.2397 0.0953369 11.6667 0.0953369C11.7216 0.107361 11.776 0.126585 11.8315 0.130473C13.5413 0.251145 15.1409 0.740217 16.6004 1.63465C19.4321 3.37002 21.1748 5.87202 21.7866 9.14524C21.8631 9.55489 21.9009 9.97184 21.9568 10.3854ZM9.35534 12.8579C8.9213 12.4609 8.5241 12.0962 8.12531 11.7331C7.52032 11.1825 6.92831 10.6166 6.30414 10.0886C5.8191 9.67842 5.06253 9.83512 4.74712 10.3694C4.46932 10.8401 4.57643 11.4018 5.02574 11.8114C6.19804 12.8805 7.37162 13.9481 8.54421 15.0169C9.12434 15.5456 9.6927 15.5343 10.2513 14.98C12.4986 12.7498 14.7456 10.5195 16.9924 8.28877C17.063 8.21867 17.134 8.1482 17.1976 8.07198C17.6456 7.5363 17.4984 6.74802 16.8883 6.40655C16.4178 6.14315 15.9239 6.23771 15.4816 6.67998C13.4889 8.67176 11.4967 10.6641 9.50565 12.6575C9.45098 12.7122 9.4115 12.7821 9.35534 12.8579Z" fill="#2D2D2D"/>
</svg>
