<svg width="68" height="68" viewBox="0 0 68 68" fill="none" xmlns="http://www.w3.org/2000/svg">
<path fill-rule="evenodd" clip-rule="evenodd" d="M3.7959 35.8378C3.7959 34.6553 3.7959 33.4729 3.7959 32.2906C3.84425 31.8653 3.89348 31.44 3.94074 31.0145C4.66528 24.5013 7.15285 18.7556 11.543 13.8841C16.2041 8.71189 21.9792 5.48311 28.8505 4.26659C29.9894 4.06497 31.1436 3.9506 32.2906 3.7959C33.4729 3.7959 34.6552 3.7959 35.8378 3.7959C35.9896 3.82922 36.1403 3.88246 36.294 3.89327C41.0289 4.22743 45.4583 5.58171 49.4997 8.05848C57.3413 12.864 62.1671 19.7925 63.8612 28.8566C64.0731 29.991 64.1778 31.1455 64.3325 32.2907C64.3325 33.473 64.3325 34.6553 64.3325 35.8378C64.2841 36.2632 64.2348 36.6883 64.1875 37.1137C63.4631 43.6272 60.9755 49.3727 56.5853 54.2443C51.9242 59.4166 46.1491 62.6454 39.2778 63.8617C38.139 64.0634 36.9849 64.1778 35.8378 64.3326C34.6552 64.3326 33.473 64.3326 32.2906 64.3326C32.1386 64.2992 31.9879 64.246 31.8343 64.2353C27.0994 63.901 22.6702 62.5468 18.6286 60.0699C10.787 55.2643 5.96122 48.3359 4.26727 39.2719C4.05525 38.1374 3.95039 36.9829 3.7959 35.8378ZM34.0526 6.83319C19.0148 6.85114 6.86134 19.0017 6.83318 34.046C6.8051 49.0709 19.0445 61.3132 34.0758 61.2951C49.1137 61.2771 61.2674 49.1263 61.295 34.0822C61.323 19.0571 49.084 6.8153 34.0526 6.83319Z" fill="url(#paint0_linear_1225_325)"/>
<path fill-rule="evenodd" clip-rule="evenodd" d="M35.5975 24.6007C35.5975 24.9651 35.5975 25.1809 35.5975 25.3968C35.5975 32.5299 35.6015 39.6631 35.5867 46.7962C35.586 47.1924 35.5057 47.6279 35.3268 47.9755C35.0448 48.5239 34.5192 48.7699 33.8918 48.7005C33.2972 48.6347 32.7534 48.1437 32.6186 47.5395C32.5553 47.2551 32.5494 46.954 32.5492 46.6605C32.5457 39.5666 32.5464 32.4729 32.5464 25.3791C32.5464 25.1659 32.5464 24.9527 32.5464 24.5866C32.3031 24.82 32.154 24.9578 32.0105 25.1012C30.2828 26.8289 28.5642 28.5661 26.8197 30.2766C26.5529 30.5383 26.1887 30.7611 25.8309 30.856C25.1881 31.0262 24.6347 30.7468 24.3114 30.217C23.9998 29.7064 24.04 28.9821 24.4166 28.4956C24.5246 28.3562 24.6517 28.2303 24.7767 28.1052C27.4379 25.4437 30.0991 22.7824 32.7625 20.1231C33.7109 19.1763 34.4861 19.1821 35.4427 20.1379C38.119 22.8119 40.792 25.4895 43.473 28.1588C43.8854 28.5697 44.1598 29.0222 44.078 29.6216C44.0001 30.1933 43.6976 30.6327 43.1509 30.8184C42.5336 31.0281 41.9527 30.9272 41.4663 30.4389C39.6995 28.6664 37.9273 26.8995 36.1561 25.1315C36.0071 24.9828 35.851 24.8412 35.5975 24.6007Z" fill="url(#paint1_linear_1225_325)"/>
<defs>
<linearGradient id="paint0_linear_1225_325" x1="34.0642" y1="3.7959" x2="34.0642" y2="64.3326" gradientUnits="userSpaceOnUse">
<stop stop-color="#E02F8D"/>
<stop offset="1" stop-color="#0041A2"/>
</linearGradient>
<linearGradient id="paint1_linear_1225_325" x1="34.0977" y1="19.417" x2="34.0977" y2="48.712" gradientUnits="userSpaceOnUse">
<stop stop-color="#E02F8D"/>
<stop offset="1" stop-color="#0041A2"/>
</linearGradient>
</defs>
</svg>
