<svg width="78" height="78" viewBox="0 0 78 78" fill="none" xmlns="http://www.w3.org/2000/svg">
<path fill-rule="evenodd" clip-rule="evenodd" d="M36.3605 74.724C36.2335 74.6347 36.0982 74.5557 35.9813 74.4548C35.6054 74.1308 35.4395 73.7201 35.5771 73.2355C35.7195 72.734 36.0693 72.4339 36.5909 72.3644C36.7855 72.3386 36.9855 72.3523 37.1831 72.3523C42.1634 72.3519 47.1436 72.3534 52.124 72.3514C55.1271 72.3503 56.9959 70.4741 56.9968 67.462C56.9977 64.8929 56.9953 62.3238 56.9936 59.7545C56.9936 59.7156 56.9826 59.6767 56.9628 59.5429C56.7708 59.5429 56.5638 59.5431 56.3571 59.5429C53.6101 59.5417 50.8626 59.5725 48.1162 59.5311C44.5338 59.477 41.7401 56.5305 41.821 52.9565C41.897 49.6103 44.6518 46.8078 48.0017 46.7491C50.7676 46.7006 53.535 46.7359 56.3018 46.734C56.514 46.7339 56.7262 46.734 56.9973 46.734C56.9973 46.5069 56.9973 46.3348 56.9973 46.1626C56.9973 43.6528 57.0022 41.1428 56.9959 38.633C56.9888 35.86 55.0644 33.9272 52.3012 33.9265C38.3487 33.9234 24.3962 33.9233 10.4436 33.9267C7.7103 33.9274 5.76518 35.8616 5.76365 38.5872C5.75808 48.2909 5.75788 57.9944 5.76385 67.698C5.76545 70.3917 7.70552 72.3424 10.3962 72.3484C15.5543 72.36 20.7124 72.3507 25.8706 72.3536C26.5732 72.3539 27.0258 72.6675 27.1848 73.2335C27.3334 73.7628 27.1048 74.2397 26.5272 74.6116C26.4797 74.6421 26.4409 74.6861 26.3981 74.7239C20.7448 74.7239 15.0914 74.7239 9.43811 74.7239C9.34847 74.6889 9.26169 74.6374 9.16873 74.6212C6.22532 74.1107 4.0168 71.9251 3.4977 69.0084C3.47745 68.8946 3.42626 68.7862 3.3894 68.6752C3.3894 58.3174 3.3894 47.9595 3.3894 37.6017C3.42619 37.4905 3.47705 37.3817 3.49757 37.2676C3.99767 34.4836 6.07108 32.2203 8.82937 31.7362C10.2146 31.4929 11.6614 31.5844 13.081 31.5647C13.4888 31.5589 13.7733 31.4455 14.0607 31.157C18.8595 26.3413 23.6849 21.5519 28.465 16.7179C29.741 15.4275 31.0676 14.304 32.9211 14C33.4351 14 33.949 14 34.4629 14C36.355 14.3325 37.7167 15.4915 38.971 16.8459C39.7627 17.7005 40.6034 18.5109 41.4468 19.3151C41.6036 19.4645 41.8934 19.5887 42.0966 19.5582C45.2189 19.0907 47.2803 20.0767 48.8682 22.8269C50.4965 25.6474 52.122 28.4697 53.7648 31.2815C53.8897 31.4955 54.1164 31.7204 54.343 31.7939C57.5133 32.8222 59.3635 35.3397 59.3685 38.6841C59.3723 41.1539 59.3693 43.6237 59.3693 46.0935C59.3693 46.3005 59.3693 46.5075 59.3693 46.734C59.7593 46.734 60.0552 46.7405 60.3508 46.7328C61.482 46.703 62.485 47.0534 63.1881 47.9393C63.593 48.4493 63.8111 49.1075 64.1133 49.6989C64.1133 51.9919 64.1133 54.285 64.1133 56.5779C64.0755 56.6681 64.0291 56.7558 64.0012 56.8488C63.486 58.5651 62.2043 59.5275 60.4087 59.5423C60.0787 59.545 59.7487 59.5427 59.3694 59.5427C59.3694 59.8182 59.3694 60.0308 59.3694 60.2435C59.3692 62.7911 59.404 65.3395 59.3591 67.8863C59.3147 70.3997 58.214 72.3908 56.0544 73.6807C55.2298 74.1735 54.2369 74.3846 53.3207 74.7239C47.6672 74.724 42.0139 74.724 36.3605 74.724ZM25.734 31.5101C34.2481 31.5101 42.6578 31.5101 51.1229 31.5101C51.0202 31.3176 50.9516 31.1793 50.8747 31.0458C49.4939 28.6536 48.1145 26.2605 46.7301 23.8705C45.4995 21.7456 43.5183 21.2082 41.4035 22.4289C36.3627 25.338 31.3244 28.2511 26.2857 31.1637C26.1246 31.2568 25.9699 31.3614 25.734 31.5101ZM54.2409 57.1676C54.2409 57.1689 54.2409 57.1699 54.2409 57.171C56.2548 57.171 58.2687 57.1737 60.2826 57.1699C61.3034 57.1681 61.7372 56.7429 61.7398 55.7401C61.7444 54.0026 61.7446 52.2651 61.7398 50.5276C61.7372 49.5489 61.3036 49.1084 60.3358 49.1076C56.308 49.1044 52.2801 49.1002 48.2524 49.1154C47.8257 49.117 47.3829 49.1905 46.9761 49.3197C45.1293 49.907 43.9497 51.7774 44.2159 53.6418C44.5019 55.6435 46.1339 57.1328 48.14 57.1614C50.1733 57.1902 52.2073 57.1676 54.2409 57.1676ZM16.9945 31.5532C18.1458 31.5532 19.1289 31.5911 20.1069 31.5366C20.5751 31.5105 21.0873 31.4028 21.4884 31.173C27.3425 27.8196 33.1813 24.4393 39.023 21.0642C39.1708 20.9789 39.3106 20.8795 39.5132 20.7486C38.458 19.6955 37.4423 18.6804 36.4252 17.6666C34.681 15.9279 32.6415 15.9213 30.9097 17.6506C28.9533 19.6042 26.9995 21.5604 25.0436 23.5145C22.4039 26.1516 19.7633 28.788 16.9945 31.5532Z" fill="url(#paint0_linear_1225_299)"/>
<path fill-rule="evenodd" clip-rule="evenodd" d="M31.0233 74.7245C30.9134 74.6474 30.8006 74.5742 30.694 74.4927C30.1069 74.0432 30.0285 73.2631 30.5158 72.7369C30.9868 72.2283 31.7704 72.2283 32.2421 72.7369C32.7296 73.2623 32.6512 74.0424 32.0639 74.4924C31.9574 74.574 31.8448 74.6473 31.735 74.7245C31.4977 74.7245 31.2605 74.7245 31.0233 74.7245Z" fill="url(#paint1_linear_1225_299)"/>
<path fill-rule="evenodd" clip-rule="evenodd" d="M49.1898 53.1212C49.1966 53.7791 48.7007 54.3015 48.0523 54.3191C47.3976 54.3369 46.8289 53.7768 46.8375 53.1226C46.8459 52.4906 47.3881 51.9559 48.0217 51.9551C48.67 51.9541 49.1831 52.4661 49.1898 53.1212Z" fill="url(#paint2_linear_1225_299)"/>
<defs>
<linearGradient id="paint0_linear_1225_299" x1="33.7514" y1="14" x2="33.7514" y2="74.724" gradientUnits="userSpaceOnUse">
<stop stop-color="#E02F8D"/>
<stop offset="1" stop-color="#0041A2"/>
</linearGradient>
<linearGradient id="paint1_linear_1225_299" x1="31.3791" y1="72.3555" x2="31.3791" y2="74.7245" gradientUnits="userSpaceOnUse">
<stop stop-color="#E02F8D"/>
<stop offset="1" stop-color="#0041A2"/>
</linearGradient>
<linearGradient id="paint2_linear_1225_299" x1="48.0136" y1="51.9551" x2="48.0136" y2="54.3195" gradientUnits="userSpaceOnUse">
<stop stop-color="#E02F8D"/>
<stop offset="1" stop-color="#0041A2"/>
</linearGradient>
</defs>
</svg>
