<svg width="24" height="24" viewBox="0 0 24 24" fill="none" xmlns="http://www.w3.org/2000/svg">
<path d="M22.6734 9.04049L22.7507 8.97705C23.0553 9.3482 23.1684 9.82671 23.0594 10.289L22.9621 10.2661L23.0594 10.289L20.7968 19.885C20.6276 20.6027 19.9747 21.1 19.215 21.1H4.78503C4.02525 21.1 3.37242 20.6027 3.20318 19.885L0.94057 10.2891L0.940569 10.2891C0.831591 9.82676 0.944675 9.34824 1.24931 8.97709L1.3265 9.04044L1.24931 8.97709C1.55937 8.59936 2.02389 8.38364 2.52243 8.38364H6.69465L8.96561 3.33454C9.1311 2.96649 9.56988 2.80152 9.94445 2.96043L22.6734 9.04049ZM22.6734 9.04049L22.7507 8.97704C22.4406 8.59936 21.9761 8.3836 21.4776 8.3836H17.3054L15.0344 3.33453C14.8689 2.96659 14.4302 2.80152 14.0556 2.96043C13.6795 3.11986 13.5044 3.54786 13.6707 3.91752L15.6794 8.38364H8.32057L10.3293 3.91751L10.2381 3.87649M22.6734 9.04049L10.2381 3.87649M10.2381 3.87649L10.3293 3.91751C10.4955 3.54786 10.3205 3.11992 9.94446 2.96044L10.2381 3.87649ZM2.41191 9.88414L2.41204 9.88399C2.42619 9.86672 2.4595 9.83528 2.52243 9.83528H6.04176L5.93636 10.0696L5.93636 10.0696C5.77013 10.4393 5.94518 10.8672 6.32122 11.0267C6.41783 11.0677 6.51862 11.0871 6.61786 11.0871C6.90297 11.0871 7.17704 10.9261 7.30005 10.6527L7.66768 9.83536H16.3324L16.7 10.6527C16.823 10.9262 17.0971 11.0871 17.3822 11.0871C17.4814 11.0871 17.5822 11.0677 17.6789 11.0267C18.0549 10.8673 18.23 10.4393 18.0637 10.0696L17.9583 9.83528H21.4777C21.5406 9.83528 21.5739 9.86672 21.588 9.88399L21.5881 9.88403C21.6042 9.90373 21.6164 9.92917 21.6083 9.96381L19.3457 19.5597C19.3352 19.6039 19.2852 19.6483 19.215 19.6483H4.78503C4.71482 19.6483 4.66485 19.6039 4.65441 19.5597L2.39181 9.96388C2.39181 9.96387 2.39181 9.96387 2.39181 9.96386C2.38362 9.92907 2.39586 9.90364 2.41191 9.88414Z" fill="white" stroke="white" stroke-width="0.2"/>
<path d="M8 11.9C7.70759 11.9 7.4382 11.976 7.23882 12.1042C7.04052 12.2317 6.9 12.4198 6.9 12.6429V17.3571C6.9 17.5802 7.04052 17.7683 7.23882 17.8958C7.4382 18.024 7.70759 18.1 8 18.1C8.29241 18.1 8.5618 18.024 8.76118 17.8958C8.95948 17.7683 9.1 17.5802 9.1 17.3571V12.6429C9.1 12.4198 8.9595 12.2317 8.7612 12.1042C8.56184 11.976 8.29244 11.9 8 11.9Z" fill="white" stroke="white" stroke-width="0.2"/>
<path d="M12 11.9C11.7076 11.9 11.4382 11.976 11.2388 12.1042C11.0405 12.2317 10.9 12.4198 10.9 12.6429V17.3571C10.9 17.5802 11.0405 17.7683 11.2388 17.8958C11.4382 18.024 11.7076 18.1 12 18.1C12.2924 18.1 12.5618 18.024 12.7612 17.8958C12.9595 17.7683 13.1 17.5802 13.1 17.3571V12.6429C13.1 12.4198 12.9595 12.2317 12.7612 12.1042C12.5618 11.976 12.2924 11.9 12 11.9Z" fill="white" stroke="white" stroke-width="0.2"/>
<path d="M17.1 12.6429V12.6428C17.1 12.4198 16.9594 12.2317 16.7612 12.1042C16.5618 11.976 16.2924 11.9 16 11.9C15.7076 11.9 15.4382 11.976 15.2388 12.1042C15.0405 12.2317 14.9 12.4198 14.9 12.6429V17.3571C14.9 17.5802 15.0405 17.7683 15.2388 17.8958C15.4382 18.024 15.7076 18.1 16 18.1C16.2924 18.1 16.5618 18.024 16.7612 17.8958C16.9595 17.7683 17.1 17.5802 17.1 17.3571V12.6429Z" fill="white" stroke="white" stroke-width="0.2"/>
</svg>
