<svg width="29" height="26" viewBox="0 0 29 26" fill="none" xmlns="http://www.w3.org/2000/svg">
<path fill-rule="evenodd" clip-rule="evenodd" d="M0.0583496 9.88228C0.0583496 9.46105 0.0583496 9.03988 0.0583496 8.61862C0.0743096 8.5303 0.0966296 8.44258 0.10524 8.35357C0.25995 6.75511 0.7581 5.27736 1.71558 3.98094C3.06969 2.14758 4.88568 1.08579 7.16274 0.863642C9.72621 0.613561 11.812 1.56561 13.5089 3.4524C13.72 3.68718 13.9155 3.93597 14.1056 4.16322C14.5238 3.71103 14.8983 3.24513 15.3336 2.84532C17.4739 0.879182 19.9714 0.320881 22.7153 1.20918C25.5344 2.12181 27.1801 4.17915 27.9084 7.00381C28.0444 7.53112 28.0974 8.07982 28.1886 8.61862C28.1886 9.03988 28.1886 9.46105 28.1886 9.88228C28.1747 9.94402 28.1534 10.005 28.1481 10.0675C28.004 11.738 27.3983 13.2404 26.492 14.6345C25.5369 16.1033 24.3716 17.3983 23.0726 18.5577C20.4913 20.8615 17.871 23.122 15.2573 25.3893C14.5185 26.0301 13.6963 25.9996 12.9257 25.3372C10.9195 23.6126 8.91162 21.8898 6.91665 20.1522C5.23737 18.6896 3.60801 17.1744 2.27064 15.3789C1.39494 14.2033 0.69417 12.9342 0.34749 11.4978C0.21936 10.9669 0.15291 10.4212 0.0583496 9.88228Z" fill="url(#paint0_linear_1225_195)"/>
<defs>
<linearGradient id="paint0_linear_1225_195" x1="14.1235" y1="0.79895" x2="14.1235" y2="25.8524" gradientUnits="userSpaceOnUse">
<stop stop-color="#EC3C99"/>
<stop offset="1" stop-color="#1A75FF"/>
</linearGradient>
</defs>
</svg>
