<svg width="30" height="26" viewBox="0 0 30 26" fill="none" xmlns="http://www.w3.org/2000/svg">
<path fill-rule="evenodd" clip-rule="evenodd" d="M29.0599 9.4666C28.9419 10.055 28.8634 10.6548 28.6985 11.2298C28.1454 13.1584 27.0971 14.8223 25.8533 16.3712C23.6727 19.0869 21.0511 21.3253 18.2363 23.348C17.3914 23.9552 16.5087 24.5093 15.6474 25.0937C15.2362 25.3727 14.8474 25.3632 14.4256 25.0969C10.8228 22.8221 7.49082 20.2219 4.69599 16.9819C3.30924 15.3743 2.121 13.6352 1.46031 11.5931C1.26222 10.9807 1.17282 10.3332 1.03377 9.70177C1.01652 9.6235 1.00032 9.54499 0.983643 9.46657C0.983643 9.04615 0.983643 8.62579 0.983643 8.20534C1.02585 7.94512 1.0569 7.68256 1.11198 7.42516C1.78998 4.25629 3.63807 2.07386 6.7386 1.12478C9.79566 0.189108 12.5211 0.943907 14.8462 3.13669C14.9036 3.19078 14.9639 3.24176 15.0277 3.29848C15.0828 3.24733 15.1233 3.21148 15.1619 3.17377C16.9999 1.37843 19.1945 0.569868 21.7601 0.794087C24.9766 1.0751 27.8475 3.45136 28.723 6.57814C28.8768 7.1272 28.9497 7.69891 29.0599 8.26021C29.0599 8.66233 29.0599 9.06448 29.0599 9.4666ZM2.73861 8.83873C2.71431 8.84335 2.69004 8.84794 2.66574 8.85256C2.7912 9.51328 2.868 10.1878 3.05142 10.832C3.54033 12.5493 4.50612 14.0127 5.62719 15.3734C8.25144 18.5586 11.4694 21.057 14.8945 23.3095C14.9591 23.352 15.1051 23.3408 15.1745 23.2954C17.9886 21.4565 20.6398 19.4135 22.9819 16.9911C24.2754 15.6533 25.4434 14.2163 26.3001 12.5521C27.0459 11.1035 27.4818 9.58528 27.2386 7.93453C26.8619 5.37775 24.9773 3.31009 22.4602 2.68361C19.9821 2.06687 17.3601 3.0161 15.8276 5.08489C15.3344 5.75068 14.7195 5.74564 14.2148 5.09533C12.7458 3.20239 10.8121 2.32601 8.42238 2.55293C5.21616 2.85743 2.74335 5.61277 2.73861 8.83873Z" fill="#2D2D2D"/>
</svg>
